<?xml version="1.0" encoding="UTF-8"?>
<svg width="154px" height="137px" viewBox="0 0 154 137" version="1.1" xmlns="http://www.w3.org/2000/svg" xmlns:xlink="http://www.w3.org/1999/xlink">
    <title>ski-life-logo</title>
    <defs>
        <polygon id="path-1" points="0 27.6753714 0 59 12.4659585 51.7042418 40.0218496 24.4588433 49.4223402 30.2510745 65.167572 21.2409372 103 53.849972 103 36.0433057 37.6144577 0"></polygon>
        <path d="M62.241051,0.523071107 L3.06926922,33.7079361 C1.31758747,34.8003554 2.47149473e-15,37.1997513 2.47149473e-15,39.1658255 L2.47149473e-15,39.1658255 L2.47149473e-15,59.9063662 C2.47149473e-15,61.871038 1.31758747,62.5245264 2.85222208,61.4349118 L2.85222208,61.4349118 L46.8988788,29.1237017 C48.4335134,28.0312825 51.0631231,28.0312825 52.5935837,29.1237017 L52.5935837,29.1237017 L54.3508308,30.4348853 C55.884074,31.5259022 58.2938539,31.3099426 59.8270971,30.0015637 L59.8270971,30.0015637 L70.1298798,20.3927614 C71.6645144,18.8642159 73.6346347,19.0801755 74.7296096,20.8288878 L74.7296096,20.8288878 L101.031271,60.9959808 C102.126246,62.5245264 103,62.3085668 103,60.3424925 L103,60.3424925 L103,37.419918 C103,35.4580507 101.905025,32.6183215 100.37039,31.3057356 L100.37039,31.3057356 L67.9357557,1.18216874 C67.1468729,0.39405625 65.8835472,0 64.6216129,0 L64.6216129,0 C63.7812509,0 62.9408888,0.175291925 62.241051,0.523071107 L62.241051,0.523071107 Z" id="path-3"></path>
    </defs>
    <g id="Page-1" stroke="none" stroke-width="1" fill="none" fill-rule="evenodd">
        <g id="ski-life-logo" transform="translate(26, 0)">
            <polygon id="Fill-1" fill="#55C2E4" fill-rule="nonzero" points="38.1951398 0 0 54.3428466 0 67.154828 37.3297973 41.5349954 49.4832355 47.7138233 66.84529 33.5732838 102 74 102 55.6631442 64.6715828 7.95345117 55.3418937 16.7907721"></polygon>
            <polygon id="Fill-2" fill="#55C2E4" fill-rule="nonzero" points="0 54.3428466 0 67.154828 37.3297973 41.5349954 49.4832355 47.7124465 66.84529 33.5732838 102 74 102 55.6617675 64.6715828 7.95207442 55.3432739 16.7907721 38.1951398 0"></polygon>
            <polygon id="Fill-13" fill="#55C2E4" fill-rule="nonzero" points="12.4673469 97.7054495 40.0218496 70.4580365 49.4223402 76.2504029 65.1689603 67.2414332 103 99.8512298 103 82.0427694 37.6144577 46 0 73.6760178 0 105"></polygon>
            <g id="Fill-15-Clipped" transform="translate(0, 46)">
                <mask id="mask-2" fill="white">
                    <use xlink:href="#path-1"></use>
                </mask>
                <g id="path-5"></g>
                <polygon id="Fill-15" fill="#55C2E4" fill-rule="nonzero" mask="url(#mask-2)" points="-3.109895 62.0856068 106.108507 62.0856068 106.108507 -3.08698496 -3.109895 -3.08698496"></polygon>
            </g>
            <path d="M2.85086925,136.433507 C1.31621392,137.524529 0,136.871038 0,134.904952 L0,114.165698 C0,112.199612 1.31621392,109.800203 3.06791933,108.707778 L62.2405004,75.5227263 C63.9922058,74.6518711 66.6218509,74.8678319 67.9352821,76.1804253 L100.370355,106.305564 C101.90501,107.616754 103,110.457902 103,112.41978 L103,135.342484 C103,137.308569 102.126234,137.524529 101.031244,135.995975 L74.7292278,95.828657 C73.6342379,94.0799349 71.6640911,93.8625716 70.130827,95.3911258 L59.8279053,105.001384 C58.29325,106.308368 55.8834375,106.525731 54.3501736,105.434708 L52.5929028,104.122115 C51.0624215,103.031092 48.4327763,103.031092 46.898121,104.122115 L2.85086925,136.433507 Z" id="Fill-18" fill="#55C2E4" fill-rule="nonzero"></path>
            <g id="Fill-20-Clipped" transform="translate(0, 75)">
                <mask id="mask-4" fill="white">
                    <use xlink:href="#path-3"></use>
                </mask>
                <g id="path-7"></g>
                <polygon id="Fill-20" fill="#55C2E4" fill-rule="nonzero" mask="url(#mask-4)" points="-3.11518303 65.1412842 106.116574 65.1412842 106.116574 -3.48760815 -3.11518303 -3.48760815"></polygon>
            </g>
        </g>
    </g>
</svg>