<?xml version="1.0" encoding="utf-8"?>
<!-- Generator: Adobe Illustrator 15.1.0, SVG Export Plug-In . SVG Version: 6.00 Build 0)  -->
<!DOCTYPE svg PUBLIC "-//W3C//DTD SVG 1.1//EN" "http://www.w3.org/Graphics/SVG/1.1/DTD/svg11.dtd">
<svg version="1.1" id="Layer_1" xmlns="http://www.w3.org/2000/svg" xmlns:xlink="http://www.w3.org/1999/xlink" x="0px" y="0px"
	 width="404px" height="23px" viewBox="0 0 404 23" enable-background="new 0 0 404 23" xml:space="preserve">
<title>icona 7</title>
<path fill="#B3B3B3" d="M2,2.703h2.811V19.36H2V2.703z"/>
<path fill="#B3B3B3" d="M15.743,16.549v2.812H6.789V2.703H9.6v13.846H15.743z"/>
<path fill="#B3B3B3" d="M36.461,7.596c0,4.894-5.622,4.894-5.622,4.894h-2.811v6.975h-2.811V2.703h5.622
	C30.839,2.703,36.461,2.703,36.461,7.596z M33.65,7.596c0-2.083-2.811-2.083-2.811-2.083h-2.811v4.165h2.811
	C30.839,9.678,33.65,9.678,33.65,7.596z"/>
<path fill="#B3B3B3" d="M65.821,19.36l-4.373-6.976h-1.562v6.976h-2.811V9.678h2.604l-2.604-4.165V2.703h5.518
	c0,0,5.622,0,5.622,4.893c0,2.915-2.082,4.165-3.644,4.581l4.477,7.287h-3.228V19.36z M63.01,9.678
	c0.729-0.104,2.395-0.417,2.395-2.082c0-2.083-2.812-2.083-2.812-2.083h-2.291L63.01,9.678z"/>
<path fill="#B3B3B3" d="M78.73,5.513h-2.81V19.36h-2.812V5.513h-2.811V2.703h8.329v2.811H78.73z"/>
<path fill="#B3B3B3" d="M91.12,19.36h-3.019l-0.521-1.354h-6.247l-0.521,1.354h-3.02l6.663-16.658L91.12,19.36z M86.54,15.196
	l-1.978-4.998l-1.979,4.998H86.54z"/>
<path fill="#B3B3B3" d="M102.156,16.549v2.812h-8.953V2.703h2.811v13.846H102.156z"/>
<path fill="#B3B3B3" d="M107.153,5.513v4.165h6.976v2.812h-6.976v4.163h8.329v2.812h-11.14V2.807h11.14v2.811h-8.329V5.513z"/>
<path fill="#B3B3B3" d="M134.743,11.031c0,8.329-9.682,8.329-9.682,8.329h-2.811V2.703h2.811
	C125.061,2.703,134.743,2.703,134.743,11.031z M131.933,11.031c0-5.518-6.976-5.518-6.976-5.518v11.139
	C125.061,16.549,131.933,16.549,131.933,11.031z"/>
<path fill="#B3B3B3" d="M139.012,5.513v4.165h6.976v2.812h-6.976v4.163h8.329v2.812h-11.14V2.807h11.14v2.811h-8.329V5.513z"/>
<path fill="#B3B3B3" d="M157.752,16.549v2.812h-8.954V2.703h2.811v13.846H157.752z"/>
<path fill="#B3B3B3" d="M168.892,16.549v2.812h-8.954V2.703h2.811v13.846H168.892z"/>
<path fill="#B3B3B3" d="M170.454,8.845c0-3.436,2.811-6.247,6.247-6.247c3.436,0,6.247,2.811,6.247,6.247
	c0,3.437-2.811,6.247-6.247,6.247C173.265,15.092,170.454,12.281,170.454,8.845z M182.01,19.36h-11.036v-2.812h11.036V19.36z
	 M173.161,8.845c0,1.874,1.562,3.437,3.436,3.437c1.875,0,3.436-1.562,3.436-3.437c0-1.874-1.561-3.436-3.436-3.436
	C174.723,5.409,173.161,6.971,173.161,8.845z"/>
<path fill="#55C2E4" d="M190.131,14.467h2.811c0,1.353,1.146,2.082,2.395,2.082c1.25,0,2.394-0.729,2.394-2.082
	c0-1.457-1.354-2.082-2.394-2.082c-0.104,0-1.249,0-2.499-0.521c-1.77-0.833-2.707-2.291-2.707-4.269
	c0-2.915,2.499-4.893,5.206-4.893c2.915,0,5.102,1.978,5.206,4.893h-2.812c0-1.354-1.145-2.083-2.394-2.083
	c-1.354,0-2.395,0.729-2.395,2.083s1.146,2.082,2.395,2.082c0.104,0,1.25,0,2.498,0.521c1.771,0.833,2.708,2.291,2.708,4.269
	c0,3.02-2.499,4.894-5.206,4.894C192.525,19.256,190.235,17.382,190.131,14.467z"/>
<path fill="#55C2E4" d="M213.244,14.988l1.979,1.978c-1.458,1.458-3.541,2.395-5.935,2.395c-4.581,0-8.329-3.748-8.329-8.329
	s3.748-8.329,8.329-8.329c2.291,0,4.373,0.937,5.935,2.499l-1.979,1.978c-1.041-1.041-2.394-1.666-3.956-1.666
	c-3.123,0-5.518,2.499-5.518,5.518c0,3.02,2.499,5.518,5.518,5.518C210.85,16.549,212.203,15.926,213.244,14.988z"/>
<path fill="#55C2E4" d="M216.575,2.703h2.812V19.36h-2.812V2.703z"/>
<g>
	<g>
		<path fill="#55C2E4" d="M54.889,6.555l-0.937-0.521l-2.395,1.249v-1.77l-0.625-0.312l-0.625,0.312V8.22l-1.666,0.833V7.179
			l-1.666,0.937v-1.77l2.499-1.249V4.264l-0.833-0.417l-1.562,0.833V2.078l-0.833-0.521l-0.833,0.521v2.603l-1.354-0.833
			l-0.729,0.417v0.937l2.083,1.249v1.77l-1.666-0.937v1.77l-1.562-0.937V5.618l-0.833-0.521L40.73,5.618v1.666l-2.291-1.249
			L37.502,6.45v1.042l2.291,1.249l-1.458,0.833v0.937l0.833,0.417l2.083-1.25l1.458,0.833l-1.458,0.937l1.562,0.937l0,0
			l-1.458,0.938l-2.187-1.25l-0.937,0.521v0.938l1.562,0.729l-2.291,1.354v1.04l1.041,0.417l2.291-1.25v1.667l0.521,0.417
			l0.729-0.521v-2.498l1.666-0.833v1.769l1.666-1.04v1.77l-2.083,1.25v0.936l0.729,0.418l1.458-0.833v2.604l0.833,0.52l0.833-0.52
			v-2.604l1.458,0.833l0.729-0.312v-1.042l-2.082-1.25v-1.77l1.666,0.937v-1.665l1.666,0.938v2.394l0.625,0.417l0.312-0.417v-1.666
			l2.29,1.25l1.041-0.417v-1.041l-2.186-1.354l1.354-0.729v-0.936l-0.729-0.521l-2.186,1.249l-1.562-0.833l1.562-0.937l-1.458-0.937
			l1.458-0.937l2.186,1.25l0.729-0.417V9.47l-1.458-0.625l2.29-1.249V6.555z M47.081,12.697h-1.458l-0.729-1.25l0.729-1.25h1.458
			l0.729,1.25L47.081,12.697z"/>
	</g>
</g>
<path fill="#B3B3B3" d="M227.403,2.703h2.812V19.36h-2.812V2.703z"/>
<path fill="#B3B3B3" d="M246.143,19.36h-2.811l-8.329-11.869V19.36h-2.812V2.703h2.812l8.329,11.868V2.703h2.811V19.36z"/>
<path fill="#B3B3B3" d="M266.758,2.703l-6.663,16.658l-6.663-16.658h3.019l3.645,9.162l3.645-9.162H266.758z"/>
<path fill="#B3B3B3" d="M276.648,19.36h-3.02l-0.521-1.354h-6.246l-0.521,1.354h-3.02l6.664-16.658L276.648,19.36z M271.963,15.196
	l-1.978-4.998l-1.979,4.998H271.963z"/>
<path fill="#B3B3B3" d="M287.684,16.549v2.812h-8.953V2.703h2.811v13.846H287.684z"/>
<path fill="#B3B3B3" d="M298.824,16.549v2.812h-8.953V2.703h2.811v13.846H298.824z"/>
<path fill="#B3B3B3" d="M303.821,5.513v4.165h6.977v2.812h-6.977v4.163h8.329v2.812h-11.139V2.807h11.139v2.811h-8.329V5.513z"/>
<path fill="#B3B3B3" d="M331.411,11.031c0,8.329-9.683,8.329-9.683,8.329h-2.811V2.703h2.811
	C321.729,2.703,331.411,2.703,331.411,11.031z M328.601,11.031c0-5.518-6.976-5.518-6.976-5.518v11.139
	C321.729,16.549,328.601,16.549,328.601,11.031z"/>
<path fill="#B3B3B3" d="M332.869,2.703h2.811v4.164h-2.811V2.703z"/>
<path fill="#B3B3B3" d="M350.881,19.36h-3.021l-0.52-1.354h-6.247l-0.521,1.354h-3.019l6.663-16.658L350.881,19.36z M346.196,15.196
	l-1.979-4.998l-1.978,4.998H346.196z"/>
<path fill="#B3B3B3" d="M367.851,11.031c0,4.581-3.748,8.329-8.328,8.329c-4.582,0-8.329-3.748-8.329-8.329s3.747-8.329,8.329-8.329
	C364.103,2.703,367.851,6.45,367.851,11.031z M365.039,11.031c0-3.124-2.498-5.518-5.517-5.518c-3.021,0-5.519,2.499-5.519,5.518
	c0,3.02,2.498,5.518,5.519,5.518C362.541,16.549,365.039,14.051,365.039,11.031z M359.522,8.429c-1.458,0-2.604,1.145-2.604,2.603
	c0,1.458,1.146,2.603,2.604,2.603c1.457,0,2.602-1.145,2.602-2.603C362.124,9.574,360.979,8.429,359.522,8.429z"/>
<path fill="#B3B3B3" d="M369.829,14.467h2.811c0,1.353,1.146,2.082,2.395,2.082c1.25,0,2.395-0.729,2.395-2.082
	c0-1.457-1.354-2.082-2.395-2.082c-0.104,0-1.248,0-2.499-0.521c-1.77-0.833-2.706-2.291-2.706-4.269
	c0-2.915,2.499-4.893,5.205-4.893c2.915,0,5.102,1.978,5.206,4.893h-2.812c0-1.354-1.145-2.083-2.395-2.083
	c-1.354,0-2.395,0.729-2.395,2.083s1.146,2.082,2.395,2.082c0.104,0,1.25,0,2.498,0.521c1.771,0.833,2.708,2.291,2.708,4.269
	c0,3.02-2.498,4.894-5.206,4.894C372.224,19.256,369.933,17.382,369.829,14.467z"/>
<path fill="#B3B3B3" d="M389.61,5.513h-2.812V19.36h-2.812V5.513h-2.811V2.703h8.33v2.811H389.61z"/>
<path fill="#B3B3B3" d="M402,19.36h-3.02l-0.521-1.354h-6.247l-0.521,1.354h-3.02l6.663-16.658L402,19.36z M397.314,15.196
	l-1.979-4.998l-1.978,4.998H397.314z"/>
</svg>
