<?xml version="1.0" encoding="UTF-8"?>
<svg width="44px" height="56px" viewBox="0 0 44 56" version="1.1" xmlns="http://www.w3.org/2000/svg" xmlns:xlink="http://www.w3.org/1999/xlink">
    <title>Group 3</title>
    <defs>
        <polygon id="path-1" points="0 0 44 0 44 56 0 56"></polygon>
    </defs>
    <g id="Page-1" stroke="none" stroke-width="1" fill="none" fill-rule="evenodd">
        <g id="Desktop_Comprensorio" transform="translate(-1137, -1063)">
            <g id="MAIN-INFO" transform="translate(1121, 803)">
                <g id="Group-3" transform="translate(16, 260)">
                    <mask id="mask-2" fill="white">
                        <use xlink:href="#path-1"></use>
                    </mask>
                    <g id="Clip-2"></g>
                    <path d="M19.9963751,10.2249139 C20.2230732,9.16213973 21.085404,8.41298003 22.1140532,8.40254452 C22.1414985,8.40144604 22.1689437,8.4008968 22.1969379,8.4008968 C22.889108,8.4008968 23.6658095,8.69583725 24.1120698,9.13357939 C24.390365,9.4060011 24.5226512,9.70643392 24.5177111,10.051355 L24.5177111,10.0777183 C24.5440585,11.43763 22.3939951,11.8539518 21.9131537,11.933042 C21.3400962,12.0643097 20.7659409,11.9138187 20.3762178,11.532648 C20.0282116,11.1915716 19.8937298,10.7252691 19.9963751,10.2249139 M18.2096872,43.7311367 C18.9540033,43.7311367 19.7043573,43.7272921 20.4547113,43.7234474 C20.3619463,44.194693 20.2922353,44.6912036 20.2593009,45.2442855 C20.2521652,45.9670819 20.3070557,46.6453899 20.4113478,47.2995316 C20.1604979,47.2753652 19.8843984,47.2017674 19.5918316,47.1215787 C19.3354927,47.0512763 19.0709202,46.978777 18.7492614,46.9249517 C17.4335346,46.7761084 16.145253,46.9793262 14.9140576,47.5324082 C14.6341157,47.6581836 14.4546235,47.9360977 14.4546235,48.2425721 L14.4546235,48.3914154 C14.4546235,48.689102 14.6242354,48.9609745 14.8915524,49.0911437 C15.4580231,49.3674101 16.0557813,49.5437153 16.84895,49.6661952 C17.4609798,49.7458346 18.1136287,49.8150385 18.7920761,49.7035434 C19.0703713,49.6557597 19.3349438,49.5832604 19.5901849,49.5135072 C19.8937298,49.4300232 20.1813563,49.3514822 20.4580048,49.3289635 C20.5749217,49.316331 20.6945831,49.316331 20.8158913,49.3196265 C20.8274183,49.4794545 20.8301628,49.6326917 20.8153424,49.7787889 C20.7955818,49.9940899 20.7192839,50.2434436 20.6385947,50.508176 C20.567237,50.7405034 20.4936836,50.9810694 20.4371464,51.2869945 C20.3553594,51.9296022 20.3800602,52.565619 20.503015,53.1895526 C18.6630833,53.095633 16.7957062,53.0061074 15.0051759,52.9577745 C14.5638557,52.9396496 14.0961881,52.9369035 13.6158957,52.9369035 C13.5231306,52.9369035 13.4298166,52.9369035 13.3359538,52.9369035 C11.9334998,52.9391004 10.4986604,52.9396496 9.32015993,52.6150504 C6.03880187,51.8400765 3.31074072,49.1394766 2.53349029,45.9017226 C2.34850909,45.0954422 2.3013032,44.2671923 2.28648275,43.4081852 C7.3984412,43.62074 12.7091035,43.7311367 18.2096872,43.7311367 M8.3184071,22.8090394 C8.4155634,22.6168064 8.53028468,22.4333611 8.66806,22.2674915 C9.13078748,21.7105648 9.76148009,21.3876133 10.4448676,21.3552083 C11.4943753,21.3942041 12.5713282,21.465605 13.6131511,21.5348089 C15.1939995,21.639164 16.8280916,21.7473637 18.419918,21.7495607 C20.9640958,21.8248062 23.5324254,21.6177437 26.013479,21.4172721 C28.2156885,21.2393192 30.4991361,21.0558739 32.7134216,21.0756465 L32.7205573,21.0756465 C32.7238508,21.0756465 32.7298887,21.0750972 32.7348289,21.0756465 C33.5274487,21.0756465 34.2454173,21.419469 34.7564484,22.0445011 C34.8964194,22.2158631 35.0111407,22.4048008 35.108297,22.6025262 C26.7632841,22.5168452 17.7969101,22.5860491 8.3184071,22.8090394 M6.21664731,25.6326685 C6.33740655,25.7178003 6.47518187,25.7793149 6.63216889,25.784258 L6.92034437,25.7935951 C8.01705789,25.8424772 9.1137714,25.8941055 10.2115827,25.9457338 C15.1912549,26.1802581 20.2675345,26.4191764 25.3586346,26.4191764 C29.1164427,26.4191764 32.8835823,26.2890071 36.6227277,25.9303551 L37.0832596,25.8886131 C37.1397968,25.88367 37.1946874,25.8715868 37.2468334,25.8551096 C38.447839,25.8369848 39.6867191,25.8161138 40.9755496,25.7919473 C41.1061892,30.2122093 41.3219091,35.9726103 41.5178684,40.3231191 C36.3790136,40.2061316 29.6483323,40.2940096 24.1773896,40.3659597 L21.8028237,40.3972662 C19.1137348,40.4401067 16.2742458,40.5378709 13.5280708,40.6323398 C9.79880567,40.7608613 5.96360179,40.8849889 2.32161271,40.8904813 C2.21896735,35.5145464 2.32325943,30.0155823 2.44511648,25.5261165 C3.61318774,25.5645631 4.88719779,25.5997143 6.21664731,25.6326685 M40.8471057,43.5460437 C40.8778444,44.4824934 40.886078,45.4716698 40.7027435,46.1713981 C40.6967055,46.1939169 40.6917654,46.2169848 40.6879231,46.2400528 C40.0067311,50.3066059 36.1248703,53.5855527 32.0119201,53.5855527 C31.9861215,53.5855527 31.9597741,53.5855527 31.9339755,53.5850035 C31.9284865,53.5850035 31.9240952,53.5850035 31.9202529,53.5850035 C29.0769215,53.606973 26.071663,53.4735083 23.1163549,53.3230173 C23.1372133,53.2225069 23.1575228,53.120898 23.1734411,53.0291753 C23.255228,52.4716994 23.325488,51.8752277 23.2096689,51.2386617 C23.1608163,50.9810694 23.0872629,50.7405034 23.0159052,50.508176 C22.935216,50.2434436 22.8589182,49.9940899 22.8369619,49.7579178 C22.8336685,49.7315545 22.8369619,49.7035434 22.8347663,49.67718 C23.1311754,49.7337514 23.4330735,49.7804366 23.744303,49.7963645 C24.2438071,49.8545836 24.7323332,49.8836932 25.2109789,49.8836932 C26.6227643,49.8836932 27.9522138,49.6288471 29.2410443,49.1147609 C29.5369045,48.9966749 29.7301193,48.709973 29.7301193,48.3914154 L29.7301193,48.2425721 C29.7301193,47.9289576 29.5423935,47.6455511 29.2531202,47.5247189 C27.8890897,46.9535121 26.5673248,46.8101611 25.5265997,46.7475481 C24.7488004,46.7464496 24.0099733,46.7969794 23.3013361,46.8936452 C23.301885,46.8810128 23.3040806,46.8683803 23.3046296,46.8557478 C23.4566764,45.7473869 23.4166063,44.7115253 23.1964951,43.7003794 C25.5282464,43.674016 27.886894,43.6311755 30.2773782,43.5680132 C34.5456687,43.6026152 38.046589,43.5954751 40.8471057,43.5460437 M43.7881422,40.6081733 C43.6750677,40.4884396 43.5268631,40.4104479 43.3665827,40.3796906 C43.5307055,36.6437783 43.7058064,32.151017 43.8315058,28.8858012 L43.9714767,23.5340327 C43.9769658,23.326421 43.8990212,23.1254001 43.7557568,22.9760076 C43.6119435,22.8260658 43.4154353,22.7392863 43.207949,22.7354416 L42.4575949,22.7217107 C40.7960575,22.6843626 39.1032324,22.6541545 37.3862555,22.6305373 C37.1178406,21.9500323 36.713846,21.3206063 36.1874455,20.7911415 C35.2323496,19.8288777 33.9923718,19.3103977 32.7073836,19.3466474 C30.4711419,19.3658707 28.2003192,19.1835239 25.9953651,19.0044725 C25.1220562,18.9341701 24.2366714,18.8671632 23.3479931,18.8078456 C23.6943526,17.4660588 23.7064285,16.0380418 23.3770851,14.6957057 C23.4786326,14.6660469 23.5790824,14.6319942 23.6795321,14.5924491 C25.303744,13.9503907 26.3049479,12.1758049 26.2368836,10.0667336 C26.286834,8.88916878 25.9646264,7.73741812 25.3635747,6.8525968 C25.8976599,6.73506001 26.4300984,6.61203085 26.9532055,6.47417228 C32.361573,5.21037721 37.1354056,3.63131991 41.5453137,1.64692547 C41.892771,1.49094207 42.0761055,1.10592671 41.9784003,0.737937701 L41.9366834,0.579757353 C41.8373315,0.204079025 41.467918,-0.0414300575 41.0919176,0.00580435211 C38.0998328,0.366104035 34.9908312,0.983446784 30.9958957,2.01106981 C27.4417315,2.99914775 24.2630188,4.03720629 21.2808144,5.18456305 C21.2390975,5.20049093 21.201223,5.21312339 21.1595062,5.22905128 C20.6687846,5.32846323 20.2137418,5.49598061 19.8015136,5.72281563 C18.6367358,6.12870201 17.5718588,6.45110432 16.5377205,6.70595043 C15.6265371,6.93333468 14.6675989,7.10085207 13.7410462,7.26287708 C13.0280177,7.38755395 12.2908374,7.51607548 11.5514615,7.67645278 C8.11695872,8.48822554 4.83669846,9.62240061 1.80179904,11.0471222 C1.45434176,11.2096965 1.27759413,11.6013027 1.38517964,11.9698409 L1.43128772,12.1280213 C1.52844402,12.4625068 1.83473338,12.6887926 2.17725052,12.6887926 C2.20140237,12.6887926 2.22500531,12.6876941 2.24970607,12.6849479 C4.03913853,12.5201767 5.770387,12.1758049 7.35123531,11.8336301 C10.0019008,11.3442596 12.52028,10.4067115 14.9546766,9.49992068 C15.6792321,9.22969592 16.4026897,8.96056964 17.1085824,8.70956818 C17.2946614,8.64970131 17.4856806,8.60081919 17.6734063,8.54534622 C17.3094819,10.1117711 17.7848342,11.803422 18.9874865,13.0952282 C19.5556039,13.7499191 20.1939812,14.2217139 20.8598037,14.511162 C20.4936836,15.8644828 20.4695318,17.3144693 20.7994241,18.681521 C20.0100978,18.6590023 19.2218692,18.6485667 18.4363852,18.6710855 C16.59316,18.6859149 14.7301742,18.808944 12.9292147,18.9281285 C12.3698798,18.9649274 11.8110938,19.0017263 11.2665794,19.0352298 C10.5557466,19.0643394 9.80594145,19.1302479 9.15768386,19.4032188 C7.61800347,19.9996906 6.54269727,21.2530501 6.09753478,22.8639632 C4.48649665,22.9057052 2.86393151,22.9507427 1.22489919,23.0012725 L0.755035941,23.0150034 C0.32853624,23.0276359 -0.00794293277,23.381894 0.000142718926,23.8086514 L0.0096220485,24.2645184 C0.226988692,31.201935 0.269803334,37.0815205 0.139712691,42.248196 L0.135321446,42.5694998 C0.133674729,42.678798 0.155630955,42.7831531 0.195701069,42.8787204 C0.175940465,44.2364351 0.166060163,45.6358918 0.516810883,46.9782278 C1.62450251,52.1723651 6.49000233,56 11.7523609,56 C12.0185802,56 12.2858972,55.9901137 12.5532143,55.9703412 C15.5897604,55.9593564 18.7525549,55.796233 21.8121551,55.6386018 C25.1610285,55.4666906 28.6279167,55.2854422 31.9175083,55.3096087 C31.9734967,55.3101579 32.0294851,55.3107072 32.0849246,55.3107072 C37.2051166,55.3107072 42.0662252,51.7153997 43.4324514,46.9095731 C43.8907876,45.4864992 43.9242708,44.0068539 43.9566563,42.5760906 L43.9994709,41.1700431 C44.0071556,40.9618821 43.9308577,40.7597628 43.7881422,40.6081733" id="Fill-1" fill="#8D98A8" mask="url(#mask-2)"></path>
                </g>
            </g>
        </g>
    </g>
</svg>