<?xml version="1.0" encoding="UTF-8"?>
<svg width="102px" height="70px" viewBox="0 0 102 70" version="1.1" xmlns="http://www.w3.org/2000/svg" xmlns:xlink="http://www.w3.org/1999/xlink">
    <title>illustrazione crevacol</title>
    <defs>
        <polygon id="path-1" points="0 0 102 0 102 70 0 70"></polygon>
    </defs>
    <g id="Page-1" stroke="none" stroke-width="1" fill="none" fill-rule="evenodd">
        <g id="Box-crevacol" transform="translate(-129.3787, -249)">
            <g id="illustrazione-crevacol" transform="translate(129.3787, 249)">
                <mask id="mask-2" fill="white">
                    <use xlink:href="#path-1"></use>
                </mask>
                <g id="Clip-2"></g>
                <path d="M70.3332305,57.447656 C69.2812058,57.4527119 66.4730456,57.4510266 65.4674095,57.2673256 C62.0595124,56.8712728 58.2208651,54.6769721 58.184417,50.8883483 C58.184417,50.7147593 58.1827602,50.4838689 58.1827602,50.2664613 C68.9515162,50.3793784 79.7202722,50.3338745 90.4873715,50.3355598 C91.1268699,54.6668601 87.7371969,57.1257578 83.6185619,57.381928 C83.6185619,57.381928 70.3332305,57.447656 70.3332305,57.447656 L70.3332305,57.447656 Z M74.4601491,63.1895781 C71.5211071,63.0834023 68.5804083,62.9384638 65.6413663,62.8895892 C57.344454,62.6418456 47.236734,62.5542084 38.8917764,62.5070191 C38.8470447,62.4682565 38.8006562,62.4311792 38.7559244,62.3941019 C39.7698442,56.9656513 39.7582471,51.5119208 38.6946254,46.0868408 C40.0829665,46.0514489 41.5624279,46.0143716 43.0965615,45.975609 C43.1131288,47.4469028 43.1346663,49.5030064 43.1412932,49.9664724 L43.1512336,50.8748657 C47.254958,50.8175645 51.5177287,50.5158902 55.5651242,50.1366908 C55.5021684,50.1687121 55.4309289,50.2057894 55.3696298,50.2378106 L56.5392824,50.249608 C56.5376257,50.4804983 56.5376257,50.7215006 56.5376257,50.9035163 C56.5707603,56.3858975 62.3129923,59.0622029 66.9501844,59.2020853 C68.5605276,59.2374773 72.1042766,59.2593866 74.7368233,59.2694986 L74.4601491,63.1895781 Z M28.2489321,53.6758855 C28.1909464,53.6775709 28.1313041,53.6775709 28.0733185,53.6775709 C29.1220297,46.6901892 29.1651047,39.6808983 28.1859763,32.6918313 C30.9013595,37.0703208 33.5571004,41.4842023 36.3669173,45.8037052 L36.5856059,46.1407714 C36.5856059,46.1407714 36.94346,46.1323447 36.9451167,46.1323447 C37.4172852,46.1188621 37.9325288,46.1070648 38.4361752,46.0935821 C37.3990612,51.3922623 37.3626131,56.7179077 38.3069502,62.0182732 C34.9868598,59.1987147 31.5955301,56.4634227 28.2489321,53.6758855 L28.2489321,53.6758855 Z M3.64480972,43.9431 C3.59013757,42.3369797 3.51724138,40.7325447 3.43440479,39.1264245 C5.95595043,40.9347844 8.49074991,42.7212351 11.0537138,44.4638672 C11.0537138,44.4638672 11.3834034,44.4284753 11.3817467,44.4284753 C11.7164065,44.4082513 14.4848052,44.0914091 16.2972696,43.8942254 C16.3469716,47.1081513 16.6103919,50.3220772 17.0858739,53.5326324 C12.6193253,50.3170212 8.17431416,47.071074 3.64480972,43.9431 L3.64480972,43.9431 Z M11.2657755,33.4064116 C9.32408596,32.1373575 7.31612715,30.9778499 5.22367502,29.970022 C4.62890834,30.0475473 4.0357984,30.1503524 3.44103172,30.2531576 C3.52221157,28.7127652 3.5967645,27.1723729 3.64812318,25.6319805 C3.65143665,25.3572716 3.71604918,25.4128875 3.41618075,25.3859222 L1.87707701,25.2612077 C3.16601426,22.8427579 4.40856303,20.4007136 5.6511118,17.9586692 C7.30950022,22.4500759 9.02256079,26.9195732 10.7786964,31.3722173 L10.9891013,31.9030965 L11.5606737,31.9064672 C13.2207189,31.9233205 15.1259603,31.9401738 17.0991278,31.9536564 C16.8589017,33.5513501 16.6617506,35.150729 16.5292121,36.7517933 C16.2922994,36.7871853 16.0487599,36.8259479 15.7820261,36.8680811 C15.2684393,36.281586 13.7707538,35.1203931 11.2657755,33.4064116 L11.2657755,33.4064116 Z M24.841035,53.7011655 C23.3549466,53.7095922 21.8672016,53.7348721 20.3811133,53.7534108 C20.7555346,51.8725816 20.883103,49.9209684 21.0935079,48.0721605 C21.2608378,47.1384872 21.7943054,46.2267233 22.7833742,46.3261578 C23.1246609,46.2975072 23.6150535,46.5216562 23.8635633,47.0879273 C24.5378531,49.0766177 24.408628,51.5152914 24.841035,53.7011655 L24.841035,53.7011655 Z M25.4672795,46.3615497 C24.791333,44.5295951 22.5067,43.8942254 20.9460588,44.9812638 C18.4841555,46.9935488 19.70351,50.871495 20.1624247,53.7567814 C19.2595059,53.7685787 18.3565871,53.7736347 17.4520116,53.7972294 C17.4155635,53.7719494 17.3791154,53.7449841 17.3426673,53.7197041 C18.4344535,46.4710962 18.4460506,39.2022643 17.3559212,31.9553418 C20.9278347,31.9789364 24.6935858,31.9856777 27.7254048,31.9452298 C27.7519126,31.9873631 27.7784203,32.0311817 27.8065847,32.0750003 C26.736336,39.2696776 26.7512466,46.4845789 27.8314357,53.6792562 C26.9467409,53.6893682 26.0620462,53.6944242 25.1790082,53.6994802 C25.6114152,51.2338412 26.1713905,48.8878606 25.4672795,46.3615497 L25.4672795,46.3615497 Z M52.8911592,16.6373698 C53.1893709,16.9828626 53.4958663,17.3232995 53.7957347,17.6687923 C49.7069209,19.2664859 45.6330177,20.9012568 41.5905924,22.5950143 C45.9660208,21.3529255 50.329852,20.0383674 54.6820862,18.6799908 C56.5359689,20.7967663 58.4147027,22.8933179 60.3414816,24.9477362 C57.4968733,26.7560961 56.2543246,29.6481239 56.6337161,33.9086402 L56.5740738,40.7072648 C56.5707603,41.65105 56.5641334,43.2470583 56.5591632,44.9323892 C52.0677636,44.6138617 47.5730505,44.5009445 43.0799942,44.4992592 C43.0816509,44.575099 43.0833076,44.7149815 43.0849643,44.8969972 C41.0438709,44.839696 39.0889275,44.7941921 37.3344486,44.7588001 C34.541199,39.8410047 31.5690224,35.0327559 28.7012198,30.1604644 C23.8320854,30.0947365 17.1769942,30.1351845 12.120649,30.1857444 C10.2667663,25.5949032 8.36318157,21.0209153 6.40326798,16.4738927 C21.8870824,17.3536354 37.3990612,17.3047608 52.8911592,16.6373698 L52.8911592,16.6373698 Z M74.1602807,12.1847258 C73.6433804,13.576809 73.6665746,14.9891163 74.2497442,16.3778289 C73.0453002,16.3458076 71.8408563,16.3205276 70.6380691,16.3104156 L69.7069859,16.301989 C69.7169263,18.4373031 69.7600013,20.5844146 69.8444946,22.7230995 C67.9127455,22.8208486 65.9859665,23.011291 64.0658145,23.3837491 C62.6377118,23.7578926 61.4249842,24.2634918 60.4044374,24.9005469 C58.8719606,22.6927635 57.2914386,20.5220574 55.6877223,18.3682046 C61.8789286,16.4216475 68.0370003,14.3571172 74.1602807,12.1847258 L74.1602807,12.1847258 Z M74.0757874,22.6371476 C73.1463609,22.5427691 72.2417854,22.4601878 71.441584,22.4045719 C71.4962561,20.99395 71.5244205,19.5833281 71.5393311,18.1727062 C73.7726055,18.1474262 76.0058798,18.090125 78.2374974,17.9384452 C78.3783196,19.4232217 78.5953514,20.9922647 78.7775919,22.7466941 C77.208667,22.6995048 75.6413988,22.6506302 74.0757874,22.6371476 L74.0757874,22.6371476 Z M74.541329,44.5144271 C72.2815469,44.4470139 70.0383322,44.5616164 67.8133416,44.9964318 C69.5628502,44.0324225 71.3753147,43.031336 73.2225705,42.0100255 C73.6069323,42.8897682 74.0542498,43.718951 74.541329,44.5144271 L74.541329,44.5144271 Z M65.3083632,48.8389861 C63.7775432,48.85921 62.2483798,48.8726927 60.7175597,48.899658 C62.0810499,48.1513711 63.5737652,47.3323003 65.1609141,46.4576136 C64.7964332,47.2480337 64.8544188,48.0536219 65.3083632,48.8389861 L65.3083632,48.8389861 Z M44.92725,46.3649204 C48.8023454,46.3396404 52.6790976,46.2216673 56.554193,45.945273 C56.5492228,47.2834257 56.5442526,48.5878718 56.5409391,49.6310915 C56.3918333,49.7086168 56.2427274,49.7844567 56.0952783,49.8619819 C52.6559033,49.572105 48.1976383,49.2013322 44.8957721,49.103583 L44.92725,46.3649204 Z M74.1536537,48.7226982 C71.5790927,48.7446075 69.0045316,48.7901115 66.4283139,48.8238181 C66.9866324,47.8496969 66.9187064,46.8435543 66.2179089,45.8761744 C66.3620446,45.7969639 66.5094937,45.716068 66.6552861,45.6351721 C69.1238163,46.2317793 71.6304514,46.3902004 74.1420566,46.3177311 C73.7162766,47.106466 73.71959,47.9221661 74.1536537,48.7226982 L74.1536537,48.7226982 Z M89.7468124,57.0330646 C91.6851885,55.5280641 92.7372131,53.1197264 92.0496695,49.2839134 L91.9618627,48.5743891 L91.2014228,48.5828158 C85.9164487,48.630005 80.6331314,48.6637116 75.3481573,48.7092156 C75.8037585,47.9103688 75.8103854,47.081186 75.3763217,46.2671712 C76.1980606,46.2216673 77.0197996,46.15931 77.838225,46.0800995 C76.4531973,44.6138617 75.0747966,43.1105466 73.4213783,41.900479 C80.845193,37.7950131 88.6252051,33.4687689 93.5622655,30.693029 C84.3160459,35.3546541 68.5124823,43.4459274 58.1761333,48.7850555 C58.1678497,46.1340301 58.1545958,42.4010223 58.1479689,40.6988381 C58.1479689,40.6988381 58.0883265,33.9052695 58.0883265,33.9069549 C57.5266945,28.7026533 59.3590397,25.975788 64.3640262,24.5179768 C66.1731772,24.1354067 68.0187763,23.912943 69.8809427,23.7713752 C69.8842562,23.8455298 69.8859129,23.9196844 69.8892264,23.9921536 C71.7530495,23.9213697 73.6019621,23.7511513 75.442591,23.5505969 C78.3750061,23.515205 81.3140481,23.5455409 84.198418,23.4225118 C88.810759,22.9135418 93.0635893,25.8359055 93.5622655,30.693029 C93.2955317,25.6505191 88.9814024,22.5259158 84.2033882,22.8478139 C82.4273718,22.8528699 80.6496987,22.80231 78.8736823,22.7483794 C79.1056248,20.9349634 79.3972095,18.737292 79.5065538,16.6441111 C78.0734809,16.5244527 76.6370945,16.4502981 75.2007082,16.4014235 C75.8435201,14.8863111 75.8302662,13.3391774 75.1642601,11.824065 C84.2050449,8.59497108 93.1646499,5.13498688 102,1.43062971 C96.1467669,3.09405124 90.3150714,4.8737606 84.5065701,6.7427925 C84.8462001,6.11753476 85.0682021,5.37935985 85.0797992,4.49793182 C85.0466646,5.47879437 84.7385125,6.24224924 84.2795978,6.81526172 C83.0966914,7.19783182 81.9154417,7.58040192 80.7358488,7.96971334 C79.2961489,7.63770317 78.0486299,6.46639824 78.0270924,4.49961716 C78.0801078,-0.123245321 84.9091559,-0.401324908 85.0797992,4.49793182 C85.0052463,-1.35690749 76.3753309,-1.64004307 76.1814933,4.49793182 C76.2510761,6.65346996 77.3710267,8.0000493 78.7858756,8.60845373 C75.7209219,9.63313487 72.6675654,10.693208 69.6208358,11.773505 C69.9405851,11.1617299 70.1476765,10.443779 70.1592736,9.59437227 C70.126139,10.5347869 69.8444946,11.2813884 69.4154011,11.8476596 C68.2523755,12.2605656 67.0910065,12.6768424 65.9312944,13.0981751 C64.4418926,12.8049275 63.1264476,11.6150839 63.1065668,9.59437227 C63.1579255,4.97150979 69.9886303,4.69511553 70.1592736,9.59437227 C70.083064,3.73784762 61.4531486,3.45471204 61.2609677,9.59437227 C61.3322072,11.8341769 62.5349944,13.2110922 64.0310231,13.7790487 C60.9594426,14.9065351 57.9044293,16.0694133 54.856043,17.2525156 C54.3921581,16.6339992 53.9349002,16.0087414 53.4677019,15.3919103 L53.1512661,15.3817983 C37.5498238,14.9924869 21.938441,15.2301186 6.37344681,16.4064795 C6.16304189,15.9177336 5.95926389,15.4239316 5.74720223,14.9351857 C4.11035132,18.568759 2.43705232,22.1989616 0.881381259,25.8696121 C1.06527848,25.8628708 2.5878149,25.8814094 3.17761138,25.8780388 C3.22731333,27.3409059 3.29689606,28.8020878 3.37310572,30.2632696 C2.3890071,30.438544 1.40656521,30.6441544 0.427436776,30.9441433 C1.90855491,31.2576148 3.38138938,31.3941266 4.85256712,31.4665958 C6.62692676,32.7407059 8.47749606,33.8833602 10.3843942,34.9299507 C12.4089204,35.9832825 13.868501,36.6675268 14.7979275,37.0214462 C13.7475596,37.1849233 12.7518638,37.3416591 12.2598145,37.417499 C8.90493284,35.5231871 3.67463089,32.6985727 0.427436776,30.9441433 C3.64315299,33.1788919 8.45430182,36.6725828 11.7081229,38.9208141 C11.9533191,39.1129418 11.923498,39.0590112 12.2183962,39.0320459 L16.0471032,38.6022866 L16.0222522,42.0555294 L11.4811506,42.608318 C7.96556597,40.4039052 4.40856303,38.2702764 0.820082187,36.1922635 C0.694170578,34.5608632 0.515243556,32.8603644 0.427436776,30.9441433 C0.331346338,32.6463274 0.122598145,34.6485004 0,36.6489881 C1.11995062,37.4731149 2.2531551,38.2787031 3.38138938,39.0876619 C3.29523933,40.7881607 3.21571621,42.4903448 3.16104407,44.1908436 C7.64913022,47.9120541 12.238277,51.4984381 16.7959459,55.1252701 L16.9699027,55.2634672 C20.5269056,55.374699 24.0855653,55.3494191 27.644225,55.389867 C31.0951971,58.3021187 34.4964673,61.2733569 37.9938279,64.1299927 C38.2671886,64.3591977 38.2075463,64.350771 38.567057,64.3389737 C46.9766271,64.2917845 57.2317963,64.2041473 65.6413663,63.953033 C68.7228873,63.902473 71.8060649,63.7440519 74.8892426,63.6378761 L74.8859292,63.4272097 L74.8080628,59.2694986 C75.689444,59.2745546 76.4631377,59.2762399 77.023113,59.2779252 C80.9893287,59.4936476 85.8750305,59.4414023 89.0294476,57.5319225 C88.3071126,60.2924944 88.3501876,63.0800316 89.1553592,65.8372328 C85.5602514,66.9192152 82.0546072,68.3079278 78.6433966,70 C86.2047201,69.073068 93.4396674,66.9141592 100.281969,63.5081056 C96.7199961,63.9412357 93.2358894,64.6625573 89.8279923,65.6484758 C90.6265369,62.786784 90.5917456,59.893071 89.7468124,57.0330646 L89.7468124,57.0330646 Z" id="Fill-1" fill="#FFFFFF" mask="url(#mask-2)"></path>
            </g>
        </g>
    </g>
</svg>