<?xml version="1.0" encoding="UTF-8"?>
<svg width="44px" height="55px" viewBox="0 0 44 55" version="1.1" xmlns="http://www.w3.org/2000/svg" xmlns:xlink="http://www.w3.org/1999/xlink">
    <title>Group 3</title>
    <defs>
        <polygon id="path-1" points="0 0 44 0 44 55 0 55"></polygon>
    </defs>
    <g id="Page-1" stroke="none" stroke-width="1" fill="none" fill-rule="evenodd">
        <g id="Desktop_Comprensorio" transform="translate(-1137, -803)">
            <g id="MAIN-INFO" transform="translate(1121, 803)">
                <g id="Group-3" transform="translate(16, 0)">
                    <mask id="mask-2" fill="white">
                        <use xlink:href="#path-1"></use>
                    </mask>
                    <g id="Clip-2"></g>
                    <path d="M31.4440117,50.3159601 C30.150201,48.0161014 28.0636763,46.4216871 25.7362504,45.9444099 C24.1348358,45.5812163 22.556023,45.5740516 21.0284774,45.5679892 C20.2627752,45.5646825 19.4700613,45.5619268 18.7005002,45.511223 C18.2920155,45.4847688 17.8278533,45.4990982 17.3361281,45.5145298 C15.455224,45.5740516 13.979497,45.532717 13.4993483,44.5158852 C13.2589983,43.9151553 13.3709043,42.9198174 13.7408008,42.3097184 C14.3086001,41.4130325 15.0649308,40.7356958 15.7236883,40.1757493 C17.30636,38.8557969 19.7186802,37.3644436 21.658018,36.1668416 L23.1409114,35.236537 C24.1965771,34.5630581 25.2869723,33.866983 26.2698715,32.7801579 C26.7786858,32.1772234 27.0879435,31.5831071 27.2235538,30.9162417 C27.4782366,29.1338926 26.3872902,27.336663 24.8840002,27.0495252 C24.0725433,26.8494656 23.2588813,26.9282769 22.5422414,26.9982702 C21.9711345,27.0544853 21.4325521,27.1062914 21.0047732,27.0258266 C20.9540571,27.0137018 20.922084,26.9993725 20.9160201,27.0054349 C20.909405,26.9949634 20.9027898,26.984492 20.8950722,26.9745717 C20.7793072,26.8075798 20.5080866,26.4173809 21.2765451,25.2721362 C21.6260449,24.6862867 22.1265903,24.2635713 22.6558013,23.8160551 C23.2489586,23.3145282 23.8625127,22.7953653 24.3239185,22.038115 C25.1844377,20.7644573 25.659625,18.1658871 24.2886378,16.7687767 C23.5212818,15.8737442 22.6370584,15.6764403 21.9253798,15.5177153 C21.189997,15.3529279 20.7423727,15.2526226 20.3851553,14.5036391 L21.128807,11.9982096 C21.7826031,9.79149165 22.4926279,7.39573666 23.1508341,5.20610368 C25.2792546,13.8488986 27.6882673,24.2360149 29.8442509,33.5318969 C30.5013545,36.3674524 31.1342027,39.0938844 31.725155,41.6268703 C31.8056392,41.9746323 32.1126918,42.2231912 32.469358,42.230907 C32.8243704,42.2160265 33.1429995,42.0027399 33.2383677,41.6588358 L35.3353664,34.0995592 C36.8888212,39.6147007 38.7603539,46.2199741 40.3308978,51.7301554 C37.7791085,51.7444848 34.9974431,51.7764502 32.0845775,51.8199894 C31.9280192,51.3146046 31.7179886,50.8119756 31.4440117,50.3159601 L31.4440117,50.3159601 Z M2.86055315,49.8987559 C5.74861199,41.3529595 9.23919963,31.0220584 11.9888918,22.596408 C12.7143519,25.2820565 13.5164374,28.2267353 14.1140048,30.3888119 C14.2066167,30.7233468 14.5092593,30.9570252 14.8571053,30.9614343 C15.2049513,30.9713546 15.5131064,30.7404318 15.6145385,30.4086525 C16.94804,26.0475738 18.5329168,20.7506791 19.7159239,16.7627143 C19.8807511,16.9302573 20.0621161,17.0829199 20.272698,17.1997591 C20.6723625,17.4461135 21.0637582,17.5861001 21.4093991,17.7095528 C21.6866836,17.809307 21.9264824,17.8947319 22.1271415,18.023696 C22.4777438,18.2380849 22.6921845,18.5075867 22.7638485,18.8239344 C22.8603193,19.2510588 22.7065173,19.8016361 22.3195318,20.3940991 C22.1012323,20.7512302 21.7710266,20.9893177 21.3895537,21.2643307 C21.259456,21.3574714 21.1315633,21.450061 21.0091833,21.5448551 C19.0974085,23.0224302 16.9552064,26.1837025 18.891788,28.8362833 C19.9695041,30.3083472 21.6469928,29.9231084 22.8718958,29.642033 C24.4418885,29.2810439 24.8784875,29.3041913 25.1882965,30.1319861 C25.7401092,31.7693884 21.3454528,33.9513056 19.4684075,34.8827126 C18.8344568,35.1974068 18.3300525,35.4476191 18.002052,35.6515366 L17.8118668,35.7534954 C15.7154194,36.8689792 13.5478593,38.0224908 11.8279235,40.2027546 C10.8588058,41.4516115 10.4613463,43.3673337 10.8141536,45.0835474 C11.0793104,46.3726366 11.7479906,47.3718324 12.6785199,47.8860351 C14.4183011,48.9127872 16.1332756,48.834527 17.7887138,48.7606758 C18.4094342,48.7331194 18.9959764,48.7061141 19.6205556,48.7391818 C20.2881333,48.7380796 20.9606723,48.705563 21.6111608,48.6741487 C23.4992313,48.5821102 25.284216,48.4961342 26.9782425,49.117807 C27.8448255,49.5278465 29.191006,50.3677661 30.0642042,51.8525059 C20.9816202,52.0040662 10.8042309,52.2636477 1.98018858,52.505593 L2.86055315,49.8987559 Z M43.9697748,53.9963953 L43.3192862,51.7384224 C42.2614155,48.0612939 41.2024422,44.3814099 40.1258286,40.7191619 L39.3832794,38.1817669 C38.2774488,34.4048843 36.2190385,27.3746909 36.051455,26.7838813 C35.9566381,26.4454885 35.6462778,26.2051965 35.2951243,26.2156679 C34.944522,26.2173213 34.6374694,26.4537554 34.5459599,26.7926993 C34.4070421,27.3069021 33.6727618,30.1259237 32.937379,32.9510076 C32.8028712,33.4685172 32.6678121,33.9860267 32.5366119,34.489758 C29.812829,23.8937642 26.4655693,10.8050167 24.1888594,1.2539622 L24.0289936,0.596466065 C23.9463044,0.256419866 23.6475207,0.013372259 23.2985722,0.000336225817 C22.9286757,-0.00977513219 22.6331996,0.209022827 22.5257036,0.541904358 L22.3200831,1.18231551 C20.8768805,5.69219889 19.1718288,10.8893393 17.5230057,15.91563 L15.8251204,21.0962366 C15.5483872,21.9328494 15.2733077,22.7744225 15.0048433,23.6027684 C14.4045196,21.3718008 13.7634025,19.0008466 13.3505077,17.5039819 L12.8935119,15.8324096 C12.8020025,15.4978747 12.501565,15.2636451 12.1548215,15.2570316 C12.1498602,15.2570316 12.1443476,15.2570316 12.1393862,15.2570316 C11.7992579,15.2570316 11.4971666,15.477483 11.394632,15.8026487 L10.8792025,17.4350909 C8.60249263,24.5424422 5.78609777,33.9705951 3.3004598,42.2893266 C2.14556702,46.1571454 1.0342239,49.8761596 0.0336843312,53.1774185 C-0.0374283985,53.4110969 0.00556999617,53.664616 0.148346717,53.8624711 C0.291674699,54.059775 0.519345687,54.1793699 0.764105779,54.1848812 C4.02481738,54.257079 7.66204056,54.3524242 11.4745649,54.4521784 C21.3178897,54.7101065 32.3739898,55 41.1186505,55 C41.8358416,55 42.5392513,54.9977955 43.2233668,54.9939376 C43.4681268,54.9922842 43.6980029,54.8759961 43.8440872,54.6803456 C43.9907227,54.484695 44.0370287,54.2311759 43.9697748,53.9963953 L43.9697748,53.9963953 Z" id="Fill-1" fill="#8D98A8" mask="url(#mask-2)"></path>
                </g>
            </g>
        </g>
    </g>
</svg>