<?xml version="1.0" encoding="UTF-8"?>
<svg width="87px" height="80px" viewBox="0 0 87 80" version="1.1" xmlns="http://www.w3.org/2000/svg" xmlns:xlink="http://www.w3.org/1999/xlink">
    <title>illustrazione antagnod</title>
    <defs>
        <polygon id="path-1" points="0 0 87 0 87 80 0 80"></polygon>
    </defs>
    <g id="Page-1" stroke="none" stroke-width="1" fill="none" fill-rule="evenodd">
        <g id="Box-antagnod" transform="translate(-136.3787, -238)">
            <g id="illustrazione-antagnod" transform="translate(136.3787, 238)">
                <g id="Group-3">
                    <mask id="mask-2" fill="white">
                        <use xlink:href="#path-1"></use>
                    </mask>
                    <g id="Clip-2"></g>
                    <path d="M85.2320591,76.3381998 C84.0539921,76.3096313 83.2254799,76.5869131 82.1045516,76.437349 C81.8205383,76.4222246 81.6323164,76.4390295 81.570136,76.4222246 C81.4121641,76.3533242 81.2088173,75.7433043 80.6962489,75.644155 C78.9383913,75.0694255 78.3199482,76.4810419 76.8931594,76.5633862 C76.2175774,76.854112 75.3319264,77.240626 74.6176918,77.020481 C74.3034285,76.8725974 74.1135261,76.23737 73.6362493,76.2978679 C73.3270277,76.2877849 73.0514172,76.3886146 72.789251,76.5129713 C72.6934596,75.7718727 72.6077514,75.1097574 72.564057,74.7450898 C69.8936597,74.6913139 67.2215818,74.681231 64.5444622,74.7282848 C64.5545455,73.5620208 64.5730316,71.7773343 64.5679899,71.2782271 L64.5747121,70.3825228 C64.5747121,70.3825228 63.6688945,70.3539544 63.6688945,70.3539544 C62.6286327,70.3136225 61.5665238,70.2766516 60.511137,70.2396807 C60.4321511,69.0919021 60.6892756,67.9289991 61.2707466,67.0181704 C61.4522462,66.766096 61.8723843,66.4098309 61.9127175,65.8871967 C62.0068285,64.6856423 60.8522891,63.616847 61.0993303,62.5446907 C61.1631913,61.8859364 62.1328699,61.4103561 62.8319796,61.3616217 C62.8504656,61.4254805 63.4554644,61.2809579 63.5126032,61.1213108 C64.3075043,60.450793 64.23356,59.2257116 64.4537124,58.4274761 C64.78142,57.7754438 65.5158213,57.8661905 66.1460284,57.2208802 C66.954374,56.5033085 66.793041,55.1824388 66.6132219,54.3791619 C66.5594442,53.9506354 66.6955689,53.9203865 66.9258046,53.7859469 C68.9592727,53.3641424 68.2047048,50.5963659 68.1189966,49.2217204 C67.9492608,47.8739628 67.3190538,47.0488394 67.2199012,45.9447537 C67.2333456,45.9363512 67.2316651,45.9430732 67.2518317,45.9279487 C67.6501226,45.7346917 68.61644,45.8657704 68.4114127,45.8943388 C68.3761211,45.8540069 68.387885,45.840563 68.4349404,46.0388615 C68.4668709,46.1968281 68.5794679,46.5530932 68.6013151,46.6371179 C68.8029813,47.2504989 68.7424815,47.5059343 69.2634526,48.1529251 C69.6197297,48.5058292 69.9776873,48.6184224 70.1642286,48.6772398 C70.2079229,48.8049575 70.2600201,49.0452684 70.2768256,49.2939817 C70.3658948,49.979624 70.2432145,50.7862619 70.5473945,51.8567377 C70.7003247,52.8767987 72.0010721,53.6918391 72.8312648,53.93215 C73.3606388,54.142212 73.6950686,54.6514022 74.6378584,55.2883101 C75.3873847,55.7420439 76.2797578,55.9437034 77.1351589,55.7470854 L77.6746161,55.6092847 C77.5317692,56.3201344 76.7536736,56.8293247 76.5772156,57.9586178 C76.4377297,59.0946329 77.3586723,59.7668312 77.7804909,60.6289255 C77.783852,60.654133 77.7888937,60.660855 77.7922548,60.6625354 C77.783852,60.6759794 77.7704076,60.7045478 77.7485604,60.7583237 C77.6460467,60.9532612 77.3687556,61.227182 77.0645757,61.7162063 C76.1990913,62.8858313 77.1889366,64.5394391 78.2997815,64.9713265 C79.2929878,65.5376536 80.2828331,65.5679025 80.7701932,66.2619473 C80.7987626,66.3947064 80.8222903,66.4837727 80.6828045,66.8551623 C80.5786102,67.1610125 80.264347,67.8685012 80.5618047,68.6264048 C80.8088459,69.2784371 81.3970391,69.7304905 81.9213714,69.9035816 C82.6540921,70.2027098 83.2557298,70.0262577 83.7010761,70.4967966 C84.1699502,71.101775 83.9481173,72.9553618 84.6522686,73.8325806 C85.0875317,74.481252 85.6068223,74.8173511 85.6690027,75.5366033 C85.6908499,75.7298603 85.6723638,76.0289886 85.6891693,76.3684487 C85.5950584,76.3718097 85.4589337,76.3650877 85.2320591,76.3381998 M38.6135425,73.4359836 L30.3519482,73.4124567 L30.2914483,72.0159647 C30.330101,71.7924588 30.3569898,71.5689528 30.3922814,71.3454469 C41.1797457,71.701712 52.3453341,72.0042012 62.7244242,72.1856948 L62.7361881,73.8157757 C54.9434678,73.6426846 46.3407213,73.477996 38.6135425,73.4359836 M29.8091298,56.484823 C30.281365,56.5285159 30.7586418,56.5738893 31.0275301,56.5940552 C31.1602938,55.3504884 31.4476682,53.8464447 32.1921528,52.8885621 C34.8390224,50.0905367 36.7951851,54.2480832 36.5783939,56.8511711 L36.5918383,57.698141 L37.4203505,57.861149 C37.7026833,57.9182859 38.1144186,57.9989497 38.5362371,58.081294 C37.4640449,61.9027413 37.4942948,65.76284 38.6488341,69.5792459 C35.9733951,69.512026 33.3013172,69.4481672 30.652767,69.3893499 C31.1048355,65.0872807 30.8258639,60.7734482 29.8091298,56.484823 M29.4898249,54.5808213 C29.3167281,53.8094738 29.024312,53.0532507 28.5167852,52.4129818 C23.9204751,47.5143367 12.3801235,49.5393341 12.4624706,57.1839093 L11.1012233,57.2628926 C11.2474314,54.8127298 11.3465839,52.3608865 11.4575004,49.9090432 C17.6923489,48.7142107 23.9070307,47.4319924 30.1116292,46.0976788 L37.7951136,50.1812835 L37.7917525,52.6953051 C37.193476,51.4685432 36.2338807,50.4669678 34.7449115,50.0922172 C31.8022647,49.4821972 29.9973517,52.0718412 29.4898249,54.5808213 M16.6739342,51.7911984 C17.7511682,51.3122571 18.9443602,51.0416973 20.1627605,51.0517803 C21.6937435,50.9980044 23.5490731,51.155971 25.06157,51.7743934 C23.8498919,52.2684592 22.8818939,53.5271505 22.3894921,54.6833316 C22.3844504,54.6967755 22.3810893,54.708539 22.3760477,54.7203025 C21.4551051,52.5843924 19.0183045,51.4517383 16.6739342,51.7911984 M28.9167567,69.352379 C25.7993324,69.2868396 22.7104776,69.2246613 19.6938865,69.1692049 L16.1025465,69.135595 C17.2369192,63.5714736 17.1629749,57.9754227 15.8857553,52.4146623 C18.3309587,52.9692259 20.5593708,54.0212163 20.6837317,56.7217729 L20.870273,57.7183069 C21.2483972,57.7099044 21.6937435,57.6998214 22.145812,57.6897385 C21.0416893,61.4826174 21.1273974,65.3225502 22.4617558,69.1070266 C23.7961143,65.3175087 23.8801419,61.4742149 22.772658,57.674614 C23.0919629,57.667892 23.4028651,57.6594895 23.6751145,57.6544481 C23.6751145,57.6544481 23.8011559,56.8175612 23.8011559,56.8175612 C24.1154192,55.1605924 24.4599324,53.2414662 25.8463879,52.159227 C27.0328577,52.8515912 27.8680921,53.925428 27.9017032,55.5571894 L27.962203,56.3167734 L28.7117293,56.3839933 C28.9520482,56.4041592 29.3537002,56.4411301 29.7654355,56.4797815 C28.7487014,60.7600042 28.4697298,65.0620733 28.9167567,69.352379 M15.5513254,69.128873 L12.8271504,69.1036656 C13.1767052,65.3309526 12.8742058,61.5498372 11.8944439,57.7922487 C10.9163626,61.5431152 10.6138632,65.3191892 10.9600569,69.0851801 L5.63438719,69.0330848 C5.51674854,62.5480517 5.31340173,56.0630186 5.04787449,49.579666 C8.68458934,48.573049 12.3011376,47.4420754 15.7294639,45.840563 C15.7378667,46.0086125 15.7462695,46.1766621 15.7563528,46.3447117 C14.4539249,47.1244617 13.1867885,47.9697511 11.9566244,48.8856213 C11.623875,48.976368 11.2894452,49.0603928 10.9566958,49.1511396 L10.6172243,49.2486083 C10.7567101,52.2247663 10.8558627,55.1992438 11.0524873,58.1754017 C11.0726539,57.8729125 11.0827373,57.5704233 11.1012233,57.267934 L12.5431371,57.3536393 L12.622123,57.3570003 C12.622123,57.3570003 12.6305258,57.264573 12.6305258,57.264573 C12.7851366,55.0883311 13.9783286,53.4229598 15.6252697,52.359206 C15.6740057,52.3709694 15.7244223,52.3810524 15.7748389,52.3911354 C14.4925776,57.9569373 14.4152722,63.5597101 15.5513254,69.128873 M12.7632894,39.5706333 C12.7632894,39.5857578 12.76497,39.6126457 12.7666505,39.6227287 C13.6388571,39.2698246 14.5009803,38.8866716 15.361423,38.4984771 C15.4824228,40.9351959 15.586617,43.3719147 15.7277834,45.8086335 C12.622123,46.0035711 9.5954486,46.5060393 6.60406578,47.1463082 C8.82071406,44.7650457 10.914682,42.277912 12.7632894,39.5706333 M16.1529631,41.5166474 C16.1966574,40.5638063 16.2386712,39.6109652 16.2840462,38.6581241 C21.0299254,37.332213 25.7623603,35.9710114 30.491434,34.5930049 C34.8608696,33.2923012 39.2151802,31.9428631 43.5644492,30.5783006 C43.5644492,31.7075937 43.5745325,32.8368869 43.5778936,33.96618 C34.0978989,35.2063859 24.9405703,37.732171 16.1529631,41.5166474 M28.7554236,44.5180128 C25.110306,45.427161 21.4719106,46.3631971 17.8385569,47.3193992 C20.6265929,46.1632181 23.3154763,44.7734482 25.9438599,43.247558 C26.8597608,43.7063334 27.7975089,44.1281378 28.7554236,44.5180128 M39.1546803,58.2039702 C39.4252492,58.2560655 39.6806932,58.3064804 39.8722761,58.3451318 L39.8705956,57.0763575 L39.8588317,49.5611805 L39.8571511,48.9276337 L39.3025689,48.6469909 L30.6863781,44.2709799 L30.3687537,44.1096523 C30.0595321,44.1852747 29.7503105,44.2676189 29.4394084,44.3449218 C28.3537717,43.3097364 27.219399,42.3535343 26.0430125,41.4494276 C22.5306585,42.7988657 19.1191376,44.3449218 15.9042414,46.2539649 C15.9966717,44.7045478 16.0806993,43.1551308 16.149602,41.6057137 C25.6279161,40.4226447 34.7886059,37.9691209 43.5795741,34.2485033 C43.5980602,39.5437454 43.6417546,44.837307 43.7778793,50.1325491 C43.9173651,55.8294297 44.1677674,63.793299 44.5223639,69.7338515 C42.6838398,69.6834366 40.8436352,69.6347022 39.0034306,69.5893289 C40.1478867,65.8082134 40.191581,61.9867661 39.1546803,58.2039702 M13.4220658,37.4582502 C17.5612658,34.5610755 23.3524485,28.6121206 27.8882587,24.3201344 C33.9768992,25.4158177 40.0806646,26.4056297 46.2398882,27.05094 L46.3508046,28.4675979 C46.071833,28.5717887 45.8432779,28.6591745 45.6533755,28.7331163 L45.6533755,27.7264993 C40.4066917,29.4036341 35.1616884,31.1042958 29.9418935,32.8654553 C25.0666117,34.5425901 20.194691,36.2348493 15.3362147,37.9674404 C15.3446175,38.1136435 15.3496592,38.2598467 15.3580619,38.4043693 C14.6723966,38.5539334 13.9884119,38.7102195 13.3111494,38.8782691 C13.3498021,38.3640374 13.4220658,37.4582502 13.4220658,37.4582502 M40.416775,19.3895599 C42.5208263,18.955992 44.6030304,18.4417603 46.668429,17.8720723 C45.7021115,20.8179813 45.8432779,23.8092637 47.1221781,26.7383678 C48.3237729,23.9857158 48.5086336,21.1809684 47.7271768,18.4081504 C48.506953,18.9896019 49.2850487,19.5744145 50.0799499,20.1357 C50.2362412,22.4682281 50.4446297,24.8007562 50.8714899,27.1349648 C49.5522565,27.0005252 48.233023,26.8627245 46.9070674,26.7702972 C46.9171507,26.6425796 46.9255535,26.5333473 46.9322757,26.481252 C44.559336,25.8292196 42.1712714,25.2477681 39.7781652,24.6932045 C40.0823451,22.925323 40.2823308,21.1574414 40.416775,19.3895599 M42.1342993,12.6793404 C43.3358941,12.4222246 44.5223639,12.1130133 45.6970699,11.7601092 C45.8163891,13.1145888 46.007972,14.4707489 46.3205547,15.8252284 C44.6937802,16.2688793 43.0787696,16.7562231 41.4721618,17.2788573 C41.8233971,15.7445646 42.0183412,14.2119525 42.1342993,12.6793404 M48.6329945,16.589854 C48.2044537,16.2419914 47.7927184,15.8706018 47.3574554,15.5311417 C47.182678,15.5781956 47.0079005,15.6336519 46.8331231,15.6807058 C47.118817,14.4052095 47.298636,13.1280328 47.4145941,11.8491755 C47.6784408,12.2911459 47.9809402,12.6978259 48.2935229,13.0910619 C48.263273,13.9010608 48.3019257,14.7110598 48.4195643,15.5210587 C48.4901475,15.9395022 48.5624113,16.2873648 48.6329945,16.589854 M44.3358226,6.18926583 C45.0349323,5.82795925 45.5340563,5.26667367 45.9172222,4.65665371 C46.2768603,5.45488919 46.8079148,6.23463922 47.5019829,6.54721143 C48.570814,7.5437454 48.7405498,9.38724924 48.7724803,11.0257326 C48.3876338,10.7585338 47.9809402,10.5148619 47.5372745,10.3031194 C47.5591216,9.97206176 47.5843299,9.64268459 47.602816,9.31162693 C45.8449584,9.63428211 44.0988648,10.0728915 42.3729377,10.5703182 C42.5006597,8.90326646 42.7930757,6.88331058 44.3358226,6.18926583 M69.3609247,32.0689003 C69.3726885,32.2655183 69.3861329,32.4638168 69.3978968,32.6604348 C61.2186495,33.1578616 53.27636,34.8753282 45.6147228,37.7758639 C45.63657,34.8887722 45.6533755,32.003361 45.6533755,29.1616427 L45.6533755,28.9851906 C45.9357083,28.9347758 46.2919853,28.8641949 46.7524566,28.7684067 C46.7759843,28.5364983 46.8532897,27.4357736 46.9020257,26.8375171 C54.2830108,29.1381157 61.8018011,30.7110598 69.3609247,32.0689003 M70.7692274,46.7396282 C70.7524218,46.7345867 70.7372969,46.7295452 70.725533,46.7245037 C70.710408,46.6908938 70.6952831,46.6522424 70.6835192,46.6119105 C70.6011721,46.3396702 70.4398391,45.817036 70.3558115,45.5414347 C70.3037144,45.0087176 69.6230908,44.1264573 68.9559116,44.0037811 C67.5442478,43.5971011 65.2570163,44.1449428 65.3393634,45.9380317 C65.6536266,48.1310787 66.8535408,49.8098939 66.6182635,52.1222561 C66.6132219,52.1726709 66.5997775,52.2062809 66.5896942,52.2432518 C66.5291943,52.2634177 66.4535694,52.2886251 66.3645002,52.3155131 C66.0485564,52.4415503 65.7998346,52.6331268 65.5998489,52.8549522 C64.7545312,53.6582292 65.2502941,54.8833106 65.3477661,55.6647411 C65.4788492,56.6898435 63.5428531,56.7587438 63.2823675,58.0073522 C62.9815487,58.8862514 63.2857286,59.6323916 62.7597158,60.2861044 C61.6236626,60.4205441 60.4220678,61.0910619 60.2355265,62.4287365 C60.0489852,64.4386094 62.2908418,65.4990022 60.8707752,66.756013 C60.2842625,67.8500158 60.1599016,69.0818191 60.3699707,70.2346392 C55.2510088,70.0497847 49.9824778,69.8850961 44.6736136,69.738893 C45.2651679,59.3517488 45.5290146,48.6150614 45.6130422,38.0800336 C53.7973312,37.5775654 61.749704,35.8769037 69.4163829,32.9662851 C69.6852712,37.5641214 70.0953259,42.1569163 70.7692274,46.7396282 M71.3876705,36.9137696 C71.9573777,39.2227707 72.6648902,41.494801 73.4547497,43.7500263 C73.3102222,45.1313938 73.6664993,49.3813675 74.1908315,52.2970276 C74.0496651,52.2113223 73.8967349,52.128978 73.723638,52.0499947 C73.2866945,51.8500158 72.8783203,51.7172566 72.7606816,51.6298708 C71.8750307,50.5392291 72.9354591,48.0470539 71.3187679,46.9799391 C71.2011293,46.9093583 71.1036572,46.8656654 71.0196296,46.8320555 C71.2649902,43.5197983 71.370865,40.2159437 71.3876705,36.9137696 M86.9563056,75.4895494 C87.0050417,74.5921647 86.2992098,73.7283899 85.8286552,73.0561916 C85.2740729,71.9705913 85.8572245,70.9925428 85.0001429,69.5758849 C84.5043801,68.7020271 83.2557298,68.545741 82.538134,68.3054301 C82.1247182,68.0483143 82.1633709,68.1121731 82.3784816,67.4803067 C82.9364249,66.4972167 82.4625092,64.8352064 81.4138447,64.3293772 C80.3702218,63.6420544 79.3417239,63.5849176 78.7283223,62.8656654 C78.7266418,62.8505409 78.7249612,62.8539019 78.7216001,62.8438189 C78.7316834,62.8370969 78.7468084,62.8118895 78.766975,62.7530722 C78.8745304,62.5631761 79.1803909,62.2825333 79.4828902,61.7951896 C80.3685412,60.6322865 79.3282794,59.1534503 78.6241281,58.1770822 C78.6611002,58.0930575 78.8039472,57.8325806 78.9619191,57.6275601 C79.6811954,56.5940552 80.1803194,55.5891188 79.3904599,54.2262367 C78.4258229,53.0515702 77.4158111,53.6262998 76.4091604,53.715366 C75.6041759,53.6111753 75.2680655,53.0919021 74.5992057,52.5776704 C75.1924406,49.4990022 75.4142735,46.3951266 75.4630095,43.2727655 C74.3538451,39.7890978 73.0699032,36.3844134 71.3742261,33.1427371 C71.3624623,32.2201449 71.3540595,31.2958723 71.3322123,30.3732801 C64.6083232,29.0255225 57.8575452,27.847495 51.0143368,27.1484088 C51.471447,24.6495116 51.6798355,22.1522949 51.8411685,19.6567587 L51.8663768,19.2685642 C51.1723088,18.6635858 50.4463102,18.0955782 49.7371172,17.5040437 C50.2059913,16.3697091 50.4866435,13.5616007 50.3068244,12.2676189 C49.9236585,11.9180758 49.5287287,11.5920597 49.118674,11.2828484 C49.8127421,9.34859784 50.1085192,7.20596576 48.6800499,5.35742044 C47.1709141,4.14410251 47.3255249,1.81157441 47.0684004,0 L44.976113,0.0957882575 C44.9945991,1.83174036 44.6584886,3.91387459 43.508991,4.80789833 C43.0468391,5.13223401 42.5090624,5.64478521 42.2637018,6.19766831 C41.6133281,7.60928474 41.7578556,9.21247768 42.2267297,10.6140111 C41.5561894,10.8106291 40.8772463,10.9854007 40.2201504,11.2105871 C40.3377891,13.2960823 40.5360942,15.3580506 41.0251349,17.4267409 C40.2856919,17.6720933 39.5412073,17.9006407 38.8101671,18.1644785 C38.9530141,20.3272765 39.1714859,22.4816721 39.5412073,24.6377481 C35.6255208,23.7353219 31.6896677,22.925323 27.7420507,22.1674194 L27.2059546,22.0665896 C27.2059546,22.0665896 26.8160665,22.4497427 26.8160665,22.4497427 C21.9962429,27.3198193 16.8470311,32.1478836 12.5969147,37.4582502 C12.6137203,37.6750341 12.7111923,38.918601 12.7515255,39.4244302 C8.05606283,42.6997164 3.98576553,46.8673459 -0.000504165644,50.9375066 C1.6514786,50.5022582 3.31186412,50.0602878 4.97224964,49.6015124 C4.68991688,56.491545 4.47312565,63.3849386 4.35884811,70.2783321 L4.99241627,70.3069005 C4.99241627,70.3069005 7.89977148,70.4379792 11.1247511,70.5841823 C11.3045701,71.8781641 11.556653,73.1704653 11.8944439,74.4594055 C12.2271933,73.1939922 12.4742344,71.9235374 12.652373,70.6530827 C16.2000185,70.8144103 19.6434699,70.9706964 19.6434699,70.9706964 C22.757533,71.0849701 25.9505821,71.1958828 29.1738811,71.305115 C29.3385752,72.3571053 29.5318387,73.4090957 29.7872827,74.4594055 C29.9402129,73.8224976 30.0696154,73.1855897 30.1906152,72.5486819 L30.1486014,73.5149669 C30.1486014,73.5149669 30.1452403,73.6107552 30.1452403,73.6107552 C30.3216982,73.6309211 38.4169179,74.1854847 38.5866537,74.2056507 C46.5995264,74.7501313 55.5904803,75.2341141 63.6100752,75.640794 L64.5411011,75.6744039 C64.5394205,75.5282008 64.5411011,75.2374751 64.5444622,74.88121 C66.8333742,75.261002 69.1256474,75.5937402 71.4229621,75.8945489 L71.5153925,78.3514337 C59.6574165,77.4456465 47.7859962,76.9734272 35.887687,77.3498582 C35.8271871,76.4793614 35.7465206,75.6088646 35.6574513,74.7383678 C35.5532571,75.7668312 35.4541045,76.7952946 35.3919241,77.823758 C47.9624541,79.3479677 60.5918035,79.9092532 73.2413196,80 C73.1640142,79.3782166 72.9640285,77.8540069 72.7959732,76.5583447 C73.0699032,76.4642369 73.3488749,76.3970171 73.6194438,76.4390295 C74.1387344,76.4911249 74.0547068,77.0423275 74.4899698,77.2742359 C75.3504125,77.640584 76.2108552,77.3061653 77.0393674,77.044008 C77.4578249,77.0742569 77.9804766,76.9734272 78.3417953,76.7297553 C78.9955301,76.3230753 79.9467226,76.0810839 80.5584436,76.4944859 C80.6626378,76.6961454 80.7987626,77.1078668 81.2844421,77.2994433 C82.2726068,77.4910199 82.9986053,77.5632812 83.9582006,77.5195883 C85.1026566,77.3229703 86.2555154,78.0254175 87,76.844029 C86.853792,76.3919756 86.9395001,76.1835942 86.9563056,75.4895494" id="Fill-1" fill="#FFFFFF" mask="url(#mask-2)"></path>
                </g>
                <path d="M51.71814,42.9954611 C52.0675922,41.9515386 52.8298777,40.9951819 53.5270691,41.0827478 C55.5381323,41.062144 55.8413334,42.3121039 55.8498984,44.0754401 C55.9937905,45.8422103 56.1839336,47.7532066 56.4066238,49.5388636 C54.7210308,49.9509383 52.9532137,50.4849184 50.8667785,50.9982947 C52.8709897,51.0017287 55.5347063,51.0171815 57.9774457,50.8180121 C57.9962887,49.2143548 58.0185577,47.5935277 57.9740197,45.9933044 C57.8746656,44.4978167 58.0442527,43.2942152 57.6982265,41.6699542 C56.797188,38.7648277 52.6020485,38.0608668 50.9918276,40.4028246 C50.4488063,41.144559 50.1593091,41.8845764 50,42.7602351 C50.1319011,45.7220219 50.5515863,48.6357332 50.8667785,50.9982947 C51.1734057,47.9678289 51.5742479,45.4387205 51.71814,42.9954611" id="Fill-4" fill="#FFFFFF"></path>
            </g>
        </g>
    </g>
</svg>