<?xml version="1.0" encoding="UTF-8"?>
<svg width="68px" height="95px" viewBox="0 0 68 95" version="1.1" xmlns="http://www.w3.org/2000/svg" xmlns:xlink="http://www.w3.org/1999/xlink">
    <title>illustrazione chamois</title>
    <defs>
        <polygon id="path-1" points="2.71848243e-16 0 68 0 68 95 2.71848243e-16 95"></polygon>
    </defs>
    <g id="Page-1" stroke="none" stroke-width="1" fill="none" fill-rule="evenodd">
        <g id="Box-chamois" transform="translate(-146.3787, -223)">
            <g id="illustrazione-chamois" transform="translate(146.3787, 223)">
                <path d="M42,48.5021972 C41.8511702,52.1591473 37.5207041,52.2507178 37.5039008,48.5021972 C37.5255051,44.7607205 41.8511702,44.8475951 42,48.5021972 C41.974795,43.7921864 36.1608322,43.8731911 36,48.5021972 C36.1644329,53.1229855 41.9723945,53.2086861 42,48.5021972" id="Fill-1" fill="#FFFFFF"></path>
                <path d="M48.88308,52 C50.6451406,51.6054648 50.9583958,49.574142 51,48.0013329 C50.8152284,52.0519827 47.4746552,52.3532156 47.5333906,48.0026658 C47.4819971,43.6587804 50.8127811,43.9546818 51,48.0013329 C50.9571721,46.4285238 50.6488115,44.395868 48.88308,44 C45.0371381,44.0439853 45.040809,51.9533489 48.88308,52" id="Fill-3" fill="#FFFFFF"></path>
                <path d="M38.2506466,33.6698931 C38.3962117,32.941169 38.6157723,32.013702 39.2210804,31.6746699 C40.3540619,31.3836999 41.5210086,32.1942593 41.5197956,33.4737481 C41.4397348,35.1065576 41.4130479,37.6486486 41.4433739,39.6724492 C40.2752142,40.0569453 39.0524676,40.5557511 37.6259298,41 C38.9833241,40.8493191 40.7106964,40.7609889 42.3434513,40.4882045 C42.6285162,38.1552482 42.8492899,35.8131992 42.994855,33.4698512 C43.1634679,30.5016969 39.1422327,28.6077937 37.6198646,31.278483 C37.2147085,32.0552691 37.0545869,32.7891891 37,33.6075423 C37.0752086,35.872952 37.3990909,38.752776 37.6259298,41 C37.8163775,38.5254557 38.1548163,35.8041064 38.2506466,33.6698931" id="Fill-5" fill="#FFFFFF"></path>
                <path d="M51.3089105,41 C50.0837623,40.6339997 49.0421223,40.2445545 48.0546105,39.9189314 C48.4810361,37.3126443 48.3688188,34.4185064 48.9206636,31.9294436 C48.9919546,31.8004969 49.0408021,31.7510022 49.1569799,31.689785 C49.2493941,31.6324754 49.5266367,31.5816782 49.6494156,31.5868881 C49.7418298,31.5295785 49.9794663,31.7431872 50.1972997,32.1821271 C50.8547608,33.7333954 50.6105232,35.3211336 50.8983275,37.1016405 C51.0171457,38.0706948 51.2191368,40.0244333 51.3089105,41 C51.3089105,41 51.7194936,37.4858758 51.7194936,37.4858758 C51.8409523,35.5855395 52.3360284,33.4924344 51.6231188,31.6012156 C51.0989983,29.6826444 48.4137057,29.4247509 47.4539182,31.1726956 C47.0736998,31.9672159 47.1001039,32.6054371 47.0525766,33.2097935 C46.9680836,35.6936464 46.9852462,38.1579618 47.1053847,40.6379071 C48.5562876,40.8241635 50.1220482,40.9010106 51.3089105,41" id="Fill-7" fill="#FFFFFF"></path>
                <g id="Group-11">
                    <mask id="mask-2" fill="white">
                        <use xlink:href="#path-1"></use>
                    </mask>
                    <g id="Clip-10"></g>
                    <path d="M52.5605454,66.7344058 C56.8467965,67.4357481 61.1865015,67.814548 65.5224772,68.0620805 C65.143328,70.8724503 64.9605905,73.6828201 64.8872468,76.4931899 C60.471712,77.9921371 56.1295208,79.6598566 51.9750395,81.8176405 C52.1987997,76.8982432 52.3927252,71.8400776 52.5605454,66.7344058 M43.9221581,71.1637386 C43.9358323,71.1649888 43.9495065,71.1687393 43.9644239,71.1712396 L44.696617,71.3312607 C44.8470336,70.1361034 44.5723058,69.0672128 44.0352813,68.1308396 C45.1975913,58.3558034 45.69235,48.52576 45.9310275,38.6894657 C45.9484311,35.2502632 46.0267472,31.813561 45.9272982,28.3693578 C45.6687308,27.6292604 45.3132007,26.911666 44.9875053,26.1903211 C47.7484577,27.1566982 51.2291721,28.2030859 54.37176,29.1807146 L52.3417576,30.2596065 L52.0483831,30.4158771 C51.8457558,34.8014541 51.7836002,39.1907817 51.6468578,43.5776089 C51.2925708,55.3529083 51.1757183,69.8760692 51.2304152,81.7588827 C48.5651825,82.9127846 45.8912479,84.0416831 43.2372032,85.2243387 C44.3932976,80.5874786 44.6133285,75.8843598 43.9221581,71.1637386 M42.8841593,85.378109 C42.0550034,84.6055073 41.1152105,84.3642256 40.1256931,84.6742664 C39.969061,84.2604619 39.7962684,83.7954007 39.8124288,83.7703974 C39.9417125,83.4453547 40.3593983,82.9152849 40.3022151,82.3664627 C40.2947564,81.6551191 39.9205796,80.8912686 39.847236,80.3261942 L39.7950253,79.1272865 C39.7502732,78.6509738 39.7987546,78.4659495 39.9665748,78.1059021 C40.6092638,76.9732531 41.2817876,75.5655678 41.541598,74.2428938 C41.8262708,73.1852546 41.9456095,71.7488156 41.8548623,70.2586196 C42.3595659,70.7061784 43.0047412,70.9962166 43.6797512,71.1199829 C42.5534914,75.7918476 42.3483779,80.529971 43.0954884,85.2855968 C43.0258741,85.3168509 42.9550167,85.3468548 42.8841593,85.378109 M38.6103393,91.6601856 C38.220002,91.5776747 37.5947165,91.412653 37.3175025,91.2788854 C37.1931913,91.2363798 37.1670859,91.3163903 37.2826953,90.926339 C38.5916926,88.3847546 38.452464,85.2368404 37.0477471,82.7502632 C36.5641764,82.1689367 36.6723272,82.4002171 36.5082364,81.6626201 C35.8904096,80.5662258 34.9170527,80.8475128 34.0779519,80.157422 C32.4842819,79.2860574 31.4176916,77.9408804 30.7998648,76.2319055 C30.7998648,76.2319055 29.6686326,73.8028359 29.6673895,73.8028359 C30.0689147,74.7567114 30.4120137,75.9943743 30.8607773,77.1082708 C29.3118593,78.0621463 27.4583789,78.2696736 25.7205079,78.1921634 C23.7924408,78.3834386 21.9886849,78.2196671 20.0941817,78.0959008 C20.351506,76.9582511 20.8114575,75.8956113 21.6294254,74.9979932 C19.7374085,76.2931636 19.1382284,78.6884787 18.5303465,80.7975063 C18.3339347,81.5163508 19.0524536,82.3227069 19.067371,82.8677787 C19.0549398,83.1615673 18.5688829,83.8216542 18.5191585,84.2642124 C18.2804809,85.7394065 17.7795066,87.8809383 18.4395993,89.2686209 C18.3451227,89.4536452 18.0616931,89.5974141 17.6974612,89.5574089 C17.484889,89.5086525 17.57315,89.558659 17.5271548,89.4924003 C17.4028436,88.6597908 17.8168,87.5146401 17.7807498,86.5807672 C17.9585148,85.1918345 17.5085082,83.4153507 17.0497997,82.1439334 C16.7340492,80.8387617 16.7626408,79.4285761 16.6979989,77.9233781 C16.5040734,76.364423 15.7805821,75.1167588 15.6189775,73.6615673 C15.4760196,74.776714 15.7843114,75.8931109 15.9024071,76.9557508 C13.8848358,73.4190354 11.1263697,70.3886367 9.72413901,66.5981379 C9.26543057,65.4754902 9.09263797,63.9502895 8.22743181,62.8351428 C8.95713873,62.6576194 9.64830916,62.1663048 10.0274584,61.544973 C10.3046724,61.157422 10.5818865,60.6486051 10.4463872,60.1660416 C10.310888,61.0261548 9.30148083,61.6012304 8.61901218,61.9037702 C7.96264889,62.1050467 7.01912667,61.7049941 6.06690265,61.6174826 C4.42599443,61.3674497 2.63715585,61.1461705 1.80799995,59.6434728 C1.52332724,59.067147 1.26848922,58.6983485 1.93976985,58.3745559 C2.62969718,58.0195091 3.734824,57.7744769 4.54036076,56.976872 C5.29492992,56.3405382 5.5659284,55.2428938 6.01593505,54.4752928 C6.15516363,54.3065206 6.07436133,54.2990196 6.36152027,54.2502632 C6.89605855,54.1602513 7.60214633,54.0489867 8.1553313,53.9539742 C8.47605427,54.9716081 8.70230071,54.9691078 9.07896373,53.9314712 C8.89871245,52.8825832 8.40022442,52.8675813 8.1553313,53.8589617 C8.00864405,53.8327083 7.83585144,53.8064548 7.65187082,53.7827017 C7.91416752,53.1351165 8.04220808,52.516285 8.19013844,51.9224569 C8.56680147,50.3860047 8.73835096,48.6432754 10.3718005,48.2432228 C9.29277904,50.5547769 9.75148748,53.0463548 9.76516171,55.4754244 C9.67690074,52.7300632 9.8745556,47.1543295 13.6859379,47.6631465 C14.0936787,47.7756613 14.4168879,48.1132057 14.5996254,48.4970062 C14.5983823,48.4970062 14.5983823,48.4970062 14.5971392,48.495756 C10.6166936,47.8656731 11.8237557,54.2290104 11.915746,56.1855178 C11.2121444,56.2955323 9.89444539,56.4380511 9.76516171,55.4754244 C9.86709692,56.4630543 11.2021995,56.3355376 11.9368789,56.3230359 L11.9915758,56.3192854 C12.0102225,56.0404987 12.0500021,55.7629622 12.0773506,55.4841755 C13.100432,56.8343532 13.54298,58.4920713 14.4417501,59.9710159 C16.4518627,62.9626596 19.1295266,65.9968088 22.8737808,66.4743716 C26.5807416,67.1707133 30.1882535,66.143078 33.7323666,65.2129557 C34.4073766,64.9366693 35.297445,64.3940979 36.0644453,64.3965982 C37.9328431,64.0240492 38.7545403,64.9491709 39.4954352,66.523128 C40.921285,69.539775 40.5483513,73.2515134 39.2194643,76.2631596 C39.0541304,76.6219568 38.8154528,76.9932557 38.596665,77.4695684 C37.9999711,78.8409988 38.3455563,80.5962298 38.7644852,81.9176536 C39.0404561,82.6152454 38.5904495,82.7140084 38.4139275,83.4778589 C38.2697265,84.4942427 39.0131076,85.264344 39.1299602,86.1419595 C39.0852082,87.28586 38.4922436,88.9010725 39.3897707,89.8812015 L39.3922569,89.8937031 C38.8577186,90.2875049 38.6327153,91.1263653 38.6103393,91.6601856 M36.0880644,93.0891236 C36.0806058,93.0891236 36.0818489,93.0891236 36.0756333,93.0891236 C36.1564356,92.8290894 36.3205264,92.5077971 36.5132088,92.1640018 C37.0315867,92.5590538 37.5710974,92.6378142 38.1292548,92.8440913 C38.1230392,93.0853731 38.1292548,93.3179037 38.1391997,93.5304316 C37.5126711,93.3616594 36.7270241,93.145381 36.0880644,93.0891236 M36.017207,93.3291552 C36.0184501,93.3004014 36.0358537,93.2616463 36.0408262,93.2303922 C36.0669315,93.3291552 36.0209364,93.4179168 36.017207,93.3291552 M35.7946899,83.9091657 C35.6330853,83.1415647 35.5125034,82.3627122 35.4130545,81.5638571 C35.6144386,81.6763719 35.762369,81.7963877 35.784745,81.9139031 C35.8257677,82.0176668 35.7897175,82.2651994 35.9339185,82.6152454 C36.0893075,82.931537 36.3105815,83.0940584 36.3503611,83.1903211 C36.4796448,83.4566061 36.5977405,83.7403935 36.7021619,84.032932 C36.4199754,83.8604093 36.1141698,83.8191538 35.7946899,83.9091657 M35.3049037,87.1433412 C35.0699555,87.6546585 34.4185646,87.8209304 34.1512955,88.4322608 C33.9983927,88.7585538 33.9586131,89.1973615 33.7982516,89.5024016 C33.3656485,90.0987301 33.7559858,89.9162061 32.6993403,89.6299184 C34.5093118,86.9333136 34.3937024,82.9127846 32.851,79.9423937 C33.4862304,80.5062179 34.1873457,80.9900316 34.9680203,81.3575799 C35.1234093,81.4163377 35.2626379,81.4813462 35.3869491,81.5501053 C35.2017254,82.4389722 35.1445422,83.349092 35.142056,84.2717134 C35.0637399,84.3367219 34.9854238,84.39798 34.9083509,84.4779905 C34.9879101,84.6267601 35.0736848,84.7567772 35.1631889,84.8717923 C35.230317,85.750658 35.4826687,86.693282 35.3049037,87.1433412 M32.9939579,91.7064416 C32.9380179,91.6451836 32.3027875,91.7276944 31.9857939,91.6526846 C31.8403497,91.6476839 31.6576122,91.6114291 31.4972507,91.5789249 C31.5544339,91.3813989 31.5942135,91.1801224 31.621562,90.9763456 C31.7060936,91.0063495 31.7893821,91.0313528 31.8577533,91.0413541 C32.1672883,91.0963614 32.4196401,91.1213647 32.3661862,91.1263653 C32.6396709,91.2813857 32.8982383,91.3513949 33.149347,91.3863995 C33.1008656,91.5314186 33.0561136,91.6726872 32.9964442,91.7589485 C32.9516921,91.8339584 32.9305592,91.7902027 32.9939579,91.7064416 M20.2831348,82.8765298 C20.2831348,82.8752796 20.2831348,82.8752796 20.2831348,82.8740295 C20.2818917,81.9389064 19.5733177,81.6201145 19.5496985,80.871266 C19.5671021,80.3599487 19.8542611,79.5073365 19.9437651,78.8322477 C19.9785723,78.5972167 20.0345123,78.3671865 20.0854799,78.1371562 C21.6679619,79.4323266 23.7439594,79.8873865 25.7167786,79.7598697 C25.7167786,79.7598697 27.1985685,79.678609 27.1985685,79.6798592 C28.7201379,79.4335768 30.2479229,78.6309712 30.9018,77.2045335 C31.1429637,77.7921108 31.4139622,78.3434333 31.7421439,78.7909922 C32.0131423,79.131037 32.3114893,79.4410778 32.6222674,79.7373668 C32.8634312,80.9312739 33.0088753,82.1814383 32.984013,83.4228517 C32.7863582,83.3578431 32.5576255,83.5041124 32.3201911,83.8666601 C28.3882269,82.7252599 24.3617862,82.3889657 20.2831348,82.8765298 M18.3625263,91.861462 C18.0231566,92.0314844 16.3648449,91.6589354 16.4021382,91.671437 C16.2927443,91.4601592 16.4257574,91.08636 16.5886051,90.713811 C16.6308709,90.7525661 16.65449,90.7963219 16.7029714,90.8338268 C17.3220413,91.2201276 18.1114176,91.2101263 18.7603222,90.9250888 C18.7180564,91.1613699 18.6770337,91.3876497 18.6198505,91.5689235 C18.502998,91.8514607 18.4483011,91.8589617 18.3625263,91.861462 M15.3579239,91.1476181 C14.9675866,90.9713449 14.5722769,90.797572 14.3025216,90.6025464 C14.6941019,89.976214 15.1851313,89.2823727 15.3740844,88.4822674 C15.6053032,88.4497631 15.8340359,88.3835044 16.0515806,88.2847414 C15.9247831,89.0023358 15.878788,89.7111791 16.2368043,90.3037571 C15.7942563,90.5675418 15.514556,90.8550796 15.3579239,91.1476181 M14.0315231,75.6743321 C14.6232445,76.2556586 15.2535025,76.8169825 15.934728,77.3495526 C15.9471591,77.5520792 15.9508885,77.7533557 15.9384573,77.9508817 C15.8278203,79.3298131 15.6077895,80.8425122 15.8613844,82.3902158 C16.1945385,83.919167 16.5426099,84.9343006 16.311391,86.4832544 C16.3188497,86.9495657 16.2057265,87.4646335 16.1050344,87.9847019 C15.4325106,88.0547111 14.8370599,88.023457 14.7115055,87.3883735 C14.8370599,86.8120476 15.2845803,86.2582248 15.4536435,85.5981379 C15.8850035,84.3179695 15.3454928,82.7365114 14.8320874,81.6376168 C14.7798767,81.4013357 14.9017017,81.1988091 14.9365088,80.8725161 C15.038444,79.2573036 14.5225524,77.8946243 14.2950629,76.3394197 C14.2242055,76.1006382 14.1284858,75.8868601 14.0315231,75.6743321 M12.4676878,81.2538163 C12.7051223,78.6709764 12.6640996,76.1081392 12.1071853,73.5828069 C12.3682388,73.8953481 12.6280493,74.2116397 12.8965616,74.510429 C13.0270884,75.1880182 13.2421468,75.8581063 13.2893851,76.4944401 C13.2893851,76.4944401 13.3043024,77.5770825 13.3043024,77.5770825 C13.2371743,78.7709896 13.6660481,80.0136531 13.3154904,81.1313002 C13.2819264,81.305073 13.2744677,81.4738452 13.2844126,81.6363666 C13.0146572,81.5013489 12.7424156,81.3738321 12.4676878,81.2538163 M20.0606177,54.8953481 C24.7546097,57.8094815 29.4747071,60.6836097 34.2258822,63.5014805 C33.8591641,63.6627517 33.503634,63.832774 33.2102595,63.9652915 C30.0005436,64.8166535 26.4054628,66.0368141 23.0838668,65.5104948 C19.521107,65.1842019 16.89814,62.4250888 14.7860922,59.7447361 C14.7699318,59.7222332 14.7575007,59.6959797 14.7425833,59.6734768 C16.5388806,58.1057705 18.2916689,56.4918081 20.0606177,54.8953481 M34.1189746,55.3841624 C34.0866536,57.509442 34.0642776,59.6359718 34.0468741,61.7612515 C29.8202923,59.3921898 25.5688482,57.068134 21.2987575,54.7778326 C25.5278255,55.7492104 29.8128336,55.9554876 34.1189746,55.3841624 M41.3029205,67.0957034 C42.061219,67.9258126 42.7300134,68.7909264 43.1166213,69.7660547 C42.6181333,69.6985459 42.1867733,69.5410251 41.762872,69.2734899 C41.6683955,68.5296421 41.5179789,67.7945453 41.3029205,67.0957034 M39.260487,26.8516581 C39.2791337,26.7241413 39.2865924,26.5941242 39.305239,26.4653573 C41.1686644,26.3815963 43.0296035,26.2753323 44.8905425,26.1565667 C44.9042168,26.1615673 44.9203772,26.166568 44.9340515,26.1715686 C45.127977,26.9016647 45.3865444,27.9843071 45.5357178,28.3506053 C45.1254908,31.7723056 44.8942719,35.2027569 44.6008974,38.6294578 C43.9582083,48.3344848 43.5678711,58.0570141 43.8239522,67.7857942 C42.968691,66.5006251 41.6124554,65.4917423 40.190335,64.7828991 C39.238111,63.4639755 37.8483114,62.6738716 35.8854371,63.0201671 C35.7573966,63.0214173 35.6131955,63.0589222 35.4727238,63.0864258 L35.4752101,62.9939137 C35.6318422,57.455685 35.7337774,51.9174562 35.7946899,46.3779774 C35.8655473,40.7622385 35.8381989,35.1439992 35.7797726,29.52576 C34.8524108,28.7969141 33.9188335,28.074319 32.9790406,27.3592249 C35.0575243,27.0741874 37.1372512,26.8004014 39.2120056,26.4716081 C39.2294092,26.5991249 39.2418403,26.7253915 39.260487,26.8516581 M40.5371633,13.3623832 C42.0288981,11.6046519 43.0755986,9.2780958 43.7580673,7.06530465 L44.5362555,4.76875247 C45.2995265,6.91653507 45.9608622,8.97930649 46.8521737,11.1308396 C47.8752552,13.2048625 49.3247241,14.896335 49.5994519,17.2791486 C49.7535978,18.0967562 49.8281846,18.9343664 49.8903402,19.7769772 C49.1705782,19.1743979 48.4533024,18.5680682 47.7260817,17.9767404 C46.1883518,17.9767404 44.6369476,17.8929793 43.1041902,17.9867417 C41.806381,18.3267864 40.5160304,18.7168377 39.2281661,19.1056389 C39.1448775,17.0753718 39.2592439,14.9663443 40.5371633,13.3623832 M47.8702827,19.9457494 C48.5092424,20.4095605 49.1482021,20.8733715 49.799593,21.3209304 C49.9077437,23.248684 50.0755639,25.1701869 50.3403468,27.0854389 C49.4042833,26.8416568 48.4657335,26.6091262 47.5284268,26.3715949 C48.3637983,24.2450651 48.4719491,22.0835307 47.8702827,19.9457494 M39.8683689,20.2982958 C40.9001521,20.0757665 41.9306922,19.8469864 42.9550167,19.5957034 C42.2439565,21.6947296 42.349621,23.8287604 43.2894139,25.9165351 C41.9605269,26.0915581 40.6316398,26.265331 39.305239,26.4591065 C39.5886686,24.4125872 39.7552457,22.3585669 39.8683689,20.2982958 M43.3006019,25.9152849 C44.2540691,23.7950059 44.34233,21.6272207 43.5939764,19.4956902 C44.7910936,19.5144427 45.9882107,19.501941 47.1853278,19.4869391 C46.4332449,21.7597381 46.4904281,24.0650415 47.3717947,26.3315897 C46.5413957,26.121562 45.7134829,25.9027833 44.8818408,25.7002566 C44.353518,25.7665153 43.8276815,25.8452757 43.3006019,25.9152849 M63.2935769,66.469371 C61.8267044,66.4343664 60.3585888,66.4118634 58.88923,66.4181142 C56.7833978,66.4268654 54.6750794,66.5006251 52.5630316,66.6431438 C52.6624806,63.6177458 52.7532278,60.5785959 52.8303007,57.5331952 C56.1518968,60.7311159 59.6786063,63.657751 63.2935769,66.469371 M65.7151596,68.073332 C66.4771874,68.1158376 67.2392153,68.1633439 68,68.1995986 C63.1170549,64.3478418 58.1657387,60.5710949 52.8365163,57.3156665 C53.0627627,48.4595013 53.198262,39.5983353 53.2330691,31.137222 C54.2375038,30.5458942 56.4800784,29.2407225 57.1016346,28.8681734 C54.8839222,28.2768456 52.6624806,27.6892683 50.4385527,27.1104422 C50.7207392,25.0751744 50.8972611,23.0336557 51.0054119,20.9846361 L51.017843,20.7146006 C50.7008494,20.4358139 50.3676953,20.1770299 50.0457292,19.9057442 C50.1464213,19.0168772 50.2011182,18.1217594 50.1712836,17.2166403 C50.2881361,14.8313265 48.9194695,12.7197987 48.0331304,10.6182721 C46.9006551,7.09280826 45.7656936,3.47983287 44.4629119,-0.000625082248 C44.0129053,1.39455849 42.8381642,5.16880511 42.3719971,6.60649428 C41.8125965,8.7217726 40.9660371,10.9695684 39.7191954,12.7798066 C38.4934867,14.6425517 38.6115824,17.0578695 39.1038548,19.1431438 C38.9335485,19.1944006 38.7632421,19.2444072 38.5929357,19.2956639 C38.7110314,21.6947296 38.8813377,24.0887946 39.2120056,26.4716081 C36.6027129,26.5603698 33.9959064,26.7328925 31.3903431,26.8641598 C32.5302771,27.9080471 33.7050182,28.9344322 34.8747868,29.9445651 C34.6286506,35.4127846 34.4135922,40.8810041 34.2917672,46.3517239 C34.223396,49.2321029 34.1674559,52.1124819 34.123947,54.9928609 C29.662417,53.9327214 25.1374883,53.7376957 20.5914266,54.3952823 C20.3776113,54.2815173 20.1650391,54.1640018 19.9512238,54.0489867 C18.2108666,55.9179826 16.444404,57.7594749 14.7313953,59.6547243 C13.8226802,58.3107975 13.2185277,56.6818331 12.0810799,55.4479208 C12.1345337,54.9141005 12.181772,54.3790301 12.247657,53.8464601 C12.4192065,52.5475391 12.4826052,50.5835307 13.610108,49.9084419 C14.1732379,49.4921371 15.1801588,50.714798 15.6774038,51.1060995 L16.0776859,50.1647256 C16.8061497,48.4770036 15.6985367,46.656764 14.0800045,46.2817147 C12.6317787,45.9941769 11.285488,46.7192723 10.5669691,47.8869259 C9.24305455,47.0118108 7.50891291,48.1957165 7.14219478,49.6721608 C6.75807309,51.1085998 6.92216391,52.5112844 7.55615118,53.7714502 C7.36222566,53.7464469 7.17078637,53.7239439 7.03404401,53.7039413 C6.60019783,53.6826885 6.32795623,53.5764245 5.86178913,53.6889393 C5.66289116,53.7939532 5.50252967,53.9302211 5.35708554,54.0777405 C5.77477127,51.7549349 5.70640009,49.5433939 6.77050421,47.5881366 C7.26899224,46.8292867 8.64511754,46.382978 9.5314566,46.4267338 C10.0199997,46.4792407 10.5085429,46.7367746 10.920013,47.1780826 C10.8230503,46.5780037 10.3842316,46.010429 9.77759284,45.6966377 C4.24450004,44.065173 3.85540589,50.7035465 4.9182669,54.6190617 C4.57143857,55.13788 4.28925208,55.7029543 3.75347068,56.0505001 C2.79751733,56.7780958 1.46490096,56.6480787 0.500245824,57.5719503 C-0.662064166,58.9508817 0.411984852,60.7911238 1.57802418,61.7062442 C3.29600536,62.9851625 5.39935135,62.7826359 7.3460652,62.8888999 C7.58971521,62.9264048 7.83958078,62.9151533 8.08820324,62.8701474 C8.44000401,64.1815699 8.23861982,65.4854915 8.55934279,66.9369325 C8.88255199,68.4621332 9.49540635,69.8235623 10.2126821,71.1724898 C10.6353403,71.7450651 11.053026,72.2888867 11.473198,72.8202066 C10.8242934,75.8881103 10.9523339,78.9835176 11.4657393,82.0664232 C12.0997266,82.11768 12.7337139,82.1476839 13.3739167,82.1464337 C13.6312409,83.0690551 14.3224114,83.8741611 14.2030726,84.8817937 C14.2689575,85.849421 13.4907692,86.7070338 13.8848358,87.734669 C14.0626009,88.1134689 14.3323563,88.3209962 14.6369188,88.4247598 C13.6548601,88.9248256 12.6703151,89.6674233 12.7200396,90.8063232 C12.9450429,91.982728 14.2565264,92.1152454 15.2050211,91.7351954 C15.2211815,92.940354 17.1629229,93.9554876 19.0176465,93.1928872 C20.1352044,92.484044 19.8940406,91.3551454 19.5248363,90.356264 C19.798321,90.0362219 19.9760861,89.6411699 19.9611687,89.1723582 C19.7411378,88.0547111 19.521107,88.0434597 19.5745608,87.1345901 C19.6118542,86.3732399 19.7523258,85.3868601 19.8281557,84.5492499 C19.9077149,84.0479339 20.1886583,83.7278918 20.2557863,83.1203119 C24.17159,84.3442229 28.1843565,84.7517765 32.2505768,84.3542242 C32.3997503,84.8255363 32.6098362,85.0280629 32.8547294,84.9568035 C32.6160518,86.6270233 32.0305459,88.2184827 30.9055293,89.5349059 C30.8147821,89.6611725 30.7414385,89.9974668 30.8209977,90.2099947 C30.8520755,90.3612646 30.9328778,90.4850309 31.0310836,90.5950454 C30.592265,91.0913607 30.1522033,91.5464206 29.7556504,92.1077444 C30.4331466,92.7865838 31.0882668,93.1166272 31.7856528,93.1928872 C32.5327633,93.3541584 34.1289195,93.1366298 34.2084787,92.0777405 C34.2271253,91.7789512 34.1997769,91.4976642 34.1475661,91.2251283 C34.8673282,90.8538295 35.3546282,89.9862153 35.4142976,89.0273391 C35.7089152,88.6147848 36.4187323,88.0959666 36.4808879,87.460883 C36.6238458,86.7595407 36.4237047,86.1869654 36.2807468,85.7319055 C36.2484259,85.6356428 36.2248068,85.53813 36.1949721,85.4418674 C36.4609981,85.4431175 36.736969,85.3531057 37.0166693,85.1593302 C37.1409805,85.7244045 37.2192966,86.29823 37.2217828,86.8395513 C37.2031362,87.8234307 36.9445688,88.9323266 36.5455298,89.8536979 C36.238481,90.3787669 35.8369557,91.1826227 36.2036739,91.8339584 C35.3098761,92.1890051 34.2867947,93.0366167 35.0028274,94.080504 C35.6156818,94.6780826 36.0681746,94.5280629 36.7680469,94.7943479 C37.5350471,94.9068627 38.8266408,95.349421 39.3189133,94.4330504 C39.4469538,93.8892288 39.2070332,93.411666 38.9124156,92.9716081 C39.305239,92.9491051 39.6955763,92.7865838 39.8310755,92.340275 C40.0250011,91.7426964 39.8273462,91.1201145 40.2997289,90.9013357 C40.9473904,90.5525398 40.8578863,89.3861363 40.3382653,88.9498289 C40.2773528,88.7185485 40.2537337,88.4635149 40.2636786,88.2059811 C40.2885409,87.5858995 40.5371633,86.7282866 40.5098148,85.9956902 C41.3315121,86.3157323 42.2240667,86.1982169 43.1427267,85.6268917 C43.0681399,85.5443808 42.9885807,85.4781221 42.9115078,85.4043624 C42.9749065,85.3831096 43.0383052,85.3606067 43.1029471,85.3381037 C43.1178644,85.4343664 43.1278093,85.530629 43.1427267,85.6268917 C43.1713183,85.5181274 43.1924512,85.4081129 43.2197996,85.2980984 C46.1435997,84.3192196 49.0425376,83.2765824 51.9551497,82.2714502 L51.9663377,82.0101658 C51.9675808,81.9801619 51.9688239,81.9489078 51.970067,81.9189038 C56.9126815,80.9125214 61.6700722,79.3223121 66.3789816,77.5558297 C66.3205553,74.3916634 66.1415471,71.2337479 65.7151596,68.073332" id="Fill-9" fill="#FFFFFF" mask="url(#mask-2)"></path>
                </g>
            </g>
        </g>
    </g>
</svg>