<?xml version="1.0" encoding="UTF-8"?>
<svg width="75px" height="88px" viewBox="0 0 75 88" version="1.1" xmlns="http://www.w3.org/2000/svg" xmlns:xlink="http://www.w3.org/1999/xlink">
    <title>Group 3</title>
    <defs>
        <polygon id="path-1" points="0 0 75 0 75 88 0 88"></polygon>
    </defs>
    <g id="Page-1" stroke="none" stroke-width="1" fill="none" fill-rule="evenodd">
        <g id="Box-cogne" transform="translate(-141.3787, -229)">
            <g id="Group-3" transform="translate(141.3787, 229)">
                <mask id="mask-2" fill="white">
                    <use xlink:href="#path-1"></use>
                </mask>
                <g id="Clip-2"></g>
                <path d="M63.3469831,64.720401 C63.4564964,72.1200226 63.6851859,79.5261351 64.3068347,86.9046613 C62.8525629,86.877075 61.3644709,86.8478659 59.8634949,86.8186569 C60.7605374,79.4531125 60.8909871,72.0859454 60.8120731,64.720401 C60.6816235,63.5682669 60.2484019,62.5832734 59.4640936,61.7102479 C58.9261902,61.1536535 58.3319197,60.8063906 57.7247652,60.6230228 C60.7396011,60.5954365 63.6771334,60.562982 66.500321,60.5289048 C64.788371,61.1341808 63.6014404,62.9402727 63.3469831,64.720401 L63.3469831,64.720401 Z M70.2237721,64.720401 C70.3300644,72.1654588 70.5603644,79.6170076 71.1932866,87.0393474 C68.9981898,86.9971565 66.7016322,86.9517203 64.334213,86.906284 C64.9526409,79.5715714 65.1813303,72.2108951 65.2908436,64.8550871 C65.5984471,63.6461576 66.4375119,62.2684649 67.8015963,62.3333739 C69.2526471,62.1597424 70.1207008,63.9285116 70.2237721,64.720401 L70.2237721,64.720401 Z M3.08569735,54.0574813 C4.28068036,54.500485 5.51592559,54.8055571 6.77854914,54.9759431 C5.73978359,57.6339651 5.69468989,60.3406688 6.6352156,63.0035589 C5.5449144,63.0197862 4.4530027,63.0343907 3.36109101,63.0571088 C4.39019362,60.0696739 4.31289014,57.0335572 3.08569735,54.0574813 L3.08569735,54.0574813 Z M17.6171416,54.1094085 C16.6991628,55.5260466 16.3738439,57.1114479 16.670174,58.8169309 L15.8987496,58.8136855 L15.9035811,59.8360016 L15.916465,62.9143091 C13.0610676,62.9240455 10.2056702,62.9516318 7.34866233,62.9921999 C8.28113559,60.3471597 8.23926287,57.6615514 7.21982319,55.0230021 C10.6292289,55.4075877 14.204515,54.935375 17.6171416,54.1094085 L17.6171416,54.1094085 Z M17.5897633,35.4091367 C17.6203626,34.5036567 17.634857,33.5965539 17.6606248,32.6910739 C21.2359109,33.7620718 24.8498487,33.7734308 28.4235243,32.7008103 C28.5684683,38.9028615 28.7955473,45.1016673 29.1707913,51.2923596 C26.30251,51.4059502 23.4326182,51.5617317 20.5627264,51.7710631 L20.3420894,51.6412452 C19.2260204,50.984042 18.0970674,50.3511796 16.9713354,49.7102036 C17.2708864,44.9458858 17.4641451,40.1799453 17.5897633,35.4091367 L17.5897633,35.4091367 Z M19.12617,11.1185806 C19.6141483,11.215944 20.1053475,11.2889666 20.5981572,11.3425165 C20.6126516,13.903175 20.8397306,16.4687017 21.3760235,19.0293602 C20.3855726,19.0326057 19.3951217,19.0244921 18.4062813,19.030983 C18.7960197,16.3924337 19.0021624,13.7555071 19.12617,11.1185806 L19.12617,11.1185806 Z M21.5531773,3.17372367 C21.3389822,3.99806748 21.2600682,4.87920664 21.1457235,5.66135962 C21.0394312,6.68529849 20.9315284,8.17982733 20.7414907,9.35792498 C20.106958,9.30762053 19.4740357,9.2378434 18.8491659,9.13723451 C19.9442985,7.28083821 20.2084188,4.77048412 21.5531773,3.17372367 L21.5531773,3.17372367 Z M27.0207882,9.10640275 C25.6405989,9.2849024 24.2459153,9.43257028 22.8753889,9.42445666 C22.8222428,9.42607939 22.7674862,9.42283394 22.71434,9.42445666 C22.7465498,8.981453 22.783591,8.54169479 22.8302952,8.10680475 C22.941419,6.15466773 22.3922422,4.23823064 22.5323547,2.34451169 C22.638647,2.27960273 22.7417183,2.21144832 22.8576736,2.15465298 C23.2860637,2.3185481 23.830409,2.67067922 24.1911586,3.10232381 C25.5536325,4.76074778 26.0126219,7.11207491 27.0207882,9.10640275 L27.0207882,9.10640275 Z M21.7899192,19.0293602 C22.348759,16.40217 22.4679352,13.8707205 22.5919428,11.4528617 C23.9495852,11.4577299 25.3072277,11.3246665 26.6471547,11.0845034 C26.7695519,13.732789 26.977305,16.3810746 27.3702644,19.0293602 C25.5101493,19.0180012 23.6500342,19.0261148 21.7899192,19.0293602 L21.7899192,19.0293602 Z M28.4122509,32.2285976 C24.8466277,31.1624679 21.2391319,31.1722042 17.6735087,32.2399566 C17.7749696,28.4914641 17.8458311,24.7413489 17.8764304,20.9928563 C21.3293193,21.0155745 24.7805977,21.0204426 28.2334866,20.9961018 C28.2656964,24.7413489 28.326895,28.4849732 28.4122509,32.2285976 L28.4122509,32.2285976 Z M52.456855,64.6230375 C52.5550948,65.9909939 52.687155,67.3638184 52.8498144,68.7333975 C51.6065167,68.7528702 50.3616085,68.7820792 49.1167003,68.8064201 C49.622394,66.3625977 50.2585372,63.7629938 48.5675235,61.6794161 C48.1826166,61.2461488 47.7590579,60.9345858 47.3210049,60.7090271 C50.0910463,60.6895545 52.8465934,60.6668363 55.5618782,60.6424955 C53.9610519,61.1487854 52.6323983,62.6822596 52.456855,64.6230375 L52.456855,64.6230375 Z M30.1467478,64.5711103 C30.2159988,66.1873435 30.4913925,67.8051994 30.8601945,69.4198098 C29.4800052,69.4895869 28.1014265,69.5642322 26.7276792,69.6453684 C27.0835973,66.9987055 28.1867824,64.0453478 26.3202254,61.7362115 C25.9788017,61.3483804 25.6116101,61.0497992 25.2299242,60.8258633 C27.6166692,60.8161269 30.0758863,60.8063906 32.5898599,60.7950315 C31.2934161,61.4960483 30.2900813,62.873741 30.1467478,64.5711103 L30.1467478,64.5711103 Z M41.2784493,64.5727331 C41.3444794,66.0445438 41.5860527,67.5163545 41.8952667,68.9865425 C40.6745158,69.0222424 39.453765,69.059565 38.2346247,69.1033786 C38.9416294,67.9901899 38.999607,66.8413013 38.4439883,65.719999 C38.5841008,64.2952473 38.4343253,62.9045728 37.4342115,61.6940206 C37.0863458,61.2996987 36.7078809,60.9994947 36.316532,60.7755588 C38.8063483,60.762577 41.3251535,60.7479725 43.8536216,60.7317453 C42.4863162,61.4116666 41.4137304,62.8234366 41.2784493,64.5727331 L41.2784493,64.5727331 Z M42.1883757,68.9784288 C42.4879267,67.5390726 42.7278896,65.6128992 42.7794252,64.8664461 C43.3060552,62.9224227 45.4753842,61.3581168 47.147072,62.9775953 C48.5320928,64.5224286 48.2454257,66.7228424 48.6351641,68.8161564 C46.4867714,68.85997 44.3383788,68.9151426 42.1883757,68.9784288 L42.1883757,68.9784288 Z M37.0493046,64.796669 C37.0766829,65.0514367 37.1121137,65.3597542 37.1539864,65.6859218 C36.5725998,66.8283195 36.6354089,68.0031717 37.3714024,69.1374558 C35.2342832,69.2169693 33.103606,69.3078418 30.9761497,69.4133189 C31.3288469,67.9593581 31.6235664,65.6810536 31.6767125,64.8696916 C32.6236802,61.6258662 36.1860824,61.3824576 37.0493046,64.796669 L37.0493046,64.796669 Z M52.2523229,70.6157574 L53.1380919,73.611306 C42.1271771,73.5512652 31.1162623,73.7119149 20.1133999,74.1354458 C21.8478968,72.6928442 23.6001091,71.2453743 25.3684263,69.718391 C23.6033301,70.8672796 21.8044136,72.0956817 20.0022762,73.3257065 C20.4822019,70.5183939 20.7672585,66.8705103 20.7849739,64.9037688 C21.6433647,61.3662304 25.252471,61.5642027 26.0319478,64.720401 C26.1978282,66.3625977 26.3830345,68.0031717 26.7164057,69.6453684 C26.2686897,69.6729547 25.8161423,69.6908047 25.3684263,69.718391 C34.4016603,70.2344172 43.2851189,70.4924304 52.2523229,70.6157574 L52.2523229,70.6157574 Z M17.9166926,60.8485814 C19.053698,60.845336 20.2196922,60.8420905 21.4130647,60.8388451 C20.1407782,61.5398618 19.1374434,62.8867228 18.9039225,64.5370331 C18.9393533,67.5244681 19.2163574,70.5200167 19.731714,73.5106971 C19.1068441,73.9374735 18.4803638,74.3658726 17.8571045,74.7877809 L17.8764304,70.547603 C17.8957563,68.3390756 17.9102507,66.1321709 17.9215241,63.9252662 L17.927966,62.9045728 C17.927966,62.9045728 17.9086402,62.9045728 17.9086402,62.9045728 L17.9166926,60.8485814 Z M59.8071278,86.8170342 C45.6960212,86.5444165 29.8439758,86.2588171 17.8087898,86.2068899 L17.8571045,74.9760169 C21.1586074,75.1593847 24.4778257,75.2145573 27.7793286,75.3216571 C37.1153346,75.6169929 46.4593931,75.6494474 55.7986201,75.5861611 C55.5377209,74.7553264 54.1462582,70.3236671 53.8563701,69.4019598 L53.6437856,68.7236612 C53.6437856,68.7236612 53.2443842,68.7285293 53.0785038,68.7301521 C53.2379423,67.3492139 53.3635604,65.7346035 53.4585793,64.8177644 C53.9465575,62.6984868 56.4589207,61.0773855 58.1080617,62.9483863 C58.5090735,63.4108627 58.7667518,64.1751657 58.8601601,64.7950463 C58.7828567,72.1362498 58.9133063,79.4774534 59.8071278,86.8170342 L59.8071278,86.8170342 Z M70.4186413,52.43638 C71.6120138,54.7227982 72.8359856,56.9929891 74.0969987,59.2453301 C57.4654765,58.9548625 34.5675407,58.8996898 17.7314864,58.8217991 C18.7686414,57.3272702 19.1374434,55.6363918 18.7895778,53.8108273 C19.9813398,53.4927733 21.1489445,53.1438877 22.273066,52.777152 L20.9911165,52.0225854 C24.6098858,52.2805985 28.2286551,52.4704572 31.8474244,52.5856706 C44.7023494,53.0757333 57.5669373,52.9670108 70.4186413,52.43638 L70.4186413,52.43638 Z M74.1855756,59.2469528 C73.1967352,56.5970444 72.175685,53.9617406 71.0918258,51.3524003 L70.7326867,51.3394185 C57.7763009,50.7974287 44.8070312,50.6854608 31.8474244,51.1803916 C30.9761497,51.2079779 30.1048751,51.2550369 29.2336004,51.2891141 C29.884238,40.5483037 30.1193695,29.7863979 30.1886205,19.0277375 C29.3431137,19.0196239 28.4959963,19.0342284 27.6504895,19.0293602 C28.1513516,15.6589624 28.3478313,12.29181 28.4702285,8.91329859 C28.1271943,8.95873487 27.7809391,9.00579386 27.4346839,9.05123014 C27.2494777,6.57333053 27.1641217,3.95587666 25.6599248,1.85120358 C24.9432571,0.976555326 23.9769636,0.233347717 22.6257631,-0.000324544807 C21.5451248,0.441056393 20.623925,1.19562307 19.9942237,2.07027133 C18.3837345,4.09543093 18.836282,6.6723167 18.4529855,9.0690801 C18.0664681,8.99930297 17.6815612,8.92628038 17.3047067,8.84027601 C17.4303249,12.2431283 17.6251941,15.6362443 18.1276667,19.030983 C17.3948941,19.0358511 16.6621215,19.0244921 15.9293489,19.030983 C15.9293489,19.030983 15.9357909,20.0078628 15.9357909,20.0078628 C15.995379,27.7093111 16.1789747,35.4140048 16.4994621,43.110585 C16.6105859,45.2850352 16.7056047,47.4611081 16.8424963,49.637181 C14.1723052,48.1150659 11.4843987,46.6221598 8.7578404,45.1990308 C5.59161858,47.6006624 2.62026597,50.3398205 0,52.5110253 C3.18554768,50.4631476 6.14401639,48.8290645 8.84480682,47.0538044 C11.6245112,48.8209508 14.4460883,50.5166975 17.2886018,52.1734987 C11.6535,53.6631594 5.59322907,54.7244209 0,52.5110253 C0.961462067,53.1471331 1.9728493,53.6388185 3.01161485,54.029895 C1.77314864,57.0189527 1.69423466,60.0680511 2.73138972,63.0684679 C2.53813102,63.0717133 2.3464828,63.0733361 2.15322409,63.0765815 L2.18382339,63.9252662 C2.36258769,69.4766051 2.69595896,77.8936747 3.04382463,83.3525184 C3.29989242,78.7894184 3.70412521,69.8644362 3.87644756,64.8047826 C7.88656573,64.8842961 11.8982944,64.9216187 15.9084126,64.9362233 C15.919686,66.8104695 15.9325699,68.6830931 15.9502853,70.5573393 L16.0018209,82.6953151 C12.1092685,82.8364921 6.77210719,83.1318279 3.04382463,83.3525184 C6.9347666,83.5764543 11.8821895,83.8831491 16.0066524,84.0210807 L16.0211468,87.1010109 L16.0243678,88 C16.0243678,88 16.9133578,88 16.9133578,88 C33.77518,87.9918864 57.3527422,87.3833649 74.4158756,87.1010109 C73.3722785,87.0815382 72.2996927,87.0604428 71.2029496,87.0393474 C71.8358718,79.6170076 72.0661718,72.1654588 72.1724641,64.720401 C72.0548984,62.8867228 70.8003273,61.062781 69.0658304,60.4948276 C70.7117503,60.4737322 72.3125766,60.4493913 73.8489834,60.4250504 C73.9665491,69.1764012 74.2419427,78.0170017 74.4158756,87.1010109 C74.5962504,78.0316062 74.8909699,68.6668658 75.0004831,59.2599346 C74.7347524,59.2550664 74.4529168,59.251821 74.1855756,59.2469528 L74.1855756,59.2469528 Z" id="Fill-1" fill="#FFFFFF" mask="url(#mask-2)"></path>
            </g>
        </g>
    </g>
</svg>