<?xml version="1.0" encoding="UTF-8"?>
<svg width="100px" height="100px" viewBox="0 0 100 100" version="1.1" xmlns="http://www.w3.org/2000/svg" xmlns:xlink="http://www.w3.org/1999/xlink">
    <title>3</title>
    <defs>
        <polygon id="path-1" points="0 0 4 0 4 4 0 4"></polygon>
        <polygon id="path-3" points="0 0 24 0 24 24 0 24"></polygon>
        <polygon id="path-5" points="0 63 63.984375 63 63.984375 0 0 0"></polygon>
        <polygon id="path-7" points="0 0 57 0 57 22 0 22"></polygon>
        <polygon id="path-9" points="-1.13370462e-15 0 46 0 46 12 -1.13370462e-15 12"></polygon>
        <polygon id="path-11" points="0 0 44 0 44 14 0 14"></polygon>
    </defs>
    <g id="Page-1" stroke="none" stroke-width="1" fill="none" fill-rule="evenodd">
        <g id="Desktop" transform="translate(-1369, -4109)">
            <g id="Come-usufruire" transform="translate(1, 3853)">
                <g id="Step-3" transform="translate(1255, 256)">
                    <g id="3" transform="translate(113, 0)">
                        <circle id="Oval" fill="#55C2E4" cx="50" cy="50" r="50"></circle>
                        <g id="qr" opacity="0.29" transform="translate(18, 18)">
                            <path d="M47.9986681,57.0006439 C48.0032819,58.3311312 47.9940542,59.6685883 47.9986681,60.9992238 C46.6681882,60.994775 45.3304799,61.002338 44,60.9992238 L44,57.0006439 C45.3304799,56.998123 46.6681882,57.0040547 47.9986681,57.0006439" id="Fill-1" fill="#FFFFFF"></path>
                            <path d="M32,45.0053294 C33.3298462,45.0337793 34.6698462,44.9844148 36,45.0053294 L36,48.9983215 C34.6690769,49.0049342 33.3309231,48.9892482 32,48.9983215 C32.0026154,47.6696309 32.0026154,46.3338662 32,45.0053294" id="Fill-3" fill="#FFFFFF"></path>
                            <path d="M32.998551,40.0006018 C33.0028571,41.3313614 32.9959366,42.6690921 32.998551,44 C31.6607281,43.9724118 30.3216749,43.6765062 29,44 L29,40.0006018 C30.3304409,39.9982286 31.66811,40.0038649 32.998551,40.0006018" id="Fill-5" fill="#FFFFFF"></path>
                            <path d="M32.5,23.9312886 C32.5033726,22.6232816 32.4975472,21.3081584 32.5,20 L36.4858491,20 L36.4858491,23.9312886 C35.1596344,23.9377992 33.8260613,23.9223556 32.5,23.9312886 C32.4964741,25.2897143 32.5026061,26.6552561 32.5,28.0138331 L36.4858491,28.0138331 L36.4858491,35.8007068 L36.7158019,36.0275148 L40.625,36.0275148 L40.625,39.9588035 L44.7641509,39.9588035 L44.7641509,36.0275148 L48.75,36.0275148 L48.75,28.0138331 L52.8891509,28.0138331 L52.7358491,31.9449704 L56.875,31.9449704 L56.875,28.0138331 L65,28.0138331 L65,31.9449704 L60.8608491,31.9449704 L60.8608491,35.876259 L57.1049528,35.876259 L56.875,36.103067 L56.875,39.9588035 L52.9658019,39.9588035 L52.7358491,47.9724852 L56.875,47.9724852 L56.875,52.0550296 L61.0141509,52.0550296 L61.0141509,39.9588035 L65,39.9588035 L65,52.0550296 L61.0908019,52.0550296 L60.8608491,52.2818377 L60.8608491,59.8419033 L61.0908019,60.0687114 L65,60.0687114 L65,64 L56.875,64 L56.875,60.0687114 C55.5487854,60.0655318 54.2153656,60.0732536 52.8891509,60.0687114 C52.916592,58.7110427 52.8684552,57.3435327 52.8899175,55.9855613 C51.5121934,55.9894978 50.1277241,55.9826845 48.75,55.9863183 C48.7455542,54.6781599 48.7532193,53.3630367 48.75,52.0550296 L40.625,52.0550296 L40.625,55.9863183 L36.7158019,55.9863183 L36.4858491,56.2131263 L36.4858491,60.0687114 L44.6108491,60.0687114 L44.6108491,64 L28.5141509,64 L28.5141509,55.9863183 L32.5,55.9863183 C32.5032193,54.6781599 32.4955542,53.3630367 32.5,52.0550296 C33.8774175,52.058512 35.2617335,52.0524557 36.6391509,52.0550296 L36.6391509,47.9724852 L40.625,47.9724852 L40.625,43.8900921 L36.6391509,44.0411965 L36.6391509,39.9588035 C35.2617335,39.9613774 33.8774175,39.9553211 32.5,39.9588035 C32.4957075,38.6003778 32.5032193,37.2348361 32.5,35.876259 L24.375,35.876259 L24.375,31.9449704 L20.2358491,31.9449704 L20.2358491,36.0275148 C20.1236321,36.0677891 20.0526533,35.876259 20.0058962,35.876259 L16.25,35.876259 L16.25,31.9449704 L12.1108491,31.9449704 L12.1108491,36.0275148 C11.9986321,36.0677891 11.9276533,35.876259 11.8808962,35.876259 L0,35.876259 L0,28.0138331 L28.2841981,28.0138331 L28.5141509,27.7870251 L28.5141509,23.9312886 C29.8403656,23.9247781 31.1739387,23.9402217 32.5,23.9312886" id="Fill-7" fill="#FFFFFF"></path>
                            <path d="M32.9984429,49.0016183 C32.9956748,50.3319917 33.0030565,51.669037 32.9984429,52.9994105 C31.6680379,52.9960004 30.330405,53.0017827 29,52.9994105 L29,49.0016183 C30.330405,48.9952429 31.6680379,49.0103659 32.9984429,49.0016183" id="Fill-9" fill="#FFFFFF"></path>
                            <g id="Group-13" transform="translate(49, 61)">
                                <mask id="mask-2" fill="white">
                                    <use xlink:href="#path-1"></use>
                                </mask>
                                <g id="Clip-12"></g>
                                <path d="M4,0.00133370304 C3.99851881,0.0824931582 3.85691706,0.305797162 3.8509923,0.53156521 C3.82166474,1.64854724 3.75782545,2.9346243 4,4.0000154 L0.000787273181,4.0000154 C-0.00232322561,2.66958555 0.00508272389,1.33176356 0.000787273181,0.00133370304 C1.3316364,0.00595378587 2.66915088,-0.0032863798 4,0.00133370304" id="Fill-11" fill="#FFFFFF" mask="url(#mask-2)"></path>
                            </g>
                            <path d="M20.0754717,20.0754479 L20.0754717,4.15082029 L19.8490566,3.92440092 L4.1509434,3.92440092 L3.9245283,4.15082029 L3.9245283,19.8490286 L4.1509434,20.0754479 L20.0754717,20.0754479 Z M0,24 L24,24 L24,0 L0,0 L0,24 Z" id="Fill-14" fill="#FFFFFF"></path>
                            <g id="Group-18" transform="translate(0, 40)">
                                <mask id="mask-4" fill="white">
                                    <use xlink:href="#path-3"></use>
                                </mask>
                                <g id="Clip-17"></g>
                                <path d="M20.0754717,20.0754606 L20.0754717,4.15082291 L19.8490566,3.92440339 L4.1509434,3.92440339 L3.9245283,4.15082291 L3.9245283,20.0754606 L20.0754717,20.0754606 Z M0,24.0000151 L24,24.0000151 L24,0 L0,0 L0,24.0000151 Z" id="Fill-16" fill="#FFFFFF" mask="url(#mask-4)"></path>
                            </g>
                            <path d="M61.0754717,3.92440092 L45.1509434,3.92440092 L44.9245283,4.15082029 L44.9245283,19.8490286 L45.1509434,20.0754479 L61.0754717,20.0754479 L61.0754717,3.92440092 Z M41,24 L65,24 L65,0 L41,0 L41,24 Z" id="Fill-19" fill="#FFFFFF"></path>
                            <polygon id="Fill-21" fill="#FFFFFF" points="33 0 33 4.10135246 37 4.10135246 37 8.05060018 33 8.05060018 33 12 29 12 29 0"></polygon>
                            <path d="M44.9848934,28 C45.0588354,28.0556133 44.8373048,28.1981128 44.8373048,28.2307722 L44.8373048,36 L41,36 L41,28 L44.9848934,28 Z" id="Fill-23" fill="#FFFFFF"></path>
                            <path d="M33,17 C33.0090769,15.6691315 32.9933846,14.3308685 33,13 L37,13 L37,17 C35.6690769,17.0066243 34.3309231,16.9909108 33,17 C32.9909231,18.3308685 33.0066154,19.6691315 33,21 L29,21 L29,17 C30.3309231,16.9933757 31.6690769,17.0090892 33,17" id="Fill-25" fill="#FFFFFF"></path>
                            <mask id="mask-6" fill="white">
                                <use xlink:href="#path-5"></use>
                            </mask>
                            <g id="Clip-28"></g>
                            <polygon id="Fill-27" fill="#FFFFFF" mask="url(#mask-6)" points="8 16 16 16 16 8 8 8"></polygon>
                            <polygon id="Fill-29" fill="#FFFFFF" mask="url(#mask-6)" points="8 57 16 57 16 49 8 49"></polygon>
                            <polygon id="Fill-30" fill="#FFFFFF" mask="url(#mask-6)" points="49 16 57 16 57 8 49 8"></polygon>
                        </g>
                        <g id="bed-icon" transform="translate(22, 28)">
                            <g id="Group-3" transform="translate(0, 14)">
                                <mask id="mask-8" fill="white">
                                    <use xlink:href="#path-7"></use>
                                </mask>
                                <g id="Clip-2"></g>
                                <path d="M53.9372399,21.9557715 C53.7781222,21.8501844 53.7295341,21.7242534 53.6965522,21.5366178 C53.2674651,19.0874354 54.9797912,13.8990423 51.3757495,13.5663086 L5.31397043,13.58329 C4.44517775,13.8716368 3.75464846,14.225387 3.49787196,15.2061024 C3.13169193,16.605299 3.84973299,20.8553459 3.28598307,21.691972 C3.00990007,22.1020465 0.830356649,22.0650575 0.477691176,21.8009217 C0.0436166103,21.4755858 0.104753873,20.4183702 0.0822296184,19.8702591 C-0.0968382064,15.5110943 -0.193370727,12.6103087 2.13772875,8.92451353 C4.82406789,4.67682043 6.21767571,2.30397002 11.2684181,1.36125251 C20.7144469,-0.401950371 32.3697834,-0.31284028 41.8978649,0.833149118 C44.2400656,1.11477063 47.9798963,1.52450892 49.9942083,2.77070514 C51.3776802,3.62649828 55.4005121,9.46791695 56.1320677,11.1129229 C57.0119616,13.0916713 57.1125163,18.457612 56.914142,20.7063808 C56.886952,21.0154078 56.6702365,21.9557715 56.344761,21.9557715 L53.9372399,21.9557715 Z" id="Fill-1" fill="#FFFFFF" mask="url(#mask-8)"></path>
                            </g>
                            <g id="Group-6" transform="translate(6, 30)">
                                <mask id="mask-10" fill="white">
                                    <use xlink:href="#path-9"></use>
                                </mask>
                                <g id="Clip-5"></g>
                                <path d="M4.97544435,11.43568 C4.93539611,11.5780577 4.48768551,11.917874 4.283615,11.9559814 C3.86526246,12.0342967 0.834998814,12.0074415 0.542534973,11.8811168 C0.400212143,11.8194548 0.156572053,11.5542031 0.112534944,11.4040238 C0.0431286318,8.37193253 0.09051639,5.33729077 0.086208412,2.30399928 C0.0850915288,1.43517986 -0.396923345,0.265251724 0.930572104,0 L44.9463004,0.0234045639 C45.5851576,0.185736219 45.7533283,0.679632528 45.8205008,1.26294627 C46.0609498,3.34850296 46.0572801,8.74850596 45.8248088,10.8406639 C45.7324266,11.6713759 45.4938923,11.8985202 44.679844,11.9654333 C44.1081593,12.0123924 41.2350571,12.0414981 40.9615803,11.774146 C40.4743001,10.3766234 41.0434319,8.7492561 40.6194949,7.32157771 L5.20488407,7.32157771 L4.97544435,7.54602147 C4.78908442,8.57117138 5.22674307,10.5431559 4.97544435,11.43568" id="Fill-4" fill="#FFFFFF" mask="url(#mask-10)"></path>
                            </g>
                            <g id="Group-9" transform="translate(6, 0)">
                                <mask id="mask-12" fill="white">
                                    <use xlink:href="#path-11"></use>
                                </mask>
                                <g id="Clip-8"></g>
                                <path d="M44,14 C42.4057169,13.411217 40.7113436,12.8264657 38.9658672,12.8095921 C39.0216899,9.92988616 39.469248,8.07737737 35.9507908,7.16202359 C33.6392756,6.56054806 27.9193212,6.73734722 25.763068,7.77260786 C24.1928716,8.52669213 23.726923,10.0868253 23.7052775,11.6184376 L20.3874891,11.6211255 C20.0852654,9.67663331 19.742029,8.2223706 17.5361375,7.52189351 C14.9269556,6.69314743 8.76937076,6.35328688 6.44027874,7.77111463 C4.39322967,9.01722021 5.16888843,10.8771952 5.03397002,12.8092935 C3.27140511,12.8251218 1.65238426,13.5514319 0,14 L0,2.16251956 C0,1.43561219 1.29987128,0.237140837 2.10612674,0.0737807993 L41.4873278,-0.000134391256 C42.4621906,0.0152459413 44,1.33466942 44,2.16251956 L44,14 Z" id="Fill-7" fill="#FFFFFF" mask="url(#mask-12)"></path>
                            </g>
                        </g>
                    </g>
                </g>
            </g>
        </g>
    </g>
</svg>