<?xml version="1.0" encoding="UTF-8"?>
<svg width="136px" height="82px" viewBox="0 0 136 82" version="1.1" xmlns="http://www.w3.org/2000/svg" xmlns:xlink="http://www.w3.org/1999/xlink">
    <title>illusrtazione valgrisenche</title>
    <defs>
        <polygon id="path-1" points="0 0 136 0 136 82 0 82"></polygon>
    </defs>
    <g id="Page-1" stroke="none" stroke-width="1" fill="none" fill-rule="evenodd">
        <g id="Box-Valgrisenche" transform="translate(-119, -235)">
            <g id="illusrtazione-valgrisenche" transform="translate(119, 235)">
                <g id="Group-3">
                    <mask id="mask-2" fill="white">
                        <use xlink:href="#path-1"></use>
                    </mask>
                    <g id="Clip-2"></g>
                    <path d="M66.3943789,76.8040577 C65.7554639,77.7104902 65.2387761,78.6694188 64.7535711,79.6405965 C60.2941297,78.9861452 56.0032136,78.0184673 51.8585999,76.7078148 C54.8494628,71.2062244 71.9742364,70.1318044 81.0264581,69.6505902 C80.6116263,69.7783307 80.1912387,69.8903223 79.7801108,70.0233124 C75.1614037,71.6051947 69.1907894,72.4328831 66.3943789,76.8040577 L66.3943789,76.8040577 Z M19.9961872,57.3192581 C20.0795239,56.9920325 20.1387856,56.7470507 20.103599,56.918538 C21.329575,55.1791674 23.0463118,54.3584785 25.0426897,55.2806599 C26.6464589,56.1030987 26.0334709,58.4776719 26.3408908,60.1120502 C25.3482577,60.5897647 24.727862,60.9309893 24.4352574,61.1567225 C23.6074458,60.4445255 22.7814862,59.7358282 21.9610823,58.9798845 C21.2814249,58.4619231 20.6313983,57.9019647 19.9961872,57.3192581 L19.9961872,57.3192581 Z M11.4291706,48.8586379 C13.9107534,49.0213758 16.3978921,49.1648651 18.8813269,49.3153539 C18.877623,49.4588433 18.8757711,49.5865837 18.8757711,49.5865837 C24.4167382,49.8438146 29.9577052,50.0660481 35.4986723,50.2707828 L35.4986723,50.4125223 C35.4986723,50.4125223 36.6653867,50.4055228 36.6653867,50.4055228 C36.8135409,50.3985233 37.4876425,50.3932737 38.4247178,50.389774 C68.1851928,51.8246671 98.0567834,52.4213727 127.804295,52.1658917 C124.257854,53.4205483 120.672522,54.60696 117.246456,56.2535875 C114.048177,57.5537407 110.875826,59.1653707 107.666435,60.7140054 C107.816441,59.9755604 107.946076,59.2353655 108.040525,58.4951706 C107.614581,57.1985171 107.005297,55.9561096 105.529311,55.1249215 C102.64586,53.6497813 98.3308686,55.5658886 98.832741,58.8678928 C98.8938546,60.2065432 99.0346011,61.5609424 99.190163,62.8978429 C100.067977,63.0640805 100.94579,63.218069 101.831012,63.3493092 C100.923567,63.7202816 100.010567,64.0737553 99.0901589,64.3922316 C98.2734589,64.6757105 97.4400915,64.9171925 96.6141318,65.1761733 C96.6585781,61.3422087 96.6215396,57.5064942 96.5270912,53.6725296 C90.095347,53.3925504 83.2080287,54.0417521 77.0003677,53.9210111 C83.0839495,54.1974905 88.5952858,55.1949163 94.4029304,55.5816375 C94.3510764,58.1259481 94.3344091,60.6702587 94.3455207,63.2145693 C89.2749431,59.0253811 83.5358198,55.5483899 77.0003677,53.9210111 C83.3839618,56.904539 89.0601196,61.2617146 94.1955145,65.9373666 C93.3121451,66.1945974 92.421368,66.4325797 91.5324428,66.6775615 C90.0268257,65.1429257 88.4230565,63.6765349 86.6452061,62.4008798 C80.1801272,57.8109715 72.5742609,54.7451997 64.5498591,53.5832862 C52.4197339,53.3418042 40.6451789,59.0078824 32.646704,67.4422546 C31.9503792,66.9767892 31.2633141,66.4780763 30.5743971,65.9846131 C35.9468388,60.7490028 41.945232,55.7688735 48.8844043,52.5211153 C42.2915424,54.1817417 36.5616787,57.8057219 31.5392513,62.1313999 C31.5503629,59.4785974 31.5318436,56.8275447 31.4762858,54.1764921 C37.2839304,53.788021 42.8026744,52.7958448 48.8844043,52.5211153 C42.6748914,52.6453561 35.7931288,51.9979042 29.3632365,52.2778834 C29.2558247,56.3883274 29.2169342,60.5022712 29.2706401,64.6127152 C29.2706401,64.6127152 29.2724921,64.7912019 29.2761959,65.0519325 C27.7909501,63.944265 26.3186677,62.7701024 24.8574969,61.5276948 C25.4760407,61.4961972 26.5112682,61.336959 27.844656,61.109476 C27.844656,61.109476 27.9335485,60.504021 27.9335485,60.504021 C28.5298691,56.9342868 28.9002546,53.0338271 23.8259733,52.9218355 C21.6073641,52.7048516 19.6758038,54.8291935 19.4054223,56.663057 C19.4035704,56.6963045 19.4202378,56.729552 19.4220897,56.7610497 C16.7404987,54.1974905 14.305214,51.2454603 11.4291706,48.8586379 L11.4291706,48.8586379 Z M27.7020575,27.6012204 C30.422539,27.5312256 33.1448725,27.3159916 35.865354,26.705287 C35.7894249,29.4053361 35.7060882,32.1071349 35.6542342,34.8071839 C30.5984722,34.4502105 25.5390062,34.1842303 20.4813922,33.8780031 C23.1907621,32.0826368 25.5130792,29.9180479 27.7020575,27.6012204 L27.7020575,27.6012204 Z M59.0718575,27.5242261 C62.8053434,27.6607159 66.5388292,27.6572162 70.272315,27.5329754 C72.1612811,30.1927774 74.1724744,32.7790849 76.3484892,35.2708994 L62.1849476,35.1361594 C57.4847556,35.1484085 52.7882675,35.1186607 48.0862236,35.1781563 C47.9825156,32.3048702 47.8658442,29.4385836 47.7380612,26.5880458 C51.5159933,27.1165064 55.2939254,27.3982355 59.0718575,27.5242261 L59.0718575,27.5242261 Z M67.3073791,44.1637374 C66.5203099,45.8243638 66.5258657,47.5199876 67.3147868,49.180614 C61.0182333,48.9478813 54.7216798,48.7116489 48.4214224,48.5944076 C48.3954955,46.587307 48.3658646,44.5767067 48.3158626,42.5591069 C54.6327873,43.4585399 60.9645274,43.8890079 67.3073791,44.1637374 L67.3073791,44.1637374 Z M63.7794572,39.104864 C65.1054373,39.6175758 66.0999224,40.5415071 66.5073464,41.8224117 C66.5277176,41.8801574 66.5388292,41.9466525 66.5573485,42.0078979 C60.4848782,41.8784075 54.4068521,41.9116551 48.3121587,42.3701209 C48.2751202,40.8879813 48.2214143,39.4023419 48.1732642,37.9167025 C53.3716247,38.5624044 58.573689,38.9228776 63.7794572,39.104864 L63.7794572,39.104864 Z M75.9855114,49.4850913 C73.4817054,49.4045973 70.9778994,49.3153539 68.4740934,49.2243607 C69.2741261,47.5672341 69.2907935,45.8768599 68.5222436,44.2197333 C68.7000286,44.2267327 68.8778136,44.237232 69.0555987,44.2442314 C69.0555987,44.2442314 69.048191,43.1435634 69.048191,43.1435634 C69.098193,40.3385222 67.0018111,37.7977113 64.2294756,37.0312684 C58.8774051,37.0470172 53.5253346,37.2500021 48.1677084,37.7504648 C48.1399295,36.9122772 48.1195583,36.0740896 48.0880755,35.2341522 C56.4087858,35.8186086 67.7055435,36.3873163 76.1670003,36.7845367 C76.0744039,41.0192215 76.0021787,45.2521564 75.9855114,49.4850913 L75.9855114,49.4850913 Z M20.3350899,34.9156759 C25.4408541,34.9034268 30.5466182,34.9384242 35.6542342,34.8771787 C35.5708975,39.346346 35.5190435,43.8172632 35.5153397,48.2864305 C30.5447663,48.1639397 25.5741928,48.0606973 20.6017675,48.0152007 L20.3350899,34.9156759 Z M106.666394,58.7873988 C106.766398,59.5258439 106.901589,60.2642889 107.062707,61.0027339 C105.673761,61.6676844 104.277408,62.3098866 102.868091,62.9118418 C102.17547,62.5426193 101.477293,62.1926453 100.769857,61.8654197 C101.023571,60.2380408 100.421695,57.8284702 102.051391,57.0707766 C103.999619,56.1993415 105.623759,57.0742764 106.666394,58.7873988 L106.666394,58.7873988 Z M83.2061767,68.9978888 C74.6632352,67.2497689 53.3086591,68.3679357 51.575255,76.6203213 C44.9712815,74.5012291 38.7228781,71.507202 32.7133734,67.4860013 C41.6711467,60.5792654 52.7938233,55.6183847 64.4905974,55.7531247 C71.4890314,56.783798 79.6560317,59.4366005 86.0396258,63.2338178 C87.9137764,64.2347433 89.6156978,65.4719012 91.3194711,66.7370571 C88.613805,67.4807517 85.9025832,68.215697 83.2061767,68.9978888 L83.2061767,68.9978888 Z M70.6852949,74.3349915 C73.6428231,73.0908341 77.0559255,72.4591311 80.2893909,71.6419419 C80.2893909,71.6419419 90.06942,69.223622 90.06942,69.223622 C92.1250596,68.8246517 94.1121778,68.2856918 96.0659613,67.678487 C96.2363386,67.839475 96.4122717,67.9987131 96.5807971,68.1597012 C96.5807971,68.1597012 96.5863529,67.7624807 96.5882049,67.5209987 C104.129254,65.1131779 111.048055,61.3877053 118.120566,57.7164786 C123.815243,54.5632133 130.491442,52.6068589 136.000926,48.8148912 C133.408227,50.1255436 130.693302,51.1404681 127.954301,52.1116458 C111.349919,51.0249767 94.6881272,50.214787 78.0115201,49.6548287 C77.9930008,45.1191663 77.9226276,40.5835039 77.8189196,36.0495914 L77.8022523,35.2848984 L77.0262946,35.276149 L76.6170187,35.2726493 C75.0743631,31.9303981 73.3298474,28.7106378 71.4279178,25.5731213 C67.311083,25.4121333 63.1905443,25.3981343 59.0718575,25.550373 C55.2920735,25.6763636 51.5122894,25.9580927 47.7343573,26.4865533 C47.6084263,23.7200093 47.4750875,20.9674642 47.3380449,18.2499165 C46.8732111,28.4481573 46.4009695,38.2491777 46.2565192,48.2619324 L37.8154336,48.2181856 C37.8006182,38.3909172 37.5932023,28.5671484 37.2357803,18.7468795 L47.3380449,18.2499165 L36.9357681,17.7372046 C38.9284421,14.158721 40.5451748,10.4594964 42.0007898,6.70777567 C43.5230742,10.6379831 45.2083282,14.5156944 47.3380449,18.2499165 C46.2565192,11.969634 44.1305064,5.96758077 41.9989379,-0.00122490882 C39.9358906,5.80134314 37.8876588,11.6441582 36.7765023,17.7284553 L36.6653867,17.7232057 C36.6653867,17.7232057 36.1264758,17.6969576 36.1264758,17.6969576 C36.0209159,20.5894923 35.9579504,23.4802771 35.8746136,26.3728118 C32.8133775,25.685113 29.7614009,25.4961271 26.6890532,25.4453808 C24.1685799,28.0264387 21.840707,30.7352371 20.0702643,33.8552548 C19.7795117,33.8360062 19.4869071,33.8220073 19.1961545,33.8045086 L19.185043,34.376716 L18.8924384,48.7781439 C16.3867805,48.7886431 13.8792707,48.790393 11.3754647,48.8113915 C9.94948051,47.6337291 8.41608454,46.587307 6.67342076,45.8243638 C4.51222136,44.7866911 2.14360608,44.7849412 -0.000925963751,43.9712518 C2.04915778,44.9984253 4.4677751,45.2399073 6.37896428,46.331826 C12.4866212,49.6968255 15.5126707,55.8248694 20.7758487,60.2327912 C44.8157196,83.2663266 65.9388047,83.2855752 97.9512235,81.0877388 C93.3417759,80.8410072 88.7304765,80.8252583 84.1228808,80.6852687 C77.3763089,80.8672552 71.0334572,80.5452792 64.9980255,79.6773438 C66.5091984,77.4532593 68.1703773,75.2834209 70.6852949,74.3349915 L70.6852949,74.3349915 Z" id="Fill-1" fill="#FFFFFF" mask="url(#mask-2)"></path>
                </g>
                <path d="M39.066464,28.6837333 C39.3361887,26.9072769 39.8628808,24.206412 39.8829279,23.6637064 C40.3020947,22.466136 41.9259103,21.8800139 42.8371424,22.7338708 C42.984762,22.8840193 43.1232693,23.3453191 43.0959323,23.6564703 C43.0777077,25.0964492 43.1925229,26.5364281 43.3237403,27.976407 C42.0625951,28.1627359 40.7066817,28.4377067 39.066464,28.6837333 C40.6210259,29.0364919 42.9410229,29.4399031 44.9639581,29.5737705 C45.1553169,27.6652558 45.3029365,25.7296057 45.3138713,23.817473 L45.3029365,23.9839027 C45.4049945,23.0142687 45.273777,22.0862421 44.5429689,21.2486664 C42.4179756,19.0543267 38.6673443,20.4201358 38.25,23.2820034 C38.2919167,25.2321256 38.7821595,27.2329003 39.066464,28.6837333" id="Fill-4" fill="#FFFFFF"></path>
            </g>
        </g>
    </g>
</svg>