<?xml version="1.0" encoding="UTF-8"?>
<svg width="100px" height="100px" viewBox="0 0 100 100" version="1.1" xmlns="http://www.w3.org/2000/svg" xmlns:xlink="http://www.w3.org/1999/xlink">
    <title>2</title>
    <defs>
        <polygon id="path-1" points="0 0 3.87692308 0 3.87692308 3.87692308 0 3.87692308"></polygon>
        <polygon id="path-3" points="0 0 23.2615385 0 23.2615385 23.2615385 0 23.2615385"></polygon>
        <polygon id="path-5" points="0 62.0307692 63 62.0307692 63 0 0 0"></polygon>
        <polygon id="path-7" points="0 0 55 0 55 33 0 33"></polygon>
    </defs>
    <g id="Page-1" stroke="none" stroke-width="1" fill="none" fill-rule="evenodd">
        <g id="Desktop" transform="translate(-911, -4109)">
            <g id="Come-usufruire" transform="translate(1, 3853)">
                <g id="Step-2" transform="translate(820, 256)">
                    <g id="2" transform="translate(90, 0)">
                        <circle id="Oval" fill="#55C2E4" cx="50" cy="50" r="50"></circle>
                        <g id="qr" opacity="0.293346774" transform="translate(19, 19)">
                            <path d="M46.521786,55.246778 C46.5262579,56.5363272 46.5173141,57.8326317 46.521786,59.1223246 C45.2322439,59.1180127 43.9356959,59.125343 42.6461538,59.1223246 L42.6461538,55.246778 C43.9356959,55.2443346 45.2322439,55.2500838 46.521786,55.246778" id="Fill-1" fill="#FFFFFF"></path>
                            <path d="M31.0153846,43.62055 C32.3043124,43.6481246 33.6030817,43.6002789 34.8923077,43.62055 L34.8923077,47.4906808 C33.6023361,47.49709 32.3053562,47.4818868 31.0153846,47.4906808 C31.0179195,46.202873 31.0179195,44.9082088 31.0153846,43.62055" id="Fill-3" fill="#FFFFFF"></path>
                            <path d="M31.983211,38.7698141 C31.9873846,40.0596272 31.980677,41.356197 31.983211,42.6461538 C30.6865519,42.6194145 29.3887003,42.3326137 28.1076923,42.6461538 L28.1076923,38.7698141 C29.3971966,38.7675139 30.6937067,38.7729768 31.983211,38.7698141" id="Fill-5" fill="#FFFFFF"></path>
                            <path d="M31.5,23.1949413 C31.5032689,21.9271806 31.4976226,20.6525228 31.5,19.3846154 L35.3632075,19.3846154 L35.3632075,23.1949413 C34.0777995,23.2012515 32.7852594,23.1862831 31.5,23.1949413 C31.4965825,24.5115692 31.5025259,25.8350943 31.5,27.151869 L35.3632075,27.151869 L35.3632075,34.6991466 L35.5860849,34.9189759 L39.375,34.9189759 L39.375,38.7293018 L43.3867925,38.7293018 L43.3867925,34.9189759 L47.25,34.9189759 L47.25,27.151869 L51.2617925,27.151869 L51.1132075,30.9620482 L55.125,30.9620482 L55.125,27.151869 L63,27.151869 L63,30.9620482 L58.9882075,30.9620482 L58.9882075,34.7723741 L55.3478774,34.7723741 L55.125,34.9922034 L55.125,38.7293018 L51.3360849,38.7293018 L51.1132075,46.4964087 L55.125,46.4964087 L55.125,50.4533364 L59.1367925,50.4533364 L59.1367925,38.7293018 L63,38.7293018 L63,50.4533364 L59.2110849,50.4533364 L58.9882075,50.6731657 L58.9882075,58.000614 L59.2110849,58.2204433 L63,58.2204433 L63,62.0307692 L55.125,62.0307692 L55.125,58.2204433 C53.839592,58.2173616 52.5472005,58.2248458 51.2617925,58.2204433 C51.2883892,56.9045491 51.2417335,55.5791163 51.2625354,54.2629286 C49.9272028,54.2667441 48.5853325,54.2601404 47.25,54.2636623 C47.245691,52.9957549 47.2531203,51.7210971 47.25,50.4533364 L39.375,50.4533364 L39.375,54.2636623 L35.5860849,54.2636623 L35.3632075,54.4834917 L35.3632075,58.2204433 L43.2382075,58.2204433 L43.2382075,62.0307692 L27.6367925,62.0307692 L27.6367925,54.2636623 L31.5,54.2636623 C31.5031203,52.9957549 31.495691,51.7210971 31.5,50.4533364 C32.8350354,50.4567116 34.1767571,50.4508417 35.5117925,50.4533364 L35.5117925,46.4964087 L39.375,46.4964087 L39.375,42.5396277 L35.5117925,42.6860828 L35.5117925,38.7293018 C34.1767571,38.7317965 32.8350354,38.7259266 31.5,38.7293018 C31.4958396,37.4126739 31.5031203,36.0891488 31.5,34.7723741 L23.625,34.7723741 L23.625,30.9620482 L19.6132075,30.9620482 L19.6132075,34.9189759 C19.5044434,34.958011 19.4356486,34.7723741 19.3903302,34.7723741 L15.75,34.7723741 L15.75,30.9620482 L11.7382075,30.9620482 L11.7382075,34.9189759 C11.6294434,34.958011 11.5606486,34.7723741 11.5153302,34.7723741 L0,34.7723741 L0,27.151869 L27.4139151,27.151869 L27.6367925,26.9320397 L27.6367925,23.1949413 C28.9222005,23.1886311 30.2147406,23.2035995 31.5,23.1949413" id="Fill-7" fill="#FFFFFF"></path>
                            <path d="M31.9831062,47.4938762 C31.9804232,48.783315 31.9875778,50.0792205 31.9831062,51.3686594 C30.6936368,51.3653542 29.3971618,51.3709586 28.1076923,51.3686594 L28.1076923,47.4938762 C29.3971618,47.487697 30.6936368,47.5023546 31.9831062,47.4938762" id="Fill-9" fill="#FFFFFF"></path>
                            <g id="Group-13" transform="translate(47.4923, 59.1231)">
                                <mask id="mask-2" fill="white">
                                    <use xlink:href="#path-1"></use>
                                </mask>
                                <g id="Clip-12"></g>
                                <path d="M3.87692308,0.00129266602 C3.87548746,0.0799549072 3.73824268,0.296388019 3.73250023,0.515209358 C3.70407505,1.59782271 3.64220005,2.84432817 3.87692308,3.876938 L0.00076304939,3.876938 C-0.00225174174,2.58744445 0.00492633238,1.29078622 0.00076304939,0.00129266602 C1.29066297,0.00577059246 2.58702316,-0.00318526043 3.87692308,0.00129266602" id="Fill-11" fill="#FFFFFF" mask="url(#mask-2)"></path>
                            </g>
                            <path d="M19.4577649,19.4577418 L19.4577649,4.02310274 L19.2383164,3.80365012 L4.02322206,3.80365012 L3.80377358,4.02310274 L3.80377358,19.2382892 L4.02322206,19.4577418 L19.4577649,19.4577418 Z M0,23.2615385 L23.2615385,23.2615385 L23.2615385,0 L0,0 L0,23.2615385 Z" id="Fill-14" fill="#FFFFFF"></path>
                            <g id="Group-18" transform="translate(0, 38.7692)">
                                <mask id="mask-4" fill="white">
                                    <use xlink:href="#path-3"></use>
                                </mask>
                                <g id="Clip-17"></g>
                                <path d="M19.4577649,19.4577541 L19.4577649,4.02310528 L19.2383164,3.80365252 L4.02322206,3.80365252 L3.80377358,4.02310528 L3.80377358,19.4577541 L19.4577649,19.4577541 Z M0,23.2615531 L23.2615385,23.2615531 L23.2615385,0 L0,0 L0,23.2615531 Z" id="Fill-16" fill="#FFFFFF" mask="url(#mask-4)"></path>
                            </g>
                            <path d="M59.1962264,3.80365012 L43.7616836,3.80365012 L43.5422351,4.02310274 L43.5422351,19.2382892 L43.7616836,19.4577418 L59.1962264,19.4577418 L59.1962264,3.80365012 Z M39.7384615,23.2615385 L63,23.2615385 L63,0 L39.7384615,0 L39.7384615,23.2615385 Z" id="Fill-19" fill="#FFFFFF"></path>
                            <polygon id="Fill-21" fill="#FFFFFF" points="31.9846154 0 31.9846154 3.975157 35.8615385 3.975157 35.8615385 7.80288941 31.9846154 7.80288941 31.9846154 11.6307692 28.1076923 11.6307692 28.1076923 0"></polygon>
                            <path d="M43.6007429,27.1384615 C43.6724097,27.1923637 43.4576954,27.3304786 43.4576954,27.362133 L43.4576954,34.8923077 L39.7384615,34.8923077 L39.7384615,27.1384615 L43.6007429,27.1384615 Z" id="Fill-23" fill="#FFFFFF"></path>
                            <path d="M31.9846154,16.4769231 C31.993413,15.1870044 31.9782036,13.8899187 31.9846154,12.6 L35.8615385,12.6 L35.8615385,16.4769231 C34.5715669,16.4833436 33.274587,16.4681136 31.9846154,16.4769231 C31.9758178,17.7668418 31.9910272,19.0639275 31.9846154,20.3538462 L28.1076923,20.3538462 L28.1076923,16.4769231 C29.3976639,16.4705026 30.6946438,16.4857326 31.9846154,16.4769231" id="Fill-25" fill="#FFFFFF"></path>
                            <mask id="mask-6" fill="white">
                                <use xlink:href="#path-5"></use>
                            </mask>
                            <g id="Clip-28"></g>
                            <polygon id="Fill-27" fill="#FFFFFF" mask="url(#mask-6)" points="7.72307692 15.5076923 15.4769231 15.5076923 15.4769231 7.75384615 7.72307692 7.75384615"></polygon>
                            <polygon id="Fill-29" fill="#FFFFFF" mask="url(#mask-6)" points="7.72307692 55.2461538 15.4769231 55.2461538 15.4769231 47.4923077 7.72307692 47.4923077"></polygon>
                            <polygon id="Fill-30" fill="#FFFFFF" mask="url(#mask-6)" points="47.4923077 15.5076923 55.2461538 15.5076923 55.2461538 7.75384615 47.4923077 7.75384615"></polygon>
                        </g>
                        <g id="skier-icon-2" transform="translate(23, 27)">
                            <g id="Group-3" transform="translate(0, 14)">
                                <mask id="mask-8" fill="white">
                                    <use xlink:href="#path-7"></use>
                                </mask>
                                <g id="Clip-2"></g>
                                <path d="M52.8907031,18.6243657 L33.585118,22.6608563 L26.2108539,14.0343036 C31.7444762,11.6065741 41.8806986,6.40407716 33.5380816,0 L22.7361323,5.86048687 L24.22313,7.00985787 C21.3369857,9.22542339 16.4922353,9.58704913 17.290361,14.4010479 C17.587014,16.1915176 23.6420187,21.5181395 25.0979077,23.4685639 C25.3806239,23.8470809 25.7653768,24.221503 25.7126163,24.7479462 L5.98967642,28.8489306 C3.20208462,28.631648 4.85209209,25.0251158 2.38803117,24.3502346 C0.0379526604,23.7068326 -0.322908701,26.5527478 0.222614129,28.3780237 C1.19022032,31.6167879 4.18736058,33.4881308 7.44780519,32.8890042 L53.9874728,22.5628361 C55.7342907,21.3159566 55.1263015,18.6351147 52.8907031,18.6243657" id="Fill-1" fill="#FFFFFF" mask="url(#mask-8)"></path>
                            </g>
                            <path d="M14.395205,18.3769915 C12.2676385,18.8268416 8.18300733,18.5251411 6.32330169,19.3366204 C4.2693722,20.2329771 4.53797438,24.8919742 7.61046707,25 L18.5690408,23.362638 C20.1396346,22.3029566 19.872268,20.6282999 20.3034647,19.0130575 L37.3047227,10.014768 C38.465865,9.70715175 38.5839807,13.0567223 39.9096944,13.2550267 C42.585585,13.6552365 40.3730146,9.71178143 39.7723045,8.63409577 C40.8815549,8.0566723 43.6624647,7.22898914 42.8551756,5.55098884 C42.1062029,3.99413172 39.8377871,6.36555459 38.7023436,6.30125353 C37.9560892,6.07568544 37.184383,1.49102029 35.470963,3.51418865 C34.4477048,4.72227685 36.6857269,6.48875541 36.5527848,7.83984915 L28.9958465,11.664733 C25.6858867,10.5371498 22.2303826,5.62300602 18.3283614,6.69940566 C16.9831265,7.07029414 14.3507263,10.3496479 14.0603789,11.7658143 C13.830325,12.8882535 14.710757,18.0603731 14.395205,18.3769915" id="Fill-4" fill="#FFFFFF"></path>
                            <path d="M9.32814365,10.8908312 C18.0151055,12.357095 18.5189336,-1.45906168 9.06729838,0.127050984 C3.68805418,1.02968714 3.51363197,9.90942231 9.32814365,10.8908312" id="Fill-6" fill="#FFFFFF"></path>
                        </g>
                    </g>
                </g>
            </g>
        </g>
    </g>
</svg>