<?xml version="1.0" encoding="UTF-8"?>
<svg width="70px" height="100px" viewBox="0 0 70 100" version="1.1" xmlns="http://www.w3.org/2000/svg" xmlns:xlink="http://www.w3.org/1999/xlink">
    <title>illustrazione ollomont</title>
    <defs>
        <polygon id="path-1" points="0 0 70 0 70 100 0 100"></polygon>
    </defs>
    <g id="Page-1" stroke="none" stroke-width="1" fill="none" fill-rule="evenodd">
        <g id="Box-Ollomont" transform="translate(-145.3787, -218)">
            <g id="illustrazione-ollomont" transform="translate(145.3787, 218)">
                <g id="Group-3">
                    <mask id="mask-2" fill="white">
                        <use xlink:href="#path-1"></use>
                    </mask>
                    <g id="Clip-2"></g>
                    <path d="M41.5391777,90.1458728 C42.1861908,71.9950348 42.3630721,53.8395707 42.4375485,35.6825646 C46.7106284,35.7164886 50.9821567,35.7134046 55.253685,35.6810227 C55.3281614,53.9690984 55.5081458,72.2540901 56.1613654,90.5359979 C55.640031,90.3463324 55.1233514,90.1504988 54.5818464,89.9978412 C50.1768813,89.240721 45.9115593,90.9770088 41.5391777,90.1458728 L41.5391777,90.1458728 Z M51.9472459,8.69762995 C52.7525213,12.6343464 53.5748642,16.5664369 54.4825446,20.4815654 C55.5345229,25.0304544 57.0504267,31.4914188 58.3196276,35.9863379 C57.9177657,35.7534965 57.5159038,35.519113 57.1109387,35.2908976 C57.1140419,34.8051688 57.1171451,34.3209819 57.1202483,33.8367951 C52.9588829,33.7967032 48.7975175,33.8074972 44.6377036,33.8275431 C47.3591932,25.5300612 49.7238169,17.1338915 51.9472459,8.69762995 L51.9472459,8.69762995 Z M57.1109387,35.4682272 C57.9177657,36.0958196 58.7245927,36.7218701 59.5422808,37.3340427 C59.2443755,41.9307335 59.1574864,46.5258824 59.0007758,51.1225733 C58.7478666,64.8262941 58.8363072,78.5361829 59.802948,92.2167738 C58.6547711,91.5753034 57.458495,91.0124747 56.2001552,90.5498759 C56.8580295,72.1924103 57.0271528,53.8318607 57.1109387,35.4682272 L57.1109387,35.4682272 Z M23.0224981,63.6667129 L29.3359193,57.850303 L36.2172227,63.6667129 L23.0224981,63.6667129 Z M59.8805275,92.2614917 C61.1093871,73.9302401 61.0814585,55.5373086 60.1349884,37.196805 L60.1241272,37.0256434 C59.5391777,36.6786942 58.9449185,36.348707 58.3568658,36.0079259 C58.0527541,33.3896162 57.6369279,30.7944365 57.2816137,28.1869208 C55.8355314,18.9549891 54.0294802,9.12784691 52.1784329,-0.000770998134 C49.3591932,11.2018319 46.6066718,22.4614886 44.522886,33.8275431 C43.519007,33.8337111 42.5135764,33.8167492 41.5096974,33.8260011 L40.5678821,33.8352531 C40.5678821,33.8352531 40.57564,34.7542829 40.57564,34.7542829 C40.6159814,44.8528165 40.6935609,54.949808 40.8533747,65.0467996 L29.2816137,55.2643753 L18.0574088,65.6019182 L18.6594259,65.6019182 L40.8642358,65.6019182 C40.9976726,73.7806665 41.1885182,81.9578727 41.4802172,90.1366209 C41.3048875,90.101155 41.1295578,90.090361 40.9542281,90.0471851 C33.6446858,88.7303203 26.2110163,87.8945583 18.7711404,87.5753651 C19.9798293,80.2601348 19.9612102,72.9156065 18.6594259,65.6019182 C17.3591932,72.9125226 17.3390225,80.2524248 18.5477114,87.5661131 C15.3669511,87.4335014 12.1861908,87.3872415 9.01318852,87.4535474 L4.43444531,87.5213952 C2.9200931,87.4581734 1.32350659,87.8513824 0,86.9971165 C1.21955004,88.0441319 2.96198604,87.8482984 4.40961986,88.031796 C4.40961986,88.031796 8.96974399,88.3941651 8.96974399,88.3941651 C19.5810706,88.8968559 30.1722265,90.1967587 40.6578743,91.9145426 C45.1155935,93.0093599 50.1799845,91.0433147 54.3010085,91.4596537 C60.0372382,92.7348846 65.1264546,96.7517849 70,100.000771 C66.8037238,97.2020478 63.5841738,94.3447287 59.8805275,92.2614917 L59.8805275,92.2614917 Z" id="Fill-1" fill="#FFFFFF" mask="url(#mask-2)"></path>
                </g>
                <path d="M43.2352941,64.2882369 C43.4595636,71.21316 53.4343572,70.9608589 53.5294118,64.2882369 C53.3333616,69.9976623 45.1601501,69.7453612 45.0962852,64.2882369 C45.1646057,58.8400174 53.3333616,58.5817798 53.5294118,64.2882369 C53.4373276,57.6141309 43.4536227,57.3514409 43.2352941,64.2882369" id="Fill-4" fill="#FFFFFF"></path>
                <path d="M46.6859367,40.5575595 C47.1822239,40.1537854 47.7561512,40.7944601 47.6983018,41.6750152 C47.6983018,41.6750152 47.6983018,41.6765052 47.6983018,41.6779951 L49.5068579,41.680975 C49.5068579,41.6794851 49.5068579,41.6794851 49.5068579,41.6779951 L49.5068579,41.6779951 C49.5951544,40.9881524 49.9300722,40.6395062 50.5161783,40.643976 C50.5390136,40.6827145 50.5679384,40.7408222 50.5938184,40.8525678 C50.7186514,41.8299691 50.7186514,43.3124605 50.8039032,44.537192 C49.3074296,44.689166 47.7287489,44.940966 45.8653881,45.1704169 C47.6358853,45.4698951 50.0427264,45.8140715 52.2333932,45.9183673 C52.3247344,44.9335163 52.4038968,43.9069469 52.4358662,42.9235858 C52.5652663,41.5170815 52.7494711,38.5163402 50.2010511,38.7934693 C49.5723191,38.8381675 49.0318836,39.1167865 48.6086693,39.5190706 C47.7257042,38.7353616 46.0937411,38.7294018 45.512202,39.9094351 C44.9139171,41.6005182 45.7207645,43.601509 45.8653881,45.1704169 C46.2155294,43.4137764 46.1515905,41.9655538 46.6859367,40.5575595" id="Fill-6" fill="#FFFFFF"></path>
                <path d="M46.6884776,47.6847104 C47.1856709,47.2797533 47.760646,47.9252937 47.702691,48.8054401 L47.702691,48.8054401 C47.702691,48.8054401 47.702691,48.8069344 47.702691,48.8084287 L49.5145488,48.8114173 C49.5145488,48.809923 49.5145488,48.809923 49.5145488,48.8084287 L49.5145488,48.8084287 C49.6014814,48.1165649 49.9385357,47.7683915 50.5257119,47.7713801 C50.5485889,47.8102321 50.5775664,47.86851 50.6034937,47.980583 C50.7285545,48.960848 50.7285545,50.4476827 50.813962,51.6760025 C49.3147564,51.8284218 47.7331936,52.0809595 45.866431,52.3110827 C47.6401605,52.6129326 50.0513956,52.956623 52.2475869,53.0612245 C52.3573964,51.1006946 52.6349706,49.6512175 52.421452,47.5771203 C52.1652297,45.6942943 49.8455026,45.4656655 48.5994691,46.6312244 C47.7103166,45.858668 46.0921507,45.8571737 45.5126002,47.0346871 C44.913223,48.7307248 45.7215434,50.7375782 45.866431,52.3110827 C46.2172116,50.5492956 46.153156,49.0968298 46.6884776,47.6847104" id="Fill-8" fill="#FFFFFF"></path>
                <path d="M27.0125062,74.4550938 C27.474058,73.3380604 28.4274272,71.9801915 29.6789135,72.3018338 C30.8971075,72.4872138 31.8701494,73.6311826 32.1274077,74.8211004 C32.0971421,75.603816 32.1833993,77.600216 32.2620901,79.0848404 C30.4627948,79.2448693 28.5832955,79.5332382 26.3905463,79.796256 C28.4758523,80.1289893 31.2118706,80.5076716 33.7390557,80.6122449 C33.8601185,78.6380271 33.9599952,76.6479649 33.9705882,74.6737471 C33.719383,71.3638426 29.405009,68.8794337 27.059418,71.5127804 C26.3451478,72.3160938 25.9940658,73.2017982 25.7352941,74.1889071 C25.8805694,76.2090738 26.1575005,78.1817071 26.3905463,79.796256 C26.5736537,77.9884049 27.0079664,75.1316515 27.0125062,74.4550938" id="Fill-10" fill="#FFFFFF"></path>
            </g>
        </g>
    </g>
</svg>