<?xml version="1.0" encoding="UTF-8"?>
<svg width="74px" height="80px" viewBox="0 0 74 80" version="1.1" xmlns="http://www.w3.org/2000/svg" xmlns:xlink="http://www.w3.org/1999/xlink">
    <title>illustrazione gressoney</title>
    <defs>
        <polygon id="path-1" points="0 0 74 0 74 80 0 80"></polygon>
    </defs>
    <g id="Page-1" stroke="none" stroke-width="1" fill="none" fill-rule="evenodd">
        <g id="Box-Gressoney-saint-jean" transform="translate(-141, -196)">
            <g id="illustrazione-gressoney" transform="translate(141, 196)">
                <path d="M26.3558165,74.1164557 C26.3578439,73.8956962 26.3578439,73.7316456 26.3578439,73.7316456 C26.3537891,73.7356962 26.3537891,73.8997468 26.3558165,74.1164557" id="Fill-1" fill="#FFFFFF"></path>
                <path d="M72.2361644,74.1711392 C72.1124932,74.7037975 71.9503014,75.2182278 71.7090411,75.7022785 C72.0212603,75.2567089 72.1550685,74.7240506 72.2361644,74.1711392" id="Fill-3" fill="#FFFFFF"></path>
                <path d="M71.9726027,75.5706329 C70.9650818,75.84 69.9491367,76.0931646 68.9315068,76.3281013 C69.9777786,76.0992405 71.0038326,75.8521519 71.9726027,75.5706329" id="Fill-5" fill="#FFFFFF"></path>
                <g id="Group-9">
                    <mask id="mask-2" fill="white">
                        <use xlink:href="#path-1"></use>
                    </mask>
                    <g id="Clip-8"></g>
                    <path d="M67.6065333,28.151475 C64.4544072,27.4349269 56.6416508,26.7386933 52.1198399,28.5226765 C52.638099,27.9908057 53.1804202,27.4755559 53.7153377,26.9510723 C56.6564582,24.3988314 58.7017309,20.6886637 60.0288444,17.0191249 C60.4249425,16.0237141 60.7673637,14.9802871 61.1338469,14.0051908 C61.1801201,14.1289246 61.2263932,14.2545052 61.2578589,14.3339164 C61.2578589,14.3339164 62.2758679,17.1373184 62.2758679,17.1373184 C63.7751176,21.5861956 66.8717159,25.1301537 69.9164882,28.6316361 C69.2334967,28.404483 68.4894247,28.2234992 67.6065333,28.151475 M42.0804202,46.5250236 C42.1229915,45.3892579 42.134097,44.2497987 42.1563082,43.1103395 C44.1627114,44.1574601 46.2764682,43.9044521 48.392076,43.008767 C48.3791196,44.3883067 48.3809705,45.7752336 48.393927,47.1640072 C46.2727664,46.8906847 44.171966,46.6838461 42.0804202,46.5250236 M24.9575088,46.2904833 C24.57992,45.4594353 24.0764682,44.7761291 23.4952776,44.1962423 C23.3731166,43.8638231 23.2398499,43.5350974 23.1232416,43.2008314 C26.2661131,44.5194276 29.7217909,44.4695648 32.9590595,43.3984362 C33.0127364,44.6450082 33.0608604,45.8878867 33.1330465,47.1418459 C30.5621111,47.3302168 28.0133867,47.6940311 25.4646623,48.102168 C25.3406503,47.4890393 25.1796198,46.8832976 24.9575088,46.2904833 M10.4444022,42.2497431 C9.74290145,42.3310012 9.06176088,42.5433801 8.42134067,42.8462509 C11.8788694,37.2117453 15.0365483,31.2706753 16.6227914,24.9140812 C17.8018309,31.3685543 19.6583092,37.7214548 22.6808704,43.4944684 C19.4102851,41.0844291 14.2406503,41.394687 10.4444022,42.2497431 M1.82649325,74.7160195 C2.70938469,64.8117738 2.03934967,54.5843427 2.12449225,44.7539679 C2.86856428,42.380864 6.08917459,41.7104853 8.42504252,41.3485177 C8.13444722,42.0133561 7.842001,42.6763478 7.55510755,43.343033 C5.92629315,44.4197019 4.737999,46.1501286 4.60658329,48.0523052 C4.19567784,57.0700997 5.11558779,66.1082087 5.59497749,75.1093822 C4.34005003,74.948713 3.08327164,74.8360598 1.82649325,74.7160195 M11.4513057,27.3093463 C11.7715158,26.2179032 12.0510055,25.1153795 12.3101351,24.0147026 C12.4434017,24.4283798 12.5711156,24.8217426 12.684022,25.135694 C13.0005303,26.0147582 13.2929765,26.9196771 13.6631616,27.793201 C12.3527064,32.4286022 10.39998,36.8460842 8.45835918,41.2728 C6.83509755,41.093663 4.97306653,41.150913 3.38682341,41.7825095 C6.88137069,37.4758339 10.1575088,32.7388601 11.4513057,27.3093463 M71.2750675,29.2466116 C70.5698649,28.0222009 69.8183892,26.8217982 69.0558079,25.6287825 C70.4717659,20.6258734 70.4365983,15.486303 68.9466033,10.4815471 C67.5047324,15.1963596 67.3233417,19.8945511 68.4135368,24.6167507 C66.7736168,22.0220341 65.2188394,19.3885352 64.3563082,16.3856817 L63.4049325,13.5804329 C63.1994797,13.0430218 62.8311456,11.8832481 62.5664632,11.3753854 C62.3943272,10.8859905 61.9741671,10.4224504 61.5021811,10.2211521 C62.6812206,6.8507906 62.5386993,3.36962275 61.1171886,-0.000738709359 C59.667914,3.37516307 59.542051,6.78061321 60.6933267,10.1823698 C60.4804702,10.2617811 60.2787194,10.4113697 60.1102851,10.6809986 C58.2389995,14.4244083 57.7336968,17.9369713 55.9345973,21.541873 C54.8388494,24.2584767 52.3345473,26.4228951 50.9537569,29.080402 C49.9450025,29.6732163 49.2064832,30.4488611 48.8973787,31.4608929 C48.5882741,35.0251656 48.442051,38.665156 48.393927,42.3420818 C46.4171386,41.1139775 44.2867234,41.2284774 42.1785193,42.0650658 C42.1877739,41.4057677 42.2210905,40.7483164 42.2229415,40.0890183 C42.2210905,39.8840264 42.1377989,39.675341 41.9730665,39.5257524 C40.8125363,38.469398 39.5298449,37.3798017 38.5951276,36.2421893 C38.485923,36.1092216 38.3471036,36.0168829 38.1990295,35.9467055 C39.2966283,33.3039728 39.1189395,30.5042643 37.7325963,27.8763058 C36.3055328,30.5633611 36.1574587,33.2337954 37.243952,35.9411652 C37.2032316,35.9596329 37.1588094,35.9651733 37.118089,35.9891813 C35.9649625,36.6946487 34.8414507,37.4739871 33.8567584,38.4564706 C33.5217409,38.8258252 32.8887244,39.455575 32.8146873,40.2681553 C32.8387494,40.9773163 32.8850225,41.6975579 32.9146373,42.4067189 C29.6736668,41.4297757 26.2661131,41.7437272 23.0103352,42.8979606 C20.0192396,34.2513675 18.5903252,25.0895247 17.6926263,16.0218673 C17.6722661,15.7928674 17.5889745,15.6155772 17.4834717,15.4641417 C18.0905753,12.9119009 17.8203402,10.3430391 16.6764682,7.77048376 C15.4715158,10.2525472 15.1290945,12.8343364 15.6492046,15.388424 C15.4752176,15.584182 15.3604602,15.8464238 15.3789695,16.1862301 C15.5085343,18.6055033 15.0976288,21.2740909 14.6182391,23.8263317 C14.4442521,24.7626458 14.2350975,25.6860325 14.0018809,26.6020321 C13.9389495,26.0295324 13.8815708,25.4570326 13.8093847,24.8826861 C13.8093847,24.8826861 13.4947274,22.7034935 13.4947274,22.7034935 C13.255958,21.9407761 13.2781691,20.6480347 12.5174387,20.0570672 C13.6187394,17.8686407 13.4336468,15.5417062 11.9917759,13.4142233 C10.6035818,15.6266578 10.4814207,17.8169311 11.6104852,20.0053575 C11.4124362,20.1327849 11.2588094,20.33593 11.2032816,20.5833976 C9.82064032,24.5317991 8.84705353,28.7276683 7.16641321,32.4932393 C5.66901451,35.7509475 3.78847424,38.9550994 2.27811906,42.3697834 C1.76356178,42.7095897 1.29342671,43.1195734 0.915837919,43.6477506 C0.219889945,45.1233225 0.210635318,46.676459 0.123641821,48.2646841 C-0.0466433217,53.9601333 -0.052196098,59.6962114 0.173616808,65.3861203 C0.282821411,68.6770705 0.491975988,71.9698675 0.793676838,75.2645112 C0.817738869,75.5138256 1.03984992,75.6966562 1.28972486,75.6708014 C2.72789395,75.5249063 4.16421211,75.4104063 5.60053027,75.2275757 C5.66161081,76.3670349 5.71713857,77.5064941 5.75970985,78.6441065 C6.88137069,79.9128398 9.60963482,79.7964931 11.045953,79.9793237 C16.0397499,80.1362994 20.9891246,79.373582 25.8903752,78.5683888 C25.9496048,78.566542 25.8903752,75.5729224 25.8829715,74.5645841 C25.8774187,75.567382 25.8570585,78.5406872 25.8570585,78.5406872 C19.8545073,79.2406143 12.6395998,80.5056541 6.78512256,78.1971874 C7.0424012,68.2947884 6.67591796,58.2686556 6.87211606,48.4179663 C7.1442021,44.9090968 10.4925263,44.3033552 13.3355478,43.7917989 C17.9406503,42.9570573 23.8469535,43.5664926 24.5262431,49.0624902 C25.5997799,57.3563495 25.4924262,65.8552007 25.8866733,74.2136971 C25.7663632,67.474821 25.621991,60.743332 25.8107854,53.9989155 C25.8329965,52.0948921 25.8589095,50.131772 25.4924262,48.2314422 C28.3298949,48.5010711 31.1784692,48.5804823 34.015938,48.7485387 C34.4934767,48.7780871 34.8655128,48.371797 34.8451526,47.9045633 C34.9821211,45.4686692 35.033947,43.0161541 35.0506053,40.5507116 C35.6336468,39.7418249 36.6275938,39.064059 37.5604602,38.4490835 C38.3804202,39.2912121 39.2225913,40.0557763 40.1165883,40.7649373 C40.223942,42.9625977 40.3664632,45.1621048 40.5571086,47.368999 C40.5885743,47.7291198 40.9013807,47.9987487 41.2641621,47.9765874 C43.6574087,47.8233053 46.0376988,47.6035392 48.393927,47.311749 C48.4753677,56.8835756 49.0491546,66.6049907 49.0972786,75.8684061 C50.4243922,77.1962362 53.2026313,77.2996555 54.9647124,77.5766715 C59.6605103,77.988502 64.36001,77.4326232 68.9762181,76.5424784 C62.4331966,77.7281069 54.8073837,78.0143568 49.7154877,75.8684061 C50.1356478,65.3030155 50.2430015,42.2460496 51.1407004,32.0352395 C51.5145873,30.8643851 53.2377989,30.5725949 54.5389995,30.2309418 C59.0515558,29.2133697 63.6955278,29.4682244 68.2358479,30.1847725 C73.9903752,30.5264256 72.083922,36.7980681 72.5262931,40.6836793 L72.8168884,47.7402005 C73.1111856,55.9694227 73.4832216,64.2189595 72.9964282,72.446335 C72.902031,73.0853186 72.8964782,73.790786 72.7983792,74.4556245 C73.2074337,72.6956494 73.0408504,70.7029809 73.2333467,68.9226913 L73.4443522,61.8606299 L73.6794197,47.7291198 C73.7034817,45.3504757 73.7256928,39.4481879 73.8274937,37.1803502 C74.3568584,33.5883759 73.7145873,30.7388045 71.2750675,29.2466116" id="Fill-7" fill="#FFFFFF" mask="url(#mask-2)"></path>
                </g>
                <path d="M62.6019997,35.1989901 C61.2670405,33.7231809 58.3881033,34.5811274 57.6171002,36.0180995 C56.2367879,38.3589165 56.9427191,40.8462552 56.9841284,43.268277 C58.0272502,41.2487486 57.9444315,38.7720018 59.3326313,37.0437516 C61.6278936,34.798262 62.1622717,40.3307812 62.6867904,42.8675489 C60.990978,42.955815 59.1689657,43.153531 56.9841284,43.268277 C58.8869876,43.6831276 61.4563405,44.3239395 64.0355527,44.556962 C64.5383808,44.5198903 64.9150089,44.1244581 64.8735995,43.6725357 C64.7316245,42.1737773 64.6941589,40.5479158 64.3451371,38.909697 C64.063159,37.6333692 63.7180809,36.2493567 62.6019997,35.1989901" id="Fill-10" fill="#FFFFFF"></path>
                <path d="M60.2083497,49.6214676 C55.6819375,50.558414 56.8888495,55.8254718 56.9794171,58.9722681 C57.6823006,57.4753935 57.9106885,55.831071 58.3753398,54.3920556 C58.7888007,52.9175781 59.5743763,51.7305304 60.4623328,51.8107867 C60.7478177,51.8219853 60.9092643,51.8723788 61.2479085,52.4509713 C62.0866434,54.1755501 62.2854984,56.0849052 62.7147101,58.0409209 C61.0214894,58.28169 59.2081681,58.6680405 56.9794171,58.9722681 C58.8675551,59.2447665 61.4408569,59.6852433 64.0299095,59.7468354 C64.6087547,59.7039076 64.9670875,59.1738423 64.8568313,58.6512426 C64.4807787,55.7190854 64.8135163,49.5206805 60.2083497,49.6214676" id="Fill-12" fill="#FFFFFF"></path>
                <path d="M14.3888414,49.6579001 C9.95936163,50.830201 11.3543421,56.4724944 11.3747203,59.8674013 C12.4881111,57.7763216 12.3528739,52.4256738 14.6296747,51.9281608 C14.7945529,51.8919433 14.7463862,51.9662844 14.8686554,52.0120327 C16.0135398,54.1431422 15.8579244,56.626895 16.3247705,59.1068354 C14.8612452,59.3107967 13.2847135,59.631035 11.3747203,59.8674013 C13.0197968,60.1609531 15.2317579,60.6222487 17.4807702,60.7594937 C18.0068983,60.7347133 18.3218341,60.2143261 18.2310585,59.705376 C17.9809624,56.7336411 18.5848982,52.9117498 16.4396294,50.3345941 C15.9283218,49.8523305 15.0650272,49.5015934 14.3888414,49.6579001" id="Fill-14" fill="#FFFFFF"></path>
                <path d="M31.0313558,55.1194748 C29.9625887,57.182277 30.5643634,59.282756 30.7257225,61.3756996 C31.6274354,59.7160386 31.6179437,57.623095 32.7018975,56.230939 C32.8689516,55.9916916 33.2296368,55.8428685 33.4213694,55.8805452 C34.0914845,57.3028426 34.1674182,59.2318924 34.5110182,61.0516795 C33.4156744,61.138336 32.2045316,61.2946946 30.7257225,61.3756996 C31.9748322,61.8165176 33.8276148,62.5022345 35.6860925,62.7848101 C36.1435931,62.7735071 36.5042782,62.3948557 36.4928882,61.9408509 C36.3600042,59.5898215 36.8042164,56.6510348 35.2266935,54.5034599 C34.1712149,52.9794353 31.6938774,53.7649956 31.0313558,55.1194748" id="Fill-16" fill="#FFFFFF"></path>
                <path d="M38.1272462,55.1194748 C37.0584791,57.182277 37.6602538,59.282756 37.821613,61.3756996 C38.7233258,59.7160386 38.7138341,57.623095 39.7977879,56.230939 C39.9648421,55.9916916 40.3255272,55.8428685 40.5172598,55.8805452 C41.1873749,57.3028426 41.2633086,59.2318924 41.6069086,61.0516795 C40.5115648,61.138336 39.3004221,61.2946946 37.821613,61.3756996 C39.0707226,61.8165176 40.9235052,62.5022345 42.7819829,62.7848101 C43.2394835,62.7735071 43.6001687,62.3948557 43.5887786,61.9408509 C43.4558946,59.5898215 43.9001068,56.6510348 42.3225839,54.5034599 C41.2671053,52.9794353 38.7878695,53.7649956 38.1272462,55.1194748" id="Fill-18" fill="#FFFFFF"></path>
            </g>
        </g>
    </g>
</svg>