<?xml version="1.0" encoding="UTF-8"?>
<svg width="96px" height="64px" viewBox="0 0 96 64" version="1.1" xmlns="http://www.w3.org/2000/svg" xmlns:xlink="http://www.w3.org/1999/xlink">
    <title>illustrazione champorcher</title>
    <defs>
        <polygon id="path-1" points="0 0 96 0 96 64 0 64"></polygon>
    </defs>
    <g id="Page-1" stroke="none" stroke-width="1" fill="none" fill-rule="evenodd">
        <g id="Box-champorcher" transform="translate(-132.3787, -254)">
            <g id="illustrazione-champorcher" transform="translate(132.3787, 254)">
                <path d="M28.058047,31.521563 C27.818795,33.1697375 28.0209537,34.6702883 28.219403,36.2264151 C30.0147204,35.991954 32.1512966,35.4761397 33.4718193,35.0280585 C32.0956566,34.8821716 30.9568912,34.7032865 29.9182778,34.5921346 C30.1167271,32.8710167 30.1760765,30.3892029 31.4891805,29.8108656 C32.7596273,31.1082168 32.8097033,33.2930466 33.4718193,35.0280585 C34.0041087,32.8362817 34.6810621,29.9550157 32.6706033,28.1835321 C30.2892111,26.7020855 28.1007043,29.565984 28.058047,31.521563" id="Fill-1" fill="#FFFFFF"></path>
                <path d="M29.2732369,17.030997 C29.0339848,18.6809082 29.2361435,20.1797223 29.4345929,21.7358491 C31.2299103,21.501388 33.3664865,20.9855736 34.6870092,20.5392292 C33.3108465,20.3916056 32.172081,20.2144572 31.1334676,20.1015686 C31.331917,18.3804507 31.3912663,15.8986369 32.7043704,15.3202996 C33.9748172,16.6176508 34.0248932,18.8024806 34.6870092,20.5392292 C35.2192986,18.3457157 35.896252,15.4661864 33.8857932,13.6929661 C31.504401,12.2115195 29.3158942,15.075418 29.2732369,17.030997" id="Fill-3" fill="#FFFFFF"></path>
                <g id="Group-7">
                    <mask id="mask-2" fill="white">
                        <use xlink:href="#path-1"></use>
                    </mask>
                    <g id="Clip-6"></g>
                    <path d="M76.5818194,60.4362654 C76.8643711,56.5006974 76.8752384,51.3449947 76.84807,47.2265876 C79.0505238,50.1755481 82.8848945,51.9785958 85.2793386,54.4749842 C85.5347218,56.3830286 86.1197486,58.2204718 86.4330911,60.1158442 C86.4765606,60.2479953 86.510974,60.3457509 86.5435761,60.4435065 C83.285176,60.1719632 79.9344033,60.2751497 76.5818194,60.4362654 M66.0694493,60.6317766 C64.4828131,60.559365 62.8527075,60.534021 61.525077,60.0814487 C62.1571958,57.0691281 62.7494675,53.9246564 62.0304098,50.914146 C61.5069647,49.5202236 59.5743839,48.8540373 58.3047128,49.6849599 C55.928381,51.5260236 56.451826,54.8207493 57.1835623,57.5524752 C56.4427699,57.168694 55.6711866,56.8718066 54.8615674,56.7686201 C52.6772259,56.3830286 50.6051805,56.3848389 48.5548698,56.3359611 C47.0189481,56.422855 45.5500418,56.3033759 44.1064927,56.122347 C44.3419524,53.4485504 44.2206001,50.7801846 44.3039166,48.0792337 C48.8899471,45.8145623 52.7913333,42.460097 57.3465729,40.2859401 C57.6436144,40.1610302 57.8428495,40.1664611 57.9877478,40.1881845 C61.0958159,40.8163548 64.1658482,42.1632097 67.2467478,43.3018814 L75.1255917,46.4010959 C75.4950823,50.6263101 75.9768691,56.2092409 76.4314875,60.4435065 C72.9340052,60.6118634 69.4419567,60.8109952 66.0694493,60.6317766 M57.9062425,57.9579799 C58.1869829,55.921405 58.2141514,53.828711 59.0020357,52.0709206 C59.2882098,51.5567985 59.5417818,51.5205928 59.7319608,51.5984352 C60.1938241,51.3486153 60.2336711,53.6513027 60.4854319,55.2515981 C60.6864782,56.8337905 60.9545401,58.4232242 61.3729338,60.0162783 C61.1030608,59.9149022 60.8259428,59.8243877 60.5886719,59.6777543 C59.7446394,59.1781146 58.8517038,58.52279 57.9062425,57.9579799 M54.3344999,39.3663134 C53.5556717,39.8695737 52.8076343,40.4398147 52.0559745,40.9901425 C52.1954391,39.3753648 52.0958215,37.6012818 52.9072519,36.6128641 C53.7983763,35.8778868 54.0410809,37.9452366 54.3344999,39.3663134 M49.4985199,34.9998967 C49.5637241,34.4857747 49.4514279,33.9046719 49.3735451,33.4267557 C49.3355093,33.2765017 49.3336981,33.1425403 49.3355093,33.0375436 C49.4478055,33.0031481 49.6090048,32.9560806 49.7647705,32.9669423 C51.9527345,32.858325 54.6351639,32.9814246 56.9553476,32.7008298 C57.0531539,34.5074981 57.2904248,36.3377001 58.0058601,37.997735 C56.9897609,38.0683363 56.0805242,38.3887574 55.2274356,38.8413296 C55.7128448,37.251896 55.8686105,35.4796232 54.1479434,34.4803438 C53.1843699,33.9662217 51.885719,34.3391413 51.2626564,35.0487745 C49.5655353,37.308015 50.2990829,39.4731204 51.2191869,41.5766761 C51.029008,41.7033963 50.8406402,41.8355474 50.6468387,41.9532162 C49.9694393,42.4456147 49.3047184,42.9470648 48.6418088,43.4448942 C49.0511465,40.6353259 49.1072945,37.7949827 49.4985199,34.9998967 M53.5484268,17.447336 C53.383605,20.3673319 53.399906,23.2891381 53.4814113,26.2797353 C53.6118198,27.794947 53.867203,29.2830045 54.1950353,30.7710619 C53.5828401,30.7457179 52.9742673,30.7239944 52.3711283,30.727615 C51.7897239,30.7475282 51.1757175,30.6805475 50.5580886,30.6606343 C51.7788565,26.3503365 52.6265115,21.8771128 53.5484268,17.447336 M61.8891339,31.9948172 C60.8005856,31.7576693 59.8279559,31.6472417 58.6452237,31.5132804 C58.6687697,31.3014766 58.6959381,31.0914831 58.7176729,30.877869 C57.3990985,30.9339879 56.055167,30.8579558 54.7166692,30.7945957 C54.984731,29.2793839 55.1241956,27.7677927 55.2527928,26.277925 C55.8106512,21.9368523 55.9012126,17.2626865 55.3143746,12.8256685 C56.2761369,15.3908478 57.1237918,18.0067152 57.9225436,20.6696501 C58.9114743,24.5237551 60.6122179,28.2131238 61.8891339,31.9948172 M63.0827335,39.3282973 C61.4797963,38.7924518 59.8460682,38.3308282 58.163437,37.985063 C58.1018552,35.9412469 58.3590496,33.9517394 58.5945093,31.9549908 C59.4965011,32.9615114 60.8168867,33.6494212 61.928981,34.1707844 C62.2097214,34.3681059 62.0974252,34.2631091 62.238701,34.6414595 C62.5774008,35.9955556 62.6788296,37.7479152 63.0827335,39.3282973 M24.188413,55.4000418 C23.6577231,55.2932347 23.1270332,55.1647042 22.594532,55.0289326 C23.458488,37.6845551 24.061627,19.6667501 24.9219606,2.26444335 C25.4580842,2.21375526 25.9942078,2.17211862 26.5194641,2.14858486 C26.4832395,3.60224681 26.4289027,5.89045192 26.4162241,6.37017847 C27.7221198,6.41181511 30.4045492,6.49689869 31.7122562,6.53853533 C32.0002415,5.32745209 32.0400885,3.92990909 32.0745019,2.71339498 C32.1940429,2.71701556 32.3208289,2.73511845 32.4385588,2.73692874 C32.5762122,2.73511845 32.7156767,2.73511845 32.8497077,2.73511845 C32.9275905,4.0258544 33.0489428,6.02984416 33.0815449,6.56387938 C34.3095578,6.5276736 36.7094356,6.45888262 37.9410709,6.42448713 C38.0026527,5.96467377 38.2652808,4.04576758 38.4301026,2.84373578 L39.1745175,2.80571972 C39.2487779,20.3999171 39.5440081,37.9923042 40.1996728,55.5792604 C38.9354354,55.4145241 37.6621417,55.2914244 36.3526235,55.3149582 C32.1741194,55.3221994 28.1242125,55.7820127 24.188413,55.4000418 M14.6957646,53.3218302 C15.6176799,40.561104 15.8006139,27.7261561 16.1139565,14.9654299 C16.1755382,10.8832286 16.4254878,6.74852884 16.2932681,2.57943361 L17.7241386,2.35857837 C17.7440621,3.27639482 17.7060263,4.27929484 17.8799042,5.24236851 C18.4631198,5.3093492 19.1006722,5.26409198 19.5951376,5.19711129 C19.8631994,5.17176725 20.9191456,5.02332356 21.1636615,5.0016001 L21.1727176,4.66488637 L21.2487892,1.62179081 L22.8734612,1.39731499 C22.1399136,19.0422004 22.1181789,37.4256837 22.5854758,55.025312 C20.0225875,54.3681771 17.4270971,53.4956179 14.6957646,53.3218302 M90.6278963,61.0028858 C89.3853936,60.7385836 88.1175336,60.5810885 86.8388063,60.46523 C86.8514849,60.3656641 86.8659748,60.2588571 86.8877095,60.1466191 C87.5035272,58.0792693 87.2771236,55.7802024 87.2825573,53.6476822 C84.7323476,49.9583135 80.5031291,48.5861145 76.8426363,46.3359255 C76.8408251,46.1404143 76.8390139,45.9322311 76.8390139,45.743961 L76.8353914,45.229839 C76.8353914,45.229839 76.3137576,44.972778 76.3137576,44.972778 C72.1406872,43.0900776 68.0545557,41.0679849 63.7492656,39.5636349 C64.7599311,37.2084491 65.464499,33.3996013 62.8074268,32.2138621 C62.5538548,32.1450712 62.3274512,32.0980037 62.0938028,32.043695 C61.6083935,28.0357155 60.3695133,24.2178163 59.6631341,20.2152676 C58.6053767,14.9455168 56.7072093,9.67576591 54.350801,4.79341688 C53.0213593,9.74817747 51.5415856,15.0016357 51.3079371,20.130184 C50.9746711,23.1805208 50.3932668,27.2971176 50.1487509,30.6606343 C49.2322693,30.6751166 48.3212214,30.8561455 47.5079798,31.6653446 C46.7744322,33.1009037 47.279765,33.5824405 47.4500205,34.6414595 C47.3268569,37.6899859 47.7452507,40.6787728 48.3520123,43.6621288 C46.6077992,44.9745883 44.8762648,46.2635139 43.0034545,47.3406358 C43.1302405,50.2515803 43.6717979,53.1751968 43.9072576,56.1006236 C42.6701885,55.9395079 41.4494205,55.7421864 40.2214076,55.5810707 C40.8915621,37.6266258 41.1904148,19.6685604 41.2556191,1.70506409 L41.2592415,0.617080493 C41.2592415,0.617080493 40.1833718,0.660527425 40.1833718,0.660527425 C39.5385744,0.689492047 37.1839774,0.781816778 36.5754046,0.808971111 C36.5138229,1.22533755 36.2348937,3.10622767 36.0573933,4.30463889 L35.159024,4.3191212 C35.0974422,3.06459102 35.0032583,1.17464946 34.9887685,0.832504866 C33.1739176,0.265884455 31.6524856,0.575443849 29.9263849,0.251402144 C29.7905427,1.54394839 29.8485021,3.00847207 29.7742417,4.26843311 L28.634979,4.24489935 C28.65128,2.87994156 28.6802597,0.703974358 28.6820709,0.287607921 C28.0916104,0.122871636 27.0429091,-0.0581572497 26.6607399,0.0178748822 C25.4309158,0.0667526812 24.1159639,0.233299256 22.904252,0.403466408 C22.904252,0.403466408 22.8770836,1.26335361 22.8770836,1.26335361 C22.8770836,1.26878448 22.8770836,1.27421535 22.8770836,1.27964621 L21.0386867,1.24163015 L20.8811098,1.23800957 L20.8575639,1.3955047 L20.4283027,4.24851993 C19.9664394,4.25033022 19.3904688,4.25757138 18.9213606,4.23041704 C18.9412841,3.17682893 19.0898049,1.96755598 19.0318455,0.845176888 C18.5591149,0.885003243 15.8839304,1.09499675 15.349618,1.13844368 L14.7446677,1.18732148 C14.7446677,1.18732148 14.7120656,1.91143702 14.7120656,1.91143702 C13.415226,18.6964353 13.2449705,36.4915747 14.5997694,53.3182096 C13.7774717,53.2711421 12.9479291,53.2711421 12.0984629,53.3815697 C7.93625985,53.6422513 4.19245057,55.9376976 -0.000543368548,55.025312 C4.03306247,56.4518196 8.25503606,54.3681771 12.1364987,54.4876562 C14.0853806,54.5130002 16.2244414,54.6813571 18.0266137,55.1719454 C23.4892788,57.9579799 30.4317176,57.4999768 36.3218327,57.4583402 C38.3304851,57.5054077 40.2684995,57.6737646 42.1739119,58.1371985 C46.3596609,58.9554491 50.4331138,58.2928834 54.4504186,58.9500182 C56.2399123,59.1455294 57.5367519,60.4561785 59.567139,61.5713165 C61.58847,62.677403 63.8905414,62.5886988 66.0622044,62.621284 C74.2743143,62.7606763 82.3433372,60.6643618 90.4938654,61.5894194 C92.4699157,61.9333742 94.3572158,62.7697277 96,64.0007241 C94.5220376,62.5832679 92.6600947,61.5115769 90.6278963,61.0028858" id="Fill-5" fill="#FFFFFF" mask="url(#mask-2)"></path>
                </g>
            </g>
        </g>
    </g>
</svg>