<?xml version="1.0" encoding="UTF-8"?>
<svg width="98px" height="80px" viewBox="0 0 98 80" version="1.1" xmlns="http://www.w3.org/2000/svg" xmlns:xlink="http://www.w3.org/1999/xlink">
    <title>illustrazione la magdeleine</title>
    <defs>
        <polygon id="path-1" points="0 0 98 0 98 80 0 80"></polygon>
    </defs>
    <g id="Page-1" stroke="none" stroke-width="1" fill="none" fill-rule="evenodd">
        <g id="Box-La-magdeleine" transform="translate(-129.3787, -239)">
            <g id="illustrazione-la-magdeleine" transform="translate(129.3787, 239)">
                <g id="Group-3">
                    <mask id="mask-2" fill="white">
                        <use xlink:href="#path-1"></use>
                    </mask>
                    <g id="Clip-2"></g>
                    <path d="M93.5360748,69.3239965 L93.5210448,65.0880097 L93.5195418,64.6121906 L93.1377796,64.3488442 L91.1959031,63.0126605 C92.3592254,51.9461262 92.3441954,40.8631328 91.1748611,29.7965986 C91.2034181,29.7995911 91.2319751,29.80408 91.2605321,29.8070726 L96.0536005,28.9182784 C96.2610145,41.8297338 95.9814564,56.6953393 97.2905698,68.4112618 C96.0355645,68.6985488 94.7850681,69.0097764 93.5360748,69.3239965 M79.0892347,69.0202504 C80.2675871,68.7374522 81.4414304,68.4456764 82.5927287,68.1524043 C80.9785063,67.4237128 79.3492538,66.6845473 77.6869353,66.0201961 C78.4294176,66.1234399 79.1734028,66.1967579 79.917388,66.2401502 C81.3272024,66.0276776 82.7234897,65.7029834 84.0972321,65.2870158 C83.1984379,68.0446716 83.1623659,70.8397346 84.0130641,73.6033756 C82.3868177,73.9325586 80.7740982,74.2662305 79.2260078,74.6013987 C79.884322,72.7504924 79.8362259,70.8681641 79.0892347,69.0202504 M77.9364334,60.5931653 C77.7124864,62.0670074 78.0942485,63.3882283 79.0366297,64.5119394 C78.0852305,64.5927389 76.501068,64.8216707 75.3227157,65.1433723 C74.5682095,64.8875073 73.8031823,64.6660569 73.03064,64.4640583 C74.6854435,63.1967037 76.317702,61.9024159 77.9364334,60.5931653 M84.5090542,62.9363498 L84.6608573,62.9124093 C84.7495343,63.1338597 84.8397143,63.35531 84.9389124,63.569279 C83.2856119,63.6904782 81.6668805,63.9807578 80.072197,64.3817625 C80.2570661,63.0395936 79.951957,61.8216165 79.1628818,60.7712234 C80.9619733,61.5462998 84.0882141,62.8929575 84.0882141,62.8929575 C84.2775922,62.9887199 84.2986342,62.973757 84.5090542,62.9363498 M84.9794934,50.3720329 C85.9624557,50.1146716 86.9424119,49.8378587 87.9178592,49.5400977 C88.0350932,53.3945314 88.1868963,57.2474689 88.4198613,61.1004064 L88.1583393,60.9193558 L87.8592422,60.7128683 L87.5285821,60.7787049 L85.1042424,61.2515314 C86.0811927,57.6350071 86.0330967,53.9855646 84.9794934,50.3720329 M65.9740531,49.8034441 C66.1438921,49.6642894 66.3107252,49.5221422 66.4805642,49.3829876 C73.6588942,49.4353576 80.7154812,48.45529 87.6037321,46.4203405 C87.6773791,46.4622365 87.7495231,46.5071251 87.8231702,46.5505174 C87.8472182,47.4916816 87.8847932,48.4313494 87.9133502,49.3725136 C80.4223961,49.2737587 73.0727241,50.3211592 65.9079211,52.4788042 C65.9259571,51.5750472 65.9485021,50.6847568 65.9740531,49.8034441 M62.9875912,74.4397997 L63.0642443,61.2904348 L63.0687533,60.3477744 C63.0687533,60.3477744 62.121863,60.3537595 62.121863,60.3537595 C62.01515,60.3492707 61.5176568,60.3507669 60.8292826,60.3552558 C58.8257831,58.8963766 56.6764925,57.6275257 54.4069619,56.5367329 C55.4831102,53.8449137 55.4770982,51.1022207 54.4129739,48.4104014 C57.6654668,48.7261179 60.9209657,49.0178937 64.1794706,49.2917141 C64.2320756,53.684811 64.3012136,58.0764116 64.4470047,62.4695085 C64.5416937,66.7533765 64.7235567,71.0387407 64.9429948,75.3226087 C64.4394897,74.45177 63.7481095,74.143535 62.9875912,74.4397997 M1.39162809,62.592204 L1.40515509,61.7752316 L2.34002135,61.1497839 C10.0759645,61.7288467 18.5724259,62.8331061 24.7106796,67.8396804 C26.8750002,69.7055495 28.1375205,72.2746733 28.3268986,75.0502846 L28.7522477,75.0517809 L28.7868167,76.2263657 L21.0674066,76.4582901 L21.0538796,76.4597864 C20.3865474,67.075078 9.39209932,63.8760177 1.39162809,62.592204 M2.19423031,58.4489869 C2.1401223,58.4729275 3.21025859,57.6200443 3.33500763,57.4719119 C14.2362697,58.3382617 31.9987286,60.0200876 37.2381881,71.0312593 L37.2246611,73.3534958 L29.938115,73.2352892 C28.9776978,67.6152374 23.5353333,64.1034532 18.4987789,62.4036719 C13.2262534,60.5961579 7.73128385,59.7746967 2.17168531,59.6804306 C2.19573331,59.0534866 2.22278732,58.2739214 2.19423031,58.4489869 M3.76486575,54.8668773 L4.80644504,54.3341993 L4.86806806,54.3027773 L4.87257706,54.2144964 L4.96125408,52.8379129 C7.02487366,52.9860453 9.08548723,53.1222073 11.1461008,53.1955254 L17.5368586,53.6369298 C21.2567846,53.8808245 26.4932381,54.4149988 30.2537451,54.8474255 C38.2421924,56.0339807 46.6048867,57.0245223 53.8207917,60.8280823 C53.8448397,61.793187 53.9019537,64.0076909 53.9335167,65.2780381 L46.5898567,65.4037261 L45.7677155,65.4171927 C45.7677155,65.4276667 45.7677155,65.450111 45.7677155,65.4650739 C34.7958124,55.2289786 18.2102028,53.4424126 3.76486575,54.8668773 M21.9646978,44.7923809 C24.9812197,45.1604674 27.9992445,45.5210724 31.0187723,45.8756923 C30.2988351,47.488689 30.2672721,49.1346041 30.9195743,50.7490971 C27.8940345,50.5037061 24.8594766,50.3989661 21.8609908,50.4034549 C22.663593,48.5465635 22.698162,46.6522649 21.9646978,44.7923809 M41.2031032,52.1989986 C38.1505093,51.5675657 35.0317835,51.1082058 31.8845006,50.8224151 C32.5548388,49.2168998 32.5458208,47.5799625 31.8574466,45.9759435 C35.0302805,46.3485188 38.2046173,46.7046349 41.3804572,47.0532697 C40.597394,48.7545473 40.535771,50.4932321 41.2031032,52.1989986 M42.0643224,47.1310766 C46.0773335,47.5694885 50.0918477,47.9929375 54.1093678,48.3834683 C53.0572675,51.0229175 53.0257045,53.7117442 54.0342178,56.354186 C50.3172977,54.609516 46.3087956,53.3107394 42.1364664,52.389027 C42.8744396,50.6488459 42.8413736,48.8712576 42.0643224,47.1310766 M34.3449123,35.7353593 C48.0612941,37.0565802 62.3082351,38.2895202 76.0531739,39.1035 C72.1814448,42.2711383 68.3292547,45.4612209 64.5041187,48.6827256 L64.1734586,48.9610348 C64.1749616,49.0493157 64.1764646,49.1375966 64.1779676,49.2258775 C57.2626627,48.0393224 50.3278187,46.9784553 43.3854598,45.968462 C36.892498,44.970439 30.3784942,44.1310223 23.8674963,43.2601836 C27.3800083,40.7793408 30.8759873,38.2760536 34.3449123,35.7353593 M77.4404433,40.2960403 C80.6688882,42.2771235 83.9063511,44.2432438 87.172371,46.1629793 C80.4043601,46.0986389 73.7460682,46.9679813 67.2335674,48.7590362 C70.6513904,45.9564917 74.0586923,43.1434733 77.4404433,40.2960403 M85.7264846,66.4212009 C85.4679685,66.3658383 85.2019374,66.3284311 84.9283914,66.3000017 C84.8352053,65.9094709 84.7239833,65.5204365 84.5947253,65.131402 C85.3732795,64.8800259 86.1443187,64.6077018 86.8988249,64.2874965 C86.3637568,63.7787591 85.8061436,63.2879772 85.2229794,62.8241284 L87.4624501,62.4710048 L90.8938,64.9638179 C89.0736665,64.9922474 87.366258,65.5503622 85.7264846,66.4212009 M85.1192724,67.1828107 C85.2800935,67.3488985 85.4409145,67.5149862 85.6107536,67.6720963 C85.6107536,67.6720963 86.0120547,67.6541409 86.0120547,67.6541409 C88.0816862,67.5045122 90.0115388,66.9793157 91.6979052,65.8017383 L91.6768632,72.0427489 C89.5095366,72.49762 87.13179,72.9719428 84.7254863,73.4582358 C85.3567465,71.3769015 85.4845015,69.2746191 85.1192724,67.1828107 M82.5626687,28.529244 C85.3822975,28.9437153 88.2004233,29.4973413 91.0230581,29.7786431 C89.8567297,40.8032814 89.8371907,51.8428824 90.985483,62.8675207 L88.5115444,61.1617542 C88.8151504,56.1686464 88.9940075,51.1725461 89.1232655,46.1734533 L89.1337865,45.8337962 L88.8181564,45.6198273 C87.5571391,44.7684403 86.2856007,43.9365051 85.0170684,43.100081 C86.4073438,43.7120621 88.2049323,42.8576826 88.1748723,40.4247209 C88.0591412,42.9414746 85.2304944,43.1165401 85.3161655,40.4247209 C85.2395124,37.7403831 88.0576382,37.912456 88.1748723,40.4247209 C88.2244713,36.5253985 83.578697,36.6705383 83.4329059,40.4247209 C83.47499,41.4691288 83.8717821,42.2232572 84.4128622,42.6990762 C83.620781,42.1783686 82.8302028,41.6561646 82.0366186,41.1399458 C82.2740926,36.9368773 82.4574587,32.7323125 82.5626687,28.529244 M85.9369046,26.031942 C87.6728701,26.4538947 89.4208596,26.8025295 91.1898911,27.019491 C92.1127334,26.711256 93.0265576,26.3805767 93.9298609,26.0065051 C94.6948881,26.5451682 95.2825612,26.9342027 95.7064074,27.1825862 C94.0260529,27.5401987 90.937387,28.1985647 90.937387,28.1985647 C89.4524226,27.923248 85.9414136,27.635961 83.1518449,27.3606443 C84.1107591,26.9626321 85.0396134,26.5197313 85.9369046,26.031942 M89.1202595,13.0486648 C89.5591357,17.0991121 90.1197548,21.1345966 90.887788,25.1371627 C89.3126436,24.8319203 87.7179601,24.6254328 86.1172647,24.4817893 C87.288102,20.7036661 88.2605433,16.8866395 89.1202595,13.0486648 M93.6503028,24.5895219 C92.7996046,24.7511208 91.9549183,24.9381566 91.1222561,25.1536219 C91.1463041,23.9087116 91.1387891,22.6667939 91.1568251,21.4218836 C91.1448011,20.0707369 91.0936991,18.6821832 91.0395911,17.2936294 C91.7054203,19.7774648 92.5756575,22.2119228 93.6503028,24.5895219 M97.848183,27.8304782 L97.83165,26.7292114 L96.7675257,26.956647 C96.7675257,26.956647 96.6262436,26.9865727 96.4053026,27.0329576 C96.0776485,26.5227239 95.3351663,25.6429075 94.283066,24.4668264 C94.1763529,24.4847818 94.0696399,24.5102187 93.9629269,24.5296704 C93.6578178,19.345038 92.5425915,14.3369674 90.6007149,9.54735466 C90.3662469,6.3183686 90.0927008,3.09836026 89.8341847,-0.00044888592 C88.3101423,7.99271309 86.6207698,16.3195469 85.9248806,24.4608412 C85.8121556,24.4503672 85.7009336,24.4339081 85.5882085,24.4249304 C84.5075512,25.3122282 83.473487,26.2518961 82.5085607,27.2978003 C82.1057566,27.2574005 81.7224915,27.2155045 81.3737954,27.1751048 C81.4729934,31.8091038 81.6743955,36.4416065 81.9359175,41.0756055 C80.3908331,40.0715973 78.8442457,39.0705817 77.2961552,38.0725587 C76.9113871,38.3867788 76.535637,38.7084804 76.1523719,39.0227005 C62.3743671,37.0505951 48.0312341,35.4031837 34.1855942,33.9428082 C33.8068381,33.8919345 33.8819881,33.8874456 33.5753761,34.1059034 C28.7447327,37.4949921 23.9306224,40.9559026 19.181141,44.4617016 L21.1275266,44.693626 C20.3534814,46.5834357 20.3745234,48.5121489 21.1906526,50.4004624 C16.0549002,50.4348769 11.0438968,50.774534 6.41615849,51.2757899 C24.0869344,51.9281708 42.6775466,52.0329108 58.9956221,59.5278094 C59.4765823,59.8106075 59.9785844,60.0814354 60.4685625,60.3582484 C58.0682709,60.3747075 53.9214927,60.4195961 53.8102707,60.3971518 C53.8117737,60.445033 53.8132767,60.5407953 53.8162827,60.6560094 C43.5883648,53.5471527 29.721683,52.66584 17.6150146,52.0299182 C13.8785556,51.9925111 10.1466055,52.0329108 6.42217049,52.2408946 C6.48830251,51.9925111 6.49281151,51.6752984 6.41615849,51.2757899 C5.19722515,50.7042085 4.55995297,51.1306501 4.70424101,52.3381532 C4.44121594,52.3591013 4.47127595,52.2992498 4.48780895,52.5805516 L4.58700698,54.1486598 L3.5995357,54.8818401 C3.43119966,54.8982993 3.25985761,54.9102696 3.09152156,54.9267287 C3.2388156,57.1786398 3.31697162,57.7502212 3.48079867,55.3067855 C17.9712257,55.8903372 33.489705,57.3477201 45.7692185,65.674554 C45.7737275,66.4900301 45.7887575,68.893066 45.7962725,70.1843612 L38.6239545,70.2262572 C33.9736712,59.8854219 18.2537898,57.8310206 8.21374699,57.289365 L3.30194162,57.1950989 L3.2433246,57.1936026 L3.20424659,57.2310098 L2.08902028,58.3352692 C2.08902028,58.3352692 2.06196627,58.3622023 2.06196627,58.3622023 C2.05745727,58.3771652 2.09052328,59.0968789 2.11607429,59.6789343 C2.04693627,59.6774381 1.97629525,59.6729492 1.90565423,59.6714529 C1.55996413,59.9153476 0.336521794,60.8086306 -0.000150300041,61.0435475 C0.0208917058,61.6764767 0.0238977067,63.1368522 0.0479457134,63.7622999 C8.06194395,64.6944864 19.6215202,66.9957749 21.0463646,76.4597864 L20.9621965,76.4612827 L20.9667055,76.5600376 L21.0674066,79.1665685 L21.1635986,76.6632813 L29.1415248,76.9026871 L29.4751909,76.9131611 L29.4857119,76.5585413 L29.5292989,75.0562697 L38.0783653,75.0951732 L38.9606266,75.099662 C38.9606266,74.6687315 38.9455966,72.6741818 38.9395845,71.5534632 L46.5898567,71.7674322 L47.3909559,71.7898765 L47.3954649,70.9729041 L47.4195129,67.0421597 L54.838323,67.00176 C54.838323,67.00176 55.7130692,66.9957749 55.7130692,66.9957749 C55.6965362,66.5947701 55.6769972,63.7413519 55.6544522,62.1926955 L61.1869967,62.2226212 L61.2801828,78.3361295 C49.5026715,78.3914921 32.8148578,78.8777852 21.0674066,79.1665685 C34.8649504,79.5361512 49.0111904,79.9596003 62.9560282,80 L62.9605372,79.1665685 L62.9785732,76.0423225 C63.5572284,76.3969423 64.2456026,76.2772394 64.9580248,75.663762 C64.9595278,75.6862063 64.9595278,75.7086506 64.9610308,75.7310949 L65.1083248,75.6906952 L67.1283574,75.1325803 C67.1283574,75.1325803 65.0542168,75.439319 65.0557198,75.439319 C65.835777,68.6087716 65.76213,60.3387966 65.9034121,52.7197063 C66.6669363,52.7271877 67.4289575,52.7316766 68.1894757,52.7152174 C67.0967944,57.1128032 67.1899804,61.5328332 68.5171298,65.8885229 C69.7029971,61.4909372 69.6533981,57.0679146 68.4179318,52.7062397 C73.9294343,52.5700776 79.3612778,51.8129567 84.6939233,50.4423584 C83.650841,54.0648678 83.619278,57.723288 84.6157673,61.3472937 L84.4369102,61.3817083 L78.3482555,59.1716933 L78.0070744,59.0475015 C76.2470609,60.6335651 74.0136023,62.6415814 72.5602009,64.0899867 L67.7355696,66.5543704 L72.802184,64.6316423 L72.827735,64.6226646 L72.875831,64.5852575 C72.893867,64.5717909 72.9104,64.5583243 72.928436,64.5448577 C74.3562864,65.6565985 75.8517718,66.6336736 77.3863353,67.534438 C75.9750179,67.8486581 74.5712155,68.1898114 73.1809401,68.5908162 C71.4179206,67.8172361 69.6338591,67.0810632 67.7355696,66.5543704 C69.378349,67.968361 71.1533925,69.1249904 72.947975,70.2636644 C74.7140005,70.000318 76.505577,69.6262464 78.2836265,69.211775 C77.5817253,71.0671702 77.5802223,72.9539873 78.2926445,74.8093825 C76.278624,75.2552758 74.4013764,75.7026654 72.853286,76.1440699 L68.1744457,74.9320779 L67.7355696,66.5543704 L67.2801604,75.2881941 L67.2636274,75.6128883 C67.3898795,75.6443103 72.4023859,77.2917216 72.6338479,77.3545656 C79.3778108,76.2682617 86.0902107,75.0143737 92.7935926,73.7155971 L93.5511048,73.5674647 L93.5480988,72.7998698 L93.5360748,69.4197588 C94.8211401,69.2581599 96.1047025,69.0935684 97.3837558,68.9050363 L97.5806489,68.8751106 L97.5896669,68.6551565 C98.091669,55.0509205 98.075136,41.4377068 97.848183,27.8304782" id="Fill-1" fill="#FFFFFF" mask="url(#mask-2)"></path>
                </g>
                <path d="M86.4214688,35.778166 C85.6411749,35.5075583 85.0494176,35.2261801 84.5264693,35.0040395 C84.6241781,34.2474149 84.547112,33.3736617 84.8567524,32.7543605 C84.9186805,32.6237687 85.1512549,32.6224224 85.2159354,32.6399244 C86.0265052,33.2511478 86.0196243,34.3874309 86.4214688,35.778166 C86.7283569,34.8545994 87.4081897,33.1326727 86.6636765,31.9708098 C85.9976055,30.8049079 84.3792181,30.6352732 83.4654347,31.756747 C82.60257,33.0922835 83.1833178,34.5557192 83.2906599,35.9774195 C84.3489421,36.054159 85.718241,35.9222209 86.4214688,35.778166" id="Fill-4" fill="#FFFFFF"></path>
                <path d="M79,54.5019937 C78.8479374,56.810997 75.8292683,56.4678681 75.88648,54.5019937 C75.8367961,52.5436112 78.8479374,52.1959871 79,54.5019937 C78.9954833,51.3014543 74.1355014,51.0332443 74,54.5019937 C74.1385125,57.9617528 78.9924721,57.7010347 79,54.5019937" id="Fill-6" fill="#FFFFFF"></path>
            </g>
        </g>
    </g>
</svg>