<?xml version="1.0" encoding="UTF-8"?>
<svg width="60px" height="90px" viewBox="0 0 60 90" version="1.1" xmlns="http://www.w3.org/2000/svg" xmlns:xlink="http://www.w3.org/1999/xlink">
    <title>illustrazione rhemes</title>
    <defs>
        <polygon id="path-1" points="0 0 60 0 60 90 0 90"></polygon>
    </defs>
    <g id="Page-1" stroke="none" stroke-width="1" fill="none" fill-rule="evenodd">
        <g id="Box-Rhemes-Notre-Dame" transform="translate(-149, -187)">
            <g id="illustrazione-rhemes" transform="translate(149, 187)">
                <g id="Group-3">
                    <mask id="mask-2" fill="white">
                        <use xlink:href="#path-1"></use>
                    </mask>
                    <g id="Clip-2"></g>
                    <path d="M45.2231728,88.4811806 C45.2173369,86.2015461 45.1939937,83.9189529 45.1458482,81.642277 C49.4803982,82.4928869 53.8382915,83.0653844 58.2049385,83.5047429 C58.187431,85.0521132 58.187431,86.6009629 58.2049385,88.1498125 C53.883519,88.0802844 49.5577228,88.1453746 45.2231728,88.4811806 L45.2231728,88.4811806 Z M28.3678863,86.8909099 C27.4137309,86.5358727 26.4551986,86.3228504 25.4937485,86.2503637 C25.9664493,82.9573939 26.1531953,79.6629448 26.2290609,76.369975 C26.3005496,72.7885376 26.2276019,69.2056208 25.9416471,65.6256626 C34.612206,68.7707002 43.5234923,70.9763687 52.5471179,72.7500752 C52.6609162,74.6865071 52.8199421,76.622939 53.0227366,78.5578916 C51.1465228,77.372955 49.2425889,76.2397947 47.3196885,75.1391795 C41.3044244,73.7885589 35.2264253,72.6687125 29.0754786,72.2071642 C34.8514744,74.2575039 40.8156751,75.6806112 46.8119728,76.8729444 C49.0135332,78.1703094 53.0241956,80.1289311 56.5534034,81.6481943 C52.761584,81.4425686 48.9610109,81.356768 45.1429303,81.4751137 L45.1341766,81.016524 L44.7519309,80.7901878 C40.1387208,78.0889467 33.7908154,74.7841423 29.0754786,72.2071642 C34.0636396,75.4927374 38.6403759,78.7960624 43.5249512,81.9322241 C43.4870184,83.8331523 43.4622162,85.7340804 43.4534625,87.6350086 C38.9073643,87.6039429 34.3612661,87.6571985 29.8166268,87.7459578 C29.6284219,83.1068054 29.2520119,76.5696834 29.0754786,72.2071642 C28.8624714,76.2176049 28.5560913,82.35531 28.3678863,86.8909099 L28.3678863,86.8909099 Z M20.7579863,87.0373627 C20.9928778,83.5476432 21.1154299,80.0534857 21.2832095,76.5622868 C21.4830861,72.3669309 21.6275224,68.1686164 21.7486156,63.9717811 C22.7304911,64.5960548 23.7254972,65.1877834 24.7350928,65.746967 C24.4549738,69.2884628 24.3907798,72.8284792 24.4608096,76.369975 C24.5352162,79.6585068 24.7219622,82.9455593 25.1932041,86.2340911 C23.7109076,86.169001 22.2256933,86.4367582 20.7579863,87.0373627 L20.7579863,87.0373627 Z M14.375066,42.9432253 L20.3903301,45.2953465 C20.206502,52.1667951 20.0620656,59.0397231 20.0066254,65.9141303 C19.9526441,72.8994867 19.9672337,79.884843 20.0956216,86.8716787 C18.0166132,87.1142875 15.936146,87.3524582 13.8585966,87.6335293 C14.2408423,74.5282197 14.312331,56.4035721 14.375066,42.9432253 L14.375066,42.9432253 Z M0.814095893,40.9387446 L7.3531242,39.841088 L13.2735563,38.7582246 C13.1524632,39.4046881 12.9934373,40.2449428 12.8606726,40.9535378 L2.57651138,42.9136389 L0.814095893,40.9387446 Z M12.3398263,10.4558447 C13.034288,14.519541 13.7418803,18.5802787 14.5297151,22.6277024 C15.437184,27.3363829 16.7268986,33.9326777 17.8415388,38.7597039 C16.8319432,38.4534844 15.8004633,38.2108756 14.7427222,38.0407537 C14.8054572,37.582164 14.8550616,37.2182509 14.875487,37.0658808 C14.6362186,37.1280123 7.66825809,38.7626626 7.15908342,38.8898842 L6.04736107,39.169476 C8.43858539,29.6603971 10.4548587,20.0743934 12.3398263,10.4558447 L12.3398263,10.4558447 Z M14.3852787,40.6635908 C14.4815696,39.9549958 14.5968269,39.1103031 14.6960357,38.3928322 C17.1879278,40.2952397 19.9672337,41.598522 22.8865991,42.6236918 C22.513107,43.0452985 22.1614993,43.4920536 21.8201043,43.9550812 L21.5764591,43.8678013 L14.3838197,41.2893438 L14.3867376,40.6621115 L14.3852787,40.6635908 Z M43.3075672,65.6360179 C44.5666438,66.7795334 48.1294076,69.1124235 51.0429371,70.9201544 C42.7940157,68.5606366 34.4517212,66.6197667 25.9328934,65.498441 C25.9183038,65.3253603 25.9110091,65.1522797 25.8949606,64.9791991 C24.5337572,64.5013782 23.1579644,64.0649784 21.7573693,63.6803548 C21.7923842,62.4599145 21.8332348,61.2394742 21.8638729,60.0190339 C28.8726841,62.4554765 36.0521929,64.1862827 43.3075672,65.6360179 L43.3075672,65.6360179 Z M59.9629771,81.85382 C59.2145341,81.8035231 58.4660911,81.7635814 57.719107,81.7177224 C56.2572359,80.6762801 54.7778574,79.6673828 53.2707587,78.711741 C53.5187807,76.3832889 53.7026088,74.0577954 53.8266199,71.727864 C53.2503333,71.5562627 52.6711289,71.3935373 52.0948424,71.2248947 C49.4526781,68.7041308 46.7040103,66.3150265 43.8678052,64.026516 C36.6138898,62.2158264 29.3103701,60.6950839 21.8667908,59.9021675 C21.9937197,54.6993936 22.0797979,49.4951404 22.1498277,44.2908872 C23.3461693,43.7021172 24.4447611,42.9757704 25.5375171,42.2375889 C23.1141958,40.8351921 20.6062552,39.6117932 17.9538782,38.7937283 C17.6956435,36.1916017 17.3644611,33.5998304 17.0755884,31.0021417 C15.778579,20.8599132 14.1212082,10.0579072 12.4623784,0 C10.0434339,12.9943605 7.66096332,26.0626871 5.99775666,39.1827899 L0.376409929,40.5970213 C0.376409929,40.5970213 0,40.6916979 0,40.6916979 C0.0860782396,40.7730606 1.5187703,42.0822601 2.45250035,42.937308 L2.13153065,42.9979602 L1.45019949,43.1281405 C1.24594604,58.0027187 1.43852787,73.1199056 1.61797911,87.839155 C2.10818739,75.2575252 2.9033169,57.1284396 3.1090293,44.5527271 L12.5717998,42.8677799 C12.596602,47.4211316 12.6855982,64.7277144 12.6855982,64.7277144 C12.7600048,72.2545025 12.9029822,79.7827698 13.0809745,87.3095579 L1.61797911,87.839155 L13.4792687,88.0728878 C13.4792687,88.0728878 13.846925,88.0802844 13.846925,88.0802844 C13.8513018,87.9486248 13.8542197,87.8066099 13.8585966,87.673471 C16.152071,87.6424052 18.4411686,87.5595632 20.7331841,87.4885558 C20.737561,87.4219863 20.7390199,87.3554169 20.7433968,87.2888474 C23.2600911,88.3228932 25.8249308,88.382066 28.346002,87.4500934 C28.3299535,87.8184445 28.313905,88.2001095 28.3007744,88.5418327 L28.2701364,89.3096006 C33.6244947,89.4220291 38.9817709,89.4989538 44.3375882,89.4501362 L45.2348444,89.4412603 C45.2348444,89.182379 45.2260907,88.9234977 45.2246317,88.6646164 C50.1267145,89.3924426 55.037551,89.766711 59.9615181,90.0004438 C60.0125815,87.2903267 60.0125815,84.5639371 59.9629771,81.85382 L59.9629771,81.85382 Z" id="Fill-1" fill="#FFFFFF" mask="url(#mask-2)"></path>
                </g>
                <path d="M10.8755199,44.5617279 C9.45321,43.6837548 8.34568546,44.9051576 7.55150228,46.0518394 C7.1962858,45.7529549 6.78042261,45.5259177 6.3183524,45.5316655 C5.22671152,45.5560935 4.75886543,46.6754733 4.57259338,47.4198106 C4.02532897,49.7605933 4.87438299,52.5655091 4.97834878,54.5901639 C5.15018114,52.5238377 5.50395365,50.2390958 5.6006996,48.8754354 C5.71477319,48.3408921 5.9689118,47.4571712 6.32846019,47.1180523 C6.67501285,47.4269953 7.35079053,48.498956 7.66557586,48.9817693 C8.17529707,48.2086932 9.05467444,46.7688747 9.75933152,46.2099033 C10.1260997,48.2359951 9.96581914,50.6170122 10.1650869,52.8026049 C8.57816453,53.3155941 6.92337559,53.9722778 4.97834878,54.5901639 C6.82662963,54.3746223 9.20484726,54.1964411 11.4300041,53.7969705 C11.5137544,51.0825823 11.9599409,48.3854374 11.5079785,45.6509319 C11.386685,45.2643938 11.200413,44.8534276 10.8755199,44.5617279" id="Fill-4" fill="#FFFFFF"></path>
                <path d="M17.9889238,47.3455812 C17.4931699,46.6800714 16.821723,46.1381161 15.9173807,46.7278084 C15.6803995,46.9412208 15.556461,47.2262388 15.4692955,47.5056406 C15.2064369,49.1104459 15.5115163,50.6380297 15.6463504,52.2091383 C16.855772,52.3944702 18.3239663,52.3902581 19.1874498,52.3635815 C18.2259051,51.9732614 17.491808,51.5759212 16.820361,51.2656307 C16.9116125,50.4428696 16.9756246,49.6313407 17.0055878,48.8310441 C17.3338205,49.3042019 17.6947402,49.8995103 17.8472799,50.1438114 C17.9289975,50.0034085 18.2531443,49.4151203 18.473782,49.0374364 C18.8074626,49.834925 18.9245912,51.1280359 19.1874498,52.3635815 C19.3617808,51.4313062 19.9624057,49.738047 19.6832037,48.4617844 C19.4979769,47.380682 18.7162111,47.0310787 17.9889238,47.3455812" id="Fill-6" fill="#FFFFFF"></path>
            </g>
        </g>
    </g>
</svg>