<?xml version="1.0" encoding="UTF-8"?>
<svg width="100px" height="100px" viewBox="0 0 100 100" version="1.1" xmlns="http://www.w3.org/2000/svg" xmlns:xlink="http://www.w3.org/1999/xlink">
    <title>1</title>
    <defs>
        <polygon id="path-1" points="0 0 3.87692308 0 3.87692308 3.87692308 0 3.87692308"></polygon>
        <polygon id="path-3" points="0 0 23.2615385 0 23.2615385 23.2615385 0 23.2615385"></polygon>
        <polygon id="path-5" points="0 62.0307692 63 62.0307692 63 0 0 0"></polygon>
        <polygon id="path-7" points="0 0 6.3 0 6.3 10 0 10"></polygon>
        <polygon id="path-9" points="0 0 32 0 32 44 0 44"></polygon>
    </defs>
    <g id="Page-1" stroke="none" stroke-width="1" fill="none" fill-rule="evenodd">
        <g id="Desktop" transform="translate(-435, -4110)">
            <g id="Come-usufruire" transform="translate(1, 3853)">
                <g id="1" transform="translate(434, 257)">
                    <circle id="Oval" fill="#55C2E4" cx="50" cy="50" r="50"></circle>
                    <g id="qr" opacity="0.29" transform="translate(19, 19)">
                        <path d="M46.521786,55.246778 C46.5262579,56.5363272 46.5173141,57.8326317 46.521786,59.1223246 C45.2322439,59.1180127 43.9356959,59.125343 42.6461538,59.1223246 L42.6461538,55.246778 C43.9356959,55.2443346 45.2322439,55.2500838 46.521786,55.246778" id="Fill-1" fill="#FFFFFF"></path>
                        <path d="M31.0153846,43.62055 C32.3043124,43.6481246 33.6030817,43.6002789 34.8923077,43.62055 L34.8923077,47.4906808 C33.6023361,47.49709 32.3053562,47.4818868 31.0153846,47.4906808 C31.0179195,46.202873 31.0179195,44.9082088 31.0153846,43.62055" id="Fill-3" fill="#FFFFFF"></path>
                        <path d="M31.983211,38.7698141 C31.9873846,40.0596272 31.980677,41.356197 31.983211,42.6461538 C30.6865519,42.6194145 29.3887003,42.3326137 28.1076923,42.6461538 L28.1076923,38.7698141 C29.3971966,38.7675139 30.6937067,38.7729768 31.983211,38.7698141" id="Fill-5" fill="#FFFFFF"></path>
                        <path d="M31.5,23.1949413 C31.5032689,21.9271806 31.4976226,20.6525228 31.5,19.3846154 L35.3632075,19.3846154 L35.3632075,23.1949413 C34.0777995,23.2012515 32.7852594,23.1862831 31.5,23.1949413 C31.4965825,24.5115692 31.5025259,25.8350943 31.5,27.151869 L35.3632075,27.151869 L35.3632075,34.6991466 L35.5860849,34.9189759 L39.375,34.9189759 L39.375,38.7293018 L43.3867925,38.7293018 L43.3867925,34.9189759 L47.25,34.9189759 L47.25,27.151869 L51.2617925,27.151869 L51.1132075,30.9620482 L55.125,30.9620482 L55.125,27.151869 L63,27.151869 L63,30.9620482 L58.9882075,30.9620482 L58.9882075,34.7723741 L55.3478774,34.7723741 L55.125,34.9922034 L55.125,38.7293018 L51.3360849,38.7293018 L51.1132075,46.4964087 L55.125,46.4964087 L55.125,50.4533364 L59.1367925,50.4533364 L59.1367925,38.7293018 L63,38.7293018 L63,50.4533364 L59.2110849,50.4533364 L58.9882075,50.6731657 L58.9882075,58.000614 L59.2110849,58.2204433 L63,58.2204433 L63,62.0307692 L55.125,62.0307692 L55.125,58.2204433 C53.839592,58.2173616 52.5472005,58.2248458 51.2617925,58.2204433 C51.2883892,56.9045491 51.2417335,55.5791163 51.2625354,54.2629286 C49.9272028,54.2667441 48.5853325,54.2601404 47.25,54.2636623 C47.245691,52.9957549 47.2531203,51.7210971 47.25,50.4533364 L39.375,50.4533364 L39.375,54.2636623 L35.5860849,54.2636623 L35.3632075,54.4834917 L35.3632075,58.2204433 L43.2382075,58.2204433 L43.2382075,62.0307692 L27.6367925,62.0307692 L27.6367925,54.2636623 L31.5,54.2636623 C31.5031203,52.9957549 31.495691,51.7210971 31.5,50.4533364 C32.8350354,50.4567116 34.1767571,50.4508417 35.5117925,50.4533364 L35.5117925,46.4964087 L39.375,46.4964087 L39.375,42.5396277 L35.5117925,42.6860828 L35.5117925,38.7293018 C34.1767571,38.7317965 32.8350354,38.7259266 31.5,38.7293018 C31.4958396,37.4126739 31.5031203,36.0891488 31.5,34.7723741 L23.625,34.7723741 L23.625,30.9620482 L19.6132075,30.9620482 L19.6132075,34.9189759 C19.5044434,34.958011 19.4356486,34.7723741 19.3903302,34.7723741 L15.75,34.7723741 L15.75,30.9620482 L11.7382075,30.9620482 L11.7382075,34.9189759 C11.6294434,34.958011 11.5606486,34.7723741 11.5153302,34.7723741 L0,34.7723741 L0,27.151869 L27.4139151,27.151869 L27.6367925,26.9320397 L27.6367925,23.1949413 C28.9222005,23.1886311 30.2147406,23.2035995 31.5,23.1949413" id="Fill-7" fill="#FFFFFF"></path>
                        <path d="M31.9831062,47.4938762 C31.9804232,48.783315 31.9875778,50.0792205 31.9831062,51.3686594 C30.6936368,51.3653542 29.3971618,51.3709586 28.1076923,51.3686594 L28.1076923,47.4938762 C29.3971618,47.487697 30.6936368,47.5023546 31.9831062,47.4938762" id="Fill-9" fill="#FFFFFF"></path>
                        <g id="Group-13" transform="translate(47.4923, 59.1231)">
                            <mask id="mask-2" fill="white">
                                <use xlink:href="#path-1"></use>
                            </mask>
                            <g id="Clip-12"></g>
                            <path d="M3.87692308,0.00129266602 C3.87548746,0.0799549072 3.73824268,0.296388019 3.73250023,0.515209358 C3.70407505,1.59782271 3.64220005,2.84432817 3.87692308,3.876938 L0.00076304939,3.876938 C-0.00225174174,2.58744445 0.00492633238,1.29078622 0.00076304939,0.00129266602 C1.29066297,0.00577059246 2.58702316,-0.00318526043 3.87692308,0.00129266602" id="Fill-11" fill="#FFFFFF" mask="url(#mask-2)"></path>
                        </g>
                        <path d="M19.4577649,19.4577418 L19.4577649,4.02310274 L19.2383164,3.80365012 L4.02322206,3.80365012 L3.80377358,4.02310274 L3.80377358,19.2382892 L4.02322206,19.4577418 L19.4577649,19.4577418 Z M0,23.2615385 L23.2615385,23.2615385 L23.2615385,0 L0,0 L0,23.2615385 Z" id="Fill-14" fill="#FFFFFF"></path>
                        <g id="Group-18" transform="translate(0, 38.7692)">
                            <mask id="mask-4" fill="white">
                                <use xlink:href="#path-3"></use>
                            </mask>
                            <g id="Clip-17"></g>
                            <path d="M19.4577649,19.4577541 L19.4577649,4.02310528 L19.2383164,3.80365252 L4.02322206,3.80365252 L3.80377358,4.02310528 L3.80377358,19.4577541 L19.4577649,19.4577541 Z M0,23.2615531 L23.2615385,23.2615531 L23.2615385,0 L0,0 L0,23.2615531 Z" id="Fill-16" fill="#FFFFFF" mask="url(#mask-4)"></path>
                        </g>
                        <path d="M59.1962264,3.80365012 L43.7616836,3.80365012 L43.5422351,4.02310274 L43.5422351,19.2382892 L43.7616836,19.4577418 L59.1962264,19.4577418 L59.1962264,3.80365012 Z M39.7384615,23.2615385 L63,23.2615385 L63,0 L39.7384615,0 L39.7384615,23.2615385 Z" id="Fill-19" fill="#FFFFFF"></path>
                        <polygon id="Fill-21" fill="#FFFFFF" points="31.9846154 0 31.9846154 3.975157 35.8615385 3.975157 35.8615385 7.80288941 31.9846154 7.80288941 31.9846154 11.6307692 28.1076923 11.6307692 28.1076923 0"></polygon>
                        <path d="M43.6007429,27.1384615 C43.6724097,27.1923637 43.4576954,27.3304786 43.4576954,27.362133 L43.4576954,34.8923077 L39.7384615,34.8923077 L39.7384615,27.1384615 L43.6007429,27.1384615 Z" id="Fill-23" fill="#FFFFFF"></path>
                        <path d="M31.9846154,16.4769231 C31.993413,15.1870044 31.9782036,13.8899187 31.9846154,12.6 L35.8615385,12.6 L35.8615385,16.4769231 C34.5715669,16.4833436 33.274587,16.4681136 31.9846154,16.4769231 C31.9758178,17.7668418 31.9910272,19.0639275 31.9846154,20.3538462 L28.1076923,20.3538462 L28.1076923,16.4769231 C29.3976639,16.4705026 30.6946438,16.4857326 31.9846154,16.4769231" id="Fill-25" fill="#FFFFFF"></path>
                        <mask id="mask-6" fill="white">
                            <use xlink:href="#path-5"></use>
                        </mask>
                        <g id="Clip-28"></g>
                        <polygon id="Fill-27" fill="#FFFFFF" mask="url(#mask-6)" points="7.72307692 15.5076923 15.4769231 15.5076923 15.4769231 7.75384615 7.72307692 7.75384615"></polygon>
                        <polygon id="Fill-29" fill="#FFFFFF" mask="url(#mask-6)" points="7.72307692 55.2461538 15.4769231 55.2461538 15.4769231 47.4923077 7.72307692 47.4923077"></polygon>
                        <polygon id="Fill-30" fill="#FFFFFF" mask="url(#mask-6)" points="47.4923077 15.5076923 55.2461538 15.5076923 55.2461538 7.75384615 47.4923077 7.75384615"></polygon>
                    </g>
                    <g id="skipass-icon" transform="translate(34, 26)">
                        <g id="Group-3" transform="translate(12.6, 0)">
                            <mask id="mask-8" fill="white">
                                <use xlink:href="#path-7"></use>
                            </mask>
                            <g id="Clip-2"></g>
                            <path d="M3.03325664,1.19711236 C5.64854446,1.02461561 5.85136633,4.71912597 3.39522021,4.90684034 C0.630946568,5.11806457 0.396276646,1.37097596 3.03325664,1.19711236 L3.03325664,1.19711236 Z M6.05389238,10 C6.08643065,10 6.20327261,9.87953975 6.3,9.90906375 L6.3,2.49480183 C6.3,1.92136178 5.6409522,0.998736547 5.16530191,0.632329035 C3.26260212,-0.833209887 0,0.414361672 0,2.67677542 L0,9.86359314 L0.14770401,10 L6.05389238,10 Z" id="Fill-1" fill="#FFFFFF" mask="url(#mask-8)"></path>
                        </g>
                        <g id="Group-6" transform="translate(0, 5)">
                            <mask id="mask-10" fill="white">
                                <use xlink:href="#path-9"></use>
                            </mask>
                            <g id="Clip-5"></g>
                            <path d="M25.6049383,20.2119487 C25.6049383,20.9484381 25.0526536,21.5510204 24.3776389,21.5510204 L6.73347218,21.5510204 C6.05845754,21.5510204 5.50617284,20.9484381 5.50617284,20.2119487 L5.50617284,19.2982554 C5.50617284,18.561766 6.05845754,17.9591837 6.73347218,17.9591837 L24.3776389,17.9591837 C25.0526536,17.9591837 25.6049383,18.561766 25.6049383,19.2982554 L25.6049383,20.2119487 Z M25.6049383,26.497663 C25.6049383,27.2341524 25.0526536,27.8367347 24.3776389,27.8367347 L6.73347218,27.8367347 C6.05845754,27.8367347 5.50617284,27.2341524 5.50617284,26.497663 L5.50617284,25.5839697 C5.50617284,24.8474802 6.05845754,24.244898 6.73347218,24.244898 L24.3776389,24.244898 C25.0526536,24.244898 25.6049383,24.8474802 25.6049383,25.5839697 L25.6049383,26.497663 Z M25.6049383,32.7833773 C25.6049383,33.5198667 25.0526536,34.122449 24.3776389,34.122449 L6.73347218,34.122449 C6.05845754,34.122449 5.50617284,33.5198667 5.50617284,32.7833773 L5.50617284,31.869684 C5.50617284,31.1331945 6.05845754,30.5306122 6.73347218,30.5306122 L24.3776389,30.5306122 C25.0526536,30.5306122 25.6049383,31.1331945 25.6049383,31.869684 L25.6049383,32.7833773 Z M29.5360317,6.6442545 L26.9386295,6.57040489 C26.768682,6.44430794 26.6713783,6.2673703 26.6371628,6.06280186 C26.3145297,4.13587963 27.4209352,1.8997938 25.4510237,0.501976402 C25.2918648,0.388941283 24.4502445,0 24.3231434,0 L19.8610451,0 L19.8610451,2.50767155 C23.3487708,2.84778166 23.3080821,8.00198211 19.7054825,8.3240066 C17.7259124,8.50084377 14.221233,8.46628014 12.2142289,8.33013562 C8.50250942,8.07824314 8.24347817,3.26766944 11.6547584,2.50767155 L11.6547584,0 L7.39774782,0 C7.05816104,0 6.14882881,0.553319465 5.88846182,0.802398628 C4.46795131,2.16163337 5.36608385,4.37651884 5.08372849,6.06280186 C5.04951293,6.2673703 4.95220925,6.44430794 4.78215898,6.57040489 L1.63699972,6.62908268 C0.0671943183,6.96527424 -0.760349384,8.39333481 -0.888888889,9.87675747 L-0.888888889,40.7393639 C-0.763123618,42.140095 -0.0356578354,43.4831532 1.39040115,43.9271551 L29.1544204,44 C30.8235845,43.9304708 31.8400844,42.3142194 31.9694459,40.8345143 C31.8583738,33.110046 32.2016595,16.6436928 31.7945664,8.94946759 C31.4878594,7.84735007 30.6883663,6.93694011 29.5360317,6.6442545 Z" id="Fill-4" fill="#FFFFFF" mask="url(#mask-10)"></path>
                        </g>
                    </g>
                </g>
            </g>
        </g>
    </g>
</svg>