<?xml version="1.0" encoding="UTF-8"?>
<svg width="100px" height="100px" viewBox="0 0 100 100" version="1.1" xmlns="http://www.w3.org/2000/svg" xmlns:xlink="http://www.w3.org/1999/xlink">
    <title>2</title>
    <g id="Page-1" stroke="none" stroke-width="1" fill="none" fill-rule="evenodd">
        <g id="Desktop" transform="translate(-910, -2309)">
            <g id="Come-usufruire" transform="translate(0, 2020)">
                <g id="Step-2" transform="translate(820, 289)">
                    <g id="2" transform="translate(90, 0)">
                        <circle id="Oval" fill="#55C2E4" cx="50" cy="50" r="50"></circle>
                        <polygon id="Fill-1" fill="#FFFFFF" opacity="0.394763765" points="49.8564252 11.4864865 46.5873113 13.4863384 46.5873113 23.4779209 41.2735296 20.2766225 38.4125643 21.8811102 38.4125643 25.4777728 46.5873113 30.2720434 46.5873113 37.066166 40.0490835 33.4695034 40.0490835 40.263626 33.9150799 36.6669633 33.9150799 27.0745835 30.6498905 25.0747316 28.2088475 27.0745835 28.2088475 33.4695034 19.2178031 28.6713942 15.5405405 30.268205 15.5405405 34.2679088 24.5315849 39.0621794 18.8096544 42.2596394 18.8096544 45.856302 22.0748438 47.4569512 30.2535153 42.658842 35.9754458 45.856302 30.2535153 49.4529646 36.37967 53.0496272 30.661664 56.6501283 22.0748438 51.8520192 18.4015058 53.8518711 18.4015058 57.4523722 24.5315849 60.2506294 15.5405405 65.4479413 15.5405405 69.4399681 19.6259518 71.0406173 28.6130716 66.2425082 28.6130716 72.6412665 30.661664 74.2380773 33.5187047 72.2420638 33.5187047 62.6535225 40.0569325 59.4560626 40.0569325 66.2463466 46.5951603 62.2504813 46.5951603 69.0484424 38.4243378 73.8465515 38.4243378 77.4393757 41.2853031 79.0438634 47.0072335 75.8464034 47.0072335 85.8418244 50.2724229 87.8378378 53.5454613 85.8418244 53.5454613 75.8464034 59.2673918 79.0438634 62.128357 77.8462553 62.128357 73.8465515 53.9575345 69.0484424 53.9575345 62.2504813 60.4957623 65.8509824 60.4957623 59.4599011 67.0339901 63.0604022 67.0339901 72.2497408 69.4828822 73.85039 70.7112527 72.2497408 70.7112527 65.8548209 79.694448 70.6529301 83.7837838 69.0522809 83.7837838 65.0564156 75.2008881 59.8591037 80.5185944 57.0608465 80.5185944 53.4680223 77.6576292 51.4681704 69.078658 56.2624411 62.9446544 53.0611427 69.078658 49.4683186 63.3567275 45.8716559 69.078658 42.2749933 77.6576292 47.0731025 80.5185944 45.4724532 80.5185944 41.8604367 74.7966639 39.4613821 83.7837838 34.6671114 83.7837838 30.6712461 83.7759348 30.6712461 80.0986722 28.6713942 70.6994792 33.4656649 70.6994792 26.6715423 68.2427381 25.4739343 65.7938461 26.6715423 65.7938461 37.0623275 59.2556183 40.2597875 59.2556183 33.0664622 52.7173905 36.6631248 52.7173905 29.8690023 62.5208077 25.0747316 62.5208077 21.8772717 59.2556183 20.2766225 53.1255391 23.4740824 53.1255391 13.4863384"></polygon>
                        <g transform="translate(34.4595, 28.3784)" fill="#FFFFFF" fill-rule="nonzero" id="Path">
                            <path d="M15.8005432,0 C19.3809618,0 22.3127539,0.84949553 24.5959194,2.54848659 C26.879085,4.24747765 28.0206677,6.58685765 28.0206677,9.56662659 C28.0206677,11.6576925 27.3331236,13.9709342 25.9580352,16.5063516 C24.5829469,19.041769 22.3646441,21.9561922 19.3031267,25.249621 L13.4654875,31.7580637 L13.6211579,32.0717236 L24.1289083,32.0717236 L31.1340753,31.4444038 L31.7567568,32.1501385 L30.5113937,40.5405405 L21.093336,40.0700507 L3.42474828,40.0700507 L0.544846317,40.2268807 L0,39.8348058 L0,33.4831931 L10.5077504,23.0540018 C12.9984764,20.492446 14.8405759,18.3752418 16.0340488,16.702389 C17.2275216,15.0295363 17.8242581,13.5657902 17.8242581,12.3111506 C17.8242581,11.2656176 17.4350821,10.4291913 16.6567303,9.8018715 C15.8783784,9.17455173 14.7886857,8.86089184 13.3876524,8.86089184 C11.7271683,8.86089184 9.98884914,9.27910502 8.17269475,10.1155314 C6.35654036,10.9519578 4.67011129,12.0759057 3.11340753,13.4873752 L1.9458797,13.4873752 L0.233505564,5.41063307 C5.57818848,1.80354436 10.767201,0 15.8005432,0 Z"></path>
                        </g>
                    </g>
                </g>
            </g>
        </g>
    </g>
</svg>