<?xml version="1.0" encoding="UTF-8"?>
<svg width="100px" height="100px" viewBox="0 0 100 100" version="1.1" xmlns="http://www.w3.org/2000/svg" xmlns:xlink="http://www.w3.org/1999/xlink">
    <title>3</title>
    <g id="Page-1" stroke="none" stroke-width="1" fill="none" fill-rule="evenodd">
        <g id="Desktop" transform="translate(-1297, -2309)">
            <g id="Come-usufruire" transform="translate(0, 2020)">
                <g id="Step-3" transform="translate(1207, 289)">
                    <g id="3" transform="translate(90, 0)">
                        <circle id="Oval" fill="#55C2E4" cx="50" cy="50" r="50"></circle>
                        <polygon id="Fill-1" fill="#FFFFFF" opacity="0.394763765" points="49.8564252 12.1621622 46.5873113 14.1620141 46.5873113 24.1535966 41.2735296 20.9522981 38.4125643 22.5567858 38.4125643 26.1534485 46.5873113 30.9477191 46.5873113 37.7418417 40.0490835 34.1451791 40.0490835 40.9393016 33.9150799 37.342639 33.9150799 27.7502592 30.6498905 25.7504073 28.2088475 27.7502592 28.2088475 34.1451791 19.2178031 29.3470699 15.5405405 30.9438806 15.5405405 34.9435844 24.5315849 39.7378551 18.8096544 42.935315 18.8096544 46.5319777 22.0748438 48.1326269 30.2535153 43.3345177 35.9754458 46.5319777 30.2535153 50.1286403 36.37967 53.7253029 30.661664 57.325804 22.0748438 52.5276949 18.4015058 54.5275468 18.4015058 58.1280479 24.5315849 60.9263051 15.5405405 66.123617 15.5405405 70.1156438 19.6259518 71.716293 28.6130716 66.9181838 28.6130716 73.3169422 30.661664 74.9137529 33.5187047 72.9177395 33.5187047 63.3291982 40.0569325 60.1317382 40.0569325 66.9220223 46.5951603 62.926157 46.5951603 69.7241181 38.4243378 74.5222272 38.4243378 78.1150514 41.2853031 79.7195391 47.0072335 76.5220791 47.0072335 86.5175001 50.2724229 88.5135135 53.5454613 86.5175001 53.5454613 76.5220791 59.2673918 79.7195391 62.128357 78.521931 62.128357 74.5222272 53.9575345 69.7241181 53.9575345 62.926157 60.4957623 66.5266581 60.4957623 60.1355767 67.0339901 63.7360778 67.0339901 72.9254165 69.4828822 74.5260657 70.7112527 72.9254165 70.7112527 66.5304966 79.694448 71.3286058 83.7837838 69.7279566 83.7837838 65.7320912 75.2008881 60.5347794 80.5185944 57.7365222 80.5185944 54.143698 77.6576292 52.1438461 69.078658 56.9381168 62.9446544 53.7368184 69.078658 50.1439942 63.3567275 46.5473316 69.078658 42.950669 77.6576292 47.7487781 80.5185944 46.1481289 80.5185944 42.5361124 74.7966639 40.1370578 83.7837838 35.3427871 83.7837838 31.3469218 83.7759348 31.3469218 80.0986722 29.3470699 70.6994792 34.1413406 70.6994792 27.347218 68.2427381 26.14961 65.7938461 27.347218 65.7938461 37.7380032 59.2556183 40.9354631 59.2556183 33.7421379 52.7173905 37.3388005 52.7173905 30.544678 62.5208077 25.7504073 62.5208077 22.5529473 59.2556183 20.9522981 53.1255391 24.1497581 53.1255391 14.1620141"></polygon>
                        <g transform="translate(34.4595, 28.3784)" fill="#FFFFFF" fill-rule="nonzero" id="Path">
                            <path d="M14.2514466,0 C18.3457848,0 21.6527503,0.999436937 24.1723431,2.99831081 C26.6919358,4.99718468 27.9517322,7.60098092 27.9517322,10.8096995 C27.9517322,12.9663792 27.3480798,15.0573065 26.1407749,17.0824813 C24.9334701,19.1076562 23.0437755,20.8303698 20.4716912,22.2506223 L20.4716912,22.6451369 C26.1932664,24.2757972 29.0540541,27.7738265 29.0540541,33.1392248 C29.0540541,36.0323317 28.2273127,38.6098269 26.5738299,40.8717105 C24.9203472,43.1335941 22.5975976,44.8826088 19.6055812,46.1187544 C16.6135648,47.3549001 13.1753705,47.972973 9.29099832,47.972973 C6.50894797,47.972973 3.67440611,47.7099633 0.787372739,47.1839438 L0.236211822,39.0569435 L0.944847286,38.3468172 C4.04184672,39.451458 6.95512586,40.0037784 9.68468468,40.0037784 C12.6242096,40.0037784 14.9207134,39.4251571 16.5741961,38.2679143 C18.2276789,37.1106715 19.0544203,35.4800113 19.0544203,33.3759335 C19.0544203,31.6400693 18.4507678,30.2855693 17.243463,29.3124333 C16.0361581,28.3392974 14.2514466,27.8264284 11.8893284,27.7738265 L6.37771918,27.7738265 L5.82655827,27.0637002 L6.14150736,19.8835349 L9.60594741,19.725729 C11.600625,19.6731271 13.3853366,19.0287533 14.960082,17.7926076 C16.5348275,16.5564619 17.3222002,14.9915541 17.3222002,13.0978841 C17.3222002,11.6776316 16.8497766,10.5729908 15.9049293,9.78396159 C14.960082,8.99493243 13.6477941,8.60041785 11.9680656,8.60041785 C10.4983032,8.60041785 9.01541786,8.90287903 7.51940965,9.50780139 C6.02340145,10.1127237 4.40928734,11.0464083 2.67706731,12.3088549 L1.57474548,12.3088549 L0,4.65527205 C4.51427037,1.55175735 9.26475256,0 14.2514466,0 Z"></path>
                        </g>
                    </g>
                </g>
            </g>
        </g>
    </g>
</svg>