<?xml version="1.0" encoding="UTF-8"?>
<svg width="100px" height="100px" viewBox="0 0 100 100" version="1.1" xmlns="http://www.w3.org/2000/svg" xmlns:xlink="http://www.w3.org/1999/xlink">
    <title>1</title>
    <g id="Page-1" stroke="none" stroke-width="1" fill="none" fill-rule="evenodd">
        <g id="Desktop" transform="translate(-524, -2310)">
            <g id="Come-usufruire" transform="translate(0, 2020)">
                <g id="Step-1" transform="translate(434, 290)">
                    <g id="1" transform="translate(90, 0)">
                        <circle id="Oval" fill="#55C2E4" cx="50" cy="50" r="50"></circle>
                        <polygon id="Fill-1" fill="#FFFFFF" opacity="0.394763765" points="50.5321009 11.4864865 47.262987 13.4863384 47.262987 23.4779209 41.9492052 20.2766225 39.08824 21.8811102 39.08824 25.4777728 47.262987 30.2720434 47.262987 37.066166 40.7247592 33.4695034 40.7247592 40.263626 34.5907556 36.6669633 34.5907556 27.0745835 31.3255662 25.0747316 28.8845231 27.0745835 28.8845231 33.4695034 19.8934788 28.6713942 16.2162162 30.268205 16.2162162 34.2679088 25.2072606 39.0621794 19.4853301 42.2596394 19.4853301 45.856302 22.7505195 47.4569512 30.929191 42.658842 36.6511215 45.856302 30.929191 49.4529646 37.0553456 53.0496272 31.3373397 56.6501283 22.7505195 51.8520192 19.0771814 53.8518711 19.0771814 57.4523722 25.2072606 60.2506294 16.2162162 65.4479413 16.2162162 69.4399681 20.3016275 71.0406173 29.2887473 66.2425082 29.2887473 72.6412665 31.3373397 74.2380773 34.1943804 72.2420638 34.1943804 62.6535225 40.7326082 59.4560626 40.7326082 66.2463466 47.270836 62.2504813 47.270836 69.0484424 39.1000135 73.8465515 39.1000135 77.4393757 41.9609787 79.0438634 47.6829092 75.8464034 47.6829092 85.8418244 50.9480986 87.8378378 54.221137 85.8418244 54.221137 75.8464034 59.9430675 79.0438634 62.8040327 77.8462553 62.8040327 73.8465515 54.6332102 69.0484424 54.6332102 62.2504813 61.171438 65.8509824 61.171438 59.4599011 67.7096658 63.0604022 67.7096658 72.2497408 70.1585578 73.85039 71.3869284 72.2497408 71.3869284 65.8548209 80.3701237 70.6529301 84.4594595 69.0522809 84.4594595 65.0564156 75.8765638 59.8591037 81.1942701 57.0608465 81.1942701 53.4680223 78.3333048 51.4681704 69.7543337 56.2624411 63.62033 53.0611427 69.7543337 49.4683186 64.0324032 45.8716559 69.7543337 42.2749933 78.3333048 47.0731025 81.1942701 45.4724532 81.1942701 41.8604367 75.4723396 39.4613821 84.4594595 34.6671114 84.4594595 30.6712461 84.4516104 30.6712461 80.7743479 28.6713942 71.3751548 33.4656649 71.3751548 26.6715423 68.9184138 25.4739343 66.4695217 26.6715423 66.4695217 37.0623275 59.9312939 40.2597875 59.9312939 33.0664622 53.3930661 36.6631248 53.3930661 29.8690023 63.1964833 25.0747316 63.1964833 21.8772717 59.9312939 20.2766225 53.8012148 23.4740824 53.8012148 13.4863384"></polygon>
                        <g transform="translate(36.4865, 28.3784)" fill="#FFFFFF" fill-rule="nonzero" id="Path">
                            <polygon points="19.5945946 1.09218808 18.9750027 23.6380706 19.5171456 39.8648649 9.06153189 39.8648649 9.52622583 24.7302586 9.52622583 11.7800286 0.774489905 14.1204316 0 13.5743375 0 5.22690009 18.1230638 0"></polygon>
                        </g>
                    </g>
                </g>
            </g>
        </g>
    </g>
</svg>