<?xml version="1.0" encoding="UTF-8"?>
<svg width="84px" height="82px" viewBox="0 0 84 82" version="1.1" xmlns="http://www.w3.org/2000/svg" xmlns:xlink="http://www.w3.org/1999/xlink">
    <title>Group 3</title>
    <defs>
        <polygon id="path-1" points="0 0 84 0 84 82 0 82"></polygon>
    </defs>
    <g id="Page-1" stroke="none" stroke-width="1" fill="none" fill-rule="evenodd">
        <g id="Box-Brusson-" transform="translate(-138, -235)">
            <g id="Group-3" transform="translate(138, 235)">
                <mask id="mask-2" fill="white">
                    <use xlink:href="#path-1"></use>
                </mask>
                <g id="Clip-2"></g>
                <path d="M34.0609551,44.0499166 C39.6425119,41.1490241 44.9287285,37.0575918 50.4373848,34.0896266 C53.7197739,34.7808477 56.8657083,37.5177848 59.991081,39.3753248 C61.9537852,40.6720629 63.8884508,42.0228318 65.8193778,43.3773269 C55.2469447,43.5394191 44.6819885,43.8915506 34.1282478,44.6722018 C34.1039477,44.4653944 34.0852552,44.256724 34.0609551,44.0499166 M33.5170057,47.9028683 C29.9374071,48.1991058 26.8793271,50.4702606 23.9651787,52.4749879 C24.6997908,47.9177733 24.8680226,43.3344749 24.3913659,38.7101876 C25.8886288,39.4237662 30.137416,40.357194 32.1505897,40.5081075 C34.7507054,40.6198953 37.1657662,40.2193225 39.6555966,39.6957831 C37.7676621,41.1546134 35.8872046,42.5929494 34.0478704,43.9362657 C34.029178,43.768584 34.014224,43.6027655 33.9936624,43.436947 C33.9693622,43.6325756 33.9544083,43.8282042 33.9301081,44.0238328 C33.7786995,44.1337574 33.6235525,44.2548608 33.4721438,44.3629223 C33.6235525,44.2883972 33.7693533,44.2026932 33.9207619,44.1244418 C33.898331,44.3126178 33.8815079,44.5007939 33.859077,44.6908331 C33.7263608,44.7001488 33.5936446,44.7057381 33.4590591,44.7150538 C33.5917753,44.7243694 33.7226223,44.7280957 33.8553385,44.7355482 C33.735707,45.7919426 33.6142062,46.8464739 33.5170057,47.9028683 M33.0160488,55.2585033 C30.5019182,54.8076259 28.013957,54.4741258 25.5727269,54.1275837 C28.3018203,52.087457 30.5692109,49.7827658 33.4983132,48.1338963 C33.2814812,50.5075232 33.1282033,52.8830132 33.0160488,55.2585033 M33.0067026,55.428048 C32.6515466,63.0612893 32.786132,70.7019831 33.2384886,78.3501294 C30.0888157,78.0538919 26.9428813,77.9216097 23.8025546,77.9048415 C24.1464952,70.5715641 23.952094,63.2308341 22.6772709,55.9869869 C26.1503227,56.3801072 29.6196359,56.2794982 33.0067026,55.428048 M14.9199163,81.1690443 C15.6059282,66.2695982 15.990992,51.3626996 16.1349237,36.4483485 C17.9050959,37.8158855 20.1014553,38.5704529 22.2753839,39.1424337 C22.3389381,43.7350477 22.469785,48.4021869 23.2660822,52.9538121 C22.8081179,53.2612285 22.353892,53.5556029 21.9015354,53.829483 C20.9631759,54.3101704 21.2323468,55.8416628 22.299684,55.9553137 C22.3277226,55.9590399 22.3576305,55.9590399 22.3856691,55.9627662 C21.7033958,63.3519375 21.5744181,70.772782 21.6491878,78.1843109 C19.4285282,79.2295265 17.2994615,80.8038709 14.9199163,81.1690443 M1.90438382,80.0213565 C2.21841648,65.7497851 2.3081401,50.9434955 2.30440162,36.6942816 C5.95316213,36.7520386 10.4206507,36.8284269 14.0507188,36.6439771 C14.0824959,51.4856661 14.3329743,66.3292183 14.8918777,81.1709074 C14.5890605,81.2174856 14.2862433,81.2603376 13.9740798,81.2622007 C9.97203258,80.4927283 5.83353064,80.4722339 1.90438382,80.0213565 M9.72903111,9.00258882 C9.51406827,12.4065263 9.50846055,15.799285 9.33275179,19.1305604 C8.92151854,24.2429876 9.19255864,29.5268227 10.0692332,34.5926716 C8.17195247,34.5870822 6.19429436,34.5442302 4.35496017,34.4901995 C6.51767324,26.0837595 7.80931951,17.4649227 9.72903111,9.00258882 M21.527687,36.9849298 C19.7145222,36.7278179 17.9050959,36.4092228 16.1424006,35.8595996 C16.1442699,35.7347699 16.1480084,35.6080771 16.1480084,35.4813843 C16.1050158,34.8889092 15.589105,34.4436212 14.994686,34.4864732 C13.6581779,34.5647246 12.0842761,34.5908085 10.4393431,34.5908085 C11.5496729,24.608161 12.2057768,14.5211782 10.8187992,4.557162 C10.8487071,4.4435111 10.8804842,4.33172334 10.9103921,4.21993557 C14.7030842,11.5904756 15.5928435,20.5372231 18.5443767,28.3437355 C19.6304063,31.2073654 20.7538208,34.0318696 21.527687,36.9849298 M76.0366549,55.297629 C78.2255374,55.3572491 80.4144199,55.2957658 82.6014331,55.2007462 C81.4443722,62.5601075 81.4088566,69.9921308 81.7714896,77.4185647 C77.8423428,77.4204279 73.9075882,77.5750676 69.9653567,77.9663248 C70.4550981,70.2604214 70.6065067,62.5806019 70.2289198,54.8970561 C72.1598469,55.1336736 74.0963817,55.254777 76.0366549,55.297629 M82.8836886,55.1839781 C83.2706217,55.154168 83.6388624,54.938045 83.8295251,54.5691454 C84.1211269,54.002754 83.8986871,53.3078067 83.3304375,53.0171585 C78.8592105,50.6863836 74.2702212,48.9778939 69.7560016,46.7197811 C72.2140549,49.525654 75.4179358,51.4726242 78.6947172,53.2183765 C75.8516,53.5015722 73.0290445,53.9226394 70.2139659,54.578461 C70.0606881,51.5862751 69.8270328,48.5959524 69.496177,45.6037665 C70.492483,45.5311045 70.9317549,44.1207155 70.0588188,43.537556 C64.0865904,39.4368081 58.4396101,34.9764762 51.5981842,32.3308325 C49.5980952,31.7029578 47.8017535,33.778484 46.2259825,34.7305432 C44.3156171,36.1092589 42.3547821,37.6165307 40.3939472,39.1293918 C36.446108,37.9332627 31.9617963,38.3804137 27.9130179,37.8922738 C26.0157372,37.8270643 24.8885843,37.8773688 24.3184654,38.0003353 C24.2137879,37.6202569 23.8922783,37.3109774 23.4754373,37.2606729 C22.8455027,37.1693796 22.2118296,37.0818125 21.5800258,36.9923823 C21.3015087,33.9238081 20.3818416,30.9577061 19.6659219,27.991604 C16.7854199,18.8138284 17.2246918,7.69653509 10.8281454,0.0390731222 C10.2094263,-0.124882268 9.57201478,0.24215423 9.40752147,0.858850073 C6.26345632,11.8326824 5.40547421,23.1791407 4.07457386,34.4827469 C3.05396769,34.4510737 2.07448485,34.4194005 1.19407183,34.3877273 C0.549183319,34.3690961 0.0127108461,34.8851829 0.00897236192,35.5279626 C-0.0358894477,43.0587317 0.0912190129,50.5895009 0.122996128,58.1165438 C0.117388402,64.6952538 0.337958966,74.0164904 0.470675152,80.6920831 C0.480021363,81.0404883 0.752930705,81.3385891 1.1080867,81.366536 C3.63717121,81.6776786 6.49337309,81.5472595 9.01684988,81.6776786 C10.747768,81.6497317 12.2282078,81.9087067 13.9553874,82 C17.0265521,81.7857401 19.1687035,79.7754235 21.6491878,78.3259088 C21.6529263,78.5699787 21.651057,78.8140487 21.6529263,79.0581186 C21.6940496,79.6170575 22.1800525,80.0381247 22.7408251,79.9971359 C26.2755619,79.7456134 29.8046909,79.3487668 33.326343,78.7507023 C33.4198051,78.991046 33.6291602,79.1754958 33.9002003,79.1512751 C35.9787975,78.9724147 38.0573946,78.789828 40.1341226,78.4991798 C38.2891806,78.2383417 36.4423695,78.0687969 34.5955583,77.9067046 C35.3918554,66.8471683 35.4068094,55.7857689 34.137594,44.7504533 C45.8353109,45.4547162 57.5367662,45.6410291 69.2456985,45.6186716 C67.9615292,56.1360372 67.8624594,66.727928 68.3858472,77.2974613 C66.0567716,77.3608077 63.7258267,77.4707323 61.3892741,77.6738135 C61.4677823,69.3083623 62.3575415,54.4741258 54.9665584,49.7492295 C50.5794472,48.2792204 44.5903957,48.7151927 42.0314033,53.0730524 C38.6219057,61.3751572 40.0088834,70.2026644 40.3621701,78.8010068 C40.3640393,79.0078141 40.5247942,79.1848114 40.7378878,79.1904008 C42.9136855,79.2518841 45.0894833,79.3133674 47.2671503,79.3338618 C47.280235,79.3990713 47.2951889,79.4680071 47.3064044,79.5350798 C47.3643509,79.825728 47.6335217,80.0306722 47.936339,80.0045884 C49.6205261,79.8536749 51.2075126,79.5648898 52.5028973,79.3469037 C51.0318038,79.164317 49.7719347,78.9370152 48.5961814,78.7767861 C48.62422,75.8367678 47.9961547,72.9675485 48.8952601,70.297684 C49.2167698,69.5561585 49.6728648,69.1145968 50.1906449,69.0922393 C50.6953402,69.0680186 51.233682,69.3772981 51.4542525,70.0517509 C51.9813788,72.9414647 51.9234323,76.343539 52.5028973,79.3469037 C53.110401,76.0081757 53.7926744,73.0066742 53.4524723,69.5375272 C52.6356135,65.8448047 47.7924073,66.1075059 46.7418933,69.4350551 C45.5997864,72.7216154 46.6633851,76.1385948 47.2521964,79.2556103 C45.2334149,78.9556465 43.210895,78.6929453 41.1883751,78.4339703 C41.5603543,70.4858601 40.8537808,61.5465651 43.9417687,54.2561396 C45.6596021,50.9807581 50.878526,50.9397692 53.9683831,51.8228926 C57.2302105,53.844388 57.9629534,58.4090551 58.7985046,62.0607888 C59.828457,67.3818865 60.1406204,72.874392 60.415399,78.3706239 C57.7760292,78.6836296 55.1366594,78.9705515 52.5028973,79.3469037 C55.3198451,79.3711244 58.1293159,79.2947361 60.940656,79.2556103 C61.1948729,79.2537472 61.3911434,79.0338979 61.3817971,78.7823755 C61.3817971,78.4358334 61.3855356,78.0538919 61.3892741,77.6794028 C63.9837821,78.1470483 66.5838978,78.5122217 69.187752,78.8065962 C69.5784236,78.8345431 69.9167564,78.5438949 69.952272,78.156364 C74.2515288,78.8773951 78.5601317,79.3208199 82.8743424,79.581658 C83.504277,79.62451 84.0332725,79.0935181 83.9996262,78.4675066 C83.9398104,70.7019831 83.6706395,62.9178283 82.8836886,55.1839781" id="Fill-1" fill="#FFFFFF" mask="url(#mask-2)"></path>
            </g>
        </g>
    </g>
</svg>