<?xml version="1.0" encoding="UTF-8"?>
<svg width="460px" height="206px" viewBox="0 0 460 206" version="1.1" xmlns="http://www.w3.org/2000/svg" xmlns:xlink="http://www.w3.org/1999/xlink">
    <title>Illustrazione</title>
    <defs>
        <polygon id="path-1" points="0 0 8.95238095 0 8.95238095 13.3333333 0 13.3333333"></polygon>
        <polygon id="path-3" points="0 0 11.1904762 0 11.1904762 17.7777778 0 17.7777778"></polygon>
        <polygon id="path-5" points="0 0 7.83333333 0 7.83333333 10 0 10"></polygon>
        <polygon id="path-7" points="0 0 74 0 74 70.4810127 0 70.4810127"></polygon>
        <polygon id="path-9" points="0 0 7.84848485 0 7.84848485 9.91139241 0 9.91139241"></polygon>
    </defs>
    <g id="Page-1" stroke="none" stroke-width="1" fill="none" fill-rule="evenodd">
        <g id="Mobile" transform="translate(-20, -2204)">
            <g id="Illustrazione" transform="translate(20, 2204)">
                <g id="Tratteggio" transform="translate(204, 124)" fill="#8A97A8">
                    <path d="M122.998105,0.267773063 C122.878431,1.21538823 122.781319,2.16963008 122.630255,3.11061858 C122.486058,4.05444707 122.348728,5.00111557 122.173141,5.93926406 C121.848452,7.82218771 121.46687,9.69375134 121.040165,11.559635 C120.873406,12.2885697 120.125936,12.7505439 119.370618,12.590557 C118.61432,12.4296233 118.135625,11.7082619 118.302384,10.9783805 C118.316117,10.9196871 118.336716,10.8534203 118.357316,10.7985135 L120.402559,5.48107651 L121.443328,2.815258 C121.781749,1.92349627 122.167255,1.04309457 122.522353,0.153226174 C122.571399,0.0301592691 122.714615,-0.0313741835 122.842136,0.0159592416 C122.950039,0.0566659872 123.011838,0.161746191 122.998105,0.267773063" id="Fill-177"></path>
                    <path d="M117.364225,24.7335217 C116.714104,26.5246586 115.996728,28.2951862 115.237318,30.0525988 C114.479777,31.8109481 113.647509,33.5430674 112.707821,35.2217899 C112.143635,36.228836 110.873282,36.5857519 109.869143,36.0208693 C108.88929,35.4691017 108.529668,34.2353531 109.036875,33.2404852 C109.867275,31.6189068 110.686466,29.9879604 111.4767,28.335468 C112.265066,26.6820388 112.993651,24.9958221 113.705422,23.2983639 C114.125759,22.2941281 115.27655,21.8219874 116.277887,22.2426048 C117.246531,22.6501072 117.716375,23.7527056 117.364225,24.7335217" id="Fill-179"></path>
                    <path d="M104.465074,45.8263145 C103.124962,47.2366816 101.725933,48.5791138 100.282016,49.8564816 C98.8250062,51.1214106 97.3614503,52.3633756 95.8184041,53.4981758 C95.4770636,53.7488652 95.0019924,53.6694483 94.7569754,53.3202054 C94.5250509,52.9900991 94.5858375,52.5336913 94.8822894,52.2743905 C96.2850587,51.0496483 97.6448097,49.7722806 98.8727004,48.3705249 C100.113684,46.9831217 101.260214,45.514388 102.322578,43.9901581 C102.772399,43.3452548 103.646792,43.1959894 104.277103,43.6552677 C104.907414,44.114546 105.054237,45.0101387 104.605351,45.655042 C104.565138,45.7134086 104.521185,45.766991 104.474426,45.8167462 L104.465074,45.8263145 Z" id="Fill-181"></path>
                    <path d="M84.6593041,60.8451266 C81.1813509,62.5869231 77.5732996,64.1187291 73.8630973,65.3889843 C73.0381796,65.673034 72.1332758,65.2530529 71.841278,64.4505891 C71.5492803,63.6481253 71.9810129,62.7678524 72.8059306,62.4838027 C72.8656793,62.4631787 72.9369923,62.4444295 72.9977047,62.4303677 C76.7001975,61.6457155 80.3708885,60.6379485 83.8931714,59.2336368 C84.3595968,59.0470827 84.8934805,59.2636354 85.0852546,59.7173649 C85.2673918,60.1457831 85.0736903,60.6351361 84.6593041,60.8451266" id="Fill-183"></path>
                    <path d="M60.5291778,68.730578 C56.7637637,69.3834814 52.9635368,69.8968603 49.1397879,70.2027411 C47.8103201,70.3100676 46.6417432,69.3727488 46.5278964,68.1089782 C46.4159313,66.8452077 47.4019768,65.7334831 48.7314446,65.6261565 C48.7559076,65.6243677 48.792602,65.6216846 48.817065,65.6207902 C52.5053267,65.4490676 56.1926476,65.1646522 59.8630326,64.7067254 C61.0372547,64.5591514 62.1145659,65.3435298 62.2698116,66.458832 C62.4203529,67.5392529 61.6431834,68.534707 60.5291778,68.730578" id="Fill-185"></path>
                    <path d="M35.2500472,70.9972255 C31.450081,70.8201002 27.66317,70.4021953 23.9163567,69.7914821 C22.7199501,69.5968288 21.9096015,68.479648 22.1063605,67.2960453 C22.2937944,66.1677942 23.3391348,65.3882584 24.4711984,65.4860464 C28.1247609,65.808931 31.781121,65.9971266 35.4356161,66.0967595 C36.8045365,66.1336606 37.8825146,67.2619117 37.8452143,68.6152595 C37.8069815,69.9695299 36.6674579,71.0359716 35.2985376,70.9990705 C35.2873475,70.9990705 35.2621698,70.998148 35.2500472,70.9972255" id="Fill-187"></path>
                    <path d="M11.3306142,66.1986723 C7.60651177,65.0854001 3.96380526,63.7165442 0.430265038,62.1342235 C0.0635046302,61.9705351 -0.100244795,61.5407335 0.0635046302,61.1741099 C0.209059675,60.8486477 0.566244093,60.6830448 0.900446135,60.7653676 C4.61497256,61.6690039 8.34386298,62.4137381 12.073711,63.0723205 C12.9489565,63.2264364 13.5340494,64.0621085 13.3789184,64.9370276 C13.224745,65.8119466 12.3887611,66.3968214 11.5135156,66.2417482 C11.4522293,66.2312185 11.3890277,66.2159027 11.3306142,66.1986723" id="Fill-189"></path>
                </g>
                <g id="Tratteggio" transform="translate(0, 163)" fill="#8A97A8">
                    <path d="M82.9901178,2.76294164 C79.1996706,2.94081333 75.4168157,3.17186315 71.6415531,3.3790745 L71.5874581,3.3818251 C70.6213401,3.43500323 69.7937813,2.72168274 69.7387373,1.7883148 C69.6836932,0.854946861 70.4220427,0.0554411197 71.3881607,0.00226298559 C71.4602874,-0.00140447194 71.5409554,-0.00048760756 71.611184,0.00409671435 C75.4282041,0.265403063 79.2357339,0.549631021 83.0375695,0.78159771 C83.6031946,0.815521692 84.0331076,1.28678998 83.9979933,1.83324116 C83.9647771,2.34301775 83.5386602,2.7381863 83.023334,2.76110791 L82.9901178,2.76294164 Z" id="Fill-197"></path>
                    <path d="M58.8275077,4.87090254 L47.2663401,5.90600934 L47.1836213,5.91318335 C45.759885,6.04026576 44.5074251,4.9282946 44.386753,3.42892704 C44.2660809,1.92955947 45.3219619,0.610566949 46.7456983,0.48348453 C46.7826785,0.479385097 46.8293903,0.477335381 46.8653973,0.475285665 L58.6173047,0.00180116977 C59.8940935,-0.0494417409 60.9684647,0.998988212 61.0171228,2.34360219 C61.0648077,3.64824669 60.1295988,4.75201899 58.907307,4.86372854 L58.8275077,4.87090254 Z" id="Fill-199" opacity="0.75"></path>
                    <path d="M34.1960745,7.21707939 C32.3116516,7.45777319 30.4214951,7.66068993 28.5303831,7.86360667 C26.6392711,8.06436472 24.7491147,8.28778901 22.8503579,8.44861132 L22.7777331,8.45508738 C21.6644711,8.54899034 20.693592,7.60672271 20.6095001,6.34820718 C20.5320973,5.17927723 21.247834,4.15066205 22.2426029,3.93479318 C24.1327593,3.52248363 26.0315161,3.17169671 27.9293172,2.7993229 C29.8261628,2.42910779 31.7258751,2.05781332 33.6294098,1.72537526 C34.9662798,1.49115753 36.2171467,2.52624878 36.4235541,4.0351722 C36.630917,5.54517497 35.7145065,6.95803675 34.3785921,7.19117513 C34.3480132,7.19657185 34.3183899,7.20088923 34.2887667,7.20520661 L34.1960745,7.21707939 Z" id="Fill-201" opacity="0.5"></path>
                    <path d="M9.26707162,9.9842517 C7.77875844,10.1916962 6.28097159,10.3543405 4.7841321,10.5423066 C3.28350315,10.7088466 1.77908473,10.8666213 0.26614001,10.9981002 L0.257613709,10.9990741 C0.126877096,11.0107611 0.011298351,10.9104476 0.000877316577,10.775073 C-0.00859635105,10.6620985 0.0596140559,10.5598372 0.159087566,10.5238022 C1.58961138,10.0095736 3.02960886,9.52164071 4.47244844,9.04344703 C5.92097222,8.58473171 7.3666539,8.10166845 8.82275661,7.6634054 C9.43475554,7.47933492 10.0761228,7.84065846 10.2551752,8.46980941 C10.4342275,9.09896035 10.0827544,9.75830276 9.47075548,9.94237324 C9.41675557,9.95892984 9.36275567,9.97061685 9.30875576,9.9784082 L9.26707162,9.9842517 Z" id="Fill-203" opacity="0.3"></path>
                </g>
                <g id="Tratteggio" transform="translate(359, 0)" fill="#8A97A8">
                    <path d="M100.981816,0.332467839 C100.612714,1.22748047 100.138418,2.08112697 99.5958375,2.89340734 C99.0606394,3.71414897 98.4303976,4.46532028 97.7743186,5.19580853 C96.4326324,6.62670057 94.9082407,7.88554712 93.2851141,8.96012636 L93.27035,8.96952775 C92.5367596,9.45557978 91.554948,9.24404843 91.0778835,8.49569754 C90.600819,7.74828678 90.8093617,6.74797854 91.5429522,6.26192652 C91.611236,6.21679983 91.6896702,6.17449356 91.7616452,6.14158868 C94.9912886,4.67403121 98.0013164,2.77212937 100.59795,0.0720492481 C100.68838,-0.022904823 100.836943,-0.0238449623 100.930142,0.0682886908 C101.000271,0.13879914 101.017803,0.245034883 100.981816,0.332467839" id="Fill-167" opacity="0.3"></path>
                    <path d="M79.9046916,14.2199383 C78.0898384,14.7394435 76.2556293,15.143397 74.4094378,15.4442134 C72.5604813,15.738345 70.7078378,15.9608537 68.8542727,16.1470734 C68.0920159,16.2234712 67.413635,15.6447577 67.339898,14.8549952 C67.2753781,14.1655048 67.6929141,13.5419076 68.3076968,13.3442282 L73.566992,11.6434217 C75.3145601,11.0895375 77.0593631,10.5767171 78.7986358,10.0782213 C79.9028482,9.76212532 81.0448508,10.4325162 81.3508596,11.5756186 C81.6559466,12.719676 81.008904,13.9028873 79.9056133,14.2199383 L79.9046916,14.2199383 Z" id="Fill-169" opacity="0.5"></path>
                    <path d="M55.7922157,17.6518845 C53.9590815,18.0774471 52.1344078,18.548535 50.3210151,19.0651483 C48.5048021,19.5728544 46.7036302,20.1429103 44.9024583,20.6961417 L44.8554548,20.7099973 C44.1128004,20.9376238 43.3353635,20.4892985 43.1182076,19.7064612 C42.9019918,18.9246136 43.328783,18.1051582 44.0714374,17.8775317 C44.1457029,17.854769 44.2274888,17.8379444 44.3008142,17.8280476 C46.1847122,17.5974521 48.0695502,17.3826914 49.9393471,17.1055809 C51.8110242,16.8383671 53.6723605,16.5246384 55.5242961,16.1663741 C55.9144246,16.0911583 56.288572,16.3623308 56.3600173,16.7730482 C56.4305224,17.1748585 56.1851645,17.5598442 55.810077,17.6479258 L55.7922157,17.6518845 Z" id="Fill-171" opacity="0.75"></path>
                    <path d="M32.9163965,25.0477117 C31.1236093,25.643818 29.3529671,26.2829036 27.5948417,26.9388073 C25.8386419,27.6012514 24.1103642,28.3141496 22.3897891,29.0279821 C21.0784163,29.5726999 19.5600353,28.9821997 18.9996689,27.7096343 C18.4383397,26.437069 19.0468475,24.9645558 20.3582203,24.4198381 L20.3803654,24.4104947 C22.2087773,23.6705008 24.0747395,23.0379555 25.9484044,22.4474553 C27.8191808,21.8504147 29.7111394,21.3299897 31.6050237,20.8432008 C32.8143367,20.5320669 34.0534973,21.2309501 34.3741193,22.4044758 C34.6802989,23.5247444 34.027501,24.6758461 32.9163965,25.0477117" id="Fill-173"></path>
                    <path d="M11.4395928,33.872731 C9.85140999,34.7549489 8.26227331,35.6479365 6.73227617,36.6324666 C5.97204692,37.1278727 5.20227903,37.6178941 4.44968068,38.1339422 C3.69326689,38.6446054 2.96451513,39.1893727 2.22240929,39.7260628 L2.2166861,39.7305501 C1.61384434,40.1676204 0.749643958,40.0617184 0.285112408,39.4945142 C-0.115510285,39.0035954 -0.0849866514,38.3286942 0.320405359,37.872777 C0.950909168,37.1628743 1.62815229,36.4933579 2.31016473,35.8247391 C2.99599263,35.1606076 3.69612848,34.5054509 4.433465,33.8888856 C5.89955329,32.6494727 7.42191952,31.4567284 9.03490279,30.3851433 L9.03967211,30.3815534 C10.0374134,29.7183194 11.4176539,29.9417907 12.1216052,30.8805495 C12.8265104,31.8193083 12.5889984,33.1170571 11.5912571,33.7802911 C11.5426101,33.8126002 11.4891937,33.8449093 11.4395928,33.872731" id="Fill-175"></path>
                </g>
                <g id="Champorcher" transform="translate(98, 126)">
                    <path d="M28.0762719,29.004216 C27.8559488,30.5207654 28.0421133,31.9014806 28.2248619,33.3333333 C29.8781391,33.1175966 31.8456757,32.6429757 33.0617225,32.2306789 C31.7944377,32.0964427 30.7457681,31.9318435 29.7893267,31.8295683 C29.9720753,30.2459008 30.0267291,27.9622874 31.2359443,27.4301367 C32.405877,28.6238801 32.4519912,30.6342269 33.0617225,32.2306789 C33.5518987,30.2139398 34.1752935,27.5627749 32.3238963,25.9327639 C30.1309129,24.5696273 28.1155544,27.2048117 28.0762719,29.004216" id="Fill-1" fill="#8A97A8"></path>
                    <path d="M29.1953196,14.5597715 C28.9749965,16.077919 29.1611609,17.4570361 29.3439096,18.8888889 C30.9971868,18.6731521 32.9647233,18.1985313 34.1807701,17.7878325 C32.9134853,17.6519982 31.8648157,17.4889971 30.9083744,17.3851239 C31.091123,15.8014563 31.1457768,13.5178429 32.3549919,12.9856923 C33.5249246,14.1794356 33.5710388,16.1897825 34.1807701,17.7878325 C34.6709463,15.7694953 35.2943411,13.1199285 33.4429439,11.4883195 C31.2499605,10.1251828 29.234602,12.7603672 29.1953196,14.5597715" id="Fill-3" fill="#8A97A8"></path>
                    <path d="M72.9874387,54.5599 C73.2443406,51.0069969 73.2542215,46.3525958 73.2295194,42.6346314 C75.2320367,45.2968573 78.7183273,46.9245903 80.8954062,49.1782487 C81.127606,50.9007694 81.6595247,52.5595535 81.9444223,54.2706342 C81.9839457,54.3899359 82.015235,54.4781865 82.0448775,54.5664371 C79.0822716,54.3212966 76.0356786,54.41445 72.9874387,54.5599 M63.4293706,54.7364012 C61.9867676,54.6710304 60.5046412,54.6481506 59.2975317,54.2395831 C59.8722673,51.5201577 60.4107732,48.6814306 59.7569908,45.9636395 C59.2810636,44.7052516 57.5239205,44.1038402 56.3695087,44.8539702 C54.2088979,46.5160228 54.6848251,49.4903943 55.3501352,51.9565078 C54.6765911,51.6100426 53.9750513,51.3420223 53.2389285,51.2488689 C51.2528792,50.9007694 49.3689319,50.9024036 47.5047464,50.8582784 C46.108254,50.9367233 44.7726935,50.8288615 43.4601882,50.6654345 C43.6742732,48.2516176 43.5639371,45.8427035 43.6396902,43.4043726 C47.8094057,41.3599008 51.3566281,38.3315984 55.4983478,36.36884 C55.7684242,36.2560754 55.9495729,36.2609782 56.0813175,36.2805894 C58.9072384,36.8476812 61.6985764,38.0635781 64.4997952,39.0915339 L71.6634058,41.8894043 C71.9993545,45.7037906 72.4374052,50.7438795 72.8507537,54.5664371 C69.6707693,54.7184242 66.4957253,54.8981939 63.4293706,54.7364012 M56.0072112,52.3225843 C56.2624663,50.4840305 56.2871684,48.5948143 57.0035294,47.0079381 C57.263725,46.5438054 57.494278,46.51112 57.6671927,46.5813936 C58.0871285,46.3558643 58.1233582,48.4346559 58.3522644,49.8793506 C58.53506,51.3077026 58.7787875,52.7425917 59.1591999,54.1807494 C58.9138256,54.0892303 58.6618642,54.0075168 58.4461324,53.8751409 C57.6787203,53.4240823 56.8668445,52.8324766 56.0072112,52.3225843 M52.7597077,35.5386308 C52.0515806,35.9929579 51.3714493,36.507753 50.6880244,37.0045711 C50.8148285,35.5468022 50.7242542,33.9452175 51.4620237,33.0529061 C52.2722528,32.3893924 52.4929249,34.2557288 52.7597077,35.5386308 M48.3627328,31.5967715 C48.4220179,31.1326388 48.3199159,30.6080381 48.2491032,30.1765908 C48.2145202,30.0409464 48.2128734,29.9200104 48.2145202,29.8252227 C48.3166222,29.7941716 48.4631881,29.7516806 48.6048135,29.7614862 C50.5941564,29.66343 53.0330776,29.7745603 55.1426375,29.5212485 C55.2315651,31.15225 55.4472968,32.804497 56.0977856,34.3031227 C55.1739268,34.3668592 54.3472297,34.656125 53.5715835,35.0646925 C54.0129278,33.6298034 54.1545532,32.029853 52.5900865,31.1277359 C51.7139852,30.6636033 50.5332245,31.0002629 49.9667229,31.6408967 C48.4236647,33.6804658 49.0906216,35.6350528 49.9271995,37.5340746 C49.7542848,37.6484735 49.5830169,37.7677752 49.4068085,37.8740027 C48.7909027,38.3185242 48.1865245,38.771217 47.5837931,39.2206413 C47.9559715,36.6842541 48.0070225,34.1200844 48.3627328,31.5967715 M52.0449934,15.750889 C51.895134,18.3869666 51.9099552,21.0246785 51.9840615,23.7244926 C52.1026317,25.0923766 52.3348315,26.4357466 52.6329035,27.7791166 C52.0762827,27.7562368 51.5229556,27.7366256 50.9745688,27.7398941 C50.4459438,27.7578711 49.8876762,27.6974031 49.326115,27.6794261 C50.4360629,23.7882291 51.2067686,19.7499478 52.0449934,15.750889 M59.6285399,28.8838832 C58.6388089,28.6697938 57.7544735,28.5701033 56.6791085,28.4491673 C56.700517,28.2579577 56.7252191,28.0683824 56.7449807,27.8755385 C55.5461052,27.9262009 54.3241744,27.8575616 53.107184,27.8003621 C53.3509114,26.4324781 53.4777155,25.0678626 53.5946388,23.7228583 C54.1018554,19.8038787 54.1841958,15.5841934 53.6506303,11.5785975 C54.5250848,13.8943582 55.2957905,16.2558784 56.0220324,18.6598897 C56.9211891,22.1392506 58.4675409,25.469893 59.6285399,28.8838832 M60.7137857,35.5043112 C59.2563615,35.0205672 57.7709415,34.6038284 56.2410578,34.2916828 C56.1850663,32.4465919 56.4189129,30.6505291 56.6329979,28.8479292 C57.4531078,29.7565834 58.6536301,30.377606 59.6647696,30.8482758 C59.9200247,31.0264112 59.8179227,30.9316235 59.9463737,31.273186 C60.2543266,32.49562 60.3465478,34.0775934 60.7137857,35.5043112 M25.3502511,50.0133607 C24.8677366,49.9169388 24.3852221,49.8009056 23.9010609,49.6783354 C24.6865878,34.020394 25.2349746,17.7545041 26.0172079,2.04426601 C26.5046628,1.99850644 26.9921177,1.96091823 27.4696917,1.93967272 C27.4367556,3.25199158 27.3873514,5.31770893 27.3758237,5.7507905 C28.5631716,5.78837871 31.0020929,5.8651894 32.1910876,5.90277761 C32.4529299,4.80945094 32.4891596,3.54779446 32.520449,2.44956498 C32.6291382,2.45283352 32.7444147,2.46917622 32.8514572,2.47081049 C32.9766145,2.46917622 33.1034187,2.46917622 33.2252824,2.46917622 C33.2960951,3.63441077 33.4064312,5.44354772 33.4360737,5.92565739 C34.5526089,5.89297199 36.7346282,5.83086973 37.854457,5.7998186 C37.9104485,5.384714 38.1492355,3.65238774 38.2990949,2.56723242 L38.9759326,2.53291275 C39.0434517,18.4163834 39.3118813,34.2982199 39.9080254,50.1751535 C38.7585541,50.0264349 37.6008487,49.9153045 36.4102072,49.93655 C32.6110234,49.9430871 28.9287628,50.3581917 25.3502511,50.0133607 M16.7193353,48.1372187 C17.5575601,36.6172491 17.7238876,25.0302744 18.0087852,13.5103047 C18.0647767,9.82502575 18.292036,6.09235294 18.1718191,2.328629 L19.4727967,2.12924805 C19.4909116,2.95782297 19.4563286,3.86320858 19.6144221,4.73264025 C20.144694,4.79310824 20.72437,4.75225149 21.1739484,4.6917835 C21.4176758,4.66890372 22.3777643,4.53489357 22.6000833,4.51528233 L22.6083173,4.2113081 L22.6774832,1.46410013 L24.1546691,1.26145065 C23.4877123,17.1906809 23.4679506,33.7866933 23.8928268,49.6750668 C21.5625948,49.0818268 19.2027203,48.2941086 16.7193353,48.1372187 M85.7584274,55.0714266 C84.6287178,54.8328231 83.4759528,54.6906416 82.3133071,54.5860484 C82.3248347,54.4961635 82.3380092,54.3997416 82.3577709,54.2984168 C82.9176853,52.4320804 82.7118344,50.3565574 82.7167748,48.4313873 C80.3980705,45.1007449 76.552776,43.8619682 73.2245789,41.8305706 C73.2229321,41.6540694 73.2212853,41.4661283 73.2212853,41.2961642 L73.2179917,40.8320316 C73.2179917,40.8320316 72.7437113,40.5999652 72.7437113,40.5999652 C68.9494678,38.9003243 65.2342711,37.0748447 61.3198107,35.7167663 C62.2387291,33.5905809 62.879337,30.1520767 60.4634711,29.0816298 C60.2329181,29.0195276 60.0270672,28.9770366 59.8146291,28.9280085 C59.3732848,25.3097345 58.2468688,21.863059 57.604614,18.2496879 C56.6428787,13.4923278 54.9170249,8.73496762 52.7745289,4.32734128 C51.5657726,8.80033842 50.2203312,13.5429901 50.0078931,18.1728772 C49.7048806,20.9266223 49.1762555,24.6429524 48.9539366,27.6794261 C48.1206522,27.6925003 47.2923083,27.8559273 46.5528919,28.586446 C45.885935,29.8824222 46.3453942,30.317138 46.5001941,31.273186 C46.3882112,34.0252968 46.7686236,36.7234766 47.320304,39.4167537 C45.7344288,40.6015995 44.1600812,41.7651998 42.4572827,42.7375904 C42.5725592,45.3654967 43.0649545,48.0048428 43.2790395,50.6458232 C42.1542702,50.5003732 41.0443223,50.3222378 39.9277871,50.1767877 C40.5371057,33.9680973 40.8088289,17.7561383 40.8681139,1.53927656 L40.8714075,0.557080253 C40.8714075,0.557080253 39.8932042,0.596302734 39.8932042,0.596302734 C39.3069408,0.622451055 37.1660917,0.705798828 36.6127645,0.730312879 C36.5567731,1.10619499 36.3031648,2.80420158 36.1417777,3.88608836 L35.3249614,3.89916252 C35.26897,2.76661337 35.183336,1.06043543 35.1701615,0.75155839 C33.5200609,0.240031862 32.1367429,0.519492042 30.5673358,0.226957701 C30.4438253,1.39382652 30.4965231,2.715951 30.429004,3.85340296 L29.3931624,3.83215745 C29.4079836,2.59991782 29.4343326,0.635525216 29.4359794,0.259643102 C28.8991203,0.110924527 27.945619,-0.0525024786 27.5981427,0.0161368638 C26.4799607,0.0602621554 25.2843788,0.210615001 24.1826649,0.364236386 C24.1826649,0.364236386 24.1579628,1.14051466 24.1579628,1.14051466 C24.1579628,1.14541747 24.1579628,1.15032028 24.1579628,1.15522309 L22.4864536,1.12090342 L22.3431814,1.11763488 L22.3217729,1.25981638 L21.9314796,3.83542599 C21.5115438,3.83706026 20.9878592,3.84359734 20.5613362,3.81908329 C20.579451,2.86793811 20.7144892,1.77624572 20.6617914,0.76299828 C20.2319747,0.798952221 17.7996407,0.988527548 17.3138326,1.02775003 L16.7637991,1.07187532 C16.7637991,1.07187532 16.7341566,1.72558334 16.7341566,1.72558334 C15.5550427,16.8785353 15.4002428,32.94341 16.6320545,48.1339502 C15.8844041,48.0914591 15.1301665,48.0914591 14.357814,48.1911496 C10.5734514,48.4264845 7.16950119,50.4987389 3.35714286,49.6750668 C7.02458217,50.9628716 10.8632894,49.0818268 14.3923969,49.1896886 C16.1643613,49.2125684 18.1092404,49.3645555 19.7478135,49.8074427 C24.7145835,52.3225843 31.026795,51.909114 36.3822115,51.8715258 C38.2085205,51.9140168 39.9706041,52.0660039 41.7030451,52.4843771 C45.5088162,53.2230671 49.2124853,52.6249243 52.8651033,53.2181643 C54.4921487,53.3946655 55.6712625,54.577877 57.5173333,55.5845874 C59.3551699,56.5831264 61.4482617,56.5030471 63.4227833,56.532464 C70.8894065,56.6583028 78.225932,54.7658181 85.6365637,55.6009301 C87.4332302,55.9114414 89.1492031,56.6664741 90.6428571,57.7777778 C89.2990626,56.4981443 87.6061449,55.5306564 85.7584274,55.0714266" id="Fill-5" fill="#8A97A8"></path>
                    <g id="Group-9" transform="translate(0, 58.8889)">
                        <mask id="mask-2" fill="white">
                            <use xlink:href="#path-1"></use>
                        </mask>
                        <g id="Clip-8"></g>
                        <path d="M8.95238095,2.48110408 C8.95238095,2.50794494 8.94895951,2.5221548 8.94211662,2.53004917 C8.93356301,2.53636467 8.93185228,2.54583791 8.93185228,2.5584689 L8.93185228,2.59794075 C8.88908423,2.81740421 8.77275511,3.0052902 8.58286493,3.16159871 C8.39468548,3.31632835 8.16715941,3.39369317 7.90028673,3.39211429 C7.60433177,3.39211429 7.35285559,3.29896074 7.14072602,3.11107475 C6.9320179,2.92160989 6.82766384,2.69267318 6.82766384,2.419528 L6.82766384,2.36268854 C6.82766384,2.29795471 6.81911022,2.25216737 6.80542445,2.22690539 C6.66514522,2.25216737 6.53170888,2.29479697 6.40511542,2.3532153 C6.28023269,2.41005476 6.14679635,2.47163084 6.0048064,2.53636467 C5.767016,2.65162246 5.60278666,2.76214363 5.51040765,2.8663493 C5.42145009,2.97055497 5.29656736,3.15054659 5.14260235,3.40948191 C4.64991433,4.39312032 4.28895192,5.35307562 4.05458296,6.29250556 C3.82192473,7.23035663 3.74836367,8.14610346 3.83047834,9.04132493 C3.84416412,9.10605876 3.85100701,9.17079259 3.85100701,9.23552642 C3.85100701,9.30026025 3.86640351,9.35078421 3.89206434,9.39025606 C3.99128624,9.5323547 4.10590463,9.61287727 4.24105169,9.63182375 C4.37277731,9.65234911 4.51305654,9.64287587 4.66188938,9.6049829 C4.8090115,9.56551105 4.95955507,9.50551385 5.11352008,9.42025466 C5.26748508,9.33657434 5.42316081,9.26236727 5.5754151,9.19763345 C5.65924049,9.1581616 5.73793372,9.11395313 5.80807334,9.06185029 C5.87821295,9.01132633 5.94835257,8.97185448 6.01849218,8.94501363 C6.23062175,8.85659669 6.42906554,8.83607133 6.61724499,8.88817417 C6.80884589,8.94027701 6.96623234,9.03658831 7.09111507,9.18026583 C7.21770852,9.32236448 7.30837681,9.51025047 7.36654137,9.7439238 C7.41957376,9.97601825 7.41957376,10.2365324 7.36311992,10.5207297 C7.27929453,11.0133384 7.11848663,11.4254244 6.87898551,11.7617246 C6.6411951,12.0996036 6.34352942,12.3711699 5.99283135,12.5780024 C5.87992367,12.6427362 5.77556961,12.7011545 5.67805844,12.7516785 C5.58054727,12.8037813 5.47277176,12.8495687 5.36157481,12.8874616 C4.54898171,13.2490237 3.72099211,13.3911224 2.87760601,13.3121787 C2.65350138,13.2869167 2.43966109,13.2427083 2.23779586,13.1842899 C2.03421991,13.1274505 1.83235467,13.0406124 1.63733233,12.9221969 C1.37217037,12.7658883 1.13266925,12.5653714 0.920539678,12.3206459 C0.908564622,12.3064361 0.90001101,12.2969628 0.90001101,12.2906473 C0.90001101,12.2843318 0.893168121,12.2748586 0.879482343,12.2606487 C0.852110786,12.2353867 0.835003562,12.2164402 0.826449951,12.2038093 C0.819607062,12.1911783 0.804210561,12.1706529 0.773417559,12.1453909 C0.55273438,11.8469838 0.366265648,11.5391034 0.219143529,11.2217497 C0.0720214095,10.9043961 -0.00153965008,10.5380973 0.000171072231,10.1244324 C-0.0135147063,8.94501363 0.195193416,7.74822725 0.624584718,6.53091551 C1.05568674,5.31518264 1.73142206,4.07260892 2.66034427,2.80477322 C3.08118196,2.23479976 3.55334132,1.71219252 4.07169018,1.23379374 C4.19828364,1.10432608 4.32487709,0.987489417 4.44975982,0.884862617 C4.94073712,0.494880776 5.43171443,0.23436659 5.91584884,0.098583439 C6.39998326,-0.0371997122 6.87898551,-0.0324630907 7.35798775,0.11121443 C7.44181315,0.149107402 7.51879565,0.188579249 7.58722454,0.226472221 C7.65907488,0.253313076 7.72237161,0.284890553 7.77882544,0.3243624 C7.83185784,0.362255372 7.88146878,0.395411723 7.92252612,0.420673705 C8.39981764,0.719080863 8.71630127,1.18642752 8.87026628,1.82113481 C8.91303434,1.97586445 8.93185228,2.1053321 8.93185228,2.20953778 C8.94382734,2.26006174 8.95238095,2.33268994 8.95238095,2.42268575 L8.95238095,2.48110408 Z" id="Fill-7" fill="#8A97A8" mask="url(#mask-2)"></path>
                    </g>
                    <path d="M13.4790773,64.865683 C13.4157345,64.8787952 13.3492246,64.8902684 13.2842982,64.8951854 C13.2193718,64.9033806 13.1607797,64.9197708 13.1085219,64.9459952 C12.9786691,64.9984441 12.8567342,65.054171 12.73955,65.1066198 C12.6207822,65.1607077 12.5051816,65.2213516 12.3879974,65.2885517 C12.2312239,65.368864 12.1108725,65.4377031 12.0253597,65.499986 C11.9398469,65.558991 11.8765041,65.622913 11.8321642,65.6901131 C11.784657,65.7573131 11.7466514,65.8490986 11.7133964,65.9621914 C11.681725,66.0769232 11.6405521,66.2277136 11.5867108,66.4162016 C11.4711101,66.8997143 11.3444245,67.388144 11.2145717,67.8765738 C11.0847189,68.3682816 10.9469483,68.8550724 10.8060106,69.338585 C10.7141635,69.6614732 10.6096478,69.9778052 10.4924636,70.2859421 C10.3752794,70.594079 10.2248402,70.8841866 10.0427297,71.1513478 C9.95246614,71.3004992 9.85903549,71.4332603 9.75927056,71.5561873 C9.66267277,71.6758362 9.54232142,71.7758168 9.40138366,71.856129 C9.20502093,71.977417 9.01024178,72.0315048 8.81546263,72.0183926 C8.62068347,72.0036414 8.4480743,71.9397194 8.29921869,71.8249875 C8.14877951,71.7118947 8.03001173,71.5512702 7.93974822,71.3414749 C7.84948471,71.1333186 7.81622973,70.8940208 7.84156686,70.6252205 C7.87007112,70.3154446 7.91282752,70.0056686 7.97141963,69.6975317 C8.03001173,69.3893948 8.11077382,69.086175 8.21528946,68.7911503 C8.65710559,67.4061733 9.09417101,66.0326695 9.52490215,64.6689998 C9.95563328,63.3069692 10.4148687,61.9514947 10.9121098,60.6091323 C11.0926368,60.0977562 11.3048352,59.6011313 11.5376201,59.1176186 C11.7719885,58.6341059 12.0396119,58.1702616 12.3389067,57.7277245 C12.4275866,57.5802122 12.525768,57.444173 12.6287,57.3245241 C12.7347993,57.2032362 12.8361478,57.0901434 12.942247,56.9803287 C13.0847683,56.8623188 13.2272896,56.7672553 13.369811,56.7000552 C13.539253,56.6328552 13.6849415,56.6672747 13.80846,56.8016748 C13.9303949,56.936075 13.9794856,57.1048947 13.9541484,57.3064949 C13.9414799,57.3999193 13.9098085,57.5080951 13.8575506,57.629383 C13.6105137,58.2456568 13.4078167,58.8783208 13.2526268,59.5224581 C13.0926862,60.1682343 12.9374963,60.8189277 12.7823064,61.4778161 C12.7443007,61.6531919 12.7047114,61.8302067 12.6714564,62.0121386 C12.6413686,62.1924315 12.5986122,62.3923927 12.5463544,62.6071051 C12.6112808,62.5792416 12.6667057,62.5628514 12.7126293,62.5562953 C12.7569692,62.5497392 12.7997256,62.5333489 12.8393149,62.5054855 C12.9691677,62.4645098 13.0911026,62.4235342 13.2098704,62.3760024 C13.325471,62.3284707 13.4474059,62.2924121 13.5772587,62.2645486 C13.9937377,62.1842364 14.3642932,62.2514364 14.6889251,62.4677879 C15.013557,62.6841393 15.260594,63.0266957 15.4284524,63.4954572 C15.5313845,63.7658965 15.599478,64.0396138 15.632733,64.3149702 C15.6644044,64.5903266 15.6739058,64.868961 15.6612373,65.1508735 C15.6454016,65.4737616 15.6137302,65.7900937 15.5614724,66.0982306 C15.5107981,66.4063674 15.4442881,66.7161434 15.3666932,67.0259193 C15.260594,67.4553441 15.1339084,67.8814909 14.9850527,68.3059986 C14.8346136,68.7288674 14.6683387,69.148458 14.4862281,69.5647706 C14.3421232,69.8745466 14.2043526,70.1794054 14.0665819,70.4809862 C13.9288113,70.784206 13.7894571,71.0890649 13.6453522,71.3972017 C13.5677573,71.5873288 13.4711595,71.7479533 13.3555588,71.8823535 C13.0689326,72.2183538 12.7569692,72.3052222 12.4196688,72.1429586 C12.0681161,71.9675828 11.8939234,71.664363 11.8939234,71.2349382 C11.8939234,71.0743136 11.9034248,70.91205 11.9224277,70.7514255 C11.9430141,70.5891619 11.9683512,70.4285374 11.9936883,70.2679128 C12.098204,69.7286732 12.223306,69.2058239 12.3753288,68.6944478 C12.5241844,68.1847107 12.69521,67.6733346 12.8915727,67.1635975 C12.9960884,66.9226607 13.0879355,66.6735287 13.1655304,66.4178406 C13.2447089,66.1621526 13.3270546,65.9081035 13.4189017,65.6524155 C13.4584909,65.5311275 13.4822445,65.4065616 13.4980802,65.2787175 C13.5123323,65.1525125 13.5044145,65.0131953 13.4790773,64.865683" id="Fill-10" fill="#8A97A8"></path>
                    <path d="M19.7716904,68.8611819 C19.9602789,68.2657034 20.1571388,67.6765429 20.3639244,67.0937005 C20.5657472,66.5108582 20.7626071,65.9232772 20.9545041,65.3262192 C20.8337413,65.2361866 20.7791499,65.1903806 20.7923842,65.1903806 C20.3457273,65.1761649 19.9437361,65.2504023 19.5913734,65.4115132 C19.2373564,65.5742036 18.9280052,65.8000748 18.6633196,66.0907062 C18.4002883,66.3829172 18.1786141,66.7225137 18.0016056,67.1094957 C17.8245971,67.4980573 17.6955629,67.9071526 17.6128487,68.3352022 C17.5466773,68.7743084 17.6939086,69.0333494 18.0595056,69.1123254 C18.6567024,69.2671182 19.2257764,69.1849832 19.7716904,68.8611819 L19.7716904,68.8611819 Z M22.231612,69.7188605 C22.2034892,69.7709846 22.1836378,69.842063 22.1687492,69.9320955 C22.1571692,70.0237076 22.1488978,70.0758317 22.1488978,70.0884679 C22.2828949,70.6318223 22.2398835,71.0788261 22.0149007,71.4278997 C21.7915723,71.7785528 21.5103438,72.0233782 21.1695611,72.1655349 C21.0620326,72.217659 20.9511955,72.2334542 20.8353956,72.2145 C20.7195957,72.1955457 20.6087586,72.1639554 20.4995758,72.1260469 C20.3771587,72.0739228 20.2613588,72.0154806 20.152176,71.9522999 C20.0992388,71.9254481 20.0049446,71.8733239 19.8692932,71.7959275 C19.7336419,71.7169516 19.6376934,71.6585094 19.583102,71.6190214 C19.502042,71.6458733 19.3663906,71.6679865 19.1761479,71.6869407 C18.9875594,71.7074745 18.7873909,71.7216902 18.5756425,71.7359058 C18.3655483,71.748542 18.1686884,71.75486 17.9867171,71.75486 L17.5880344,71.75486 C17.2356717,71.7422239 16.9345919,71.6553504 16.6847949,71.5005575 C16.4333436,71.3441852 16.2282123,71.1467454 16.0727095,70.9066585 C15.9172067,70.6681512 15.8080239,70.396474 15.7401982,70.0916269 C15.6707183,69.7867798 15.6508668,69.4850918 15.6789897,69.1865627 C15.7220011,68.6052999 15.8295296,68.0603659 16.0065381,67.55492 C16.2646065,66.8551932 16.5921549,66.196534 16.9842204,65.5742036 C17.4209516,64.8886925 17.9155828,64.3706104 18.4730768,64.0215368 C19.0305708,63.6724632 19.6476191,63.4592281 20.3275301,63.3834113 C20.4631815,63.3565594 20.60545,63.3407643 20.7543356,63.3360257 C20.9032213,63.3281281 21.0587241,63.3376052 21.220844,63.364457 C21.5616267,63.3897293 21.8792494,63.4307968 22.1770206,63.4813414 C22.4350891,63.5334655 22.6799232,63.6029643 22.9115231,63.6866788 C23.1414687,63.7703933 23.2969715,63.8904367 23.3780314,64.0468091 C23.5136828,64.3074297 23.5351885,64.591743 23.4475114,64.9013287 C23.3598343,65.2140734 23.2804286,65.5157614 23.2109487,65.8142904 L22.231612,69.7188605 Z" id="Fill-12" fill="#8A97A8"></path>
                    <path d="M27.4839564,64.7879825 C27.3469836,65.2670697 27.2502093,65.7477809 27.1906558,66.2268681 C27.1281248,66.7059553 27.0655937,67.1785464 27.0045514,67.6446414 C26.918199,68.2439063 26.7946256,68.820435 26.6353202,69.3726033 C26.4775037,69.9247716 26.2750221,70.4736918 26.0308531,71.019364 C25.9802327,71.1265496 25.9296123,71.2321112 25.8745254,71.3392968 C25.8209273,71.4448584 25.7613739,71.5455479 25.7003316,71.6381173 C25.5052942,71.9304417 25.2343262,72.1172045 24.8933829,72.1967817 C24.6864347,72.2357583 24.4928861,72.2308862 24.3157147,72.1756694 C24.1385433,72.1237006 23.9851933,72.0327552 23.8497093,71.9060813 C23.7157141,71.7794074 23.6189398,71.6267491 23.5578975,71.4448584 C23.4968553,71.2662157 23.4834558,71.0697088 23.5206766,70.8569616 C23.5459868,70.7773844 23.5698082,70.6961832 23.5951184,70.616606 C23.6189398,70.5386528 23.6427611,70.4574516 23.6680713,70.3778744 C23.8779971,69.7380088 24.0834564,69.0997672 24.2933822,68.4599016 C24.5018192,67.82166 24.7102561,67.1817944 24.9186931,66.5435528 C25.1152193,65.9166794 25.3370558,65.3125423 25.588669,64.7262695 C25.8387933,64.1399967 26.1291162,63.5683402 26.4611265,63.0096758 C26.5579008,62.8635136 26.6561639,62.7270955 26.7544271,62.5987976 C26.8512014,62.4737477 26.9732859,62.3714342 27.1191917,62.290233 C27.2546758,62.2106558 27.3886709,62.2009116 27.5226661,62.2610005 C27.6566613,62.3210894 27.7430138,62.4315231 27.7787458,62.5906775 C27.7906565,62.6182859 27.7936342,62.6523904 27.7891677,62.691367 C27.7817235,62.7319676 27.7787458,62.7660721 27.7787458,62.7920565 C27.7906565,62.8310331 27.7981007,62.8683856 27.7981007,62.9024902 C27.7981007,62.9349706 27.8025672,62.9788193 27.8159667,63.0307881 C27.9752721,62.9788193 28.1271333,62.9284745 28.2730392,62.8813778 C28.418945,62.8359052 28.5678286,62.7920565 28.7137344,62.7530799 C28.9445039,62.6994871 29.1946282,62.6605105 29.4655963,62.6345261 C29.9643561,62.6085417 30.38123,62.7936805 30.7087738,63.1948145 C30.7579054,63.2484073 30.8040593,63.2987521 30.8472355,63.3442248 C30.8889229,63.3929455 30.933588,63.4481623 30.9827195,63.5147473 C31.0943822,63.4351702 31.1941342,63.3539689 31.2864419,63.2743917 C31.3787497,63.1948145 31.4725464,63.1217334 31.5693207,63.0567725 C31.7420256,62.9495869 31.9132416,62.8456493 32.0829689,62.7465838 C32.2541849,62.6475183 32.4313563,62.5646931 32.6144831,62.4981081 C33.2115061,62.2723687 33.7713082,62.2756167 34.2894229,62.5094763 C34.8090264,62.7433358 35.1961236,63.16071 35.4507145,63.759975 C35.6100199,64.1205084 35.7142383,64.489162 35.7618811,64.8691837 C35.8095238,65.2492054 35.8214345,65.6308511 35.7976131,66.0173689 C35.7365709,66.8569895 35.5698213,67.6625056 35.3003421,68.4339172 C35.0293741,69.2069528 34.6705647,69.9458839 34.21647,70.6507105 C34.1301175,70.7838805 34.0392986,70.9105544 33.9410354,71.0291082 C33.8442611,71.149286 33.7400426,71.2629677 33.6313577,71.3685293 C33.3990993,71.5682843 33.1370643,71.6608536 32.8437637,71.6478615 C32.5489743,71.6348693 32.3048053,71.5195635 32.1097679,71.3068163 C31.8775096,71.0534685 31.7866906,70.7676402 31.8358222,70.4477074 C31.9340853,69.889043 32.0472368,69.3401228 32.1767655,68.7993227 C32.3062942,68.2601466 32.4804879,67.7258426 32.7008356,67.1931626 C32.7976099,66.9674232 32.8943842,66.7368117 32.9852031,66.5029522 C33.0789997,66.2707167 33.1653522,66.0352332 33.2517046,65.7948776 C33.3112581,65.6081148 33.3648561,65.422976 33.4065435,65.2362132 C33.4526974,65.0494504 33.4675858,64.8626876 33.4541863,64.6759248 C33.4437644,64.3429998 33.2904144,64.2163259 32.995625,64.2959031 C32.678503,64.3754803 32.3747806,64.4826659 32.0799912,64.6142119 C31.7881795,64.7473819 31.5127449,64.9195284 31.2581541,65.1338997 C31.2298662,65.625979 31.1792458,66.1018182 31.0988487,66.5614171 C31.0184516,67.021016 30.9112554,67.4773668 30.7757714,67.9304696 C30.6432651,68.4615256 30.4467388,68.9617251 30.1891703,69.4261961 C29.9330906,69.8922911 29.6338347,70.3388978 29.2899137,70.7643922 C29.2288715,70.8439694 29.1618739,70.9219226 29.0889209,70.9933796 C29.015968,71.0664607 28.9311044,71.1362938 28.8313524,71.2028788 C28.5023198,71.4432344 28.147977,71.4481065 27.7698128,71.2223671 C27.4273807,71.0079958 27.2948743,70.6750708 27.3693161,70.221968 C27.4050481,69.9686202 27.4780011,69.7217685 27.5881749,69.483037 C27.7102594,69.151736 27.8397881,68.8253071 27.9752721,68.5053743 C28.1092673,68.1854415 28.2432624,67.8655087 28.3772576,67.5471999 C28.5261412,67.1752983 28.6571587,66.8017727 28.7732878,66.4282471 C28.8909058,66.0547215 28.9653476,65.6698277 29.0040573,65.2686937 C29.015968,65.1501399 29.024901,65.0299621 29.0323452,64.9097843 C29.0383005,64.7896065 29.0100127,64.6629326 28.9489704,64.5297626 C28.7048014,64.4777938 28.4621212,64.4810419 28.2179522,64.5395067 C27.9722944,64.5995956 27.7281254,64.6824209 27.4839564,64.7879825" id="Fill-14" fill="#8A97A8"></path>
                    <g id="Group-18" transform="translate(34.6905, 62.2222)">
                        <mask id="mask-4" fill="white">
                            <use xlink:href="#path-3"></use>
                        </mask>
                        <g id="Clip-17"></g>
                        <path d="M5.07440659,6.99121511 C5.25382839,6.95016722 5.40672698,6.90747743 5.53466253,6.85986188 C5.66259808,6.81388825 5.79053362,6.78925952 5.92002936,6.78925952 C6.13689572,6.78925952 6.34596113,6.75313739 6.54254502,6.68089311 C6.74068911,6.60536501 6.93571281,6.51505966 7.12917632,6.40833517 C7.41001046,6.26056279 7.64091852,6.10950658 7.82190052,5.95352463 C8.00132232,5.79918459 8.13861901,5.62842539 8.23379058,5.43960513 C8.32896215,5.25242679 8.39449011,5.0291263 8.4256939,4.77298751 C8.45845788,4.51849064 8.46937921,4.21473631 8.45845788,3.86500834 C8.45845788,3.8387377 8.45377732,3.81082514 8.44597637,3.78291258 C8.4412958,3.75828385 8.43661523,3.73037129 8.43661523,3.70245873 C8.4116522,3.24600627 8.24003134,2.88150107 7.92019246,2.61222696 C7.47397823,2.23458644 6.97471755,2.13935535 6.42397061,2.32653369 C6.17902084,3.09330815 5.94187202,3.85844068 5.71096395,4.62028939 C5.48005589,5.37885427 5.26943029,6.17025745 5.07440659,6.99121511 M4.76704923,8.30310544 C4.72804449,8.49192571 4.69216013,8.65447532 4.66095634,8.78747046 C4.62975254,8.92210752 4.60010894,9.05674457 4.57358572,9.19138163 C4.35359898,10.133841 4.139853,11.0730166 3.92766721,12.0089083 C3.71704161,12.9431581 3.4939345,13.8823337 3.26458662,14.8247931 C3.19749847,15.0677965 3.12728993,15.3108 3.05084064,15.5521616 C2.97439135,15.7935231 2.89014111,16.0299589 2.8012103,16.2581852 C2.59370508,16.7441921 2.29258848,17.153029 1.89786051,17.4896216 C1.67943396,17.6521713 1.45944722,17.7457604 1.23477992,17.7720311 C1.01011261,17.7983017 0.783885117,17.7375509 0.552977052,17.5881366 C0.117684147,17.2663212 -0.0601774703,16.8000172 0.017832011,16.1957924 C0.0568367516,15.9659242 0.0989618715,15.7409818 0.142647181,15.5176813 C0.18789268,15.2960228 0.22845761,15.0710804 0.269022541,14.8412122 C0.283064247,14.7607584 0.306467092,14.6868722 0.345471832,14.6195537 C0.911820666,13.0728694 1.41576192,11.5130499 1.86665672,9.94666268 C2.31599133,8.37863355 2.81057144,6.82045591 3.35039705,5.27212977 C3.55478189,4.66626302 3.78568996,4.08666691 4.04156105,3.53662528 C4.29899234,2.98329982 4.57514591,2.43325819 4.87002175,1.88157464 C5.06036488,1.53184668 5.29439332,1.23137618 5.5689867,0.981805049 C5.84670045,0.733875836 6.14469667,0.515501099 6.46453554,0.328322753 C6.74536968,0.154279729 7.03712514,0.049197149 7.33824173,0.0163588427 C7.63779814,-0.0164794636 7.94203512,-4.13891145e-13 8.24939247,0.0672582175 C8.63319912,0.149353983 8.99048255,0.293842531 9.32436313,0.502365776 C9.65668352,0.712530937 9.94843898,0.971953557 10.2043101,1.28063364 C10.4601812,1.59095563 10.6708068,1.94232551 10.8393073,2.33310135 C11.001567,2.7238772 11.1045395,3.14092369 11.1435442,3.58424083 C11.2199935,4.27220334 11.2028314,4.94210479 11.0936182,5.59394517 C10.9828447,6.24742747 10.787821,6.8828487 10.5069869,7.50185077 C9.95467974,8.67417831 9.12309866,9.35885699 8.01068346,9.55917066 C7.74077066,9.59857663 7.47085785,9.62320536 7.20406543,9.62977302 C6.93415262,9.63469877 6.66736019,9.63305685 6.39744739,9.61827961 C6.07760852,9.59200897 5.79521419,9.50006171 5.55182461,9.34407976 C5.30999522,9.18973972 5.1180919,8.93688476 4.97767483,8.58715679 C4.9527118,8.56088615 4.92462838,8.52640593 4.90122554,8.48535804 C4.8762625,8.44595208 4.82945682,8.38520121 4.76704923,8.30310544" id="Fill-16" fill="#8A97A8" mask="url(#mask-4)"></path>
                    </g>
                    <path d="M51.3801237,69.6451933 C51.8292203,68.9718733 52.151183,68.2795865 52.3493138,67.5667523 C52.5457936,66.8554988 52.6299992,66.1221173 52.6052329,65.3697691 C52.5920241,65.304966 52.5821176,65.2401629 52.5738621,65.1753598 C52.5672578,65.1105567 52.5573512,65.0457536 52.5424914,64.9809505 C52.5028653,64.8260553 52.4021487,64.6901268 52.2403419,64.5715846 C52.024049,64.6110986 51.8473823,64.6948685 51.7119929,64.8244747 C51.6426471,64.8766333 51.58651,64.9256308 51.5386284,64.9698865 C51.4907468,65.0157229 51.4412141,65.0631398 51.3867281,65.1152984 C50.8715879,65.7506849 50.4637685,66.4002965 50.1665722,67.0688748 C49.8644227,67.7358726 49.6894071,68.4376428 49.6365722,69.1773465 C49.6200613,69.3195972 49.6134569,69.4571062 49.6134569,69.5851319 C49.6134569,69.7147381 49.6349211,69.8506666 49.6745473,69.9944978 C49.7158245,70.124104 49.7686594,70.2631936 49.8363541,70.4133471 C49.9040489,70.5619201 50.0328339,70.6488511 50.2227093,70.6757207 C50.3300302,70.6883652 50.4290956,70.6583345 50.5166034,70.5872091 C50.6057623,70.5176643 50.6817125,70.4497001 50.7510583,70.3833164 C50.9673511,70.1904877 51.1770396,69.9439198 51.3801237,69.6451933 M54.6773514,65.4108638 C54.8639246,66.2659486 54.8837377,67.1020667 54.7334885,67.919218 C54.5848903,68.7363693 54.2761364,69.5519401 53.8171333,70.3675108 C53.6421177,70.6662373 53.4076628,70.9349331 53.1154198,71.1735982 C52.8248279,71.4138438 52.5226783,71.6430255 52.2122733,71.8627239 C52.1165101,71.927527 51.9745163,71.9891689 51.7846409,72.0476498 C51.5947655,72.1061306 51.3718683,72.1503864 51.1159493,72.1835782 C50.8567281,72.2151895 50.582647,72.227834 50.2920551,72.2199312 C49.9998121,72.2136089 49.7125224,72.1725143 49.4285348,72.0934861 C49.157756,72.028683 48.903488,71.9385909 48.6673821,71.8200486 C48.4312762,71.7030869 48.2232388,71.5813836 48.0482232,71.4501968 C47.8699054,71.3205906 47.7246094,71.1909844 47.6123353,71.0613782 C47.49841,70.931772 47.4191577,70.8274548 47.3795315,70.7500072 C47.2441421,70.4512807 47.1384723,70.1572959 47.0658243,69.8648916 C46.9898742,69.5724874 46.9799676,69.2642775 47.0344536,68.9418426 C47.1582854,68.0994022 47.4274131,67.3027982 47.8401858,66.55045 C48.2546095,65.7996824 48.8275379,65.0947511 49.5573199,64.432495 C49.9123043,64.1227045 50.2920551,63.8634921 50.6982234,63.6580189 C50.9690022,63.5141876 51.2480365,63.4209343 51.5402795,63.3766786 C51.8308714,63.3308422 52.133021,63.3213588 52.443426,63.3482284 L52.4847033,63.3482284 C52.5540491,63.3608729 52.6200927,63.3703563 52.6894385,63.3766786 C52.7554821,63.3830008 52.8248279,63.400387 52.8908715,63.425676 C53.1880678,63.5157682 53.4456379,63.6311493 53.6635819,63.7670777 C53.8798747,63.9030062 54.0631457,64.0816099 54.2100928,64.3028888 C54.4379433,64.6664184 54.596448,65.0362702 54.6773514,65.4108638" id="Fill-19" fill="#8A97A8"></path>
                    <path d="M60.0842924,63.119911 C60.4088719,63.2123079 60.726861,63.3225357 61.0349644,63.4489736 C61.346363,63.5754114 61.677533,63.6515983 62.0284743,63.6807763 C62.1899403,63.6807763 62.3201016,63.7358902 62.4239012,63.84936 C62.5244055,63.9612089 62.5952528,64.0925097 62.6364431,64.2383995 C62.7171761,64.5447681 62.6364431,64.8041278 62.3909489,65.0148575 C62.2706733,65.1364324 62.1075597,65.2417973 61.9032558,65.3341941 C61.7005996,65.426591 61.4897053,65.4800839 61.26563,65.4930519 C61.0432024,65.5076409 60.8174796,65.471979 60.586814,65.3925501 C60.3561483,65.3131212 60.1567873,65.1672313 59.9821404,64.9532596 C59.8981122,64.8738307 59.8223221,64.7830548 59.7465319,64.684174 C59.6723894,64.5836721 59.5965992,64.4815492 59.5158663,64.3745634 C59.2440103,64.9208397 59.0232303,65.460632 58.8535263,65.9988033 C58.6854699,66.5369746 58.5388324,67.0864929 58.4169092,67.6441162 C58.3213477,68.0428816 58.2537956,68.4416471 58.2109577,68.8404126 C58.171415,69.2375571 58.1368152,69.6444276 58.1104534,70.056161 C58.0956249,70.2279868 58.0775011,70.3981916 58.0577298,70.5651544 C58.0379585,70.7304962 57.9984158,70.892596 57.9473398,71.0530748 C57.8369498,71.3318864 57.6820743,71.5717941 57.4810656,71.7711768 C57.2635809,71.9689386 57.0246772,72.1051024 56.7676497,72.1780473 C56.5106223,72.2509922 56.2354711,72.2331612 55.938901,72.1277964 C55.3704749,71.9267926 55.0129431,71.5345111 54.8646581,70.9493309 C54.8119345,70.6186473 54.8251154,70.2847218 54.9091436,69.9524172 C55.1908852,68.8096137 55.5550074,67.7040931 55.9965674,66.6342345 C56.4348321,65.5643758 57.0082011,64.5512521 57.7100837,63.5948634 C57.8336546,63.4360056 57.9621683,63.2755268 58.0972725,63.116669 C58.2340243,62.9578112 58.3691284,62.8054374 58.5042326,62.6595476 C58.6508701,62.5136578 58.8057456,62.4001879 58.9705068,62.319138 C59.1715154,62.2137732 59.3675812,62.1943212 59.5570566,62.2607821 C59.7448843,62.327243 59.8882265,62.4682698 59.983788,62.6806206 C60.0101498,62.7470815 60.0249783,62.8167844 60.0332164,62.8897293 C60.0398068,62.9626742 60.056283,63.0388611 60.0842924,63.119911" id="Fill-21" fill="#8A97A8"></path>
                    <path d="M69.6127102,63.6126919 C69.8166211,63.7189427 70.0010275,63.8799287 70.1659293,64.0972597 C70.3343774,64.3162007 70.4407657,64.5383613 70.483321,64.7621318 C70.5276495,64.9859024 70.483321,65.1839151 70.3538819,65.3561701 C70.2208966,65.5268153 69.9637916,65.6121378 69.5861132,65.6121378 C69.3254619,65.6121378 69.1073659,65.5477434 68.9247327,65.4237842 C68.7420995,65.2982152 68.6516694,65.1436686 68.6516694,64.9585347 C68.6516694,64.8394051 68.5860633,64.7927192 68.4548511,64.8200868 C68.3236389,64.8458446 68.1729222,64.9037995 67.9956084,64.9955615 C67.8218409,65.0889334 67.6551659,65.1951841 67.4938103,65.3143138 C67.336001,65.4318335 67.2260665,65.530035 67.1657798,65.6089181 C67.0487527,65.8600562 66.8909434,66.1739789 66.6870325,66.5506861 C66.4831217,66.9257834 66.3004884,67.3121498 66.1391329,67.7065654 C65.9777773,68.1042008 65.8767085,68.4728587 65.83238,68.8173687 C65.7862784,69.1602689 65.8731622,69.4307253 66.0930313,69.6287381 C66.1958733,69.7478677 66.3253124,69.8074325 66.4866679,69.8074325 C66.6444772,69.8074325 66.8129253,69.778455 66.9866929,69.7188902 C67.1622335,69.6593254 67.3324548,69.5901014 67.4991297,69.5112183 C67.6658047,69.4323352 67.8165214,69.3727704 67.9459605,69.3341337 C68.3236389,69.2150041 68.6374843,69.2649097 68.8857237,69.4838507 C69.1321898,69.7011818 69.2137542,70.0006157 69.1233241,70.3837623 C69.0346672,70.7797878 68.813025,71.1162485 68.4566243,71.3931444 C68.1002235,71.6700403 67.6835361,71.8777122 67.2030157,72.0161602 C66.7242684,72.1546081 66.217151,72.2222222 65.6869827,72.2222222 C65.1568144,72.2222222 64.6656552,72.1465588 64.213505,71.9936221 C63.7649011,71.8406854 63.3925421,71.6088656 63.1017475,71.2981627 C62.8109528,70.9890696 62.6673287,70.594654 62.6673287,70.1197453 C62.6407316,68.5227644 63.4155929,66.8855369 64.9883663,65.2112827 C65.2046892,64.9875122 65.4476091,64.7556924 65.717126,64.519043 C65.986643,64.2807838 66.2667988,64.0843809 66.5575935,63.9266146 C67.4477087,63.3857017 68.2970418,63.2150566 69.1109122,63.4130693 C69.185384,63.4404369 69.2492169,63.4661947 69.3077305,63.4935623 C69.454901,63.5466877 69.5541967,63.5853243 69.6127102,63.6126919" id="Fill-23" fill="#8A97A8"></path>
                    <path d="M73.9076488,64.865683 C73.8443059,64.8787952 73.777796,64.8902684 73.7128696,64.8951854 C73.6479432,64.9033806 73.5893511,64.9197708 73.5370933,64.9459952 C73.4072405,64.9984441 73.2853056,65.054171 73.1681214,65.1066198 C73.0493536,65.1607077 72.933753,65.2213516 72.8165688,65.2885517 C72.6597953,65.368864 72.539444,65.4377031 72.4539312,65.499986 C72.3684184,65.558991 72.3050756,65.622913 72.2607356,65.6901131 C72.2132285,65.7573131 72.1752228,65.8490986 72.1419678,65.9621914 C72.1102964,66.0769232 72.0691236,66.2277136 72.0152822,66.4162016 C71.8996815,66.8997143 71.7729959,67.386505 71.6431431,67.8765738 C71.5132904,68.3682816 71.3755198,68.8550724 71.234582,69.338585 C71.1427349,69.6614732 71.0382193,69.9778052 70.9210351,70.2859421 C70.8038509,70.594079 70.6534117,70.8841866 70.4713011,71.1513478 C70.3810376,71.3004992 70.2876069,71.4332603 70.187842,71.5561873 C70.0912442,71.6758362 69.9708928,71.7758168 69.8299551,71.856129 C69.6335924,71.977417 69.4388132,72.0315048 69.2440341,72.0167536 C69.0492549,72.0036414 68.8766457,71.9397194 68.7277901,71.8249875 C68.5773509,71.7118947 68.4585832,71.5512702 68.3683196,71.3414749 C68.2780561,71.1333186 68.2448012,70.8940208 68.2701383,70.6252205 C68.2986426,70.3154446 68.341399,70.0056686 68.3999911,69.6975317 C68.4585832,69.3893948 68.5393452,69.086175 68.6438609,68.7911503 C69.085677,67.4061733 69.5227424,66.0326695 69.9534736,64.6689998 C70.3842047,63.3069692 70.8434401,61.9514947 71.3406812,60.6091323 C71.5212082,60.0977562 71.7334067,59.6011313 71.9661915,59.1176186 C72.2005599,58.6341059 72.4681833,58.1702616 72.7674781,57.7277245 C72.856158,57.5802122 72.9543394,57.444173 73.0572715,57.3245241 C73.1633707,57.2032362 73.2647192,57.0901434 73.3708184,56.9803287 C73.5133397,56.8623188 73.6558611,56.7672553 73.7983824,56.7000552 C73.9678244,56.6328552 74.1135129,56.6672747 74.2370314,56.8016748 C74.3589663,56.936075 74.408057,57.1048947 74.3827199,57.3064949 C74.3700513,57.3999193 74.3383799,57.5080951 74.2861221,57.627744 C74.0390851,58.2456568 73.8363881,58.8783208 73.6811982,59.5224581 C73.5212576,60.1682343 73.3660677,60.8189277 73.2108778,61.4778161 C73.1728721,61.6531919 73.1332829,61.8302067 73.1000279,62.0121386 C73.06994,62.1924315 73.0271836,62.3923927 72.9749258,62.6071051 C73.0398522,62.5792416 73.0952772,62.5628514 73.1412007,62.5562953 C73.1855407,62.5497392 73.2282971,62.5333489 73.2678863,62.5054855 C73.3977391,62.4645098 73.519674,62.4235342 73.6384418,62.3760024 C73.7540424,62.3284707 73.8759774,62.2924121 74.0058301,62.2645486 C74.4223091,62.1842364 74.7928646,62.2514364 75.1174965,62.4677879 C75.4421284,62.6841393 75.6891654,63.0266957 75.8570239,63.4954572 C75.9599559,63.7658965 76.0280495,64.0396138 76.0613044,64.3149702 C76.0929759,64.5903266 76.1024773,64.868961 76.0898087,65.1508735 C76.073973,65.4737616 76.0423016,65.7900937 75.9900438,66.0982306 C75.9393695,66.4063674 75.8728596,66.7161434 75.7952646,67.0259193 C75.6891654,67.4553441 75.5624798,67.8814909 75.4136242,68.3059986 C75.263185,68.7288674 75.0969101,69.148458 74.9147995,69.5647706 C74.7706946,69.8745466 74.632924,70.1794054 74.4951534,70.4809862 C74.3573827,70.784206 74.2180285,71.0890649 74.0739236,71.3972017 C73.9963287,71.5873288 73.8997309,71.7479533 73.7841303,71.8823535 C73.497504,72.2183538 73.1855407,72.3052222 72.8482402,72.1429586 C72.4966876,71.9675828 72.3224948,71.664363 72.3224948,71.2349382 C72.3224948,71.0743136 72.3319963,70.91205 72.3509991,70.7514255 C72.3715855,70.5891619 72.3969226,70.4285374 72.4222598,70.2679128 C72.5267754,69.7286732 72.6518775,69.2058239 72.8039002,68.6944478 C72.9527558,68.1847107 73.1237814,67.6733346 73.3201442,67.1635975 C73.4246598,66.9210216 73.5165069,66.6735287 73.5941018,66.4178406 C73.6732803,66.1621526 73.755626,65.9081035 73.8474731,65.6524155 C73.8870623,65.5311275 73.9108159,65.4065616 73.9266516,65.2787175 C73.9409037,65.1525125 73.9329859,65.0131953 73.9076488,64.865683" id="Fill-25" fill="#8A97A8"></path>
                    <path d="M82.3060202,65.6096218 C82.3564698,65.5836653 82.4053907,65.5500745 82.4558403,65.5057959 C82.50629,65.463044 82.5704986,65.4096042 82.6454087,65.3470033 C82.5704986,65.308832 82.5032324,65.2706607 82.4466677,65.2340163 C82.3901029,65.195845 82.3304806,65.1775227 82.2693295,65.1759959 C82.0048511,65.1271366 81.7250848,65.1332441 81.4315596,65.1943181 C81.1380343,65.256919 80.8552106,65.3637986 80.584617,65.5134301 C80.3155522,65.6630616 80.0678903,65.8447569 79.84316,66.0569893 C79.616901,66.2692217 79.4410916,66.5013031 79.3142031,66.7517068 C79.3019729,66.7761364 79.2973865,66.8020929 79.3050304,66.8265225 C79.3111455,66.852479 79.308088,66.8769086 79.2958577,66.9028651 C79.5832679,66.7883512 79.8737355,66.6799448 80.1611457,66.574592 C80.4500846,66.4677124 80.7390235,66.3531985 81.0264336,66.2279967 C81.2404624,66.1272245 81.4544912,66.0233986 81.6669913,65.9180458 C81.8794913,65.812693 82.0919914,65.7088671 82.3060202,65.6096218 M84.7153731,64.4278386 C84.9660926,64.7927561 85.073107,65.1683616 85.0425315,65.556182 C85.0104272,65.9440023 84.8437904,66.3012856 84.5441501,66.6249781 C84.3912724,66.7761364 84.2276932,66.904392 84.0534126,67.0112716 C83.8776032,67.1166243 83.6956787,67.2067086 83.5091679,67.2815243 C83.220229,67.4067261 82.9282325,67.5029178 82.6331785,67.5716261 C82.3381245,67.6418613 82.0400129,67.6876668 81.7403726,67.7120965 C81.0249048,67.8113418 80.5265234,67.8769965 80.2452284,67.9075335 C79.9624046,67.9380705 79.7911816,67.9594464 79.7269729,67.9716613 C79.7667211,68.0098325 79.8034118,68.0449501 79.8416312,68.077014 C79.8783219,68.107551 79.9165413,68.1426686 79.953232,68.1793131 C80.0159118,68.2296992 80.0709478,68.2770316 80.1213975,68.3213103 C80.1703183,68.365589 80.2268831,68.4175019 80.2910917,68.4801029 C80.2910917,68.467888 80.2956781,68.4617806 80.3094371,68.4617806 C80.6350666,68.5747677 80.9576386,68.6404223 81.2771531,68.6602713 C81.5966675,68.6785936 81.9207683,68.632788 82.2463979,68.519801 C82.307549,68.4953714 82.3671713,68.4709417 82.423736,68.4449853 C82.4803008,68.4205556 82.5399231,68.4022334 82.6041317,68.3900186 C82.7799411,68.3396325 82.9465779,68.3304714 83.1040419,68.3625353 C83.2569196,68.3930723 83.3929808,68.4602538 83.5061103,68.5594991 C83.6192398,68.6602713 83.7033226,68.7854732 83.7598874,68.9351046 C83.8149233,69.0847361 83.8332687,69.2481092 83.8057507,69.4221703 C83.755301,69.7367018 83.639114,69.9962665 83.4556607,70.2023915 C83.2737362,70.4100433 83.0459484,70.5749433 82.7707685,70.7001451 C82.6820994,70.7367896 82.5980166,70.7719072 82.5154627,70.8024442 C82.4359662,70.8345081 82.3503547,70.8619914 82.2632144,70.886421 C81.5737359,71.0986534 80.8903724,71.1612543 80.2146529,71.0711701 C80.0250845,71.0482673 79.8462176,71.0162034 79.6765233,70.9780321 C79.5083578,70.9398608 79.335606,70.8833673 79.1597966,70.8085516 C78.9090771,70.6955646 78.6889332,70.5444063 78.5024223,70.3566035 C78.1630338,70.0680286 77.8832676,69.7397555 77.6570085,69.3702574 C77.4322783,69.0007593 77.2931595,68.5778214 77.2457674,68.1014436 C77.1830876,67.562465 77.2136631,67.0555503 77.3405516,66.5791726 C77.4659114,66.1058485 77.7120445,65.6661153 78.0743647,65.2660801 C78.6644727,64.6156413 79.3203182,64.125522 80.041901,63.7941952 C80.7650127,63.4643952 81.5569193,63.3101832 82.4222072,63.3361397 C82.8869555,63.3361397 83.3241858,63.4323313 83.7369557,63.6186072 C84.1512543,63.8216785 84.4768839,64.0904044 84.7153731,64.4278386" id="Fill-27" fill="#8A97A8"></path>
                    <g id="Group-31" transform="translate(86.1667, 62.2222)">
                        <mask id="mask-6" fill="white">
                            <use xlink:href="#path-5"></use>
                        </mask>
                        <g id="Clip-30"></g>
                        <path d="M5.25155977,0.897688763 C5.57617643,0.990085644 5.8942019,1.1003135 6.20234056,1.22675134 C6.51377482,1.35318918 6.84498269,1.42937608 7.19596416,1.45855404 C7.3574486,1.45855404 7.48762482,1.51366797 7.59143624,1.62713782 C7.69195206,1.73898668 7.76280748,1.87028751 7.80400249,2.01617732 C7.8847447,2.32254593 7.80400249,2.5802846 7.55848024,2.79263532 C7.43819081,2.91421017 7.27505858,3.01957503 7.07073134,3.11197191 C6.8680519,3.20436879 6.65713345,3.25786172 6.43303261,3.27082971 C6.21057956,3.28541869 5.98483092,3.24975673 5.75413887,3.17032784 C5.52344682,3.09089894 5.32241518,2.94500913 5.14939615,2.7310374 C5.06535833,2.6516085 4.98955951,2.56083262 4.9137607,2.46195175 C4.83960968,2.36144988 4.76381087,2.25932701 4.68306865,2.15234115 C4.41118159,2.69861744 4.19037635,3.23840975 4.02065292,3.77658105 C3.85257728,4.31475236 3.70592305,4.86427065 3.58398583,5.42189393 C3.48841341,5.82065942 3.42085359,6.21780391 3.37801078,6.6165694 C3.33846358,7.01533488 3.30385977,7.42220536 3.27749496,7.83393883 C3.26266476,8.00576461 3.24453896,8.17596939 3.22476535,8.34293217 C3.20499175,8.50827396 3.16544454,8.67037375 3.11436273,8.83085254 C3.00396011,9.10966418 2.84906688,9.34957187 2.64803524,9.54895462 C2.43052559,9.74671636 2.19159454,9.88288019 1.93453769,9.95582509 C1.67748084,10.02877 1.40229818,10.010939 1.10569412,9.90557416 C0.537203004,9.70457042 0.179630331,9.31228892 0.0313283009,8.72710868 C-0.0214013098,8.3964251 -0.00821890714,8.06249953 0.07581891,7.73019496 C0.357592768,6.58739143 0.721756642,5.48187086 1.16336713,4.41201224 C1.60168202,3.34215361 2.17511654,2.32902992 2.87707948,1.37264115 C3.00066451,1.21378336 3.12919293,1.05330456 3.26431256,0.894446767 C3.40107999,0.735588972 3.53619962,0.583215168 3.67131924,0.437325356 C3.81797347,0.291435544 3.97286671,0.177965691 4.13764674,0.0969157949 C4.33867838,-0.0084490693 4.53476662,-0.0279010442 4.72426366,0.0385598701 C4.9121129,0.105020785 5.05547153,0.246047603 5.15104395,0.458398329 C5.17740875,0.524859244 5.19223895,0.594562154 5.20047796,0.66750706 C5.20706916,0.740451966 5.22354716,0.816638868 5.25155977,0.897688763" id="Fill-29" fill="#8A97A8" mask="url(#mask-6)"></path>
                    </g>
                </g>
                <g id="Brusson" transform="translate(311, 19)">
                    <g id="Group-3">
                        <mask id="mask-8" fill="white">
                            <use xlink:href="#path-7"></use>
                        </mask>
                        <g id="Clip-2"></g>
                        <path d="M30.0060795,37.8619845 C34.9231652,35.3685962 39.5800703,31.8519097 44.4329343,29.3008708 C47.3245627,29.8949922 50.0959811,32.2474569 52.8492857,33.8440581 C54.5783346,34.9586364 56.2826828,36.1196553 57.9837376,37.2838771 C48.6699275,37.4231994 39.3627042,37.725865 30.0653612,38.3968539 C30.0439539,38.2190979 30.0274868,38.0397405 30.0060795,37.8619845 M29.5268859,41.173691 C26.3734301,41.4283145 23.6794072,43.3804278 21.1121812,45.1035401 C21.7593395,41.1865023 21.9075437,37.2470448 21.4876318,33.2723564 C22.8066492,33.8856947 26.5496284,34.6879988 28.3231385,34.8177127 C30.6137167,34.913797 32.7412702,34.5694948 34.9346922,34.1194999 C33.2715119,35.3734004 31.6149183,36.6096854 29.9945525,37.7642988 C29.9780854,37.6201723 29.9649117,37.4776472 29.9467978,37.3351221 C29.9253905,37.5032697 29.9122168,37.6714172 29.8908096,37.8395648 C29.7574258,37.9340477 29.6207486,38.0381391 29.4873648,38.1310206 C29.6207486,38.0669644 29.7491922,37.9932997 29.882576,37.9260407 C29.8628154,38.0877827 29.847995,38.2495246 29.8282345,38.412868 C29.7113178,38.420875 29.5944012,38.4256792 29.4758378,38.4336862 C29.5927545,38.4416933 29.7080244,38.4448961 29.824941,38.4513017 C29.7195514,39.3592986 29.612515,40.2656941 29.5268859,41.173691 M29.0855668,47.4960398 C26.8707375,47.1084997 24.6789621,46.8218481 22.5283546,46.5239867 C24.932556,44.7704477 26.9300191,42.7895091 29.5104188,41.3722653 C29.3194001,43.4124559 29.1843696,45.4542479 29.0855668,47.4960398 M29.0773332,47.6417677 C28.7644577,54.202726 28.8830211,60.7700898 29.2815257,67.3438593 C26.5068138,67.0892359 23.7353954,66.9755361 20.9689172,66.9611234 C21.2719124,60.6579915 21.1006542,54.3484539 19.9775958,48.1221894 C23.037189,48.4600859 26.0934888,48.37361 29.0773332,47.6417677 M13.1437358,69.7667858 C13.7480796,56.9603462 14.0873025,44.147501 14.2140994,31.3282501 C15.7735369,32.5036818 17.7084249,33.152251 19.6235525,33.6438825 C19.6795407,37.591347 19.7948106,41.6028677 20.4963105,45.5151013 C20.0928657,45.7793332 19.6927144,46.0323552 19.2942098,46.2677618 C18.4675597,46.6809245 18.7046865,47.9972798 19.6449597,48.0949655 C19.6696604,48.0981683 19.6960078,48.0981683 19.7207085,48.1013711 C19.1196582,54.4525452 19.006035,60.8309433 19.0719035,67.2013342 C17.1156082,68.0997227 15.2400018,69.4529103 13.1437358,69.7667858 M1.67767146,68.78032 C1.95431928,56.5135541 2.03336152,43.7871848 2.03006809,31.5396357 C5.24445236,31.5892792 9.18009702,31.6549369 12.3780142,31.4963977 C12.4060083,44.2531938 12.6266679,57.0115912 13.1190351,69.7683872 C12.8522676,69.8084224 12.5855,69.8452547 12.3104989,69.8468561 C8.78488584,69.1854756 5.13906271,69.1678602 1.67767146,68.78032 M8.57081312,7.73794606 C8.3814411,10.6637139 8.37650096,13.5798732 8.22170991,16.4431862 C7.859433,20.8374429 8.09820642,25.3790288 8.87051493,29.7332503 C7.19910098,29.7284461 5.45687837,29.6916137 3.83651253,29.645173 C5.74175976,22.4196315 6.87963861,15.0115297 8.57081312,7.73794606 M18.9648672,31.7894549 C17.3675553,31.568461 15.7735369,31.2946206 14.2206863,30.822206 C14.222333,30.7149118 14.2256264,30.6060163 14.2256264,30.4971207 C14.187752,29.9878738 13.7332592,29.6051379 13.2096043,29.6419702 C12.0322044,29.7092292 10.6456718,29.7316489 9.19656416,29.7316489 C10.1747118,21.1513183 10.7527082,12.4813091 9.53084694,3.91699259 C9.55719436,3.81930686 9.58518848,3.72322253 9.61153589,3.6271382 C12.9527171,9.96229827 13.7365526,17.6522474 16.3367128,24.3621363 C17.2934532,26.8234965 18.2831279,29.2512272 18.9648672,31.7894549 M66.9846722,47.5296694 C68.9129734,47.5809143 70.8412746,47.528068 72.7679291,47.4463963 C71.7486136,53.7719479 71.7173261,60.1599544 72.0367885,66.5431566 C68.5753972,66.544758 65.1090658,66.6776746 61.6361476,67.0139698 C62.0675865,60.3905567 62.2009702,53.7895634 61.8683341,47.1853672 C63.5693889,47.3887457 65.2753839,47.492837 66.9846722,47.5296694 M73.0165828,47.4319836 C73.3574525,47.4063611 73.681855,47.2205981 73.8498198,46.9035198 C74.106707,46.4166926 73.9107481,45.8193683 73.4101473,45.5695491 C69.4712092,43.5661908 65.4285282,42.097702 61.4517157,40.1567985 C63.6171436,42.5685152 66.4396101,44.2419839 69.3262985,45.7425008 C66.8216476,45.9859145 64.3351106,46.3478321 61.8551604,46.9115268 C61.72013,44.3396696 61.5142908,41.7694139 61.2228226,39.1975567 C62.1005207,39.1351018 62.4874983,37.9228379 61.7184832,37.421598 C56.4572344,33.8969045 51.4825137,30.0631398 45.4555432,27.789144 C43.69356,27.2494704 42.1110686,29.0334361 40.7228893,29.8517543 C39.0399484,31.0367943 37.3125462,32.3323314 35.585144,33.6326726 C32.1072856,32.6045703 28.1568205,32.9889076 24.5900396,32.5693394 C22.9186257,32.5132902 21.9256576,32.5565281 21.42341,32.6622209 C21.3311941,32.3355342 21.0479594,32.0697009 20.6807424,32.0264629 C20.1258,31.9479941 19.5675642,31.872728 19.0109751,31.7958605 C18.7656148,29.1583457 17.9554319,26.6089082 17.3247408,24.0594707 C14.7871556,16.1709473 15.1741333,6.61536082 9.53908051,0.0335843076 C8.99401843,-0.107339374 8.43248921,0.208137505 8.28757844,0.738202718 C5.51780676,10.170481 4.76196537,19.9230403 3.58950554,29.6387674 C2.69040011,29.6115435 1.82752236,29.5843196 1.05192042,29.5570957 C0.483804353,29.5410816 0.0111976501,29.9846709 0.0079042236,30.5371558 C-0.0316168944,37.0100368 0.0803596066,43.4829177 0.108353732,49.9525958 C0.103413592,55.6071586 0.297725755,63.6189902 0.414642396,69.356826 C0.422875962,69.6562888 0.663296097,69.9125137 0.976171614,69.9365348 C3.20417464,70.2039695 5.72035249,70.0918711 7.94341537,70.2039695 C9.46827184,70.1799484 10.7724687,70.4025438 12.2940318,70.4810127 C14.9995816,70.296851 16.886715,68.5689345 19.0719035,67.3230411 C19.0751969,67.5328252 19.0735502,67.7426093 19.0751969,67.9523934 C19.1114246,68.4328151 19.5395701,68.7947327 20.033584,68.7595018 C23.1475188,68.543312 26.2565134,68.2022127 29.3589212,67.6881615 C29.4412568,67.8947428 29.6256887,68.053282 29.8644621,68.0324637 C31.6956073,67.8787288 33.5267524,67.721791 35.3562508,67.4719718 C33.7309449,67.247775 32.1039922,67.1020471 30.4770395,66.9627248 C31.1785393,57.4567819 31.191713,47.9492376 30.0735947,38.464113 C40.3787262,39.0694442 50.6871512,39.2295848 61.002163,39.2103679 C59.870871,48.2503018 59.7835952,57.354292 60.2446749,66.4390652 C58.1928702,66.493513 56.1394188,66.5879959 54.0810272,66.7625491 C54.1501891,59.5722385 54.9340247,46.8218481 48.4229205,42.7606838 C44.5580845,41.4971749 39.2820152,41.8719038 37.0276648,45.6175912 C34.0240598,52.753454 35.245921,60.3409132 35.5571499,67.7313995 C35.5587966,67.9091555 35.7004139,68.061289 35.8881392,68.0660932 C37.8049134,68.1189396 39.7216877,68.171786 41.6401086,68.1894014 C41.6516356,68.2454506 41.6648093,68.3047026 41.6746896,68.3623532 C41.7257377,68.6121725 41.9628644,68.7883271 42.2296319,68.7659074 C43.7133206,68.6361935 45.1113801,68.3879757 46.2525524,68.2006113 C44.9565891,68.0436735 43.8467043,67.8483021 42.8109217,67.7105812 C42.8356224,65.1835633 42.2823268,62.7173989 43.0743958,60.4225849 C43.3576305,59.7852255 43.7594285,59.4056924 44.2155681,59.3864755 C44.6601807,59.3656572 45.1344341,59.6314905 45.3287463,60.2111993 C45.7931194,62.6949792 45.7420713,65.6191456 46.2525524,68.2006113 C46.7877342,65.3308926 47.3887845,62.7510284 47.0890827,59.7692114 C46.369469,56.5952258 42.102835,56.8210239 41.1773822,59.6811341 C40.1712404,62.5060134 41.1082202,65.442991 41.6269349,68.1221424 C39.8484846,67.8643161 38.0667408,67.6385179 36.2849971,67.4159226 C36.612693,60.5843268 35.9902354,52.9007833 38.7106057,46.6344837 C40.2239352,43.8192129 44.8215586,43.7839819 47.5435756,44.5430481 C50.4170902,46.2805731 51.0626018,50.2040165 51.7986826,53.3427712 C52.7060216,57.9163853 52.9810227,62.6373286 53.2230896,67.3614748 C50.8979305,67.6305109 48.5727714,67.8771274 46.2525524,68.2006113 C48.7341493,68.2214295 51.2091593,68.1557719 53.685816,68.1221424 C53.909769,68.120541 54.0826739,67.9315751 54.0744403,67.7153854 C54.0744403,67.417524 54.0777338,67.0892359 54.0810272,66.7673534 C56.3666652,67.1693061 58.6572433,67.4831816 60.9511149,67.7362037 C61.2952779,67.7602248 61.593333,67.5104055 61.6246206,67.1773132 C65.4120611,67.7970571 69.2077351,68.1781916 73.0083493,68.4023883 C73.5632916,68.4392207 74.0293115,67.9828201 73.9996707,67.4447479 C73.9469758,60.7700898 73.7098491,54.0794178 73.0165828,47.4319836" id="Fill-1" fill="#8A97A8" mask="url(#mask-8)"></path>
                    </g>
                    <path d="M6.91252837,36.3646112 C10.3959533,36.3909497 9.66884687,42.7912001 6.22720963,42.0893571 C2.82568861,41.9979471 2.33092192,36.4963036 6.17539285,36.4513732 C6.17706436,36.4513732 6.90918535,36.3646112 6.91252837,36.3646112 C1.30294382,35.873476 0.430416072,43.4605074 6.03164307,44.0027702 C8.46034579,44.4071433 10.4126684,42.1761192 10.0466079,40.0690408 C9.87109947,38.4732388 8.93672589,36.2298201 6.91252837,36.3646112" id="Fill-4" fill="#8A97A8"></path>
                    <path d="M17.3811072,75.1708588 C17.3668792,75.0469462 17.3320997,74.9153847 17.2783495,74.7777041 C17.2056287,75.0408271 17.1329079,75.3054798 17.0649297,75.5701326 C16.9969516,75.8347854 16.9179072,76.0979084 16.8309584,76.364091 C16.8056642,76.4268121 16.7882744,76.4834142 16.7851126,76.5323673 C16.7787891,76.5828502 16.7613993,76.640982 16.737686,76.7037032 C16.8025024,76.627214 16.8657379,76.5507247 16.9273925,76.4757652 C16.9937898,76.399276 17.0554444,76.3227868 17.1218417,76.2478273 C17.3384233,75.9434001 17.4253721,75.5854305 17.3811072,75.1708588 M18.4545299,80.4119017 C18.5920671,80.096766 18.5304125,79.8458813 18.2679851,79.6607773 C17.9818445,79.4756734 17.6877994,79.3395225 17.3890117,79.2553843 C17.088643,79.1697164 16.7645611,79.1804249 16.4167658,79.2844503 C16.274486,79.3379927 16.1511767,79.3685884 16.048419,79.3823565 C15.9266907,79.9376684 15.8144477,80.480742 15.7180135,81.0131071 C15.6184176,81.5485318 15.5219835,82.0992544 15.4255493,82.6652748 C16.4578689,82.2889477 17.3779455,81.6709146 18.1841981,80.8096458 C18.2996029,80.6826736 18.3881326,80.5495823 18.4545299,80.4119017 M19.6291293,77.857161 C19.9816672,78.0300267 20.2788741,78.2457263 20.5207499,78.5073195 C20.7642065,78.767383 20.9523322,79.0611017 21.0867076,79.3854161 C21.2195022,79.7097304 21.292223,80.053932 21.3017083,80.4180208 C21.3127745,80.7821096 21.2542817,81.1461984 21.1293916,81.511817 C20.927038,82.0288843 20.6345738,82.5092367 20.251999,82.9513446 C19.9943143,83.2312952 19.7271443,83.4928884 19.4441655,83.7407136 C19.1611866,83.9885387 18.8718842,84.221066 18.5762582,84.4367657 C17.3020628,85.3041537 15.8855876,85.6774212 14.3299943,85.5565682 C13.9980079,85.8854719 13.6075287,85.977259 13.1648802,85.8319295 C12.7364597,85.6728318 12.478775,85.3561664 12.3949879,84.8804033 C12.3823408,84.7916758 12.3775982,84.7075376 12.3839217,84.626459 C12.3902453,84.5453804 12.3918262,84.4612422 12.3918262,84.3725147 L12.3333333,84.3725147 C12.3823408,84.12163 12.4250248,83.8722751 12.4598043,83.6290393 C12.4961647,83.3812141 12.5451723,83.1349187 12.6068269,82.8825042 C12.9166808,81.6250211 13.2755423,80.3889549 13.6834113,79.172776 C14.0896994,77.9581268 14.5339288,76.7450074 15.0145186,75.5349476 C15.1520558,75.183097 15.3069828,74.8358359 15.4792995,74.4946939 C15.6500354,74.1550816 15.823933,73.8200587 16.0025733,73.4926848 C16.0642279,73.3672424 16.1432723,73.2540383 16.2397064,73.1530725 C16.3345597,73.0505769 16.4341556,72.9496111 16.5384942,72.8471156 C16.7440095,72.6696605 16.9653338,72.637535 17.1977243,72.7461498 C17.3289379,72.8211092 17.4253721,72.9144261 17.4933502,73.0261004 C17.8964766,73.1224768 18.255338,73.3213489 18.5699347,73.6257761 C18.8845313,73.9286735 19.0694951,74.294292 19.1264071,74.7195722 C19.1706719,75.1463822 19.1643484,75.5548348 19.1105982,75.9434001 C19.0584289,76.3334953 18.9035019,76.7113521 18.6473981,77.0785005 C18.6221039,77.1167451 18.593648,77.1626387 18.5620302,77.2192407 C18.5304125,77.2773725 18.494052,77.3370341 18.4576916,77.3997553 C18.522508,77.4364701 18.5857435,77.4670658 18.6521408,77.4915424 C18.7169572,77.516019 18.7833545,77.5404955 18.84659,77.5649721 C18.9778036,77.6139252 19.1074364,77.6598187 19.2386501,77.7026527 C19.3682829,77.7439569 19.4979156,77.7959696 19.6291293,77.857161" id="Fill-6" fill="#8A97A8"></path>
                    <g id="Group-10" transform="translate(21.303, 75.9873)">
                        <mask id="mask-10" fill="white">
                            <use xlink:href="#path-9"></use>
                        </mask>
                        <g id="Clip-9"></g>
                        <path d="M5.21916237,0.877796562 C5.54755729,0.965852667 5.87095128,1.07151999 6.18767735,1.1915965 C6.50106946,1.31327403 6.83946626,1.38531994 7.19453285,1.40773422 C7.35789682,1.4061332 7.48958819,1.46056788 7.59627486,1.56943725 C7.6979606,1.68150865 7.77130769,1.80798924 7.81464915,1.95208105 C7.90133208,2.25307283 7.82131707,2.51083707 7.57627111,2.72217172 C7.4562486,2.84384925 7.29455161,2.94951658 7.08784617,3.04397676 C6.88614168,3.13683593 6.67110135,3.19287163 6.44439216,3.20728082 C6.21934995,3.22329102 5.99097379,3.19287163 5.75592971,3.11762369 C5.52421958,3.04077472 5.31751415,2.89828393 5.13748038,2.69015132 C5.05413142,2.61330236 4.97411641,2.52364523 4.89910234,2.425983 C4.82075432,2.32832078 4.74073931,2.22905753 4.65905732,2.12499122 C4.39234063,2.66613602 4.17563332,3.20247775 4.01060237,3.73561745 C3.8472384,4.26875715 3.70554516,4.81310398 3.58885661,5.36545592 C3.49717275,5.75930686 3.43216055,6.15475883 3.39715399,6.5502108 C3.36048044,6.94246072 3.33047481,7.34431677 3.3071371,7.75257689 C3.29546825,7.92228503 3.28046544,8.08879112 3.26212866,8.25529721 C3.24379189,8.41860126 3.20711835,8.58030429 3.15710897,8.73880528 C3.04875531,9.01578176 2.89539322,9.25273273 2.69202174,9.45286025 C2.47698141,9.65138674 2.23693639,9.78747345 1.9785546,9.86272139 C1.7201728,9.93957036 1.44012028,9.92516118 1.13839703,9.82269589 C0.559955206,9.6321745 0.194886738,9.24792967 0.0365237034,8.67316346 C-0.020153593,8.34495433 -0.0118186965,8.01674521 0.0681963102,7.68693507 C0.339913937,6.55501386 0.693313551,5.45831508 1.12672817,4.39683875 C1.55680883,3.33536242 2.12524878,2.32671976 2.82371311,1.37571381 C2.94540259,1.2156118 3.07542698,1.05711081 3.20878533,0.898609823 C3.34381065,0.740108833 3.47883597,0.586410902 3.6138613,0.440718073 C3.76055548,0.295025243 3.91891851,0.182953836 4.08228248,0.10130181 C4.28565396,-0.00596653662 4.4840245,-0.0283808181 4.67572712,0.0356599861 C4.86576276,0.0997007903 5.01245694,0.235787499 5.11080872,0.445521133 C5.13914736,0.509561937 5.15581716,0.578405802 5.16581903,0.652052727 C5.17248695,0.722497611 5.18915674,0.797745556 5.21916237,0.877796562" id="Fill-8" fill="#8A97A8" mask="url(#mask-10)"></path>
                    </g>
                    <path d="M30.3071611,84.4072834 C30.3722125,84.3052261 30.4340112,84.2078077 30.4941837,84.1196672 C30.5543562,84.0299804 30.616155,83.9341083 30.6812063,83.8320509 C31.0324836,83.1934191 31.3870134,82.5656116 31.7399169,81.947082 C32.0928205,81.3285524 32.4522291,80.6991986 32.8181429,80.0605668 C32.9238514,79.8703689 33.0360649,79.6770784 33.1629151,79.4776026 C33.2865126,79.2796731 33.4133627,79.0863827 33.5450917,78.8930922 C33.6621841,78.7415524 33.8052971,78.6147538 33.971178,78.5188818 C34.1370589,78.419917 34.3322129,78.3657957 34.5582664,78.3503324 C34.9453219,78.3333229 35.2705786,78.4415656 35.5340365,78.6735141 C35.7958682,78.9054627 35.9080817,79.1992643 35.8723035,79.5533725 C35.8625458,79.6430593 35.8414041,79.7327461 35.8170098,79.8208865 C35.7909893,79.909027 35.7649688,80.0064454 35.7405745,80.1069565 C35.571441,80.5785853 35.4039338,81.0440288 35.2364266,81.5017407 C35.0672931,81.9594526 34.8932808,82.4248961 34.7127633,82.8949786 C34.5289933,83.3418662 34.3159501,83.7748369 34.0671287,84.1954371 C33.8183073,84.6175835 33.5434654,85.0319983 33.242603,85.4402279 C33.0848534,85.645889 32.91572,85.8407258 32.738455,86.027831 C32.5611901,86.2133899 32.3579047,86.3773002 32.1334776,86.5180157 C31.8700196,86.6989356 31.5821674,86.8288268 31.2780524,86.9076893 C30.9706848,86.9880982 30.6698223,87.0143857 30.3673336,86.9927371 C30.0664711,86.9710886 29.7737401,86.901504 29.4842616,86.7839834 C29.1947832,86.6649165 28.9443355,86.5010061 28.7296661,86.2876134 C28.5133703,86.0742207 28.3539945,85.8484574 28.2515387,85.6087772 C28.1490828,85.3675506 28.0824052,85.1154998 28.0515058,84.8479858 C28.0222327,84.481507 28.0222327,84.1196672 28.0580109,83.765559 C28.0954155,83.4083582 28.1637194,83.0527036 28.2661752,82.6970491 C28.305206,82.5192219 28.3523683,82.3444873 28.4109145,82.171299 C28.4678344,81.999657 28.5296332,81.8249224 28.5963108,81.6470952 C29.0093868,80.6156971 29.5314239,79.6399666 30.1624219,78.7199039 C30.2388572,78.5931053 30.3331817,78.4647604 30.4372638,78.3364155 C30.5673665,78.1957 30.7153583,78.1570419 30.8747341,78.2173486 C31.0780195,78.2792015 31.1642126,78.3920832 31.1398183,78.5575399 C31.1414446,78.7229965 31.1235555,78.868351 31.0861509,78.9951495 C30.9967053,79.3260629 30.9105123,79.6476983 30.8259456,79.9585094 C30.7430051,80.2708668 30.6551858,80.5925022 30.5673665,80.9218692 C30.3104137,81.8125518 30.1673007,82.6893175 30.1380276,83.5521663 C30.1396539,83.6913354 30.1412802,83.8320509 30.1445328,83.9712201 C30.146159,84.1103892 30.1982001,84.2557437 30.3071611,84.4072834" id="Fill-11" fill="#8A97A8"></path>
                    <path d="M41.1473064,81.3862184 C41.2850361,81.4871471 41.4194064,81.5880758 41.5420194,81.6890046 C41.6679916,81.7883805 41.7872453,81.903284 41.8964212,82.027504 C42.3163286,82.4700376 42.5514767,82.9358625 42.5968267,83.4249786 C42.6438564,83.9156475 42.5111656,84.4094219 42.2004342,84.9094072 C41.7956434,85.5367181 41.2363268,86.0196232 40.5241639,86.3596754 C39.7834472,86.7230188 39.0292936,86.9310872 38.2583436,86.9854335 C37.485714,87.0366742 36.7114048,86.9528257 35.9219789,86.7323353 C35.6733938,86.6702253 35.4567216,86.5584273 35.2770012,86.3938359 C35.0956012,86.2556412 34.9662697,86.0957079 34.878929,85.9109307 C34.7932679,85.7277063 34.7529568,85.5367181 34.7579957,85.3395189 C34.7647142,85.1407669 34.8134234,84.9528842 34.9074827,84.7727653 C34.9998623,84.5941991 35.1443105,84.4342659 35.3357882,84.2914129 C35.4449641,84.2013534 35.5642178,84.1268214 35.6935493,84.0693697 C35.8245604,84.0088125 35.9639697,83.956019 36.1151363,83.9016727 C36.41579,83.8100605 36.7214826,83.7246593 37.018777,83.6439163 C37.3211103,83.5647261 37.6301622,83.4793249 37.9476122,83.3861599 C38.0970992,83.3473411 38.2398677,83.3069696 38.3691992,83.2681509 C38.4985306,83.2277794 38.6412992,83.1827497 38.7907862,83.1299562 C38.873088,83.1035594 38.9201177,83.0833737 38.9352343,83.0709517 C38.9621084,82.9684702 38.9453121,82.901702 38.891564,82.870647 C38.8361362,82.839592 38.7874269,82.8116425 38.7454362,82.7867985 C38.6345806,82.7107138 38.5237251,82.6361818 38.4128695,82.5600971 C38.302014,82.4855651 38.1877992,82.4110331 38.0786233,82.3349484 C37.8417955,82.1703569 37.64024,82.00266 37.4739566,81.8240938 C37.2354492,81.5725483 37.0691659,81.3039227 36.9683881,81.0197695 C36.8709696,80.7325108 36.8424159,80.4530159 36.8860863,80.1781792 C36.9314363,79.9048953 37.0439715,79.6486916 37.2270511,79.4111209 C37.4101307,79.1735502 37.6587159,78.963929 37.9744862,78.7822573 C39.1099158,78.1860014 40.3074917,78.0384902 41.5655342,78.3459346 C41.7855657,78.4064919 41.9938397,78.4996569 42.1886767,78.6254296 C42.2995323,78.7139363 42.3700767,78.8241815 42.4003101,78.9561652 C42.4271841,79.0912545 42.3885527,79.2278964 42.2793767,79.3691966 C42.1718805,79.4980749 42.0408693,79.5632903 41.8880231,79.5648431 C41.8208379,79.5648431 41.7519731,79.5539738 41.6831083,79.5291298 C41.3639786,79.4545979 41.0566064,79.4437286 40.7626713,79.4903111 C40.4653768,79.5368936 40.1748009,79.6129783 39.8875843,79.7185653 C39.6541158,79.7977555 39.4928713,79.8722875 39.403851,79.9421612 C39.313151,80.0135877 39.2022954,80.1331494 39.0662454,80.2992937 C39.2207714,80.3614036 39.3618602,80.4281719 39.4928713,80.4964929 C39.6238824,80.5648138 39.766651,80.6315821 39.9194972,80.6921393 C40.1260917,80.80549 40.3343657,80.917288 40.5426398,81.029086 C40.7509139,81.1424367 40.9524694,81.2619984 41.1473064,81.3862184" id="Fill-13" fill="#8A97A8"></path>
                    <path d="M50.1173183,81.3865204 C50.2550182,81.4874586 50.3893596,81.5883969 50.5119461,81.6893352 C50.6378911,81.7887205 50.757119,81.9036349 50.8662714,82.0278666 C51.2860881,82.470442 51.5211855,82.9363109 51.5665257,83.4254733 C51.6135452,83.9161885 51.4808831,84.4100095 51.1702187,84.9100421 C50.7655154,85.5374122 50.2063195,86.020363 49.4943103,86.3604473 C48.7537536,86.723825 47.9997628,86.9319131 47.2289792,86.9847116 C46.4565165,87.0375101 45.6790159,86.9536537 44.8914397,86.7315895 C44.6429082,86.6710266 44.4262828,86.5576651 44.2449219,86.394611 C44.0652404,86.2564032 43.9342576,86.0964549 43.8486149,85.9116603 C43.7612931,85.7268656 43.7226699,85.5374122 43.7277077,85.3401944 C43.7327455,85.1414237 43.7831235,84.9535232 43.8771625,84.7733873 C43.9695222,84.5948042 44.1139391,84.4348559 44.3053755,84.2919894 C44.4145279,84.2019214 44.5337558,84.1273824 44.6630594,84.0699252 C44.792363,84.0093623 44.9334214,83.9565638 45.0845554,83.9022124 C45.3851442,83.8105915 45.6890915,83.7251822 45.9896803,83.6444316 C46.2919483,83.5652339 46.6009334,83.4798246 46.9183149,83.3866508 C47.0677696,83.3478284 47.2105073,83.3074531 47.3398109,83.2686307 C47.4691144,83.2282554 47.6118521,83.1832214 47.7613069,83.130423 C47.8435909,83.1040237 47.8906104,83.0838361 47.9057238,83.0714129 C47.9325921,82.9689217 47.9157994,82.9021472 47.8620629,82.8710893 C47.8066471,82.8400313 47.7579483,82.8120792 47.7159667,82.7872329 C47.605135,82.7111409 47.4943034,82.6366019 47.3834718,82.56051 C47.2726402,82.485971 47.15845,82.411432 47.0492977,82.33534 C46.8125211,82.170733 46.611009,82.0014673 46.4447616,81.8244371 C46.2063057,81.5728679 46.0400583,81.3042169 45.9393023,81.0200369 C45.8402255,80.732751 45.811678,80.4532297 45.8570182,80.178367 C45.9023584,79.9050573 46.0148693,79.6488294 46.1979094,79.4112363 C46.3809495,79.1736431 46.629481,78.9640021 46.9451831,78.7823133 C48.0803676,78.1860011 49.2776849,78.0384759 50.5354558,78.3459494 C50.7554398,78.4065123 50.9636689,78.4996861 51.1584638,78.6254707 C51.2692954,78.7139858 51.3398247,78.8242415 51.3700515,78.9562376 C51.3969197,79.0913396 51.3582966,79.2279945 51.2491442,79.3693081 C51.1416712,79.4981985 51.0106883,79.5634201 50.8578751,79.564973 C50.7907044,79.564973 50.7218544,79.5541027 50.6530045,79.5292564 C50.3339438,79.4547174 50.0266379,79.4422942 49.7327662,79.490434 C49.435536,79.5370209 49.1433435,79.6131128 48.8578682,79.7187097 C48.6244501,79.7979075 48.4632404,79.8724465 48.3742393,79.9423268 C48.2835589,80.01376 48.1727273,80.1333331 48.0367066,80.299493 C48.1911992,80.3616088 48.3322576,80.4283834 48.4632404,80.4967108 C48.5942232,80.5650382 48.7369609,80.6302599 48.8897742,80.6923757 C49.0963241,80.8057372 49.3045532,80.9159928 49.5127823,81.0293542 C49.7210113,81.1427157 49.9225234,81.2622887 50.1173183,81.3865204" id="Fill-15" fill="#8A97A8"></path>
                    <path d="M55.9871782,84.4405255 C56.4290442,83.7699765 56.7446628,83.0806709 56.9340339,82.3726087 C57.1234051,81.6661095 57.199818,80.9408537 57.1632727,80.1984043 C57.1499835,80.1343192 57.1383554,80.0702341 57.1283885,80.006149 C57.1234051,79.9420639 57.1101158,79.8779788 57.0968266,79.8138937 C57.0536367,79.6607147 56.9489843,79.5278553 56.7861915,79.4121895 C56.5685808,79.4543919 56.3924989,79.5403597 56.2579457,79.6685299 C56.1881774,79.7216737 56.1333594,79.7701283 56.0851861,79.8154567 C56.0386739,79.8607852 55.9888394,79.9092398 55.9340214,79.9608205 C55.4240483,80.5938563 55.0220499,81.2425226 54.7313486,81.9068194 C54.4389861,82.5679901 54.2695488,83.265111 54.2246977,83.996619 C54.2130697,84.1388566 54.2080862,84.2732791 54.2080862,84.4014493 C54.2097474,84.5296195 54.2330035,84.6640419 54.2761934,84.8047165 C54.316061,84.9328867 54.3708789,85.0688722 54.4423084,85.217362 C54.5120767,85.3642889 54.6416464,85.4486936 54.836001,85.4721394 C54.9423147,85.4830808 55.0403225,85.4533828 55.1283635,85.3814824 C55.2180656,85.3111451 55.2928174,85.2423709 55.3625857,85.1782858 C55.5785352,84.9829043 55.786179,84.7390683 55.9871782,84.4405255 M59.2480163,80.2155979 C59.4473544,81.0580825 59.4772551,81.8864997 59.3393796,82.6945972 C59.1965207,83.5042578 58.8991748,84.3139184 58.4473419,85.1267051 C58.2729211,85.4236848 58.04036,85.6925296 57.7513199,85.9316765 C57.4622797,86.1723864 57.1616115,86.4021549 56.8493152,86.6241082 C56.7562908,86.6897564 56.6134319,86.7507154 56.4223996,86.8101113 C56.2330285,86.8710703 56.0087732,86.9179618 55.7512949,86.952349 C55.4904943,86.9867361 55.2164045,87.0039297 54.9223809,86.9992405 C54.6300184,86.9961144 54.3409782,86.9570381 54.0535992,86.8835747 C53.7795094,86.8226157 53.5253534,86.7350848 53.2844866,86.6209821 C53.0436198,86.5100055 52.8343149,86.3896505 52.6582329,86.2630434 C52.4771676,86.1364362 52.327664,86.0113921 52.2147058,85.8832219 C52.0967641,85.7566147 52.0137066,85.6550164 51.973839,85.5784269 C51.8326412,85.2845732 51.7263276,84.9954088 51.6482535,84.7062443 C51.5685183,84.4202059 51.5552291,84.1154109 51.6050636,83.7949854 C51.719683,82.9587529 51.9771613,82.167849 52.3841431,81.4222735 C52.7927861,80.6720089 53.3592384,79.9686358 54.0868222,79.3074651 C54.4356638,78.9948548 54.8177284,78.7353883 55.2213879,78.5259394 C55.4954777,78.3821387 55.7728898,78.2852295 56.0669134,78.238338 C56.3592759,78.1914464 56.6632664,78.178942 56.9755627,78.1992617 L57.0170914,78.1992617 C57.0868597,78.2117661 57.1533058,78.2211444 57.2230741,78.2258336 C57.2895201,78.2320858 57.3592884,78.2477163 57.4257344,78.2727251 C57.7280638,78.3586929 57.9855421,78.4681065 58.2081362,78.6009659 C58.4274081,78.7338252 58.6117958,78.908887 58.7646216,79.123025 C58.9988438,79.4794007 59.1616365,79.8451547 59.2480163,80.2155979" id="Fill-17" fill="#8A97A8"></path>
                    <path d="M68.1816723,78.9186897 C67.9494387,78.7857831 67.7238404,78.7314121 67.5065361,78.7585976 C67.2892319,78.7857831 67.0719276,78.8250509 66.8546233,78.8764012 C66.7617299,78.9035867 66.6688365,78.9292619 66.5809195,78.9534267 C66.4930025,78.9791019 66.400109,79.004777 66.3055568,79.0304522 C65.9953591,79.1210704 65.7996194,79.3400643 65.7233141,79.687434 C65.6337383,80.170731 65.539186,80.6555383 65.4446338,81.1388353 C65.3484227,81.6236426 65.2488941,82.1069396 65.1460478,82.5917469 C65.0415427,83.0267142 64.9171318,83.45413 64.7728153,83.8770149 C64.6284987,84.2998998 64.4078768,84.6925786 64.1126084,85.0550514 C64.019715,85.1668138 63.9218451,85.2770659 63.8223164,85.3812768 C63.721129,85.4885084 63.6083298,85.5866781 63.4888954,85.6727653 C63.1372274,85.924986 62.7590185,85.9657641 62.3476333,85.7966102 C61.9777184,85.6259459 61.7570965,85.3314368 61.68245,84.9115726 C61.6708383,84.8013204 61.6642031,84.6865374 61.6675207,84.5687337 C61.6741559,84.4509301 61.690744,84.340678 61.717285,84.2425083 C61.7935903,83.9555507 61.8732133,83.6746343 61.9511774,83.3952282 C62.0274827,83.1143118 62.122035,82.8379264 62.2265401,82.5645615 C62.4504796,82.0057493 62.6860308,81.4514681 62.929876,80.9047383 C63.1753801,80.3580086 63.4324958,79.8037274 63.6962468,79.2434049 C63.8820336,78.87036 64.0777734,78.5018461 64.2851248,78.1408836 C64.4908174,77.7799212 64.7031452,77.4189587 64.9138142,77.056486 C64.9801667,76.9205587 65.0614484,76.7952035 65.1560006,76.6819308 C65.2488941,76.5701684 65.3484227,76.4584059 65.4562455,76.3451332 C65.5259155,76.2832108 65.6022209,76.2243089 65.6901379,76.1669174 C65.7780548,76.1095259 65.8692895,76.0627065 65.9621829,76.0249489 C66.1131347,75.9615162 66.250816,75.9781295 66.3835209,76.0762992 C66.5112494,76.1729586 66.5659902,76.3088859 66.5394492,76.4840811 C66.514567,76.5460035 66.4913437,76.6079259 66.4697791,76.6683381 C66.4515322,76.7317708 66.4283088,76.7936932 66.4017679,76.8556157 C66.3884974,76.9175381 66.3835209,76.9734193 66.3835209,77.0232593 C66.3851797,77.0730993 66.3702504,77.1486145 66.3470271,77.2467842 C66.5626725,77.1576763 66.7584123,77.0882023 66.9342463,77.0353417 C67.1515505,76.971909 67.3638784,76.9205587 67.5762062,76.8797805 C67.7852164,76.8420229 68.0074971,76.8284302 68.2380719,76.837492 C68.8933023,76.8676981 69.4307571,77.0730993 69.8587304,77.4536957 C70.2833861,77.8327818 70.5355254,78.337223 70.6101719,78.97004 C70.6433481,79.3400643 70.6450069,79.7085783 70.6151483,80.0740716 C70.5836309,80.439565 70.5172785,80.803548 70.4127733,81.1630002 C70.3215387,81.4484475 70.2253277,81.7384257 70.125799,82.0299142 C70.029588,82.322913 69.9068359,82.5992985 69.7592017,82.8605809 C69.5618032,83.2593009 69.3428401,83.6429179 69.1006537,84.0114319 C68.8601261,84.3784356 68.6212572,84.7484598 68.3807296,85.123015 C68.2596364,85.322375 68.0920965,85.5036114 67.876451,85.6667241 C67.5529828,85.9174344 67.199656,85.9582126 66.8181295,85.7890587 C66.6389779,85.7044817 66.5129082,85.5942296 66.4366029,85.4583023 C66.3586388,85.3238853 66.3121921,85.1622829 66.2972628,84.9765156 C66.277357,84.5188937 66.3520035,84.0778852 66.5245199,83.6550004 C66.6721541,83.2940379 66.8247647,82.9345858 66.9823518,82.5736233 C67.13828,82.2126609 67.2991847,81.8516984 67.4584306,81.4892257 C67.551324,81.2792935 67.6475351,81.0648305 67.7470637,80.8473468 C67.8465924,80.6298632 67.9361682,80.4154001 68.0124735,80.2024474 C68.0920965,79.991005 68.1551313,79.7840934 68.1999192,79.5786922 C68.2463659,79.373291 68.2380719,79.154297 68.1816723,78.9186897" id="Fill-19" fill="#8A97A8"></path>
                </g>
            </g>
        </g>
    </g>
</svg>