<svg xmlns="http://www.w3.org/2000/svg" xmlns:xlink="http://www.w3.org/1999/xlink" width="619" height="526" xmlns:v="https://vecta.io/nano"><style><![CDATA[.B{fill:#8a97a8}]]></style><defs><path id="A" d="M0 0h13v17H0z"/><path id="B" d="M0 0h113v123H0z"/><path id="C" d="M0 0h5v12H0z"/><path id="D" d="M0 0h164v134H0z"/><path id="E" d="M431.918 84.224c-1.581 3.169-.691 6.394-.451 9.609 1.332-2.549 1.32-5.764 2.921-7.903.249-.368.783-.596 1.068-.537.993 2.184 1.103 5.148 1.611 7.944l-5.6.496c1.846.678 4.587 1.732 7.338 2.166.678-.018 1.212-.599 1.195-1.295-.197-3.613.459-8.129-1.873-11.426-1.564-2.341-5.231-1.133-6.208.946"/></defs><g fill="none" fill-rule="evenodd"><path d="M508.875 443.464c8.172-4.248 15.913-10.233 23.979-14.576 4.807 1.013 9.412 5.015 13.989 7.736 2.876 1.899 5.708 3.873 8.536 5.855-15.481.239-30.952.754-46.405 1.896l-.098-.91m-.798 5.638c-5.241.433-9.72 3.757-13.984 6.69 1.075-6.669 1.32-13.374.621-20.144 2.194 1.049 8.417 2.412 11.363 2.633 3.807.163 7.344-.423 10.99-1.187l-8.21 6.204-.081-.732c-.035.287-.058.573-.091.86l-.672.498c.22-.111.434-.236.654-.35l-.088.825-.586.04.578.028-.495 4.635m-.732 10.764c-3.681-.661-7.324-1.147-10.899-1.655 3.996-2.985 7.316-6.358 11.606-8.772a236.67 236.67 0 0 0-.707 10.427m-.013.249c-.523 11.169-.323 22.352.338 33.543-4.612-.433-9.217-.626-13.817-.651.505-10.731.22-21.472-1.649-32.075 5.085.576 10.167.428 15.127-.817m-26.486 37.67c1.005-21.804 1.568-43.618 1.78-65.445 2.593 2.002 5.807 3.106 8.993 3.943.093 6.72.283 13.55 1.447 20.212a50.01 50.01 0 0 1-1.997 1.28c-1.371.702-.98 2.945.583 3.108.043.008.086.008.126.013-.997 10.814-1.189 21.673-1.078 32.52-3.252 1.529-6.37 3.835-9.854 4.368m-19.058-1.68l.586-63.408c5.342.086 11.886.199 17.2-.073.045 21.721.414 43.445 1.232 65.163-.444.068-.889.131-1.343.133-5.86-1.127-11.921-1.157-17.675-1.816m11.459-103.93c-.316 4.979-.326 9.944-.581 14.82-.603 7.482-.204 15.213 1.078 22.629l-8.367-.151c3.166-12.303 5.057-24.912 7.869-37.298m17.276 40.95c-2.656-.377-5.307-.845-7.884-1.647l.008-.553a1.58 1.58 0 0 0-1.689-1.459c-1.957.116-4.262.156-6.67.156 1.623-14.609 2.585-29.371.555-43.953l.134-.493c5.554 10.784 6.857 23.879 11.179 35.304 1.591 4.19 3.234 8.322 4.368 12.645m79.815 26.801c3.204.083 6.41-.003 9.611-.143-1.691 10.769-1.745 21.643-1.214 32.512-5.754.003-11.515.229-17.286.802.714-11.277.939-22.516.386-33.76 2.825.347 5.663.526 8.503.588m10.025-.168c.568-.043 1.106-.36 1.386-.9.427-.827.101-1.846-.73-2.271-6.546-3.41-13.269-5.91-19.879-9.217 3.6 4.107 8.293 6.959 13.09 9.511-4.163.415-8.296 1.031-12.419 1.989a223.43 223.43 0 0 0-1.05-13.133c1.459-.106 2.1-2.17.82-3.025-8.743-5.998-17.013-12.527-27.028-16.4-2.931-.918-5.562 2.12-7.867 3.513-2.797 2.019-5.668 4.225-8.541 6.438-5.779-1.753-12.348-1.096-18.276-1.811-2.78-.096-4.428-.023-5.261.158-.157-.556-.626-1.011-1.235-1.081l-2.777-.395c-.406-4.489-1.755-8.83-2.802-13.17-4.219-13.432-3.575-29.701-12.941-40.907a1.7 1.7 0 0 0-2.08 1.2c-4.602 16.058-5.86 32.663-7.811 49.204l-4.216-.136c-.944-.028-1.729.727-1.734 1.667l.167 33.058c-.008 9.627.316 23.268.51 33.035a1.02 1.02 0 0 0 .934.988c3.704.455 7.884.262 11.578.455 2.535-.04 4.703.337 7.23.47 4.499-.312 7.634-3.254 11.27-5.377l.005 1.074c.058.817.77 1.431 1.591 1.373 5.175-.37 10.346-.951 15.501-1.826.139.355.442.624.841.588 3.042-.262 6.087-.528 9.129-.956-2.704-.382-5.408-.631-8.112-.865 1.166-16.188 1.189-32.372-.672-48.522 17.129 1.029 34.264 1.303 51.411 1.27-1.881 15.391-2.027 30.893-1.262 46.357-3.411.096-6.824.257-10.242.553.114-12.245 1.416-33.951-9.407-40.867-6.425-2.15-15.193-1.511-18.94 4.866-4.994 12.147-2.961 25.066-2.444 37.65.003.302.237.561.55.571l9.561.206.058.297c.083.425.477.727.919.687 2.469-.221 4.792-.644 6.688-.961-2.153-.269-3.999-.601-5.718-.835.038-4.303-.879-8.503.437-12.408.47-1.086 1.139-1.733 1.896-1.763.74-.038 1.527.415 1.851 1.401.773 4.233.689 9.209 1.535 13.606.891-4.886 1.888-9.28 1.391-14.357-1.194-5.402-8.288-5.017-9.826-.148-1.674 4.808-.114 9.808.747 14.37l-8.879-1.202c.543-11.629-.49-24.711 4.032-35.382 2.517-4.793 10.156-4.854 14.683-3.561 4.774 2.96 5.85 9.637 7.069 14.984 1.51 7.786 1.967 15.824 2.368 23.866l-11.585 1.431c4.125.035 8.238-.078 12.355-.136a.66.66 0 0 0 .646-.692l.013-1.615c3.8.684 7.604 1.217 11.416 1.652.573.04 1.068-.387 1.121-.956 6.294 1.059 12.603 1.708 18.922 2.087.921.063 1.697-.714 1.646-1.632-.086-11.362-.48-22.752-1.633-34.072m-108.626-18.71c5.768.047 4.566 11.673-1.134 10.396-5.633-.166-6.455-10.155-.089-10.241.005 0 1.218-.156 1.223-.156-9.292-.893-10.737 12.885-1.458 13.871 4.019.734 7.254-3.317 6.649-7.145-.291-2.896-1.839-6.971-5.191-6.727m15.705 65.478c-.022-.226-.08-.464-.171-.712l-.359 1.438-.39 1.44a1.15 1.15 0 0 0-.078.308 1.51 1.51 0 0 1-.078.31l.317-.415.324-.413c.363-.551.51-1.202.434-1.955m1.795 9.517c.229-.571.127-1.028-.312-1.363a5.17 5.17 0 0 0-1.471-.735c-.5-.153-1.041-.136-1.624.054-.237.095-.444.151-.617.177l-.554 2.962-.49 2.998c1.727-.682 3.266-1.807 4.617-3.37a3 3 0 0 0 .451-.723m1.966-4.638c.59.313 1.085.707 1.49 1.179a5.35 5.35 0 0 1 .946 1.596c.224.589.344 1.215.359 1.873a5.91 5.91 0 0 1-.288 1.989 9.11 9.11 0 0 1-1.468 2.614c-.429.507-.876.984-1.349 1.435l-1.451 1.263c-2.132 1.576-4.5 2.252-7.102 2.032-.556.597-1.207.766-1.951.5-.715-.287-1.146-.864-1.285-1.727a2.28 2.28 0 0 1-.02-.461l.012-.461H479l.21-1.35.246-1.356 1.8-6.737 2.227-6.606.778-1.889.873-1.819c.105-.228.237-.436.4-.62l.498-.551c.344-.325.712-.384 1.102-.185a1.36 1.36 0 0 1 .495.507c.673.174 1.273.538 1.802 1.089s.834 1.215.929 1.989c.073.774.063 1.514-.027 2.222s-.346 1.394-.773 2.06a2.88 2.88 0 0 0-.144.256l-.173.325a1.61 1.61 0 0 0 .322.167l.327.136.656.249a5.81 5.81 0 0 1 .654.282" class="B"/><g transform="translate(494 509)"><mask id="F" fill="#fff"><use xlink:href="#A"/></mask><path d="M8.645 1.506a15.49 15.49 0 0 1 1.605.54 5.48 5.48 0 0 0 1.666.37.86.86 0 0 1 .667.279c.171.19.29.408.362.656.143.517.01.957-.395 1.32-.201.208-.466.39-.81.55-.334.162-.69.256-1.065.284s-.751-.025-1.141-.157a2.3 2.3 0 0 1-1.024-.732c-.14-.132-.27-.286-.397-.451l-.395-.519a19.11 19.11 0 0 0-1.075 2.763l-.698 2.796c-.153.676-.26 1.355-.318 2.031l-.148 2.062-.074.864c-.031.281-.092.555-.178.828-.178.474-.433.884-.767 1.226-.359.339-.754.575-1.184.704-.425.129-.889.106-1.391-.068-.958-.329-1.564-.988-1.826-1.973-.092-.562-.079-1.127.053-1.692a40.43 40.43 0 0 1 1.752-5.643c.713-1.821 1.656-3.549 2.812-5.182l.639-.818.67-.785c.245-.251.504-.443.774-.583.339-.182.667-.223.986-.111.313.109.558.344.721.702.046.111.074.228.089.355.01.122.038.251.089.388" mask="url(#F)" class="B"/></g><g class="B"><path d="M509.772 521.291l.311-.523.311-.523 1.751-3.422 1.786-3.424.569-1.059.633-1.062a2.54 2.54 0 0 1 .708-.681c.273-.176.596-.277.974-.303.638-.031 1.178.163 1.612.585s.621.956.561 1.598a3.26 3.26 0 0 1-.092.484l-.127.521-.835 2.533-.867 2.531a18.9 18.9 0 0 1-1.071 2.362l-1.364 2.261a13.52 13.52 0 0 1-.837 1.065 5.39 5.39 0 0 1-.999.891c-.44.329-.914.565-1.419.707a4.24 4.24 0 0 1-1.508.155c-.499-.039-.984-.166-1.463-.381a3.77 3.77 0 0 1-1.25-.901c-.356-.388-.621-.798-.792-1.233a5.32 5.32 0 0 1-.33-1.381 11.72 11.72 0 0 1 .01-1.966 12.28 12.28 0 0 1 .348-1.94 9.54 9.54 0 0 1 .236-.953l.308-.953a28.35 28.35 0 0 1 2.594-5.315c.129-.231.283-.464.455-.697.219-.256.462-.329.728-.215.335.111.477.316.437.616a2.78 2.78 0 0 1-.089.795l-.432 1.748-.425 1.751c-.425 1.616-.663 3.209-.713 4.774l.01.762c.002.251.089.518.271.793m18.812-5.849l.654.515a4.58 4.58 0 0 1 .585.578c.695.751 1.086 1.546 1.16 2.38.08.834-.139 1.675-.654 2.526-.672 1.068-1.599 1.892-2.777 2.468-1.229.619-2.477.975-3.755 1.066a11 11 0 0 1-3.868-.432c-.413-.105-.772-.295-1.073-.575a2.19 2.19 0 0 1-.657-.822c-.144-.315-.208-.636-.2-.973a2.2 2.2 0 0 1 .249-.963c.151-.305.39-.575.708-.819a2.49 2.49 0 0 1 .593-.378 7.62 7.62 0 0 1 .698-.285l1.496-.439 1.54-.439.698-.202.698-.237c.136-.044.216-.078.239-.1.044-.173.018-.285-.072-.339l-.241-.144-.552-.385-.552-.385a6.25 6.25 0 0 1-1.003-.868c-.395-.429-.672-.885-.839-1.37-.159-.488-.208-.966-.136-1.431a2.89 2.89 0 0 1 .567-1.307c.305-.405.716-.761 1.237-1.07 1.881-1.017 3.865-1.266 5.949-.744.364.105.708.261 1.032.476.185.151.3.339.352.566.044.227-.021.461-.2.7a.82.82 0 0 1-.649.334 1.01 1.01 0 0 1-.341-.061 3.81 3.81 0 0 0-1.522-.066 7.58 7.58 0 0 0-1.45.388c-.388.137-.654.263-.801.383s-.334.324-.559.61a8.04 8.04 0 0 1 .706.332l.706.334 1.032.575 1.003.607m14-.004l.654.515a4.58 4.58 0 0 1 .585.578c.695.751 1.085 1.546 1.16 2.378.08.836-.139 1.678-.654 2.529-.672 1.068-1.598 1.892-2.776 2.468-1.229.619-2.476.975-3.753 1.063s-2.565-.051-3.871-.429a2.43 2.43 0 0 1-1.07-.576 2.17 2.17 0 0 1-.657-.822 2.22 2.22 0 0 1-.203-.973 2.23 2.23 0 0 1 .249-.963c.157-.307.393-.576.711-.822a2.58 2.58 0 0 1 .593-.376l.698-.285 1.498-.439 1.539-.439.698-.202.698-.237c.136-.044.215-.078.239-.1.044-.176.018-.285-.072-.339l-.241-.144-.552-.385-.552-.385a6.25 6.25 0 0 1-1.003-.868c-.395-.429-.672-.888-.839-1.371-.162-.488-.21-.966-.136-1.431s.262-.902.567-1.307.716-.761 1.237-1.071a8 8 0 0 1 5.947-.744 3.7 3.7 0 0 1 1.031.476.99.99 0 0 1 .351.566c.044.227-.021.461-.2.7a.82.82 0 0 1-.649.334 1.01 1.01 0 0 1-.341-.061 3.8 3.8 0 0 0-1.521-.066 7.61 7.61 0 0 0-1.449.388c-.387.137-.654.263-.8.383s-.334.324-.559.61c.257.105.487.217.706.332a8.03 8.03 0 0 0 .706.334l1.031.576 1.003.607m10.719 4.198c.731-1.144 1.254-2.317 1.568-3.52a12.31 12.31 0 0 0 .381-3.704c-.025-.108-.041-.216-.058-.326-.01-.108-.03-.218-.053-.326-.071-.26-.244-.488-.513-.682-.36.071-.655.216-.876.434a2.99 2.99 0 0 0-.287.25l-.251.248c-.845 1.078-1.51 2.182-1.992 3.311s-.764 2.315-.837 3.562l-.028.687a2.5 2.5 0 0 0 .112.685 5.04 5.04 0 0 0 .277.704c.114.248.33.393.65.432.18.02.34-.029.485-.152s.274-.236.388-.349c.358-.329.7-.746 1.035-1.254m5.4-7.194c.33 1.436.381 2.845.152 4.222-.236 1.377-.728 2.756-1.477 4.141-.289.506-.675.962-1.152 1.372l-1.495 1.178c-.155.11-.391.216-.708.317a6.32 6.32 0 0 1-1.112.243 9.13 9.13 0 0 1-1.373.079c-.487-.007-.964-.071-1.439-.196a6 6 0 0 1-1.274-.447 6.73 6.73 0 0 1-1.038-.609 4.44 4.44 0 0 1-.736-.648c-.195-.216-.33-.39-.396-.518a8.83 8.83 0 0 1-.541-1.485c-.132-.491-.155-1.009-.071-1.554a11.91 11.91 0 0 1 1.292-4.04c.675-1.271 1.614-2.474 2.817-3.598a9.03 9.03 0 0 1 1.883-1.33c.452-.248.914-.41 1.398-.491s.987-.101 1.507-.066h.066a3.23 3.23 0 0 0 .34.047 1.2 1.2 0 0 1 .338.079 5.24 5.24 0 0 1 1.294.557c.365.228.67.525.924.891.388.606.657 1.227.799 1.858m12.189-.126c-.386-.243-.765-.339-1.128-.291a9.76 9.76 0 0 0-1.09.215l-.461.139-.458.139c-.519.164-.847.562-.975 1.194l-.466 2.636-.499 2.639-.624 2.335a7.14 7.14 0 0 1-1.103 2.138l-.486.595c-.171.192-.358.369-.558.529a1.74 1.74 0 0 1-1.909.223c-.619-.309-.988-.842-1.113-1.606-.02-.2-.031-.41-.023-.622a3.21 3.21 0 0 1 .082-.595l.391-1.538a16.66 16.66 0 0 1 .461-1.508l1.177-3.016 1.282-3.016.985-2.004 1.049-1.968a3.51 3.51 0 0 1 .404-.678l.504-.615a3.25 3.25 0 0 1 .391-.324 2.61 2.61 0 0 1 .455-.256.62.62 0 0 1 .701.091c.215.18.307.422.264.741l-.115.336a2.9 2.9 0 0 1-.118.339 1.76 1.76 0 0 0-.031.304 1.67 1.67 0 0 1-.059.407 9.64 9.64 0 0 1 .98-.385l1.075-.281a4.54 4.54 0 0 1 1.108-.078c1.095.056 1.996.428 2.71 1.118.709.688 1.131 1.606 1.256 2.755.056.67.059 1.341.008 2.004a10.92 10.92 0 0 1-.338 1.978l-.478 1.574a8.95 8.95 0 0 1-.614 1.51c-.33.724-.699 1.419-1.103 2.087l-1.203 2.021a3.5 3.5 0 0 1-.842.987c-.54.455-1.134.529-1.771.223-.299-.154-.509-.354-.64-.6s-.207-.539-.23-.875a6.06 6.06 0 0 1 .379-2.401l.765-1.966.796-1.966.484-1.169.445-1.169c.133-.385.238-.761.312-1.133s.064-.772-.031-1.199M423.499 114.821l.003-.642c-.006.009-.006.279-.003.642"/><path d="M494.94 114.224c-.204.888-.474 1.749-.879 2.553.522-.741.744-1.629.879-2.553m-.94 1.645l-5 1.263 5-1.263"/></g><g transform="translate(384)"><mask id="G" fill="#fff"><use xlink:href="#B"/></mask><path d="M103.237 43.284c-4.814-1.102-16.742-2.171-23.65.57.793-.817 1.622-1.609 2.44-2.416 4.491-3.924 7.611-9.63 9.639-15.269.605-1.533 1.13-3.137 1.687-4.635l.191.504 1.554 4.31c2.289 6.841 7.018 12.291 11.667 17.674-1.042-.351-2.179-.628-3.527-.739m-38.98 28.248c.065-1.745.083-3.498.115-5.248 3.065 1.609 6.293 1.22 9.523-.159l.003 6.39c-3.241-.419-6.448-.739-9.641-.983m-26.145-.358a10.95 10.95 0 0 0-2.234-3.223l-.567-1.528c4.799 2.027 10.076 1.949 15.021.303l.264 5.757c-3.923.29-7.817.847-11.71 1.475a18.27 18.27 0 0 0-.773-2.784M15.95 64.96c-1.072.126-2.114.451-3.09.915 5.279-8.662 10.103-17.798 12.523-27.569 1.802 9.925 4.636 19.692 9.25 28.565-4.993-3.704-12.887-3.228-18.683-1.911M2.789 114.876c1.348-15.226.324-30.953.457-46.066 1.135-3.651 6.052-4.68 9.619-5.235l-1.328 3.064c-2.488 1.657-4.302 4.317-4.503 7.242-.628 13.864.776 27.758 1.511 41.6-1.918-.247-3.838-.421-5.756-.605M17.486 41.99c.489-1.679.916-3.374 1.313-5.069l.57 1.725c.484 1.352.931 2.744 1.496 4.085-2.003 7.126-4.985 13.92-7.95 20.726-2.477-.275-5.321-.184-7.744.784 5.337-6.619 10.339-13.904 12.315-22.251m91.351 2.978c-1.077-1.884-2.224-3.73-3.386-5.563 2.161-7.691 2.108-15.594-.166-23.29-2.204 7.25-2.48 14.472-.816 21.734-2.505-3.989-4.88-8.039-6.195-12.656l-1.453-4.312c-.314-.825-.876-2.61-1.28-3.392-.264-.754-.906-1.465-1.624-1.775 1.8-5.179 1.581-10.53-.59-15.715-2.211 5.192-2.405 10.425-.645 15.657-.326.121-.635.353-.891.767-2.859 5.754-3.632 11.156-6.376 16.698-1.674 4.176-5.5 7.504-7.608 11.59-1.539.913-2.668 2.106-3.14 3.661-.472 5.48-.695 11.075-.766 16.731-3.02-1.891-6.275-1.715-9.493-.429l.068-3.036c-.003-.318-.131-.638-.382-.867-1.772-1.624-3.73-3.298-5.158-5.048-.166-.204-.379-.345-.605-.454 1.674-4.062 1.406-8.367-.71-12.409-2.181 4.133-2.407 8.236-.748 12.402-.063.028-.131.035-.191.071-1.762 1.087-3.479 2.285-4.983 3.795-.512.567-1.478 1.536-1.589 2.786l.151 3.288c-4.947-1.503-10.151-1.019-15.123.754-4.566-13.294-6.75-27.38-8.12-41.322-.033-.353-.158-.623-.319-.857.929-3.924.512-7.873-1.235-11.829-1.837 3.815-2.36 7.787-1.566 11.713a1.67 1.67 0 0 0-.414 1.226c.201 3.719-.429 7.825-1.16 11.748a67.57 67.57 0 0 1-.944 4.267l-.291-2.643-.482-3.351c-.364-1.173-.331-3.16-1.491-4.067 1.682-3.364 1.398-6.945-.803-10.215-2.119 3.402-2.307 6.771-.582 10.135a1.43 1.43 0 0 0-.623.89c-2.108 6.07-3.597 12.52-6.165 18.31-2.287 5.011-5.156 9.935-7.463 15.185-.786.522-1.504 1.152-2.081 1.964C.335 69.378.322 71.763.189 74.209-.07 82.964-.08 91.785.264 100.533a263.6 263.6 0 0 0 .949 15.185c.035.383.374.666.756.628l6.584-.683.243 5.255c1.709 1.949 5.879 1.768 8.07 2.05 7.626.242 15.186-.93 22.669-2.169.093-.003 0-4.605-.01-6.155l-.04 6.113c-9.167 1.077-20.184 3.021-29.122-.527.392-15.228-.168-30.641.131-45.786.417-5.394 5.53-6.327 9.872-7.111 7.031-1.286 16.05-.348 17.086 8.102 1.639 12.752 1.478 25.819 2.076 38.667-.183-10.359-.402-20.708-.113-31.077.033-2.928.073-5.946-.487-8.869 4.332.414 8.682.535 13.015.794.73.048 1.298-.58 1.268-1.296.208-3.745.286-7.517.311-11.307.891-1.243 2.412-2.287 3.835-3.23a40.69 40.69 0 0 0 3.903 3.558 266.94 266.94 0 0 0 .673 10.157 1.02 1.02 0 0 0 1.079.933 186.87 186.87 0 0 0 10.886-1.021c.126 14.716.999 29.66 1.074 43.905 2.026 2.043 6.27 2.199 8.959 2.625 7.171.635 14.348-.222 21.396-1.589-9.993 1.821-21.637 2.262-29.411-1.036.64-16.245.806-51.697 2.176-67.394.572-1.8 3.203-2.249 5.188-2.774 6.89-1.563 13.984-1.173 20.917-.071 8.785.525 5.874 10.17 6.549 16.141l.447 10.851c.447 12.651 1.019 25.333.274 37.984-.143.983-.153 2.068-.304 3.092.625-2.708.371-5.77.665-8.508l.321-10.858.359-21.727.226-16.219c.811-5.522-.171-9.903-3.898-12.197" mask="url(#G)" class="B"/></g><g class="B"><path d="M480.634 53.215c-1.975-2.333-6.235-.976-7.378 1.293-2.042 3.701-.995 7.629-.936 11.456 1.542-3.19 1.42-7.104 3.475-9.834 3.395-3.547 4.188 5.194 4.963 9.202-2.508.139-5.204.451-8.438.632 2.817.656 6.618 1.667 10.433 2.036.746-.059 1.303-.684 1.241-1.397-.21-2.368-.264-4.937-.783-7.525-.417-2.016-.925-4.203-2.578-5.863m-3.541 22.787c-6.7 1.387-4.912 9.191-4.777 13.854 1.038-2.22 1.377-4.656 2.065-6.787.611-2.185 1.775-3.941 3.09-3.823.422.017.66.091 1.159.948 1.242 2.556 1.537 5.382 2.174 8.28-2.508.356-5.191.931-8.488 1.382 2.795.4 6.602 1.056 10.434 1.144a1.34 1.34 0 0 0 1.221-1.621c-.556-4.346-.065-13.527-6.878-13.378m-71.071.057c-6.868 1.79-4.706 10.398-4.672 15.58 1.724-3.19 1.517-11.357 5.045-12.116.255-.054.181.059.37.127 1.778 3.252 1.535 7.045 2.26 10.83-2.27.31-4.713.798-7.674 1.16 2.55.447 5.978 1.152 9.465 1.361.816-.039 1.303-.832 1.163-1.609-.385-4.534.548-10.367-2.777-14.302-.791-.736-2.13-1.271-3.178-1.031"/><use xlink:href="#E"/><use xlink:href="#E" x="11"/><path d="M423 114.347c11.934-2.868 23.981-3.119 36-.692-11.934 2.887-23.978 3.097-36 .692m-29.011 23.421c.687.416 1.023 1.17 1.01 2.253-.039.542-.157 1.017-.358 1.418s-.456.738-.77 1.001c-.201.169-.41.307-.625.414l-.657.309-.998.399-.998.365a2.2 2.2 0 0 1-.27.128l-.307.128-.047.513-.044.48a12.05 12.05 0 0 1-.316 1.913c-.157.593-.422 1.104-.802 1.533-.265.567-.603 1.024-1.003 1.372s-.809.654-1.217.915a3.2 3.2 0 0 1-.505.294 4.32 4.32 0 0 0-.473.25c-1.239.557-2.426.69-3.564.393-.635-.158-1.158-.457-1.572-.902-.204-.184-.373-.393-.498-.631l-.365-.736-.105-.25c-.233-.585-.383-1.198-.446-1.832a14.95 14.95 0 0 1-.037-2.125c.012-.756.196-1.752.544-2.996s.804-2.552 1.371-3.926 1.199-2.728 1.908-4.057 1.437-2.455 2.175-3.385l.787-.966a14.99 14.99 0 0 1 1.008-1.073 9.83 9.83 0 0 1 1.194-.986 5.87 5.87 0 0 1 1.351-.705c.27-.12.589-.202.949-.24s.547-.049.547-.023c1.153-.015 2.05.307 2.693.958.321.353.535.728.638 1.142.11.411.14.771.098 1.078-.064.473-.287.861-.67 1.16a1.7 1.7 0 0 1-1.251.383 1.58 1.58 0 0 1-.856-.399 1.74 1.74 0 0 1-.515-.789l-.375.008c-.226.095-.454.248-.689.447a8.83 8.83 0 0 0-.709.682 8.04 8.04 0 0 0-.652.784l-.505.769c-.974 1.803-1.756 3.587-2.337 5.352s-.949 3.51-1.116 5.234a2.19 2.19 0 0 1-.029.37.55.55 0 0 0 .037.335 1.06 1.06 0 0 0 .348.475c.155.128.321.209.493.24s.329.015.473-.056.255-.215.319-.429l-.047-1.239.005-.953c.007-.307.056-.628.142-.96.24-.968.655-1.717 1.236-2.24l.724-.595c.238-.176.478-.33.724-.447a6.44 6.44 0 0 1 1.984-.731 7.99 7.99 0 0 1 1.982-.13 2.7 2.7 0 0 1 .988.307m8.656-1.175c.544.158 1.079.349 1.604.571a5.16 5.16 0 0 0 1.668.39.84.84 0 0 1 .667.297 1.77 1.77 0 0 1 .36.695 1.34 1.34 0 0 1-.395 1.4c-.199.217-.466.411-.809.581a2.78 2.78 0 0 1-1.064.3 2.73 2.73 0 0 1-1.14-.168c-.385-.139-.728-.395-1.025-.772a3.8 3.8 0 0 1-.397-.483l-.395-.547a21.18 21.18 0 0 0-1.077 2.929l-.696 2.96a17.15 17.15 0 0 0-.319 2.149l-.147 2.185-.076.914c-.029.297-.091.591-.174.878-.179.501-.434.937-.768 1.296-.36.364-.755.609-1.184.749-.427.134-.89.108-1.39-.075-.959-.346-1.565-1.046-1.827-2.089a4.81 4.81 0 0 1 .054-1.792 44.16 44.16 0 0 1 1.751-5.973 26.27 26.27 0 0 1 2.813-5.49l.64-.863.669-.834a2.97 2.97 0 0 1 .775-.615c.338-.196.665-.235.983-.119s.559.364.721.741a1.6 1.6 0 0 1 .091.374 1.59 1.59 0 0 0 .088.413m12.441 4.491a1.28 1.28 0 0 0 .268-.187l.336-.292c-.136-.063-.258-.131-.358-.2a.58.58 0 0 0-.319-.097 3.83 3.83 0 0 0-1.502.051 5.35 5.35 0 0 0-1.512.592c-.482.275-.92.604-1.32.993s-.716.803-.93 1.256c-.024.046-.029.09-.017.134s.007.093-.012.139l1.541-.609 1.543-.64 1.142-.572 1.139-.567m4.292-2.174c.458.65.657 1.322.616 2.021-.051.696-.343 1.339-.874 1.931a4.82 4.82 0 0 1-.869.701 6.41 6.41 0 0 1-.971.497 8.94 8.94 0 0 1-1.563.541c-.526.127-1.064.222-1.597.273l-2.678.382-.93.129.209.185.2.18.307.253.309.282c0-.024.01-.034.034-.034.587.195 1.164.304 1.738.336s1.152-.066 1.733-.275l.319-.139c.102-.046.209-.08.324-.105.307-.09.606-.11.889-.061a1.6 1.6 0 0 1 .733.346c.202.18.355.404.46.67.105.273.136.56.093.877-.085.565-.287 1.035-.611 1.407a3.64 3.64 0 0 1-1.217.908l-.455.19c-.144.058-.295.112-.453.158-1.229.392-2.454.521-3.671.377l-.964-.158a5.12 5.12 0 0 1-.93-.297 3.8 3.8 0 0 1-1.188-.796 7.22 7.22 0 0 1-1.539-1.753c-.409-.657-.665-1.41-.764-2.267-.122-.964-.078-1.877.136-2.734s.645-1.646 1.29-2.374c1.042-1.178 2.206-2.077 3.494-2.688s2.705-.901 4.258-.874a5.74 5.74 0 0 1 2.364.482c.75.353 1.337.828 1.77 1.429m11.205 2.893l.655.548a4.6 4.6 0 0 1 .586.616c.697.801 1.085 1.648 1.159 2.534.079.892-.138 1.791-.655 2.7a6.8 6.8 0 0 1-2.778 2.632c-1.228.661-2.471 1.039-3.749 1.134s-2.568-.055-3.875-.458c-.413-.113-.769-.316-1.07-.614a2.35 2.35 0 0 1-.657-.877 2.46 2.46 0 0 1-.2-1.037 2.53 2.53 0 0 1 .247-1.029c.153-.326.393-.616.709-.874a2.66 2.66 0 0 1 .593-.406 7.38 7.38 0 0 1 .699-.303l1.5-.468 1.537-.468.699-.215.699-.25c.136-.05.215-.083.237-.108.044-.188.017-.306-.072-.363l-.242-.153-.551-.411-.554-.411c-.39-.298-.724-.604-1.001-.927-.395-.456-.672-.942-.838-1.46a3.36 3.36 0 0 1-.138-1.528 3.26 3.26 0 0 1 .566-1.392c.302-.43.717-.811 1.238-1.145 1.883-1.084 3.862-1.35 5.946-.794.366.115.709.28 1.033.508a1.08 1.08 0 0 1 .351.604c.044.243-.02.491-.2.746-.178.235-.395.353-.647.356-.114 0-.225-.02-.341-.065a3.57 3.57 0 0 0-1.525-.068c-.487.087-.976.223-1.448.413-.39.145-.655.28-.801.408s-.331.346-.556.649a7.39 7.39 0 0 1 .702.356 7.75 7.75 0 0 0 .704.356l1.033.614 1.003.649m14.003-.002l.655.548c.208.183.405.391.585.619.697.801 1.084 1.648 1.159 2.537s-.138 1.786-.655 2.695a6.79 6.79 0 0 1-2.777 2.632c-1.228.664-2.475 1.039-3.752 1.137s-2.567-.058-3.871-.461a2.35 2.35 0 0 1-1.07-.614c-.301-.248-.516-.538-.657-.874s-.21-.681-.203-1.039a2.47 2.47 0 0 1 .249-1.027 2.53 2.53 0 0 1 .709-.877 2.48 2.48 0 0 1 .593-.401 6.79 6.79 0 0 1 .699-.306l1.499-.468 1.536-.468.699-.218.697-.248c.138-.048.215-.083.24-.108.044-.185.017-.308-.072-.363l-.242-.155-.551-.411-.553-.408a6.29 6.29 0 0 1-1-.924c-.395-.461-.672-.947-.84-1.465s-.21-1.027-.136-1.528.262-.962.566-1.392.716-.811 1.238-1.145c1.88-1.079 3.863-1.347 5.946-.789a3.57 3.57 0 0 1 1.033.506 1.07 1.07 0 0 1 .351.601c.044.245-.02.496-.2.751-.178.23-.395.351-.647.351-.114.005-.225-.015-.341-.06a3.57 3.57 0 0 0-1.524-.073 7.11 7.11 0 0 0-1.448.413c-.39.145-.655.281-.8.408s-.336.346-.561.649l.706.356a7.15 7.15 0 0 0 .704.356l1.033.616 1.003.646m11.721 4.548a13.43 13.43 0 0 0 1.566-3.754c.312-1.286.442-2.599.381-3.95l-.056-.348c-.01-.118-.029-.232-.054-.35-.071-.277-.242-.519-.513-.726-.359.076-.652.229-.877.461l-.286.267-.249.265c-.845 1.152-1.51 2.327-1.991 3.534s-.765 2.468-.841 3.796l-.027.734c.005.234.042.476.112.731a5.79 5.79 0 0 0 .276.751c.115.265.33.418.65.464.178.02.342-.035.486-.164s.274-.255.386-.373c.359-.35.701-.797 1.036-1.339m5.4-7.671a12.23 12.23 0 0 1 .151 4.5c-.235 1.47-.728 2.942-1.476 4.417a5.47 5.47 0 0 1-1.153 1.465l-1.493 1.258c-.156.118-.391.229-.709.338a6.18 6.18 0 0 1-1.112.257 8.86 8.86 0 0 1-1.371.086c-.484-.005-.965-.076-1.442-.212a5.53 5.53 0 0 1-1.273-.476c-.398-.202-.745-.421-1.038-.65a4.5 4.5 0 0 1-.736-.688c-.195-.229-.33-.416-.396-.557a9.38 9.38 0 0 1-.54-1.581c-.132-.522-.156-1.076-.071-1.656.188-1.515.616-2.952 1.29-4.313s1.615-2.634 2.82-3.834a9.05 9.05 0 0 1 1.879-1.419 4.18 4.18 0 0 1 1.4-.524 6.2 6.2 0 0 1 1.505-.071h.068a2.62 2.62 0 0 0 .34.048 1.25 1.25 0 0 1 .337.086c.501.156.929.353 1.295.597a3.17 3.17 0 0 1 .924.948c.389.648.657 1.308.799 1.984m12.191-.064c-.387-.255-.764-.357-1.128-.306a9.6 9.6 0 0 0-1.091.224l-.458.149-.458.149c-.52.175-.848.594-.976 1.26l-.466 2.779-.5 2.784-.621 2.466a7.61 7.61 0 0 1-1.106 2.257l-.485.627a4.33 4.33 0 0 1-.557.56 1.67 1.67 0 0 1-1.912.234c-.618-.327-.986-.892-1.111-1.697a4.79 4.79 0 0 1-.022-.656 3.48 3.48 0 0 1 .081-.627l.389-1.625.463-1.589 1.175-3.186 1.281-3.18.986-2.113 1.052-2.08a3.55 3.55 0 0 1 .404-.715l.503-.65a3.32 3.32 0 0 1 .392-.339c.148-.108.298-.201.456-.275a.6.6 0 0 1 .702.1c.214.188.306.447.261.782l-.116.352a3.43 3.43 0 0 1-.113.36 1.78 1.78 0 0 0-.032.321c.002.098-.02.239-.062.429a9.29 9.29 0 0 1 .983-.404 9.88 9.88 0 0 1 1.074-.298 4.34 4.34 0 0 1 1.109-.085c1.094.059 1.993.455 2.708 1.18s1.133 1.697 1.259 2.91a14.11 14.11 0 0 1 .005 2.116 12.06 12.06 0 0 1-.335 2.085l-.48 1.663a9.89 9.89 0 0 1-.613 1.594 22.1 22.1 0 0 1-1.101 2.201l-1.205 2.134a3.62 3.62 0 0 1-.843 1.041c-.54.483-1.131.56-1.771.234-.298-.162-.51-.373-.638-.63s-.207-.571-.232-.926a6.65 6.65 0 0 1 .382-2.533l.764-2.075.796-2.075.483-1.237.443-1.234c.133-.404.239-.805.313-1.193.079-.396.067-.818-.03-1.268m15.189 1.471a1.28 1.28 0 0 0 .268-.188l.336-.29a2.8 2.8 0 0 1-.358-.202c-.102-.063-.209-.097-.319-.097a3.83 3.83 0 0 0-1.502.051 5.5 5.5 0 0 0-1.512.592c-.482.275-.92.604-1.317.994s-.713.806-.93 1.257c-.022.046-.029.09-.017.134a.21.21 0 0 1-.012.139l1.539-.609 1.544-.641 1.142-.572 1.14-.567m4.293-2.17c.458.645.657 1.318.616 2.017-.051.697-.343 1.34-.874 1.931a4.78 4.78 0 0 1-.869.701c-.311.194-.636.363-.972.502-.514.226-1.037.409-1.563.536s-1.064.222-1.597.273l-2.678.382-.928.129.209.185a2.79 2.79 0 0 1 .202.185l.302.248.309.283c0-.022.01-.034.034-.034a6.36 6.36 0 0 0 1.739.336c.572.027 1.152-.066 1.734-.273l.319-.141a1.68 1.68 0 0 1 .324-.105c.307-.09.606-.11.889-.061a1.56 1.56 0 0 1 .733.351c.202.175.355.399.46.667s.136.563.093.874c-.085.565-.287 1.035-.611 1.408s-.728.68-1.217.908l-.455.19c-.144.058-.295.112-.453.158-1.23.392-2.454.521-3.672.378l-.959-.158a5.17 5.17 0 0 1-.93-.292c-.455-.2-.85-.465-1.191-.796a7.52 7.52 0 0 1-1.539-1.754c-.409-.662-.665-1.415-.765-2.27-.122-.967-.078-1.878.136-2.737.217-.852.645-1.646 1.291-2.375 1.042-1.179 2.208-2.077 3.492-2.684 1.286-.614 2.705-.906 4.259-.874.833-.01 1.619.151 2.364.477.75.353 1.337.831 1.77 1.435m13.99-1.98c.302.229.496.57.581 1.024s.047.903-.102 1.344a.85.85 0 0 0-.105.197c-.022.058-.055.121-.102.194l-3.146 5.955-3.325 5.781c-.359.582-.656 1.268-.876 2.055l-.631 2.413-.664 2.365c-.247.749-.574 1.379-.98 1.896-.137.189-.279.323-.432.408a4.54 4.54 0 0 1-.494.232 2.17 2.17 0 0 1-.778.202c-.264.01-.524-.108-.781-.358-.165-.164-.279-.366-.352-.61a3.75 3.75 0 0 1-.147-.782c-.08-.724-.037-1.485.112-2.289l.544-2.433.614-2.435c.195-.804.292-1.578.284-2.325l-.137-6.091a32.43 32.43 0 0 1 .352-5.993c.065-.471.222-.85.489-1.142s.539-.466.838-.517c.349-.073.669.015.97.27.304.25.504.648.604 1.18a16.3 16.3 0 0 1 .257 3.262l-.047 3.335.01 1.135-.02 1.102.626-1.071.629-1.074 1.849-2.988 1.956-2.849.511-.638a6.54 6.54 0 0 1 .516-.598c.476-.449.935-.502 1.377-.156m-119.911 27.459a2.62 2.62 0 0 0-.437.384c-.181.186-.315.416-.412.693s-.11.599-.039.975.3.782.686 1.208l.105.104v.035c.02.022.037.032.051.032s.027.012.049.035l1.145 1.22 1.494 1.597c.659.745 1.172 1.399 1.54 1.953s.63 1.02.796 1.381c.181.408.276.765.278 1.057.283 1.371.051 2.849-.696 4.434-.417.852-.942 1.577-1.567 2.178a13.27 13.27 0 0 1-2.409 1.98l-.034.035c-.024 0-.041.007-.051.02s-.027.017-.051.017a7.18 7.18 0 0 1-1.225.629 9.22 9.22 0 0 1-1.198.394.11.11 0 0 0-.066.017.17.17 0 0 1-.068.017h-.034c-.784.191-1.484.253-2.094.181s-1.118-.203-1.526-.379c-.474-.203-.896-.458-1.259-.777-.366-.406-.647-.852-.845-1.344a8.21 8.21 0 0 1-.434-1.384c-.09-.433-.149-.809-.151-1.129l-.007-.584a2.24 2.24 0 0 1 .266-.792c.107-.183.276-.356.498-.52s.549-.223.984-.181c.586.04.984.171 1.203.399a1.44 1.44 0 0 1 .395.817c.115.228.288.386.513.475.183.089.444.121.779.094s.764-.191 1.281-.495l.334-.228.334-.225c.537-.418.937-.889 1.203-1.418s.3-1.124.115-1.785c-.049-.23-.127-.446-.242-.649a5.52 5.52 0 0 0-.381-.582l-.561-.777-.569-.787-.93-1.448-.825-1.478c-.532-1.116-.693-2.176-.495-3.186.205-1.008.73-1.961 1.577-2.862.647-.673 1.374-1.213 2.182-1.619a12.8 12.8 0 0 1 2.626-.973c.022 0 .044-.007.066-.017s.044-.017.068-.02c.066 0 .115-.01.134-.035l.388-.059.354-.02c1.013-.035 1.818.223 2.409.762l.068.067c0 .025.054.139.154.342s.093.436-.039.688a.88.88 0 0 1-.2.344 1.46 1.46 0 0 1-.32.243c-.12.072-.271.097-.454.074-.203-.02-.371-.057-.495-.116l-.369-.146c-.124-.045-.273-.079-.442-.099s-.391.002-.657.074c-.361.097-.774.243-1.233.446s-.881.436-1.259.713m13.389 14.578l.954-3.194.951-3.192c-.206-.159-.297-.242-.273-.242-.75-.015-1.421.129-2.008.424s-1.096.715-1.536 1.245-.796 1.144-1.086 1.846a10.39 10.39 0 0 0-.622 2.212c-.103.793.152 1.257.762 1.389 1.003.268 1.957.109 2.859-.487h0zm4.137 1.495c-.047.093-.079.222-.101.384l-.032.28c.238.977.177 1.785-.192 2.414s-.836 1.083-1.401 1.346c-.179.096-.366.129-.56.096s-.379-.086-.563-.151a4.59 4.59 0 0 1-.583-.308l-.479-.275-.479-.308c-.138.048-.364.088-.683.129l-1.003.101-.983.045-.666.005c-.592-.013-1.099-.162-1.519-.434a3.31 3.31 0 0 1-1.032-1.055c-.263-.429-.46-.917-.578-1.464s-.16-1.088-.118-1.626c.057-1.048.226-2.03.511-2.942a19.43 19.43 0 0 1 1.595-3.585c.71-1.242 1.529-2.187 2.453-2.825s1.954-1.038 3.09-1.192c.229-.048.465-.078.715-.093a3.26 3.26 0 0 1 .779.043l1.603.192c.433.088.843.205 1.234.351s.651.361.789.641c.231.462.275.975.133 1.535l-.374 1.649-1.556 7.05zm7.243-16.037c.015-.674.248-1.246.699-1.719s1.015-.705 1.694-.712c.656-.01 1.215.229 1.691.712a2.31 2.31 0 0 1 .683 1.736 2.43 2.43 0 0 1-.716 1.714 2.22 2.22 0 0 1-1.711.682 2.22 2.22 0 0 1-1.673-.694 2.28 2.28 0 0 1-.666-1.719M407 181.926l.137-.662.134-.629.671-2.655.704-2.66c.225-.793.494-1.573.797-2.343l1.048-2.277a14.92 14.92 0 0 1 .828-1.369l.967-1.336.656-.669a2.1 2.1 0 0 1 .661-.355c.231-.073.456-.063.671.028.208.091.337.229.387.413.023.118.035.216.02.297l-.048.297-.716 3.613-.673 3.618-.468 2.373-.425 2.375-.17.858c-.068.292-.159.576-.271.856-.248.747-.764 1.379-1.559 1.9a2.68 2.68 0 0 1-.59.284c-.21.073-.446.111-.701.111-.395.028-.762-.04-1.089-.214s-.557-.403-.676-.705c-.068-.184-.124-.38-.159-.576l-.134-.574m18.897-11.306c-.387-.255-.769-.357-1.129-.306s-.727.129-1.092.224l-.458.149-.458.149c-.52.17-.848.594-.976 1.257l-.466 2.782-.503 2.785-.619 2.466c-.246.81-.614 1.561-1.107 2.258l-.486.627a4.92 4.92 0 0 1-.557.561c-.589.478-1.225.555-1.913.234-.619-.327-.988-.892-1.112-1.697a4.81 4.81 0 0 1-.022-.658 3.08 3.08 0 0 1 .081-.625l.389-1.625.463-1.589 1.176-3.186 1.282-3.186.986-2.109 1.052-2.08a3.45 3.45 0 0 1 .404-.72l.503-.645a2.98 2.98 0 0 1 .392-.345c.145-.105.296-.198.456-.27a.6.6 0 0 1 .7.1c.219.187.308.447.264.782l-.116.352-.113.36a1.58 1.58 0 0 0-.032.321c0 .098-.02.239-.064.427l.986-.401c.365-.123.72-.224 1.072-.298a4.37 4.37 0 0 1 1.112-.085c1.089.059 1.991.455 2.706 1.18s1.131 1.697 1.257 2.906c.054.715.054 1.419.007 2.119a12.04 12.04 0 0 1-.338 2.088l-.478 1.664a9.68 9.68 0 0 1-.616 1.594 23.19 23.19 0 0 1-1.097 2.201l-1.205 2.134c-.205.383-.483.73-.843 1.041a1.47 1.47 0 0 1-1.775.234c-.296-.162-.51-.373-.638-.635s-.205-.566-.229-.921c-.035-.882.091-1.725.382-2.533l.762-2.075.799-2.075.483-1.237.446-1.234c.131-.404.237-.805.308-1.196a3.1 3.1 0 0 0-.027-1.265m11.962 8.493l.845.025c.249-.005.503.005.749.023.112 0 .232-.005.356-.02.12-.01.242-.008.354.015.359.02.676.121.95.304a1.75 1.75 0 0 1 .615.689 1.89 1.89 0 0 1 .195.921 1.97 1.97 0 0 1-.31.996 3.19 3.19 0 0 1-1.711 1.379c-.83.287-1.662.468-2.495.533s-1.679-.02-2.539-.267a3.31 3.31 0 0 1-2.014-1.442c-.478-.737-.681-1.595-.6-2.571.041-.42.103-.833.19-1.243l.288-1.203 1.001-3.183 1.03-3.15.161-.576.195-.614a2.41 2.41 0 0 0-.91-.146l-.879.028-1.318.015c-.249.003-.452-.043-.61-.133-.205-.091-.33-.224-.378-.413-.044-.138-.032-.259.049-.365a.67.67 0 0 1 .283-.231 4.23 4.23 0 0 1 .91-.322l1.504-.262 1.504-.226a2.6 2.6 0 0 1 .32-.058c.1-.01.217-.03.352-.055l.593-1.364 1.208-2.471c.432-.808.901-1.588 1.413-2.337a4.27 4.27 0 0 1 .835-1.052c.356-.332.737-.415 1.147-.259.476.204.693.571.654 1.11a3.42 3.42 0 0 1-.061.677l-.129.684-.403 1.781-.405 1.784a1.53 1.53 0 0 0-.063.415c.005.138-.02.292-.061.455.249.113.496.156.745.131s.496-.04.745-.045a3.67 3.67 0 0 0 .405-.02l.439-.025c.247 0 .456.073.63.224a1.03 1.03 0 0 1 .327.569c.115.418-.051.767-.498 1.052-.603.309-1.279.468-2.024.478l-1.252.015a5.82 5.82 0 0 0-.488 1.555 13.35 13.35 0 0 1-.359 1.59l-.417 1.641-.391 1.643-.437 1.593a5.61 5.61 0 0 0-.239 1.729m16.957-1.604c.545.179.999.189 1.361.037s.67-.426.927-.822a18.5 18.5 0 0 0 1.345-2.309 14.5 14.5 0 0 0 .961-2.511l.66-2.508.662-2.581.558-2.317.622-2.284a9.12 9.12 0 0 1 .446-1.283l.55-1.213a2.56 2.56 0 0 1 .4-.66l.54-.628c.209-.277.571-.416 1.091-.423a.84.84 0 0 1 .675.217 1.16 1.16 0 0 1 .359.635 1.4 1.4 0 0 1 .02.379c-.01.137-.025.264-.048.379a34.38 34.38 0 0 0-.861 4.858l-.619 4.858-.311 2.073-.382 2.11c-.224 1.036-.52 2.033-.887 2.997a19.89 19.89 0 0 1-1.343 2.825l-.815 1.198a6.75 6.75 0 0 1-1.024 1.066c-.749.628-1.498 1.036-2.25 1.231s-1.48.222-2.186.092a5.33 5.33 0 0 1-1.97-.792 5.66 5.66 0 0 1-1.519-1.45 3.75 3.75 0 0 1-.683-1.37 3.25 3.25 0 0 1-.015-1.52 2.42 2.42 0 0 1 1.144-1.669c.209-.142.441-.227.685-.267s.492-.027.741.025c.247.06.469.174.655.359.194.182.326.431.4.755a1.26 1.26 0 0 0 .11.516m19.271-5.427c.09-.046.178-.107.265-.188l.336-.29c-.134-.066-.256-.134-.355-.202a.62.62 0 0 0-.324-.097c-.472-.08-.974-.066-1.499.051a5.53 5.53 0 0 0-1.512.592 6.45 6.45 0 0 0-1.317.994c-.404.387-.716.806-.93 1.257-.024.046-.032.09-.017.134s.002.093-.015.139l1.543-.609 1.543-.64 1.142-.567 1.139-.572m4.291-2.17c.458.645.657 1.318.616 2.016-.051.697-.343 1.339-.874 1.931a4.99 4.99 0 0 1-.869.701 6.93 6.93 0 0 1-.971.502 9.43 9.43 0 0 1-1.565.536c-.528.127-1.061.222-1.599.273l-2.675.382-.927.129.204.185a1.96 1.96 0 0 1 .204.185l.307.248.309.283c0-.022.01-.034.034-.034a6.34 6.34 0 0 0 1.738.336 4.51 4.51 0 0 0 1.733-.273l.319-.139c.097-.046.204-.083.319-.107a1.91 1.91 0 0 1 .893-.056 1.48 1.48 0 0 1 .728.346 1.58 1.58 0 0 1 .46.667 1.77 1.77 0 0 1 .095.874c-.083.565-.285 1.035-.609 1.408s-.728.679-1.217.908l-.455.19a4.7 4.7 0 0 1-.453.158c-1.232.397-2.454.521-3.671.377l-.964-.158a5.2 5.2 0 0 1-.93-.292c-.453-.2-.85-.465-1.188-.796a7.33 7.33 0 0 1-1.538-1.753c-.413-.657-.667-1.415-.764-2.27-.124-.967-.083-1.878.136-2.732s.645-1.651 1.29-2.379c1.042-1.179 2.205-2.077 3.493-2.684 1.285-.614 2.702-.906 4.252-.874.835-.01 1.624.151 2.368.477.745.353 1.336.83 1.77 1.434m8.473 7.061l.954-3.195.952-3.195c-.207-.162-.298-.245-.273-.245-.75-.013-1.421.129-2.009.427a4.83 4.83 0 0 0-1.534 1.242c-.433.53-.797 1.147-1.084 1.846-.288.705-.492 1.442-.625 2.217-.101.79.152 1.253.762 1.389a3.4 3.4 0 0 0 2.857-.487h0zm4.138 1.49c-.047.096-.079.225-.101.389l-.032.278c.238.98.177 1.783-.192 2.417s-.836 1.081-1.401 1.346a.89.89 0 0 1-.561.093c-.192-.03-.379-.083-.563-.154a3.88 3.88 0 0 1-.583-.306l-.479-.275-.479-.311c-.138.051-.364.091-.684.134l-1.001.096-.983.051-.664.005c-.595-.018-1.099-.162-1.519-.437a3.35 3.35 0 0 1-1.035-1.056 4.54 4.54 0 0 1-.575-1.465 5.51 5.51 0 0 1-.12-1.624c.059-1.051.229-2.033.514-2.947.416-1.265.949-2.455 1.593-3.583.713-1.245 1.529-2.189 2.456-2.826a6.96 6.96 0 0 1 3.086-1.192 4.58 4.58 0 0 1 .715-.093 3.76 3.76 0 0 1 .779.04l1.603.192c.433.091.843.207 1.234.356s.652.359.789.636c.231.465.275.977.133 1.538l-.374 1.652-1.556 7.046zm12.908-8.845c-.387-.255-.769-.357-1.128-.306s-.727.126-1.092.224l-.458.149-.458.149c-.52.17-.848.589-.976 1.255l-.466 2.785-.503 2.785-.618 2.466c-.246.81-.614 1.561-1.106 2.258l-.485.627c-.172.206-.357.388-.557.555-.589.483-1.225.561-1.912.239-.618-.327-.988-.892-1.111-1.697-.022-.211-.03-.432-.022-.658s.032-.435.081-.625l.389-1.625.463-1.592 1.175-3.183 1.281-3.186.986-2.114 1.052-2.075a3.45 3.45 0 0 1 .404-.72l.503-.645a2.98 2.98 0 0 1 .392-.345c.145-.105.296-.198.456-.27.251-.123.48-.087.7.098s.308.445.264.784l-.116.352-.113.36a1.52 1.52 0 0 0-.032.321c0 .095-.02.239-.064.427l.986-.401c.365-.123.719-.224 1.072-.298s.722-.103 1.111-.085c1.089.057 1.993.45 2.708 1.18s1.133 1.697 1.259 2.905c.054.715.054 1.419.005 2.119a12.17 12.17 0 0 1-.335 2.088l-.48 1.664a9.89 9.89 0 0 1-.614 1.594c-.33.761-.697 1.496-1.101 2.201l-1.205 2.134c-.205.383-.483.73-.843 1.041-.545.478-1.136.558-1.774.234-.296-.162-.51-.375-.638-.635a2.44 2.44 0 0 1-.229-.92c-.034-.882.091-1.725.382-2.533l.761-2.075.798-2.08.483-1.232.444-1.234a9.06 9.06 0 0 0 .31-1.198 3.09 3.09 0 0 0-.027-1.262m-88.002 50.425l2.021 6.957.028.097c.237.816-.323 1.647-1.254 1.852s-1.878-.283-2.115-1.099l-.025-.099-1.527-7.243c-.146-.695.378-1.361 1.171-1.489.757-.123 1.486.293 1.676.937l.025.087zm6.766 21.189l3.083 6.685.061.131c.477 1.033.044 2.264-.965 2.752s-2.213.045-2.69-.988l-.027-.065-2.97-7.047c-.413-.983.029-2.121.99-2.543.938-.415 2.024.01 2.459.948l.059.128zm10.435 18.816l4.382 6.137.083.119c.737 1.032.521 2.484-.483 3.245-1.004.756-2.416.533-3.156-.499l-.01-.018-4.495-6.419c-.715-1.022-.488-2.45.506-3.185s2.369-.507 3.088.499l.086.122zm14.384 17.611l4.94 5.135.064.068c.699.732.684 1.901-.033 2.613a1.79 1.79 0 0 1-2.484.041l-5.343-4.999c-.803-.775-.837-2.066-.076-2.882s2.026-.853 2.83-.078l.021.022.081.08zm15.969 14.675l6.044 4.538.036.027c.535.404.628 1.142.204 1.651-.403.49-1.138.588-1.671.239l-6.421-4.216c-.675-.443-.846-1.324-.378-1.966s1.389-.802 2.064-.359c.026.015.049.032.075.052l.047.034zm18.818 13.785l6.348 3.562.015.009c.363.204.477.638.256.969s-.684.434-1.044.24l-6.44-3.496c-.39-.213-.52-.675-.288-1.036s.733-.478 1.124-.265l.03.016zm19.871 10.967l6.357 3.205.014.007c.436.221.614.758.398 1.201s-.747.626-1.183.404a.11.11 0 0 1-.024-.012l-6.288-3.404a.8.8 0 0 1-.322-1.071c.199-.378.659-.525 1.034-.337l.014.007zm19.776 10.019l7.135 2.985c.802.337 1.168 1.231.818 1.997s-1.287 1.119-2.089.781l-.083-.035-6.948-3.372c-.672-.325-.94-1.111-.6-1.754.33-.618 1.111-.876 1.767-.603m20.917 9.07l6.954 3.069c1.061.469 1.513 1.647 1.007 2.629s-1.779 1.401-2.842.932l-.066-.031-.041-.019-6.757-3.289-.028-.014c-.969-.471-1.339-1.578-.831-2.475.496-.873 1.651-1.221 2.604-.802m20.601 10.157l6.408 4.01c1.12.702 1.493 2.235.831 3.425s-2.108 1.585-3.231.884l-.034-.023-.086-.057-6.175-4.064-.071-.047c-1.066-.702-1.395-2.191-.733-3.321.655-1.117 2.03-1.468 3.091-.806m18.713 12.232l5.882 4.771a2.62 2.62 0 0 1 .383 3.692 2.63 2.63 0 0 1-3.694.383l-.035-.03-.138-.116-5.529-4.692-.119-.101a2.54 2.54 0 0 1-.292-3.581 2.55 2.55 0 0 1 3.541-.326m16.662 16.455l4.663 5.927c.873 1.114.645 2.697-.51 3.54-1.145.835-2.773.626-3.653-.462l-.14-.173-4.468-5.527-.138-.168c-.905-1.124-.695-2.741.47-3.614s2.848-.671 3.753.452c.005.005.018.022.023.026m13.139 19.562l2.889 7.203c.485 1.213-.132 2.578-1.38 3.051-1.22.461-2.592-.103-3.108-1.263l-.085-.198-2.963-6.709-.09-.203c-.557-1.26.044-2.723 1.344-3.264s2.804.043 3.361 1.305l.034.078"/></g><g transform="translate(614 415)"><mask id="H" fill="#fff"><use xlink:href="#C"/></mask><path d="M4.133 1.828c.432 2.617.566 5.342.856 7.998.116 1.071-.631 2.041-1.671 2.161-1.005.117-1.914-.602-2.078-1.622l-.038-.242L.048 2.602C-.197 1.445.515.303 1.636.05s2.227.48 2.472 1.637l.018.091.008.05z" mask="url(#H)" class="B"/></g><path d="M617.956 439.756l-1.843 7.389c-.155.613-.742.978-1.316.816-.548-.158-.885-.741-.777-1.329l.023-.13 1.339-7.222.028-.155c.14-.758.829-1.249 1.536-1.099s1.168.883 1.028 1.642l-.019.088" class="B"/><g transform="translate(0 203)"><mask id="I" fill="#fff"><use xlink:href="#D"/></mask><path d="M156.53 116.118l-.025-7.095-.003-.797-.639-.441-3.25-2.238c1.947-18.536 1.922-37.1-.035-55.637.048.005.096.013.143.018l8.021-1.489c.347 21.627-.121 46.526 2.07 66.15l-6.283 1.529m-24.176-.509l5.863-1.454-8.21-3.571c1.243.173 2.488.296 3.733.368 2.359-.356 4.696-.9 6.995-1.596-1.504 4.619-1.564 9.301-.141 13.93l-8.011 1.672c1.102-3.1 1.021-6.253-.229-9.348m-1.929-14.115a7.98 7.98 0 0 0 1.841 6.564c-1.592.135-4.243.519-6.215 1.058-1.263-.429-2.543-.799-3.836-1.138l8.21-6.484m10.999 3.925l.254-.04c.148.371.299.742.465 1.1-2.767.203-5.476.689-8.144 1.361.309-2.248-.201-4.288-1.522-6.048l8.242 3.554c.317.16.352.135.704.073m.787-21.045a127.06 127.06 0 0 0 4.917-1.393l.84 19.363-.438-.303-.501-.346-.553.11-4.057.792c1.635-6.058 1.554-12.17-.209-18.223m-31.805-.952l.848-.704c12.013.088 23.822-1.554 35.349-4.962.123.07.244.145.367.218l.151 4.727c-12.536-.165-24.835 1.589-36.825 5.203l.111-4.481m-4.998 41.266l.128-22.025.008-1.579-1.585.01c-.179-.008-1.011-.005-2.163.003-3.353-2.444-6.95-4.569-10.748-6.396 1.801-4.509 1.791-9.103.01-13.612l16.344 1.476.448 22.073c.158 7.175.463 14.353.83 21.529-.843-1.459-2-1.975-3.272-1.479M2.329 104.842l.023-1.368 1.564-1.048c12.946.97 27.164 2.82 37.437 11.206 3.622 3.125 5.735 7.429 6.052 12.078l.712.003.058 1.967-12.918.388-.023.003c-1.117-15.719-19.516-21.078-32.904-23.228m1.343-6.94c-.091.04 1.7-1.388 1.909-1.637 18.243 1.451 47.968 4.268 56.736 22.712l-.023 3.89-12.194-.198c-1.607-9.414-10.715-15.296-19.143-18.143-8.823-3.028-18.019-4.404-27.323-4.561.04-1.05.086-2.356.038-2.063m2.628-6l1.743-.892.103-.053.008-.148.148-2.306 10.35.599 10.695.739c6.225.409 14.988 1.303 21.281 2.028 13.368 1.987 27.363 3.647 39.439 10.018l.189 7.454-12.289.211-1.376.023v.08C58.23 92.509 30.474 89.516 6.3 91.902m30.457-16.875l15.152 1.815c-1.205 2.702-1.258 5.459-.166 8.163-5.063-.411-10.141-.586-15.159-.579 1.343-3.11 1.401-6.283.174-9.398m32.195 12.406c-5.108-1.058-10.328-1.827-15.594-2.306 1.122-2.689 1.107-5.431-.045-8.118l15.936 1.805c-1.31 2.85-1.414 5.762-.297 8.619m1.441-8.489l20.157 2.098c-1.761 4.421-1.813 8.925-.126 13.351-6.22-2.922-12.928-5.098-19.911-6.642 1.235-2.915 1.18-5.892-.121-8.807M57.475 59.857c22.954 2.213 46.796 4.278 69.797 5.642l-19.327 16.045-.553.466.008.444-34.796-5.456c-10.866-1.672-21.767-3.078-32.663-4.536l17.534-12.604m72.119 7.639l16.286 9.827a120.9 120.9 0 0 0-33.367 4.348l17.081-14.175m13.866 43.759c-.433-.093-.878-.155-1.336-.203-.156-.654-.342-1.306-.558-1.957 1.303-.421 2.593-.877 3.856-1.414a42.22 42.22 0 0 0-2.804-2.451l3.748-.591 5.742 4.175c-3.046.048-5.903.982-8.647 2.441m-1.016 1.276c.269.278.538.556.822.82l.672-.03c3.463-.251 6.693-1.13 9.515-3.103l-.035 10.454-11.633 2.371c1.056-3.486 1.27-7.008.659-10.511m-4.278-64.744c4.719.694 9.435 1.622 14.158 2.093a265.07 265.07 0 0 0-.063 55.424l-4.14-2.857c.508-8.363.807-16.732 1.024-25.105l.018-.569-.528-.358-6.361-4.221c2.327 1.025 5.335-.406 5.284-4.481-.194 4.216-4.927 4.509-4.784 0-.128-4.496 4.588-4.208 4.784 0 .083-6.531-7.692-6.288-7.936 0 .07 1.749.734 3.013 1.64 3.81l-3.977-2.612.88-21.123m5.647-4.183c2.905.707 5.83 1.291 8.791 1.654 1.544-.516 3.074-1.07 4.585-1.697 1.28.902 2.264 1.554 2.973 1.97l-7.981 1.702c-2.485-.461-8.361-.942-13.029-1.404 1.605-.667 3.159-1.409 4.661-2.226m5.327-21.747c.734 6.784 1.673 13.544 2.958 20.248-2.636-.511-5.305-.857-7.983-1.098 1.959-6.328 3.587-12.722 5.025-19.15m7.581 19.331c-1.424.271-2.837.584-4.231.945l.058-6.251c-.02-2.263-.106-4.589-.196-6.915 1.114 4.16 2.571 8.238 4.369 12.221m7.025 5.429l-.028-1.845-1.781.381-.606.128c-.548-.855-1.791-2.328-3.551-4.298-.179.03-.357.073-.536.105-.511-8.684-2.377-17.073-5.627-25.095L150.335 0c-2.55 13.388-5.378 27.336-6.542 40.972l-.563-.06c-1.808 1.486-3.539 3.06-5.154 4.812l-1.899-.206c.166 7.762.503 15.521.941 23.283l-7.765-5.03-1.914 1.591c-23.057-3.303-47.06-6.063-70.23-8.509-.634-.085-.508-.093-1.021.273L32.099 74.474l3.257.388c-1.295 3.165-1.26 6.396.106 9.559-8.595.058-16.98.627-24.725 1.466 29.572 1.093 60.682 1.268 87.99 13.822.805.474 1.645.927 2.465 1.391l-11.142.065.01.434C72.944 89.692 49.738 88.216 29.478 87.15c-6.253-.063-12.498.005-18.731.353.111-.416.118-.947-.01-1.617-2.04-.957-3.106-.243-2.865 1.779-.44.035-.39-.065-.362.406l.166 2.627-1.653 1.228-.85.075c.246 3.772.377 4.729.651.637 24.249.977 50.219 3.419 70.768 17.366l.045 7.554-12.003.07c-7.782-17.321-34.089-20.762-50.891-21.669l-8.22-.158-.098-.003-.065.063-1.866 1.85-.045.045c-.008.025.048 1.231.091 2.206l-.352-.013L0 102.248l.08 4.554c13.411 1.561 32.756 5.416 35.14 21.268l-.141.003.008.165.169 4.366.161-4.193 13.351.401.558.018.018-.594.073-2.516 14.307.065 1.476.008-.035-5.94 12.802.358 1.341.038.008-1.368.04-6.584 12.415-.068 1.464-.01c-.028-.672-.06-5.451-.098-8.045l9.259.05.156 26.99c-19.709.093-47.636.907-67.295 1.391L105.355 134l.008-1.396.03-5.233c.968.594 2.12.393 3.313-.634.003.038.003.075.005.113l.246-.068 3.38-.935-3.468.514c1.305-11.441 1.182-25.293 1.419-38.055l3.826-.008c-1.829 7.366-1.673 14.769.548 22.065 1.985-7.366 1.902-14.774-.166-22.08 9.223-.228 18.313-1.496 27.237-3.792-1.746 6.068-1.798 12.195-.131 18.266l-.299.058-10.189-3.702-.571-.208-9.115 8.446-8.074 4.128 8.479-3.221.043-.015.08-.063.088-.068c2.389 1.862 4.892 3.499 7.46 5.008-2.362.526-4.711 1.098-7.038 1.769-2.95-1.296-5.936-2.529-9.113-3.411 2.749 2.368 5.72 4.306 8.723 6.213 2.955-.441 5.954-1.068 8.929-1.762a12.82 12.82 0 0 0 .015 9.376c-3.37.747-6.512 1.496-9.103 2.236l-7.83-2.03-.734-14.033-.762 14.629-.028.544c.211.053 8.6 2.812 8.987 2.917 11.286-1.82 22.519-3.92 33.737-6.095l1.268-.248-.005-1.286-.02-5.662 6.439-.862.329-.05.015-.368c.84-22.787.812-45.589.433-68.381" mask="url(#I)" class="B"/></g><path d="M146.988 262.601c-1.366-.487-2.401-.994-3.316-1.393.171-1.362.036-2.935.578-4.049.108-.235.515-.237.629-.206 1.418 1.1 1.406 3.146 2.11 5.649.537-1.662 1.727-4.762.424-6.853-1.166-2.099-3.998-2.404-5.597-.385-1.51 2.404-.494 5.038-.306 7.597 1.852.138 4.248-.099 5.479-.359M132 295.003c-.243 3.694-5.073 3.145-4.982 0-.079-3.133 4.738-3.69 4.982 0-.007-5.121-7.783-5.55-8 0 .222 5.536 7.988 5.118 8 0M17.721 358.421l1.035.281.977.283a13.82 13.82 0 0 1 1.808.779c.397.18.741.444 1.028.789.363.408.495.822.402 1.246s-.383.739-.862.95l-.624.19-.689.133-.687.13-1.871.316-1.869.343a7.02 7.02 0 0 1-1.286.138c-.421.008-.843-.06-1.262-.2-.582-.178-.987-.574-1.213-1.188l-.431-1.183a3.02 3.02 0 0 1-.173-.845c-.012-.268.015-.556.08-.867l.331-1.266 1.486-5.06 1.703-4.997a25.8 25.8 0 0 1 2.051-4.403l.439-.664a6.36 6.36 0 0 1 .475-.639c.175-.226.436-.424.772-.594.297-.148.585-.12.855.083s.4.489.385.86a1.73 1.73 0 0 1-.054.431l-.117.431-1.62 6.711-1.021 6.824c-.019.165-.027.328-.024.494l-.024.494m12.604.307l.879-2.797.881-2.794c-.189-.139-.276-.211-.255-.211-.69-.012-1.308.112-1.85.371s-1.014.624-1.418 1.087-.738 1.003-1.004 1.617a8.67 8.67 0 0 0-.575 1.936c-.095.694.141 1.1.705 1.217a3.27 3.27 0 0 0 2.637-.425h0zm3.819 1.304a1.16 1.16 0 0 0-.095.338l-.028.246c.22.853.164 1.56-.179 2.112-.337.557-.769.948-1.293 1.179-.166.082-.335.109-.516.082s-.35-.075-.519-.134a4.89 4.89 0 0 1-.539-.266l-.442-.241-.445-.271a3.33 3.33 0 0 1-.628.112l-.925.09-.91.037-.613.01c-.544-.017-1.014-.144-1.403-.386a3.01 3.01 0 0 1-.956-.923c-.243-.373-.422-.801-.531-1.279a4.68 4.68 0 0 1-.11-1.423c.054-.918.209-1.776.473-2.575a16.57 16.57 0 0 1 1.474-3.14c.657-1.085 1.413-1.913 2.266-2.471a6.62 6.62 0 0 1 2.849-1.042 4.57 4.57 0 0 1 .662-.082 3.56 3.56 0 0 1 .718.037l1.482.167a8.17 8.17 0 0 1 1.137.311c.355.127.6.313.728.557.212.406.253.856.125 1.346l-.347 1.441-1.436 6.168zm28.844-16.413c.025.384.01.798-.045 1.245l-.642 4.584-.637 4.557-.259 2.654-.232 2.686-.097.865a8.9 8.9 0 0 1-.129.895c-.115.508-.408.966-.871 1.375-.466.387-.971.532-1.514.426s-.956-.419-1.25-.941c-.144-.222-.256-.453-.329-.695a1.75 1.75 0 0 1-.055-.786l.097-.835.097-.835.351-1.686.378-1.688-.002-.274.667-3.403-.976 3.046a28.08 28.08 0 0 1-1.284 3.181c-.478 1.005-1.001 1.88-1.561 2.625s-1.163 1.19-1.79 1.338a1.19 1.19 0 0 1-.431.064c-.164.002-.274-.007-.336-.027-.453-.074-.799-.318-1.053-.729s-.426-.922-.535-1.525-.159-1.272-.159-1.999l.097-2.186.239-2.063.284-1.671-1.69 4.414-.294 1.094-.294 1.126-.296 1.018-.326.988c-.296.895-.747 1.617-1.354 2.169-.304.266-.59.389-.854.375-.244-.039-.453-.177-.615-.419s-.261-.552-.289-.936l.022-.729.055-.729.207-.803.204-.747.976-3.191.976-3.164.978-2.755 1.133-2.664.774-1.602.876-1.508.54-.732c0-.02.005-.032.015-.032s.015-.012.015-.032c.06-.081.169-.182.336-.306a1.28 1.28 0 0 1 1.033-.495l.122.059a.41.41 0 0 1 .127.089c.04.039.092.081.154.121.306.096.558.291.757.582a1.37 1.37 0 0 1 .239.951l-.127 2.351-.124 2.398-.157 2.804-.037.803-.035.774 1.153-2.59 1.18-2.528 1.095-2.043.948-1.557c.884-1.281 1.71-2.038 2.482-2.267a1.09 1.09 0 0 1 .431-.096h.03l.062-.002c.326.017.617.121.874.308a1.52 1.52 0 0 1 .548.766l.03.062a1.32 1.32 0 0 1 .097.483m6.337 15.102l.879-2.794.881-2.794c-.189-.142-.276-.214-.255-.214-.69-.012-1.308.112-1.85.371a4.45 4.45 0 0 0-1.418 1.09c-.404.46-.738 1.003-1.004 1.617a8.64 8.64 0 0 0-.575 1.936c-.095.694.141 1.097.705 1.217.927.234 1.804.092 2.637-.428h0zm3.819 1.306c-.043.082-.072.194-.095.336l-.028.246c.22.856.164 1.56-.179 2.115-.337.555-.769.945-1.293 1.177-.166.082-.335.112-.516.082a2.83 2.83 0 0 1-.519-.134 4.5 4.5 0 0 1-.539-.266l-.442-.241-.445-.271a3.46 3.46 0 0 1-.628.114l-.925.087-.91.04-.613.007c-.544-.015-1.014-.144-1.403-.383s-.71-.55-.956-.923a3.97 3.97 0 0 1-.531-1.281c-.11-.478-.148-.953-.11-1.423.054-.916.209-1.776.473-2.575.386-1.107.876-2.152 1.474-3.137.657-1.087 1.413-1.913 2.266-2.473s1.801-.908 2.849-1.042a4.57 4.57 0 0 1 .662-.082 3.41 3.41 0 0 1 .718.04l1.482.164a8.17 8.17 0 0 1 1.137.311c.355.129.6.313.728.557.212.408.253.856.125 1.346l-.347 1.443-1.436 6.167zm9.452-4.823l.983-3.316a6.58 6.58 0 0 1 .329-.858c-.246-.017-.479.01-.695.085l-.66.266a10.26 10.26 0 0 0-2.082 1.462 7.55 7.55 0 0 0-1.55 2.004c-.324.594-.542 1.198-.657 1.812-.04.224-.053.457-.038.701a5.2 5.2 0 0 0 .083.736c.108.529.421.853.938.967.843.236 1.615.249 2.313.035l.519-1.946.517-1.946m2.957-6.058c.411-.127.768-.065 1.069.186s.421.582.364.992c.003.102-.008.174-.028.214a15.85 15.85 0 0 0-.662 3.005l-.474 3.092-.865 4.124a39.35 39.35 0 0 1-1.141 4.064 23.38 23.38 0 0 1-2.23 4.671c-.79 1.273-1.786 2.384-2.988 3.336a6.43 6.43 0 0 1-1.166.731c-.409.196-.853.331-1.319.398-.411.065-.835.037-1.269-.08s-.835-.301-1.212-.554a4.5 4.5 0 0 1-.981-.89c-.278-.343-.467-.718-.552-1.126-.193-.791-.103-1.434.273-1.929a2.88 2.88 0 0 1 1.422-1.024c.983-.316 1.653.032 2.017 1.049l.098.425.276-.154.216-.124a8.71 8.71 0 0 0 1.191-1.129 9.76 9.76 0 0 0 .941-1.31c.421-.718.803-1.462 1.131-2.23l.916-2.349-.677-.037-.62-.01c-.554-.015-1.076-.119-1.56-.321s-.913-.477-1.277-.84a4.22 4.22 0 0 1-.878-1.305c-.221-.507-.346-1.076-.371-1.71-.058-1.285.188-2.468.73-3.555 1.249-2.439 3.103-4.194 5.559-5.26a3.49 3.49 0 0 1 .906-.316l.938-.162c.329-.045.632-.03.916.05a3 3 0 0 1 .79.358c.161-.124.334-.219.519-.281m8.019 8.771l.815-2.923.815-2.923c-.081-.061-.137-.113-.169-.154s-.066-.061-.103-.061c-.704.008-1.34.161-1.9.461a4.86 4.86 0 0 0-1.45 1.183c-.41.489-.741 1.052-.996 1.697a8.6 8.6 0 0 0-.52 2.035c-.034.34.012.614.145.835s.344.348.626.389c.967.218 1.88.038 2.739-.538m8.023-17.758c.162.102.28.274.353.515s.066.497-.007.771l-.174.663c-.061.212-.137.422-.236.632a42.22 42.22 0 0 0-1.514 4.884l-1.126 5.035-.658 3.205-.663 3.202c-.017.172-.069.371-.147.602.088.397.101.76.044 1.085a3.08 3.08 0 0 1-.292.886 2.39 2.39 0 0 1-.535.683c-.221.189-.461.351-.722.481-.501.236-.925.251-1.266.046-.223.003-.454-.09-.697-.276l-.245-.202-.243-.202-.842.294-.842.228-.753.169a4.83 4.83 0 0 1-.756.069c-.564.008-1.053-.108-1.468-.343s-.761-.553-1.038-.947a4.05 4.05 0 0 1-.601-1.349 5.42 5.42 0 0 1-.167-1.48c.012-.901.152-1.794.425-2.68.368-1.16.852-2.258 1.446-3.292.631-1.142 1.382-2.022 2.25-2.642s1.848-1.016 2.933-1.198c.339-.067.68-.077 1.026-.028l1.119.131.471-1.234.466-1.234 1.212-2.772a27.07 27.07 0 0 1 1.421-2.578 5.58 5.58 0 0 1 .682-.955c.356-.381.736-.438 1.144-.169m6.838 13.627a1.15 1.15 0 0 0 .249-.176l.313-.27c-.13-.059-.242-.122-.336-.183a.53.53 0 0 0-.295-.092c-.443-.079-.906-.064-1.395.046a5.12 5.12 0 0 0-1.403.55 6.01 6.01 0 0 0-1.225.922c-.374.362-.664.749-.866 1.169-.02.041-.028.084-.015.125s.008.084-.013.125l1.433-.563 1.433-.596 1.062-.53 1.057-.527m3.987-2.019c.423.604.614 1.227.57 1.877s-.318 1.243-.812 1.793a4.44 4.44 0 0 1-.807.652 6.15 6.15 0 0 1-.901.463 8.55 8.55 0 0 1-1.451.502 10.63 10.63 0 0 1-1.484.252l-2.485.357-.866.117.193.173c.064.048.125.107.188.168l.283.234.288.262c0-.02.01-.033.031-.033.547.183 1.082.285 1.617.311.53.025 1.069-.059 1.609-.252l.295-.13a1.57 1.57 0 0 1 .3-.097c.288-.087.565-.104.827-.056s.486.158.68.323a1.57 1.57 0 0 1 .428.621 1.6 1.6 0 0 1 .087.812c-.081.525-.267.96-.568 1.306s-.677.629-1.133.843l-.42.176a4.12 4.12 0 0 1-.423.148c-1.141.367-2.279.484-3.409.349l-.894-.145a4.83 4.83 0 0 1-.866-.272c-.42-.183-.789-.43-1.102-.741-.573-.471-1.039-1.016-1.426-1.627s-.619-1.314-.713-2.108c-.112-.896-.071-1.742.13-2.539s.598-1.53 1.194-2.205c.967-1.095 2.049-1.928 3.243-2.496s2.515-.838 3.956-.81a5.24 5.24 0 0 1 2.194.443c.695.328 1.242.769 1.645 1.329m7.259-.663l-.72 3.156-.718 3.159-.151.653-.188.653c.086.02.167.03.243.028a1.54 1.54 0 0 1 .271.03l.694.101.692.101c.428.058.71.318.843.782s.115.916-.047 1.352c-.125.29-.277.517-.446.686a2.17 2.17 0 0 1-.574.411 9.71 9.71 0 0 1-1.47.558 5.73 5.73 0 0 1-1.506.217l-1.044-.129-1.015-.159c-.342-.058-.632-.179-.869-.363-.196-.141-.339-.325-.441-.555a1.39 1.39 0 0 1-.12-.681 4.05 4.05 0 0 1-.07-.759l-.042-.759.18-.858.219-.822.968-3.517 1.005-3.517a26.97 26.97 0 0 1 1.026-3.07l1.279-2.98.942-1.776 1.075-1.718a6.7 6.7 0 0 1 .697-.845 1.89 1.89 0 0 1 .668-.442.65.65 0 0 1 .645.086.7.7 0 0 1 .295.588 2.74 2.74 0 0 1-.029.419 2.72 2.72 0 0 1-.089.389l-2.203 9.582m10.758 1.68a1.15 1.15 0 0 0 .249-.176l.313-.27c-.13-.059-.242-.122-.336-.183a.53.53 0 0 0-.295-.092c-.443-.076-.906-.064-1.395.046a5.12 5.12 0 0 0-1.402.55 6.02 6.02 0 0 0-1.224.922 4.09 4.09 0 0 0-.865 1.169c-.02.041-.028.084-.015.125s.008.084-.013.125l1.433-.563 1.433-.596 1.061-.527 1.056-.53m3.986-2.017c.423.601.613 1.225.57 1.874s-.318 1.243-.812 1.793a4.55 4.55 0 0 1-.807.652 5.91 5.91 0 0 1-.901.463 8.52 8.52 0 0 1-1.451.502 10.25 10.25 0 0 1-1.484.252l-2.484.356-.865.117.193.173a2.61 2.61 0 0 1 .188.168l.283.234.288.262c0-.02.01-.033.031-.033.547.183 1.082.285 1.616.311a4.12 4.12 0 0 0 1.609-.252l.295-.127c.094-.043.193-.076.3-.099.288-.087.565-.104.827-.053a1.44 1.44 0 0 1 .68.321 1.57 1.57 0 0 1 .428.621 1.6 1.6 0 0 1 .087.812c-.081.525-.267.96-.568 1.306s-.677.629-1.133.843l-.42.176a4.12 4.12 0 0 1-.423.148 7.99 7.99 0 0 1-3.408.351l-.893-.148a4.83 4.83 0 0 1-.865-.272c-.42-.183-.789-.43-1.102-.741a6.72 6.72 0 0 1-1.428-1.627c-.382-.614-.619-1.314-.713-2.106-.112-.899-.071-1.744.127-2.539s.601-1.533 1.199-2.208c.967-1.095 2.049-1.928 3.243-2.495s2.515-.838 3.955-.81a5.24 5.24 0 0 1 2.194.443c.695.328 1.242.769 1.644 1.332m4.282-5.662a2.11 2.11 0 0 1 .628-1.493c.408-.406.916-.613 1.523-.621a2.04 2.04 0 0 1 1.521.621c.428.419.631.921.621 1.508a2.09 2.09 0 0 1-.649 1.49c-.415.409-.928.609-1.539.594-.587.007-1.09-.195-1.505-.606a1.95 1.95 0 0 1-.6-1.493M134 361.196l.121-.576.121-.547.605-2.308.633-2.311a21 21 0 0 1 .718-2.04c.277-.668.592-1.328.941-1.981a14.2 14.2 0 0 1 .744-1.187l.869-1.16a7.25 7.25 0 0 1 .592-.584 1.82 1.82 0 0 1 .595-.308.88.88 0 0 1 .6.022c.19.079.31.2.349.362.026.101.033.187.021.256l-.044.259-.641 3.144-.61 3.144-.418 2.064-.387 2.064-.149.744a4.97 4.97 0 0 1-.246.746c-.223.648-.687 1.2-1.4 1.651a2.41 2.41 0 0 1-.531.249 2.03 2.03 0 0 1-.628.096 1.86 1.86 0 0 1-.985-.187c-.295-.148-.495-.35-.603-.613-.067-.16-.113-.328-.149-.5l-.118-.498m17.172-10.168c-.363-.231-.715-.321-1.054-.275s-.679.114-1.018.202l-.427.132-.43.132c-.484.155-.79.531-.909 1.124l-.435 2.492-.466 2.49-.583 2.207a6.76 6.76 0 0 1-1.031 2.021l-.453.56c-.158.184-.334.35-.521.5-.549.43-1.139.5-1.782.212-.578-.293-.922-.798-1.038-1.518a4.04 4.04 0 0 1-.023-.591 3.01 3.01 0 0 1 .078-.557l.365-1.453c.119-.482.267-.953.43-1.425l1.098-2.847 1.196-2.852.919-1.889.982-1.86a3.15 3.15 0 0 1 .378-.642l.469-.578a2.9 2.9 0 0 1 .365-.308 2.6 2.6 0 0 1 .425-.244c.236-.106.451-.078.658.091.199.166.285.399.243.697l-.109.319c-.028.109-.065.212-.106.321a1.47 1.47 0 0 0-.028.288 1.84 1.84 0 0 1-.057.381l.917-.36 1.002-.267a4.22 4.22 0 0 1 1.033-.073c1.023.052 1.859.404 2.528 1.054.663.653 1.057 1.518 1.173 2.601a12.17 12.17 0 0 1 .005 1.894 10.53 10.53 0 0 1-.313 1.87l-.448 1.487a8.42 8.42 0 0 1-.575 1.425c-.306.684-.645 1.342-1.023 1.971l-1.124 1.907c-.189.345-.451.655-.787.935a1.4 1.4 0 0 1-1.652.207c-.28-.145-.477-.332-.596-.565s-.194-.508-.218-.826c-.031-.788.085-1.541.355-2.267l.715-1.858.743-1.858.451-1.101.414-1.106a8.37 8.37 0 0 0 .293-1.07c.073-.352.06-.728-.028-1.132m13.265 1.768c.084-.043.165-.102.249-.176l.313-.27a3.28 3.28 0 0 1-.336-.183.51.51 0 0 0-.295-.092c-.443-.079-.906-.064-1.395.046a5.04 5.04 0 0 0-1.403.55 6.02 6.02 0 0 0-1.224.922 4.01 4.01 0 0 0-.865 1.169c-.02.041-.028.084-.015.125s.008.084-.013.125l1.433-.563 1.433-.596 1.061-.53 1.056-.527m3.986-2.019c.423.601.611 1.227.57 1.874s-.318 1.245-.812 1.795a4.44 4.44 0 0 1-.807.652c-.29.181-.588.334-.901.461a8.32 8.32 0 0 1-1.451.504 10.26 10.26 0 0 1-1.484.25l-2.484.359-.865.117.193.173c.064.048.125.107.188.168l.283.232.288.262c0-.02.01-.031.031-.031a6.04 6.04 0 0 0 1.616.311 4.11 4.11 0 0 0 1.609-.255l.295-.127a1.43 1.43 0 0 1 .3-.097c.288-.087.565-.104.827-.056a1.44 1.44 0 0 1 .68.321c.186.165.331.374.428.621.097.252.127.522.087.815-.081.522-.267.96-.568 1.306s-.677.629-1.133.843l-.42.176a4.12 4.12 0 0 1-.423.148 7.95 7.95 0 0 1-3.408.349l-.893-.148c-.283-.059-.57-.148-.865-.27-.42-.183-.789-.43-1.102-.741a6.73 6.73 0 0 1-1.428-1.629c-.382-.611-.619-1.311-.713-2.106-.112-.896-.071-1.742.127-2.538s.601-1.53 1.199-2.207c.967-1.095 2.049-1.925 3.243-2.493s2.515-.838 3.956-.812a5.28 5.28 0 0 1 2.194.446c.695.328 1.242.769 1.644 1.329m-60.383 45.613l5.381 4.952.104.098c.572.527.635 1.447.14 2.056a1.31 1.31 0 0 1-1.931.149c-.017-.015-.039-.033-.053-.051l-5.321-5.437c-.468-.481-.483-1.272-.031-1.773.435-.481 1.144-.511 1.615-.08l.097.087zm17.788 12.845l6.877 3.091.145.066c1.007.453 1.432 1.585.949 2.529s-1.689 1.344-2.695.891c-.021-.007-.047-.022-.067-.029l-7.033-3.464c-.918-.453-1.271-1.516-.791-2.378.472-.84 1.564-1.176 2.47-.772l.145.066zm20.96 7.84l7.334 1.612.049.01c1.224.227 2.023 1.367 1.787 2.544s-1.422 1.946-2.645 1.718c-.005-.002-.023-.005-.031-.007l-7.673-1.792c-1.172-.316-1.856-1.488-1.527-2.613.326-1.117 1.524-1.773 2.686-1.476l.021.005zm21.454 2.691l7.131-.732.276-.026c1.183-.104 2.229.725 2.341 1.853.107 1.097-.718 2.074-1.851 2.223l-7.675.901c-1.213.135-2.308-.694-2.45-1.851s.728-2.202 1.941-2.337h.002l.286-.031zm21.106-4.244l7.299-2.414.044-.014c.893-.297 1.883.129 2.206.952.31.794-.117 1.67-.951 1.996l-7.255 2.816c-.987.383-2.123-.041-2.54-.945s.044-1.95 1.029-2.333l.091-.034.076-.024zm21.478-8.063l6.89-2.409c.518-.181 1.072.131 1.237.699.158.546-.101 1.129-.585 1.332l-.043.018-6.662 2.792-.05.021c-.614.257-1.299-.079-1.534-.749s.072-1.424.686-1.681l.062-.024m21.814-5.976l7.441-1.468c.414-.082.815.17.901.561s-.174.768-.58.854l-.03.005-7.362 1.54-.033.007c-.434.089-.863-.173-.959-.585s.179-.82.613-.912m23.12-4.549l7.252-.93c.496-.066.939.379.99.987s-.307 1.156-.803 1.219l-.048.006-7.199.775-.031.003c-.462.051-.869-.37-.91-.939-.039-.563.295-1.061.75-1.121m22.47-1.892l7.363-.044c.775-.005 1.408.663 1.413 1.492s-.621 1.503-1.399 1.508c-.019 0-.041 0-.061-.003l-.058-.003-7.256-.325-.046-.003c-.68-.031-1.206-.642-1.179-1.365.029-.702.573-1.253 1.223-1.258m22.771.971l7.316.939c1.052.134 1.803 1.148 1.674 2.262s-1.084 1.907-2.136 1.77l-.063-.008-.087-.015-7.122-1.202-.075-.013c-.972-.165-1.633-1.13-1.48-2.159.153-1.003 1.028-1.696 1.973-1.575m22.852 4.07l7.43 2.114c1.246.354 1.979 1.699 1.641 3.002s-1.623 2.069-2.869 1.715c-.013-.003-.025-.008-.038-.011l-.124-.04-7.165-2.214-.106-.032c-1.193-.37-1.876-1.681-1.522-2.93.346-1.229 1.575-1.94 2.753-1.604m21.663 7.135l7.005 3.096c1.279.567 1.841 2.025 1.251 3.256s-2.102 1.771-3.381 1.206l-.035-.017-.149-.07-6.67-3.101-.133-.063c-1.229-.572-1.745-1.996-1.151-3.181.589-1.168 2.042-1.667 3.263-1.127m19.742 11.382l5.81 4.816c1.106.917 1.255 2.55.337 3.651a2.61 2.61 0 0 1-3.666.333l-.005-.002-.178-.148-5.436-4.529-.183-.156c-1.098-.914-1.245-2.543-.327-3.637a2.6 2.6 0 0 1 3.649-.328m16.478 16.395l4.717 5.902c.882 1.103.686 2.699-.437 3.563-1.114.856-2.718.676-3.605-.395l-.06-.074-4.682-5.67-.073-.086c-.92-1.115-.744-2.751.39-3.654s2.803-.733 3.726.382l.025.032m14.54 18.058l4.279 6.215.029.041c.718 1.041.492 2.497-.5 3.25-.97.738-2.32.525-3.049-.458l-4.536-6.125c-.796-1.075-.612-2.623.411-3.459s2.498-.64 3.294.435l.044.059.027.041zm13.205 17.648l4.978 5.199a1.8 1.8 0 0 1 .017 2.564 1.85 1.85 0 0 1-2.539.063l-5.342-5.189c-.775-.751-.79-1.981-.032-2.751s2-.783 2.775-.032l.044.044.098.102zm15.925 15.643l6.018 4.399.081.06a1.21 1.21 0 0 1 .258 1.705c-.389.522-1.125.645-1.669.295l-6.433-4.162a1.43 1.43 0 0 1-.42-1.99c.44-.665 1.34-.85 2.013-.415l.066.042.086.065z" class="B"/></g></svg>