<?xml version="1.0" encoding="UTF-8"?>
<svg id="Layer_1" xmlns="http://www.w3.org/2000/svg" xmlns:xlink="http://www.w3.org/1999/xlink" version="1.1" viewBox="0 0 569 415">
  <!-- Generator: Adobe Illustrator 29.1.0, SVG Export Plug-In . SVG Version: 2.1.0 Build 142)  -->
  <defs>
    <style>
      .st0 {
        mask: url(#mask);
      }

      .st1, .st2, .st3, .st4, .st5, .st6 {
        fill-rule: evenodd;
      }

      .st1, .st7 {
        fill: #8b94a4;
      }

      .st2 {
        fill: #fff;
      }

      .st3, .st4, .st5, .st6 {
        fill: #8a97a8;
      }

      .st4 {
        opacity: .75;
      }

      .st4, .st5, .st6 {
        isolation: isolate;
      }

      .st5 {
        opacity: .5;
      }

      .st6 {
        opacity: .3;
      }
    </style>
    <mask id="mask" x="224.14" y="284.13" width="10.98" height="18.06" maskUnits="userSpaceOnUse">
      <g id="mask-2">
        <polygon id="path-1" class="st2" points="229.72 284.13 235.12 285.99 229.54 302.19 224.14 300.33 229.72 284.13"/>
      </g>
    </mask>
  </defs>
  <g>
    <g>
      <path class="st1" d="M169.35,222.34c-8.7-.34-9.36-4.44-7.07-7.14.94-1.11,4.54.03,6.55-.45.88-.21,1-1.4.17-1.77-1.74-.77-5.72-1.54-7.42-1.88-.75-.15-1.23-.97-1.04-1.72.84-3.35,10.45-.24,13.64-2.31,2.99-3.11-8.41-2.65-10.71-2.87,1.63-7,8.58-4.67,14.03-5.53,1.45-.23,2.44-1.56,2.08-2.99-2.93-11.73-20.86-6.36-23.37,3.72-1.48,5.93-2.25,5.29-7.14,5.2-2.16.35-3.28,3.38-1.1,3.02,3.48-.18,8.21-1.15,6.46,3.16,0,.05-1.26.9-1.71.77-1.64-.47-5.59-1.69-7.17-.6-5.41,4.16,3.71,3.76,6.89,4.32.47.08.79.5.82.98.21,3.61,1.42,7.03,4.52,9.91,6.72,8.66,31.91-6.8,11.56-3.83"/>
      <g>
        <path class="st7" d="M35.46,171.64c-2.34,7.85-5.14,15.42-7.94,23.09-1.81,4.93-3.34,9.86-5.06,14.78-.09.46-.36.91-.36,1.37,0,.09,0,.27.09.45.55.91.74,1.91.74,2.82,0,1.46-.45,2.83-.9,4.29-.54,2.01-1.45,3.83-2.44,5.75-.81,1.64-1.99,3.11-3.91,3.84-.46.18-.82.28-1.28.28-.27,0-.64,0-.91-.27-1.74-1.36-3.84-2.45-4.76-4.72-.46-1.18-1.28-2.18-1.92-3.28-.92-1.64-1.47-3.37-1.48-5.1,0-1.19.17-2.28.63-3.47,3.25-9.22,6.69-18.34,10.48-27.29,2.35-5.75,4.7-11.41,7.05-17.16.09-.27.18-.55.36-.82.09-.27.09-.46.09-.64,0-.46-.19-.82-.83-.91-2.01-.54-2.92-2.18-3.66-3.91-.28-.55-.37-1-.37-1.46,0-.82.54-1.46,1.54-2.1,3.09-1.83,6.55-2.76,10.11-3.04h.64c3.74-.01,5.84,2.26,5.95,6.27v.82c.02,3.55-.88,7.02-1.88,10.4Z"/>
        <path class="st7" d="M85.58,194.62c-3.44,8.49-7.97,16.25-13.96,23.2-3.27,3.84-7.09,7.22-12,9.06-2.09.74-4.28,1.29-6.47,1.3-1,0-2.1-.08-3.1-.35-1.28-.36-2.46-.72-3.47-1.45-3.56-2.81-7.04-5.72-8.51-10.27-.46-1.27-1.1-2.55-1.56-3.82-1.1-2.73-1.57-5.46-1.58-8.29,0-2.19.26-4.47.89-6.66,1.44-5.84,4.16-11.23,7.06-16.43,3.53-6.3,7.34-12.51,12.25-17.91,2.18-2.29,4.27-4.75,7.36-5.95.73-.28.91-.82,1-1.46.36-2.92.81-3.29,3.72-3.75,1.64-.28,3.28-.38,4.92-.38,1.19,0,2.28.27,3.19.81,5.48,3.17,10.05,7.26,12.44,13.36,1.2,3.1,1.84,6.19,1.85,8.38v.46c-.06,7.93-1.68,14.14-4.03,20.16ZM50.8,207.32c.83,1.46,1.74,2.18,2.83,2.18.64,0,1.37-.19,2.28-.74,1.37-.73,2.64-1.56,3.82-2.56,3.18-2.47,5.72-5.4,8.08-8.6,4.63-6.4,7.79-13.43,8.86-21.36.09-.82.18-1.55.18-2.19-.01-3.74-1.75-6.19-5.5-8-.55-.27-1.19-.36-1.73-.63-.64-.45-1.37-.73-1.92-.72-.64,0-1.28.37-1.73,1.46-.09.18-.36.46-.63.46-1.37.28-1.91,1.38-2.55,2.29-1.18,2.01-2.54,4.02-3.62,6.12-3.62,6.94-7.06,13.97-8.95,21.72-.36,1.37-.63,2.74-.62,4.1v.46c0,2.37.47,4.56,1.21,6.01Z"/>
        <path class="st7" d="M142,194.44c-3.44,8.49-7.97,16.25-13.96,23.2-3.27,3.84-7.09,7.22-12,9.06-2.09.74-4.28,1.29-6.47,1.3-1,0-2.1-.08-3.1-.35-1.28-.36-2.46-.72-3.47-1.45-3.56-2.81-7.04-5.72-8.51-10.27-.46-1.27-1.1-2.55-1.56-3.82-1.1-2.73-1.57-5.46-1.58-8.29,0-2.19.26-4.47.89-6.66,1.44-5.84,4.16-11.23,7.06-16.43,3.53-6.3,7.34-12.51,12.25-17.91,2.18-2.29,4.27-4.75,7.36-5.95.73-.28.91-.82,1-1.46.36-2.92.81-3.29,3.72-3.75,1.64-.28,3.28-.38,4.92-.38,1.19,0,2.28.27,3.19.81,5.48,3.17,10.05,7.26,12.44,13.36,1.2,3.1,1.84,6.19,1.85,8.38v.46c-.06,7.93-1.68,14.14-4.03,20.16ZM107.22,207.13c.83,1.46,1.74,2.18,2.83,2.18.64,0,1.37-.19,2.28-.74,1.37-.73,2.64-1.56,3.82-2.56,3.18-2.47,5.72-5.4,8.08-8.6,4.63-6.4,7.79-13.43,8.86-21.36.09-.82.18-1.55.17-2.19-.01-3.74-1.75-6.19-5.5-8-.55-.27-1.19-.36-1.73-.63-.64-.45-1.37-.73-1.92-.72-.64,0-1.28.37-1.73,1.46-.09.18-.36.46-.63.46-1.37.28-1.91,1.38-2.55,2.29-1.18,2.01-2.54,4.02-3.62,6.12-3.62,6.94-7.06,13.97-8.95,21.72-.36,1.37-.63,2.74-.62,4.1v.46c0,2.37.47,4.56,1.21,6.01Z"/>
      </g>
    </g>
    <g>
      <path class="st1" d="M375.11,222.34c-8.7-.34-9.36-4.44-7.07-7.14.94-1.11,4.54.03,6.55-.45.88-.21,1-1.4.17-1.77-1.74-.77-5.72-1.54-7.42-1.88-.75-.15-1.23-.97-1.04-1.72.84-3.35,10.45-.24,13.64-2.31,2.99-3.11-8.41-2.65-10.71-2.87,1.63-7,8.58-4.67,14.03-5.53,1.45-.23,2.44-1.56,2.08-2.99-2.93-11.73-20.86-6.36-23.37,3.72-1.48,5.93-2.25,5.29-7.14,5.2-2.16.35-3.28,3.38-1.1,3.02,3.48-.18,8.21-1.15,6.46,3.16,0,.05-1.26.9-1.71.77-1.64-.47-5.59-1.69-7.17-.6-5.41,4.16,3.71,3.76,6.89,4.32.47.08.79.5.82.98.21,3.61,1.42,7.03,4.52,9.91,6.72,8.66,31.91-6.8,11.56-3.83"/>
      <g>
        <path class="st7" d="M281.42,151.49c3.38.63,6.21,2.35,8.49,4.99,1.01,1,1.47,2.18,1.47,3.46,0,.55-.09,1.09-.27,1.73-.99,3.74-3.35,6.57-6.17,9.23-1.82,1.65-3.82,2.93-6,4.12-.91.46-1.37.64-1.37,1.01,0,.27.37.64,1.1,1.18,2.38,2,4.57,4.09,6.58,6.36,2.2,2.45,3.85,5.18,5.04,8.19.92,2.19,1.29,4.37,1.3,6.56,0,2.55-.53,5.11-1.62,7.66-2.99,6.57-7.53,12.06-13.89,15.63-4.28,2.47-8.92,3.86-13.75,4.6-2.19.28-4.28.47-6.47.48-1.82,0-3.74-.08-5.56-.44-3.19-.63-5.57-2.17-7.49-4.9-3.02-4.36-4.41-9.19-4.42-13.84-.02-5.1,1.61-10.03,4.6-14.05,3.27-4.57,6.99-8.59,11.54-11.98.82-.73,1.27-1.01,1.27-1.46,0-.37-.37-.82-.92-1.55-1.28-1.64-2.11-3.55-2.48-5.64-.19-1.46-.65-3.01-.93-4.46-.19-.91-.28-1.73-.28-2.55,0-2.83.98-5.47,2.98-7.76,4.36-4.66,9.64-7.14,16.02-7.35h3.92c2.28-.02,4.83.34,7.29.78ZM269.75,206.68c2.19-.83,4.37-1.84,6-3.67,1.54-1.83,2.27-3.2,2.27-4.57,0-1.18-.65-2.37-1.65-3.73-.46-.45-.82-.91-1.28-1.36-1.92-2-4.21-3.63-6.58-5.08-.73-.45-1.46-.82-1.92-1.54-.28-.55-.64-.73-.91-.73-.36,0-.73.18-1.09.55-2.73,2.38-5.45,4.76-7.63,7.68-2.45,3.2-4.54,6.67-4.71,10.86v.82c.01,2.28.65,4.01,3.12,4,.37,0,.82,0,1.28-.09,4.65-.38,8.93-1.4,13.12-3.14ZM276.17,163.54c-3.19.01-6.11.93-8.93,2.31-.73.28-1.09.64-1.09.92,0,.36.37.73,1.1,1.18,1.37.73,3.01,1.18,4.11,2.45.18.18.37.27.55.27.18,0,.46-.09.73-.28,2.64-1.83,5.28-3.66,7.64-6.31-1.46-.36-2.83-.54-4.1-.53Z"/>
        <path class="st7" d="M347.65,194.48c-3.44,8.49-7.97,16.25-13.96,23.2-3.27,3.84-7.09,7.22-12,9.06-2.09.74-4.28,1.29-6.47,1.3-1,0-2.1-.08-3.1-.35-1.28-.36-2.46-.72-3.47-1.45-3.56-2.81-7.04-5.72-8.51-10.27-.46-1.27-1.1-2.55-1.56-3.82-1.1-2.73-1.57-5.46-1.58-8.29,0-2.19.26-4.47.89-6.66,1.44-5.84,4.16-11.23,7.06-16.43,3.53-6.3,7.34-12.51,12.25-17.91,2.18-2.29,4.27-4.75,7.36-5.95.73-.28.91-.82,1-1.46.36-2.92.81-3.29,3.72-3.75,1.64-.28,3.28-.38,4.92-.38,1.18,0,2.28.27,3.19.81,5.48,3.17,10.05,7.26,12.44,13.36,1.2,3.1,1.84,6.19,1.85,8.38v.46c-.06,7.93-1.68,14.14-4.03,20.16ZM312.87,207.18c.83,1.46,1.74,2.18,2.83,2.18.64,0,1.37-.19,2.28-.74,1.37-.73,2.64-1.56,3.82-2.56,3.18-2.47,5.72-5.4,8.08-8.6,4.63-6.4,7.79-13.42,8.86-21.36.09-.82.18-1.55.17-2.19-.01-3.74-1.75-6.19-5.49-8-.55-.27-1.19-.36-1.73-.63-.64-.45-1.37-.72-1.92-.72-.64,0-1.28.37-1.73,1.46-.09.18-.36.46-.63.46-1.37.28-1.91,1.37-2.54,2.29-1.18,2.01-2.54,4.02-3.63,6.12-3.62,6.94-7.06,13.97-8.95,21.73-.36,1.37-.63,2.74-.62,4.1v.46c0,2.37.47,4.56,1.21,6.01Z"/>
      </g>
    </g>
    <g>
      <g>
        <path class="st7" d="M447.25,262.7c.2-.18.35-.3.46-.38.1-.08.19-.17.26-.27.35-.43.67-.86.95-1.29.28-.43.52-.9.71-1.41.3-.78.6-1.56.9-2.32.3-.76.6-1.53.9-2.32.43-1.14.85-2.28,1.28-3.42.43-1.14.88-2.28,1.36-3.42.35-.81.73-1.62,1.15-2.41.42-.8.84-1.6,1.26-2.41.33-.56.68-1.05,1.06-1.48.35-.43.79-.72,1.3-.88.52-.15,1.03-.13,1.54.07.56.2.98.5,1.27.91.29.4.43.87.4,1.4-.03.23-.05.46-.07.68-.03.23-.06.46-.11.68-.2.79-.41,1.56-.62,2.33-.21.77-.47,1.53-.77,2.26-.73,1.82-1.47,3.62-2.22,5.38-.75,1.76-1.52,3.54-2.3,5.34-.22.56-.49,1.1-.79,1.62s-.6,1.04-.9,1.58c-.6,1.04-1.4,2-2.38,2.89-.46.41-.93.76-1.44,1.05-.5.29-1.06.53-1.67.71-.96.31-1.95.29-2.96-.07-.76-.2-1.33-.6-1.71-1.21-.3-.5-.57-1.02-.78-1.55-.22-.53-.31-1.09-.29-1.67.02-1.72.14-3.42.36-5.11.22-1.68.66-3.35,1.31-4.99.6-1.54,1.21-3.08,1.81-4.62s1.21-3.08,1.8-4.65c.23-.53.49-1.06.79-1.6.23-.3.44-.55.64-.72.25-.2.53-.23.83-.08.15.08.25.18.29.3.04.13.06.25.06.38-.03.13-.04.24-.05.34-.01.1-.04.21-.09.34l-2.92,11.85c-.3,1.21-.51,2.42-.63,3.61-.12,1.19-.16,2.39-.1,3.61.03.13.04.25.06.38.01.13.03.32.06.57Z"/>
        <path class="st7" d="M469.16,253.82c-.43-.28-.85-.39-1.25-.34-.4.05-.81.13-1.21.23-.18.05-.35.1-.51.15-.17.05-.34.1-.51.15-.58.18-.95.62-1.1,1.33-.17.99-.35,1.97-.54,2.96-.19.99-.38,1.97-.58,2.96-.2.89-.44,1.76-.71,2.62-.28.86-.69,1.66-1.24,2.4-.18.23-.36.45-.55.67-.19.22-.4.41-.62.59-.65.51-1.36.59-2.12.23-.69-.35-1.09-.96-1.22-1.82-.03-.23-.03-.46-.02-.7s.04-.46.09-.66c.15-.58.3-1.16.45-1.73.15-.57.32-1.13.53-1.69.43-1.14.87-2.27,1.34-3.38s.95-2.24,1.45-3.38c.35-.76.72-1.51,1.11-2.24.39-.73.79-1.47,1.19-2.21.13-.28.28-.53.45-.76.18-.23.37-.46.57-.68.13-.13.27-.25.44-.36.16-.12.33-.21.51-.29.28-.13.54-.09.78.11.24.2.34.48.29.83-.05.13-.1.25-.13.38-.04.13-.08.25-.13.38-.03.13-.04.24-.04.34s-.02.25-.07.46c.4-.18.77-.32,1.1-.42.4-.13.8-.23,1.19-.31.39-.08.8-.1,1.23-.08,1.21.07,2.21.5,3,1.28.79.78,1.24,1.82,1.38,3.11.05.76.05,1.51-.01,2.26-.06.75-.19,1.49-.39,2.22-.18.58-.36,1.17-.54,1.77-.19.6-.42,1.16-.7,1.69-.38.81-.79,1.59-1.24,2.34-.45.75-.91,1.5-1.36,2.26-.23.41-.54.77-.95,1.1-.61.51-1.26.58-1.97.23-.33-.18-.56-.4-.7-.68-.14-.28-.22-.61-.25-.99-.03-.94.12-1.83.45-2.7.28-.73.56-1.47.87-2.2.3-.73.6-1.47.9-2.2.18-.43.36-.87.55-1.31.19-.44.36-.88.51-1.31.15-.43.27-.85.36-1.27.09-.42.08-.87-.02-1.35Z"/>
        <path class="st7" d="M493.05,240.39c.2.13.35.33.44.62.09.29.08.6-.02.93-.08.28-.15.54-.23.8-.07.25-.18.51-.3.76-.78,1.92-1.43,3.88-1.95,5.87-.53,1.99-1.01,4.01-1.46,6.06-.3,1.29-.59,2.58-.86,3.85-.27,1.28-.56,2.56-.86,3.85-.02.2-.09.44-.19.72.1.48.12.92.04,1.31-.07.39-.2.75-.38,1.06-.18.32-.4.59-.68.82-.28.23-.58.42-.91.57-.63.28-1.16.29-1.59.04-.28,0-.57-.11-.87-.34-.1-.08-.2-.16-.3-.25-.1-.09-.2-.17-.3-.25-.35.13-.71.24-1.06.34-.36.1-.71.19-1.06.27-.33.08-.64.14-.95.19-.3.05-.62.08-.95.08-.71,0-1.32-.14-1.84-.43-.52-.29-.95-.67-1.29-1.15-.34-.48-.59-1.02-.74-1.63-.15-.61-.22-1.2-.2-1.78.02-1.09.21-2.16.56-3.23.48-1.39,1.09-2.71,1.85-3.95.8-1.37,1.76-2.42,2.85-3.16,1.1-.74,2.33-1.21,3.7-1.42.43-.08.86-.08,1.29-.02.43.06.9.12,1.41.17.2-.51.4-1,.6-1.48.2-.48.4-.97.6-1.48.48-1.14.99-2.25,1.54-3.33.55-1.08,1.16-2.11,1.81-3.1.23-.38.52-.76.87-1.14.45-.46.93-.52,1.44-.19ZM482.8,261.71c.35-1.19.7-2.36,1.05-3.51.35-1.15.7-2.32,1.05-3.51-.1-.08-.17-.14-.21-.19s-.08-.08-.13-.08c-.89,0-1.68.18-2.39.54-.71.36-1.32.83-1.84,1.41-.52.58-.94,1.26-1.26,2.03s-.55,1.59-.68,2.45c-.05.41,0,.74.18,1,.16.26.42.42.78.47,1.21.27,2.37.07,3.45-.62Z"/>
        <path class="st7" d="M505.65,253.47c.51.73.73,1.49.67,2.27-.06.79-.39,1.51-1,2.17-.3.3-.63.57-.98.78-.36.22-.72.4-1.1.55-.58.25-1.17.45-1.76.59-.59.14-1.2.24-1.8.29-1.44.21-2.45.34-3.02.41-.57.07-.92.11-1.04.14.08.08.15.15.23.21.08.06.15.13.23.21.13.1.24.2.34.28.1.09.21.2.34.32,0-.02.01-.04.04-.04.66.22,1.31.36,1.96.39.64.04,1.29-.06,1.95-.29.12-.05.25-.1.36-.15.11-.05.23-.09.36-.12.35-.1.69-.12,1-.06.32.06.59.19.82.4.23.2.4.45.51.76s.15.63.1.99c-.1.63-.33,1.16-.7,1.58-.37.42-.83.76-1.38,1.01-.18.08-.35.15-.51.21-.16.06-.33.12-.51.17-1.39.43-2.77.57-4.13.39-.38-.05-.74-.11-1.08-.19-.34-.08-.69-.19-1.04-.34-.51-.23-.95-.53-1.33-.91-.68-.58-1.26-1.24-1.71-1.99-.46-.74-.74-1.6-.84-2.56-.13-1.09-.07-2.11.18-3.07.25-.96.74-1.85,1.47-2.66,1.19-1.32,2.5-2.32,3.96-2.99s3.05-.99,4.8-.95c.94,0,1.82.18,2.66.56.84.4,1.49.94,1.98,1.62ZM500.81,255.88c.1-.05.2-.12.3-.21.1-.09.23-.2.38-.32-.15-.08-.29-.15-.4-.23-.12-.08-.24-.11-.36-.11-.53-.1-1.1-.08-1.69.04-.6.13-1.16.35-1.71.65-.54.3-1.04.67-1.49,1.1-.46.43-.81.9-1.06,1.41-.02.05-.03.1-.02.15.01.05,0,.1-.02.15.58-.23,1.16-.45,1.74-.67.58-.22,1.16-.45,1.74-.71.43-.2.86-.41,1.29-.63.43-.22.86-.43,1.29-.63Z"/>
        <path class="st7" d="M515.47,250.94c.61.17,1.2.38,1.79.62.58.24,1.2.38,1.86.43.3,0,.55.11.74.32.19.21.32.46.4.74.15.58,0,1.08-.45,1.48-.23.23-.53.43-.91.61-.38.18-.78.28-1.19.31-.42.03-.84-.03-1.27-.19-.43-.15-.81-.43-1.14-.83-.15-.15-.3-.32-.44-.51-.14-.19-.29-.38-.44-.59-.5,1.04-.91,2.07-1.22,3.1s-.58,2.07-.81,3.13c-.17.76-.3,1.52-.37,2.28-.07.76-.13,1.53-.18,2.31-.02.33-.05.65-.09.97-.04.32-.11.63-.21.93-.2.53-.49.99-.87,1.37-.4.38-.85.64-1.32.78-.48.14-1,.11-1.56-.09-1.06-.38-1.74-1.12-2.02-2.23-.1-.63-.08-1.26.07-1.9.53-2.18,1.2-4.28,2.01-6.32.81-2.04,1.88-3.97,3.19-5.8.23-.3.46-.61.72-.91.25-.3.5-.59.76-.88.28-.28.57-.5.87-.65.38-.2.74-.24,1.1-.12.36.13.62.39.8.79.05.13.08.26.1.4.01.14.04.29.1.44Z"/>
        <path class="st7" d="M545.85,259.33c.04,3.19-1.4,5.46-4.3,6.81-3.36,1.55-6.56,1.15-9.6-1.22-.96-.78-1.56-1.7-1.77-2.76-.22-1.06-.04-2.17.54-3.34.8-1.57,2.03-2.81,3.67-3.73.15-.08.3-.15.44-.23s.28-.15.44-.23l.46-.23c.17-.1.29-.25.34-.46.03-.15,0-.33-.08-.53-.08-.1-.15-.2-.23-.3-.07-.1-.15-.21-.23-.34-.15-.23-.3-.45-.44-.66-.14-.21-.29-.42-.44-.62-.66-1.04-.99-2.04-1-3.03-.03-1.62.65-3,2.04-4.14.66-.53,1.39-.95,2.2-1.24.81-.29,1.77-.5,2.88-.64.71-.05,1.35-.04,1.93.03.96.12,1.84.39,2.62.79,1.29.63,2.14,1.5,2.53,2.61.39,1.11.28,2.33-.35,3.64-.43.96-1.09,1.81-2,2.55-.13.13-.26.24-.4.34-.14.1-.27.22-.4.34-.08.05-.15.11-.23.17s-.15.12-.23.17c-.25.23-.31.49-.19.8.05.08.09.15.12.21.02.06.06.13.11.21.08.15.15.31.23.47.08.17.15.34.23.51.74,1.46,1.11,2.82,1.11,4.06ZM538.35,260.84c.83-.33,1.15-.93.94-1.79-.08-.38-.2-.77-.36-1.17-.17-.4-.43-.8-.78-1.17-.2-.23-.46-.28-.76-.15-1.62.69-2.59,1.84-2.91,3.46-.05.3.08.54.38.72.23.13.46.21.68.26.23.05.47.1.72.15.66.07,1.35-.03,2.09-.31ZM543.16,247.81c.1-.15.14-.32.11-.49-.05-.15-.15-.29-.3-.42l-.08-.04c-.43-.28-.75-.46-.97-.55-.22-.09-.5-.12-.85-.09h-.3c-.35.03-.73.07-1.12.14-.39.06-.76.28-1.12.63-.25.25-.28.53-.07.83.18.28.35.52.51.72.17.2.34.38.52.55.18.16.38.31.61.45.23.14.49.28.8.43.05,0,.09,0,.11.02s.06.02.11.02c.2.05.39-.01.57-.19.03-.05.09-.13.19-.23.1-.13.2-.23.28-.32.09-.09.18-.2.28-.32.1-.13.2-.26.29-.4.09-.14.17-.27.24-.4.05-.05.08-.11.09-.17.01-.06.04-.12.1-.17Z"/>
      </g>
      <path class="st7" d="M557.04,246.71c.14-.2.28-.38.4-.53.13-.15.25-.3.38-.45.14-.15.28-.29.4-.45.12-.15.26-.29.4-.39.14-.11.3-.2.46-.29s.32-.14.49-.18c.45-.11.83-.02,1.13.28.3.3.38.68.26,1.15-.09.27-.18.55-.27.83s-.18.56-.27.83c-.04.14-.08.29-.12.43-.04.15-.09.3-.15.46.41.04.8.06,1.16.08.36.02.72-.05,1.08-.19.45-.18.8-.12,1.06.19.14.2.21.39.19.57s-.08.36-.19.54c-.25.43-.6.71-1.05.84-.2.05-.4.11-.6.15-.2.05-.4.1-.6.15-.05.11-.06.2-.03.26.04.06.08.13.14.2.09.09.17.17.24.26s.15.17.22.26c.2.27.32.55.35.84s-.02.59-.19.89c-.32.62-.84.91-1.54.87-.24,0-.49-.04-.76-.13-.27-.13-.55-.26-.83-.39-.28-.13-.56-.27-.83-.42-.25-.12-.52-.27-.79-.43-.14.13-.27.25-.38.37-.11.12-.22.22-.35.31-.42.33-.86.66-1.32,1.01-.42.27-.82.27-1.22,0-.22-.14-.35-.32-.41-.53-.05-.21-.05-.43,0-.66.04-.14.07-.28.11-.39.04-.12.07-.24.11-.37.05-.14.11-.28.16-.41.05-.13.11-.25.16-.38-.04-.14-.1-.22-.2-.22h-.29c-.32-.02-.65-.03-.99-.05-.33-.02-.65-.08-.96-.19-.11-.03-.22-.07-.33-.11-.11-.03-.21-.09-.3-.16-.25-.16-.37-.37-.35-.62.02-.25.17-.45.46-.6.14-.07.28-.13.42-.16.14-.04.28-.07.42-.11.29-.07.58-.14.87-.21s.59-.14.89-.23c-.05-.11-.1-.2-.15-.28-.04-.08-.09-.16-.15-.23-.16-.25-.34-.49-.53-.7-.19-.22-.37-.45-.53-.7-.09-.14-.17-.29-.25-.43-.07-.14-.13-.29-.16-.43-.09-.34-.04-.64.15-.88.19-.25.46-.39.82-.42.14,0,.3,0,.47.03.17.02.33.04.48.08.41.09.8.21,1.17.38.36.16.72.34,1.09.54.14.09.29.17.43.25.14.08.31.18.49.28Z"/>
    </g>
    <g>
      <path class="st1" d="M537.06,222.34c-8.7-.34-9.36-4.44-7.07-7.14.94-1.11,4.54.03,6.55-.45.88-.21,1-1.4.17-1.77-1.74-.77-5.72-1.54-7.42-1.88-.75-.15-1.23-.97-1.04-1.72.84-3.35,10.45-.24,13.64-2.31,2.99-3.11-8.41-2.65-10.71-2.87,1.63-7,8.58-4.67,14.03-5.53,1.45-.23,2.44-1.56,2.08-2.99-2.93-11.73-20.86-6.36-23.37,3.72-1.48,5.93-2.25,5.29-7.14,5.2-2.16.35-3.28,3.38-1.1,3.02,3.48-.18,8.21-1.15,6.46,3.16,0,.05-1.26.9-1.71.77-1.64-.47-5.59-1.69-7.17-.6-5.41,4.16,3.71,3.76,6.89,4.32.47.08.79.5.82.98.21,3.61,1.42,7.03,4.52,9.91,6.72,8.66,31.91-6.8,11.56-3.83"/>
      <path class="st7" d="M509.98,194.58c-3.44,8.49-7.97,16.25-13.96,23.2-3.27,3.84-7.09,7.23-12,9.07-2.09.74-4.28,1.29-6.47,1.3-1,0-2.1-.08-3.1-.35-1.28-.36-2.46-.72-3.47-1.45-3.56-2.81-7.04-5.72-8.51-10.27-.46-1.27-1.1-2.55-1.56-3.82-1.1-2.73-1.57-5.46-1.58-8.29,0-2.19.26-4.47.89-6.66,1.44-5.84,4.15-11.23,7.05-16.43,3.53-6.3,7.34-12.51,12.25-17.91,2.18-2.29,4.27-4.75,7.36-5.95.73-.28.91-.82,1-1.46.36-2.92.81-3.29,3.72-3.75,1.64-.28,3.28-.38,4.92-.38,1.19,0,2.28.27,3.19.81,5.48,3.17,10.05,7.26,12.44,13.36,1.2,3.1,1.84,6.19,1.85,8.38v.46c-.06,7.93-1.68,14.14-4.03,20.16ZM475.2,207.28c.83,1.46,1.74,2.18,2.83,2.18.64,0,1.37-.19,2.28-.74,1.37-.73,2.64-1.56,3.82-2.56,3.18-2.47,5.72-5.4,8.08-8.6,4.63-6.4,7.79-13.43,8.86-21.36.09-.82.18-1.55.18-2.19-.01-3.74-1.75-6.19-5.5-8-.55-.27-1.19-.36-1.73-.63-.64-.45-1.37-.73-1.92-.72-.64,0-1.28.37-1.73,1.46-.09.18-.36.46-.63.46-1.37.28-1.91,1.38-2.54,2.29-1.18,2.01-2.54,4.02-3.63,6.12-3.62,6.94-7.06,13.97-8.95,21.73-.36,1.37-.63,2.74-.62,4.1v.46c0,2.37.47,4.56,1.21,6.01Z"/>
    </g>
    <g>
      <g>
        <path class="st7" d="M251.07,262.71c.2-.18.35-.3.46-.38.1-.08.19-.17.26-.27.35-.43.67-.86.94-1.29.28-.43.52-.9.72-1.41.3-.78.6-1.56.9-2.32.3-.76.6-1.53.9-2.32.43-1.14.85-2.28,1.28-3.42.43-1.14.88-2.28,1.36-3.42.35-.81.73-1.62,1.15-2.41s.84-1.6,1.26-2.41c.33-.56.68-1.05,1.06-1.48.35-.43.79-.72,1.3-.88.52-.15,1.03-.13,1.54.07.56.2.98.5,1.27.91.29.4.43.87.4,1.4-.03.23-.05.46-.07.68-.03.23-.06.46-.11.68-.2.79-.41,1.56-.62,2.33-.21.77-.47,1.53-.77,2.26-.73,1.82-1.47,3.62-2.22,5.38-.75,1.76-1.52,3.54-2.3,5.34-.22.56-.49,1.1-.79,1.62s-.6,1.04-.9,1.58c-.6,1.04-1.4,2-2.38,2.89-.46.41-.94.76-1.44,1.05-.51.29-1.06.53-1.67.71-.96.31-1.95.29-2.96-.07-.76-.2-1.33-.6-1.71-1.21-.3-.5-.57-1.02-.78-1.55-.22-.53-.31-1.09-.29-1.67.02-1.72.14-3.42.36-5.11.22-1.68.66-3.35,1.31-4.99.6-1.54,1.21-3.08,1.81-4.62s1.21-3.08,1.8-4.65c.23-.53.49-1.06.79-1.6.23-.3.44-.55.64-.72.25-.2.53-.23.83-.08.15.08.25.18.29.3.04.13.06.25.06.38-.03.13-.04.24-.05.34-.01.1-.04.21-.09.34l-2.92,11.85c-.3,1.21-.51,2.42-.63,3.61-.12,1.19-.16,2.39-.1,3.61.03.13.04.25.06.38.01.13.03.32.06.57Z"/>
        <path class="st7" d="M272.97,253.84c-.43-.28-.85-.39-1.25-.34-.4.05-.81.13-1.21.23-.18.05-.35.1-.51.15-.17.05-.34.1-.51.15-.58.18-.95.62-1.1,1.33-.17.99-.35,1.97-.54,2.96-.19.99-.38,1.97-.58,2.96-.2.89-.44,1.76-.71,2.62-.28.86-.69,1.66-1.24,2.4-.18.23-.36.45-.55.67-.19.22-.4.41-.62.59-.65.51-1.36.59-2.12.23-.69-.35-1.09-.96-1.22-1.82-.03-.23-.03-.46-.02-.7s.04-.46.09-.66c.15-.58.3-1.16.45-1.73.15-.57.32-1.13.53-1.69.43-1.14.87-2.27,1.34-3.38s.95-2.24,1.45-3.38c.35-.76.72-1.51,1.11-2.24.39-.73.79-1.47,1.19-2.21.13-.28.28-.53.45-.76.18-.23.37-.46.57-.68.13-.13.27-.25.44-.36.16-.12.33-.21.51-.29.28-.13.54-.09.78.11.24.2.34.48.29.83-.05.13-.1.25-.13.38-.04.13-.08.25-.13.38-.03.13-.04.24-.04.34s-.03.25-.07.46c.4-.18.77-.32,1.1-.42.4-.13.8-.23,1.19-.31.39-.08.8-.1,1.23-.08,1.21.07,2.21.5,3,1.28.79.78,1.24,1.82,1.38,3.11.05.76.05,1.51,0,2.26-.06.75-.19,1.49-.39,2.22-.18.58-.36,1.17-.54,1.77-.19.6-.42,1.16-.7,1.69-.38.81-.79,1.59-1.24,2.34-.45.75-.91,1.5-1.36,2.26-.23.41-.54.77-.95,1.1-.61.51-1.26.58-1.97.23-.33-.18-.56-.4-.7-.68-.14-.28-.22-.61-.25-.99-.03-.94.12-1.83.45-2.7.28-.73.56-1.47.87-2.2.3-.73.6-1.47.9-2.2.17-.43.36-.87.54-1.31.19-.44.36-.88.51-1.31.15-.43.27-.85.36-1.27.09-.42.08-.87-.02-1.35Z"/>
        <path class="st7" d="M296.87,240.4c.2.13.35.33.44.62.09.29.08.6-.01.93-.08.28-.15.54-.23.8-.07.25-.18.51-.3.76-.78,1.92-1.43,3.88-1.95,5.87-.53,1.99-1.01,4.01-1.46,6.06-.3,1.29-.59,2.58-.86,3.85-.27,1.28-.56,2.56-.86,3.85-.02.2-.09.44-.19.72.1.48.12.92.04,1.31-.07.39-.2.75-.38,1.06-.18.32-.4.59-.68.82s-.58.42-.91.57c-.63.28-1.16.29-1.59.04-.28,0-.57-.11-.87-.34-.1-.08-.2-.16-.3-.25-.1-.09-.2-.17-.3-.25-.35.13-.71.24-1.06.34-.36.1-.71.19-1.06.27-.33.08-.64.14-.95.19-.3.05-.62.08-.95.08-.71,0-1.32-.14-1.84-.43-.52-.29-.95-.67-1.29-1.15-.34-.48-.59-1.02-.74-1.63-.16-.61-.22-1.2-.2-1.78.02-1.09.21-2.16.56-3.23.48-1.39,1.09-2.71,1.85-3.95.8-1.37,1.76-2.42,2.85-3.16,1.1-.74,2.33-1.21,3.7-1.42.43-.08.86-.08,1.29-.02.43.06.9.12,1.41.17.2-.51.4-1,.6-1.48.2-.48.4-.97.6-1.48.48-1.14.99-2.25,1.54-3.33.55-1.08,1.16-2.11,1.81-3.1.23-.38.52-.76.87-1.14.45-.46.93-.52,1.44-.19ZM286.62,261.72c.35-1.19.7-2.36,1.05-3.51.35-1.15.7-2.32,1.05-3.51-.1-.08-.17-.14-.21-.19s-.08-.08-.13-.08c-.89,0-1.68.18-2.39.54-.71.36-1.32.83-1.84,1.41-.52.58-.94,1.26-1.26,2.03s-.55,1.59-.68,2.45c-.05.41,0,.74.18,1,.16.26.42.42.78.47,1.21.27,2.36.07,3.45-.62Z"/>
        <path class="st7" d="M309.47,253.49c.51.73.73,1.49.67,2.27-.06.79-.39,1.51-1,2.17-.3.3-.63.57-.98.78-.36.22-.72.4-1.1.55-.58.25-1.17.45-1.76.59-.6.14-1.2.24-1.8.29-1.44.21-2.45.34-3.02.41-.57.07-.92.11-1.04.14.08.08.15.15.23.21.08.06.15.13.23.21.12.1.24.2.34.28.1.09.21.2.34.32,0-.02.01-.04.04-.04.66.22,1.31.36,1.96.39.64.04,1.29-.06,1.95-.29.12-.05.25-.1.36-.15.11-.05.23-.09.36-.12.35-.1.69-.12,1-.06.32.06.59.19.82.4.23.2.4.45.51.76s.15.63.1.99c-.1.63-.33,1.16-.7,1.58-.37.42-.83.76-1.38,1.01-.18.08-.35.15-.51.21-.16.06-.33.12-.51.17-1.39.43-2.77.57-4.13.39-.38-.05-.74-.11-1.08-.19-.34-.08-.69-.19-1.04-.34-.51-.23-.95-.53-1.33-.91-.68-.58-1.26-1.24-1.71-1.99-.46-.74-.74-1.6-.84-2.56-.13-1.09-.07-2.11.18-3.07.25-.96.74-1.85,1.47-2.66,1.19-1.32,2.5-2.32,3.96-2.99s3.05-.99,4.8-.95c.94,0,1.82.18,2.66.56.84.4,1.49.94,1.98,1.62ZM304.62,255.89c.1-.05.2-.12.3-.21.1-.09.23-.2.38-.32-.15-.08-.29-.15-.4-.23-.12-.08-.24-.11-.36-.11-.53-.1-1.1-.08-1.69.04-.6.13-1.16.35-1.71.65-.54.3-1.04.67-1.49,1.1-.46.43-.81.9-1.06,1.41-.03.05-.03.1-.02.15.01.05,0,.1-.02.15.58-.23,1.16-.45,1.74-.67.58-.22,1.16-.45,1.74-.71.43-.2.86-.41,1.29-.63.43-.22.86-.43,1.29-.63Z"/>
        <path class="st7" d="M319.29,250.95c.61.17,1.2.38,1.79.62.58.24,1.2.38,1.86.43.3,0,.55.11.74.32.19.21.32.46.4.74.15.58,0,1.08-.45,1.48-.23.23-.53.43-.91.61-.38.18-.78.28-1.19.31-.42.03-.84-.03-1.27-.18-.43-.15-.81-.43-1.14-.83-.15-.15-.3-.32-.44-.51-.14-.19-.29-.38-.44-.59-.5,1.04-.91,2.07-1.22,3.1s-.58,2.07-.81,3.13c-.17.76-.3,1.52-.37,2.28-.07.76-.13,1.53-.18,2.31-.02.33-.05.65-.09.97-.04.32-.11.63-.21.93-.2.53-.49.99-.87,1.37-.4.38-.85.64-1.32.78-.48.14-1,.11-1.56-.09-1.06-.38-1.74-1.12-2.02-2.23-.11-.63-.08-1.26.07-1.9.53-2.18,1.19-4.28,2.01-6.32.81-2.04,1.88-3.97,3.19-5.8.23-.3.46-.61.72-.91.25-.3.5-.59.76-.88.28-.28.57-.5.87-.65.38-.2.75-.24,1.1-.12.35.13.62.39.8.79.05.13.08.26.1.4.01.14.04.29.1.44Z"/>
        <path class="st7" d="M338.71,249.25c.76-.71,1.53-1.5,2.33-2.36.79-.86,1.49-1.83,2.1-2.89.05-.1.11-.2.19-.29.07-.09.15-.18.23-.28.28-.28.59-.45.93-.52.34-.06.68,0,1.01.17.36.2.61.48.76.83.15.35.17.72.04,1.1-.08.2-.16.41-.26.61-.1.2-.24.44-.41.72-.88,1.5-1.66,3.11-2.34,4.85-.68,1.74-1.32,3.74-1.92,6.02-.1.33-.19.66-.26.99-.07.33-.16.66-.26.99-.25.96-.51,1.94-.77,2.94-.26,1-.58,1.98-.96,2.94l-.04.04c-.07.2-.15.39-.22.57-.07.18-.16.36-.26.53-.43.76-1,1.05-1.71.88-.71-.15-1.13-.64-1.26-1.48-.05-.51-.05-1.05,0-1.63.1-1.14.26-2.28.48-3.42.22-1.14.54-2.33.94-3.57.05-.2.09-.38.13-.53.04-.15.08-.29.13-.42.05-.08.07-.15.06-.23-.01-.08-.02-.15-.02-.23s-.01-.13-.04-.15c0-.2-.09-.38-.27-.53-.05-.02-.1-.05-.15-.07-.05-.03-.1-.04-.15-.04h-.23c-.1.05-.2.08-.28.1-.09.01-.17.03-.25.06-.2.05-.39.1-.57.13-.18.04-.36.08-.53.13-.23.05-.4.05-.51-.02-.11-.06-.21-.14-.28-.25-.23-.28-.23-.57,0-.87.2-.3.4-.58.6-.84.2-.25.4-.48.61-.69.35-.35.7-.69,1.04-1.01.34-.32.69-.65,1.04-1.01.23-.2.45-.41.68-.63.23-.22.46-.44.68-.67Z"/>
        <path class="st7" d="M358.44,249.8c-.2.23-.19.46.04.68,1.78,2.35,2.39,5.17,1.85,8.45-.45,2.43-1.73,4.45-3.85,6.05-1.39,1.02-2.93,1.62-4.62,1.8-.13.03-.32.04-.57.04-.46,0-.92-.07-1.4-.21-.48-.14-.95-.36-1.39-.68-.44-.31-.84-.72-1.18-1.23-.34-.5-.61-1.14-.79-1.89-.33-1.24-.3-2.72.1-4.44.18-.66.38-1.3.62-1.94.24-.63.53-1.29.88-1.98,1.41-2.79,3.16-5.36,5.25-7.72,1.13-1.29,2.42-2.44,3.86-3.43.28-.2.55-.37.83-.5.28-.13.55-.25.83-.38.23-.08.44-.11.64-.12.48,0,.94.24,1.37.72.56.61.69,1.35.39,2.24-.08.25-.19.51-.34.76-.15.25-.3.5-.45.72-.18.28-.35.54-.53.8-.18.25-.37.52-.57.8-.2.25-.4.53-.6.84-.05.08-.1.15-.15.23-.05.08-.1.14-.15.19,0,.03-.02.09-.07.19ZM356.77,259.63c.28-.46.49-.96.66-1.5.16-.54.26-1.11.28-1.69.02-.58-.02-1.16-.12-1.74-.1-.58-.27-1.12-.5-1.63-.08-.18-.23-.3-.46-.38-.2-.05-.38-.01-.53.12-.05.05-.09.08-.11.08-.18.08-.33.2-.46.38-.08.1-.16.2-.25.3s-.18.22-.28.34c-.43.53-.85,1.07-1.27,1.6s-.84,1.08-1.27,1.63c-.43.56-.82,1.21-1.17,1.94-.2.38-.37.79-.51,1.22-.14.43-.16.92-.05,1.48.1.3.31.48.61.53.08,0,.16,0,.25,0,.09,0,.18.01.29.04.96,0,1.88-.25,2.75-.73s1.58-1.14,2.14-1.98Z"/>
      </g>
      <path class="st7" d="M370.34,246.71c.14-.2.28-.38.4-.53.13-.15.25-.3.38-.45.14-.15.28-.29.4-.45.12-.15.26-.29.4-.39.14-.11.3-.2.46-.29s.32-.14.49-.18c.45-.11.83-.02,1.13.28.3.3.38.68.26,1.15-.09.27-.18.55-.27.83s-.18.56-.27.83c-.04.14-.08.29-.12.43-.04.15-.09.3-.15.46.41.04.8.06,1.16.08.36.02.72-.05,1.08-.19.45-.18.8-.12,1.06.19.14.2.21.39.19.57s-.08.36-.19.54c-.25.43-.6.71-1.05.84-.2.05-.4.11-.6.15-.2.05-.4.1-.6.15-.05.11-.06.2-.03.26.04.06.08.13.14.2.09.09.17.17.24.26s.15.17.22.26c.2.27.32.55.35.84s-.02.59-.19.89c-.32.62-.84.91-1.54.87-.24,0-.49-.04-.76-.13-.27-.13-.55-.26-.83-.39-.28-.13-.56-.27-.83-.42-.25-.12-.52-.27-.79-.43-.14.13-.27.25-.38.37-.11.12-.22.22-.35.31-.42.33-.86.66-1.32,1.01-.42.27-.82.27-1.22,0-.22-.14-.35-.32-.41-.53-.05-.21-.05-.43,0-.66.04-.14.07-.28.11-.39.04-.12.07-.24.11-.37.05-.14.11-.28.16-.41.05-.13.11-.25.16-.38-.04-.14-.1-.22-.2-.22h-.29c-.32-.02-.65-.03-.99-.05-.33-.02-.65-.08-.96-.19-.11-.03-.22-.07-.33-.11-.11-.03-.21-.09-.3-.16-.25-.16-.37-.37-.35-.62.02-.25.17-.45.46-.6.14-.07.28-.13.42-.16.14-.04.28-.07.42-.11.29-.07.58-.14.87-.21s.59-.14.89-.23c-.05-.11-.1-.2-.15-.28-.04-.08-.09-.16-.15-.23-.16-.25-.34-.49-.53-.7-.19-.22-.37-.45-.53-.7-.09-.14-.17-.29-.25-.43-.07-.14-.13-.29-.16-.43-.09-.34-.04-.64.15-.88.19-.25.46-.39.82-.42.14,0,.3,0,.47.03.17.02.33.04.48.08.41.09.8.21,1.17.38.36.16.72.34,1.09.54.14.09.29.17.43.25.14.08.31.18.49.28Z"/>
    </g>
    <g>
      <path class="st7" d="M59.09,243.77c.03.15.04.31.06.47.01.17.03.34.06.51v.26c0,.58,0,1.17-.01,1.76-.01.59-.03,1.18-.05,1.76v1.9c0,.33,0,.65,0,.97-.01.32-.04.64-.09.97,0,.08.02.14.08.19-.12,1.44-.19,2.86-.21,4.25-.02,1.39-.02,2.81.01,4.25,0,.66-.06,1.32-.18,1.97-.12.66-.32,1.32-.6,1.98-.08.18-.16.36-.26.53-.1.18-.21.34-.34.49-.61.79-1.43,1.14-2.46,1.07-1.01-.07-1.7-.55-2.05-1.44-.05-.15-.08-.31-.1-.47-.01-.17-.04-.32-.1-.47l.17-5.43s-.09.04-.13.04-.08.01-.13.04c-.51.05-1.01.12-1.52.21-.5.09-1.01.16-1.52.21-.3.05-.63.05-.99,0l-.83,1.75-2.22,4.79s-.07.09-.13.19c-.06.1-.16.2-.3.3-.14.1-.3.18-.49.25-.19.06-.41.07-.66.02-.15-.05-.27-.1-.34-.15-.18-.05-.3-.19-.38-.42-.05-.1-.08-.2-.08-.3s0-.25,0-.46c.02-.08.04-.17.04-.28,0-.11.02-.25.07-.4.05-.1.09-.23.13-.38.04-.15.09-.33.17-.53.2-.63.74-2.08,1.62-4.35.88-2.27,2.28-5.31,4.22-9.14.12-.28.3-.63.53-1.06.23-.43.48-.91.75-1.45.25-.58.58-1.2.98-1.86.35-.58.79-1.24,1.3-1.98.52-.74,1.14-1.51,1.87-2.32.15-.18.3-.35.45-.51.15-.17.31-.32.49-.48.4-.2.82-.32,1.25-.35.43-.03.81.14,1.14.49.3.33.5.73.59,1.21.09.48.16.94.21,1.37ZM53.47,255.78c.2-1.42.43-2.82.71-4.2.27-1.38.57-2.75.9-4.12-.25.41-.53.88-.85,1.43s-.63,1.12-.94,1.73c-.31.61-.62,1.21-.92,1.81-.3.6-.57,1.16-.79,1.69l-1.4,2.77c1.11-.51,2.21-.88,3.3-1.11Z"/>
      <path class="st7" d="M79.68,240.14c.2.13.35.33.44.62.09.29.08.6-.01.93-.08.28-.15.54-.23.8-.07.25-.17.51-.3.76-.78,1.93-1.43,3.88-1.95,5.87-.52,1.99-1.01,4.01-1.46,6.06-.3,1.29-.59,2.58-.86,3.85-.27,1.28-.56,2.56-.86,3.85-.02.2-.09.44-.19.72.1.48.12.92.04,1.31-.07.39-.2.75-.38,1.06-.18.32-.4.59-.68.82-.28.23-.58.42-.91.57-.63.28-1.16.29-1.59.04-.28,0-.57-.11-.87-.34-.1-.08-.2-.16-.3-.25-.1-.09-.2-.17-.3-.25-.35.13-.71.24-1.06.34-.35.1-.71.19-1.06.27-.33.08-.64.14-.95.19-.3.05-.62.08-.95.08-.71,0-1.32-.14-1.84-.43-.52-.29-.95-.67-1.29-1.15-.34-.48-.59-1.02-.75-1.63-.15-.61-.22-1.2-.2-1.78.02-1.09.21-2.16.56-3.23.48-1.39,1.09-2.71,1.85-3.95.8-1.37,1.76-2.42,2.85-3.16,1.1-.74,2.33-1.21,3.69-1.42.43-.08.86-.08,1.29-.02.43.06.9.12,1.41.17.2-.51.4-1,.6-1.48.2-.48.4-.97.6-1.48.48-1.14.99-2.25,1.54-3.33.55-1.08,1.16-2.11,1.81-3.1.23-.38.52-.76.87-1.14.45-.46.93-.52,1.44-.19ZM69.43,261.46c.35-1.19.7-2.36,1.05-3.51s.7-2.32,1.05-3.51c-.1-.08-.17-.14-.21-.19-.04-.05-.08-.08-.13-.08-.89,0-1.68.18-2.39.54-.71.36-1.32.83-1.84,1.41s-.94,1.26-1.26,2.03c-.33.77-.55,1.59-.68,2.45-.05.41,0,.74.17,1.01.17.26.43.42.78.47,1.21.27,2.36.07,3.45-.62Z"/>
      <path class="st7" d="M81.5,262.55c.12-.2.25-.39.36-.57.11-.18.23-.37.36-.57.68-1.27,1.36-2.52,2.04-3.74.68-1.23,1.37-2.48,2.07-3.75.2-.38.42-.77.66-1.16.24-.39.48-.78.74-1.16.23-.3.5-.55.81-.74.31-.19.69-.3,1.12-.33.73-.03,1.35.19,1.84.66.5.47.71,1.05.63,1.76-.02.18-.06.35-.11.53-.05.18-.1.37-.15.57-.33.94-.65,1.86-.98,2.77-.33.91-.66,1.84-1.01,2.77-.35.89-.77,1.75-1.24,2.58s-1.01,1.66-1.59,2.47c-.3.41-.62.79-.96,1.16-.34.37-.72.69-1.15.97-.5.36-1.05.61-1.63.76-.58.15-1.16.21-1.73.16-.57-.05-1.13-.19-1.67-.43-.54-.24-1.02-.57-1.42-1-.41-.43-.71-.88-.9-1.36-.19-.48-.31-.99-.37-1.52-.05-.73-.04-1.45.03-2.16.07-.71.21-1.42.41-2.13.07-.35.17-.7.28-1.04.11-.34.23-.69.36-1.04.8-2.05,1.81-3.99,3.02-5.82.15-.25.33-.51.53-.76.25-.28.53-.36.83-.23.38.13.54.35.5.68,0,.33-.04.62-.11.87-.18.66-.34,1.3-.51,1.92-.16.62-.33,1.26-.51,1.92-.5,1.77-.79,3.52-.86,5.24,0,.28,0,.56,0,.83,0,.28.1.57.31.87Z"/>
      <path class="st7" d="M99.45,253.09c-.3,1.29-.59,2.58-.88,3.85-.29,1.28-.58,2.56-.88,3.85-.05.28-.11.54-.19.8-.08.25-.15.52-.22.8.1.03.2.04.28.04s.2.01.32.04c.28.05.55.09.82.13.26.04.54.08.82.13.51.08.84.4.99.96.15.57.13,1.12-.07,1.65-.15.36-.33.63-.53.84-.2.2-.43.37-.68.5-.58.28-1.16.5-1.74.67-.58.17-1.18.25-1.78.25-.43-.05-.84-.11-1.23-.17-.39-.06-.79-.13-1.2-.21-.4-.08-.75-.23-1.03-.45-.23-.18-.4-.4-.51-.68-.12-.28-.16-.55-.14-.83-.05-.3-.08-.61-.08-.93s-.01-.63-.04-.93c.08-.35.15-.7.22-1.04.08-.34.16-.68.26-1.01.4-1.44.79-2.87,1.18-4.29.39-1.42.79-2.85,1.22-4.29.35-1.29.76-2.54,1.24-3.74s.99-2.41,1.54-3.63c.35-.73.73-1.46,1.13-2.17.4-.71.83-1.41,1.28-2.09.3-.43.58-.77.83-1.03s.52-.43.8-.53c.28-.1.53-.06.76.11s.34.42.34.72c0,.18-.01.35-.04.51-.02.17-.06.32-.11.47-.45,1.97-.9,3.92-1.35,5.85-.45,1.92-.9,3.87-1.35,5.85Z"/>
      <path class="st7" d="M109.19,262.23c.35.02.67.04.95.04s.56.01.83.04c.13,0,.26,0,.4-.02.14-.01.27,0,.4.02.4.02.76.14,1.06.34.3.2.53.45.68.76.15.3.22.64.21,1-.01.37-.13.73-.36,1.08-.45.71-1.1,1.21-1.93,1.49-.93.31-1.87.49-2.81.56s-1.88-.04-2.85-.31c-.96-.25-1.71-.78-2.24-1.59-.53-.81-.75-1.74-.65-2.81.05-.46.12-.91.22-1.35s.21-.88.34-1.31c.38-1.16.76-2.32,1.15-3.46.39-1.14.78-2.28,1.18-3.42.05-.2.11-.41.19-.63.08-.21.15-.44.23-.67-.35-.12-.7-.18-1.02-.17-.33.01-.66.02-.99.02h-1.48c-.28,0-.51-.04-.68-.14-.23-.1-.37-.25-.42-.45-.05-.15-.03-.29.06-.4.09-.11.19-.2.32-.25.33-.15.67-.27,1.02-.34.58-.1,1.14-.19,1.69-.27.54-.08,1.11-.16,1.69-.23.13-.03.25-.04.36-.06.11-.01.25-.03.4-.06l.68-1.48c.43-.91.89-1.81,1.38-2.68.49-.88,1.02-1.72,1.6-2.53.28-.46.59-.84.94-1.14.4-.35.83-.44,1.29-.27.53.23.77.63.73,1.21,0,.25-.02.5-.07.74-.05.24-.1.49-.15.74-.15.66-.31,1.3-.47,1.94s-.32,1.28-.47,1.94c-.05.15-.08.3-.08.46,0,.15-.02.32-.07.49.28.13.56.18.84.15s.55-.04.83-.04c.15,0,.3,0,.46-.02s.32-.02.49-.02c.28,0,.51.08.7.24.19.16.31.37.36.62.13.46-.06.84-.57,1.14-.68.33-1.44.5-2.27.5h-1.4c-.28.56-.46,1.13-.56,1.7-.1.57-.24,1.15-.41,1.73-.17.58-.34,1.18-.49,1.79-.15.61-.3,1.2-.45,1.79-.15.58-.32,1.16-.51,1.73-.19.57-.28,1.2-.28,1.88Z"/>
      <path class="st7" d="M129.8,253.1c.51.73.73,1.49.67,2.27-.06.79-.39,1.51-1,2.17-.3.3-.63.57-.98.78-.35.22-.72.4-1.1.55-.58.25-1.17.45-1.76.59-.59.14-1.19.24-1.8.29-1.44.21-2.45.34-3.02.41-.57.07-.92.11-1.04.14.08.08.15.15.23.21.08.06.15.13.23.21.13.1.24.2.34.28.1.09.22.2.34.32,0-.02.01-.04.04-.04.66.23,1.31.36,1.96.39.65.04,1.3-.06,1.95-.29.13-.05.25-.1.36-.15.11-.05.23-.09.36-.12.35-.1.69-.12,1-.06.32.06.59.19.82.4.23.2.4.45.51.76.12.3.15.63.1.99-.1.63-.33,1.16-.7,1.58-.37.42-.83.76-1.38,1.01-.18.08-.35.15-.51.21-.17.06-.33.12-.51.17-1.39.43-2.77.57-4.13.39-.38-.05-.74-.11-1.08-.19-.34-.07-.69-.19-1.04-.34-.51-.23-.95-.53-1.33-.91-.68-.58-1.26-1.24-1.71-1.99-.46-.74-.74-1.6-.84-2.56-.13-1.09-.07-2.11.18-3.07s.74-1.85,1.47-2.66c1.18-1.32,2.5-2.32,3.96-2.99s3.05-.99,4.8-.95c.94,0,1.82.18,2.66.56.84.4,1.5.94,1.98,1.62ZM124.95,255.5c.1-.05.2-.12.3-.21.1-.09.23-.2.38-.32-.15-.08-.29-.15-.4-.23-.12-.08-.24-.11-.36-.11-.53-.1-1.09-.08-1.69.04-.59.13-1.16.35-1.71.65-.54.3-1.04.67-1.5,1.1-.45.43-.81.9-1.06,1.41-.03.05-.03.1-.02.15.01.05,0,.1-.02.15.58-.23,1.16-.45,1.74-.67s1.16-.45,1.74-.71c.43-.2.86-.41,1.29-.63.43-.22.86-.43,1.29-.63Z"/>
      <path class="st7" d="M141.08,256.63c.25.2.5.4.72.61.23.2.44.43.65.68.76.88,1.18,1.81,1.26,2.78.08.97-.17,1.96-.75,2.94-.75,1.24-1.79,2.19-3.1,2.86-1.36.71-2.75,1.12-4.17,1.21-1.42.09-2.85-.08-4.29-.54-.46-.12-.85-.35-1.18-.68-.33-.28-.57-.6-.72-.96-.15-.37-.22-.74-.21-1.14.01-.39.1-.77.28-1.12.18-.36.44-.67.79-.95.2-.18.42-.32.66-.44.24-.12.5-.22.78-.33.55-.18,1.11-.34,1.67-.5.56-.15,1.12-.32,1.71-.5.28-.08.54-.15.78-.23s.5-.17.78-.27c.15-.05.24-.09.27-.11.05-.2.02-.33-.08-.4-.1-.06-.19-.12-.27-.17-.2-.15-.41-.3-.61-.45-.2-.15-.41-.3-.61-.45-.43-.33-.8-.67-1.1-1.02-.43-.5-.74-1.04-.92-1.61-.18-.57-.23-1.12-.14-1.67s.3-1.05.64-1.52c.34-.47.8-.88,1.38-1.24,2.1-1.17,4.3-1.44,6.6-.82.4.13.79.31,1.14.57.2.18.33.4.38.66.05.27-.02.54-.22.82-.2.25-.44.38-.72.38-.13,0-.25-.02-.38-.07-.58-.15-1.15-.18-1.69-.09-.54.09-1.08.24-1.61.44-.43.15-.73.3-.89.44-.16.14-.37.38-.62.7.28.13.54.26.78.4s.5.27.78.4c.38.23.76.45,1.14.68.38.23.75.47,1.1.72Z"/>
    </g>
  </g>
  <g>
    <g id="Tratteggio">
      <path id="Fill-1" class="st3" d="M297.88,135.55c1.89-1.93,3.76-3.88,5.6-5.84,1.85-1.95,3.67-3.94,5.47-5.94.49-.55,1.3-.59,1.8-.1.5.49.51,1.34.02,1.89-.03.03-.06.07-.09.09-1.99,1.83-4.04,3.6-6.11,5.34-2.08,1.72-4.2,3.38-6.37,4.97-.12.09-.28.06-.36-.06-.07-.11-.05-.26.04-.35"/>
      <path id="Fill-3" class="st3" d="M320.52,108.84l5.8-5.69c1.92-1.91,3.89-3.76,5.84-5.64l.07-.07c.94-.91,2.39-.89,3.23.04.85.93.77,2.42-.17,3.33-.01.01-.03.03-.04.04-2.02,1.85-4.02,3.72-6.06,5.54l-6.1,5.49c-.85.76-2.11.7-2.81-.14-.69-.82-.6-2.07.18-2.83l.07-.07Z"/>
      <path id="Fill-5" class="st3" d="M345.56,82.86c1.94-1.93,3.88-3.86,5.86-5.76l5.94-5.68h0c.72-.69,1.83-.67,2.48.04.62.67.6,1.73,0,2.42l-5.48,6.16c-1.82,2.06-3.69,4.07-5.56,6.09-.89.96-2.36,1.03-3.28.15-.92-.88-.95-2.37-.06-3.33.02-.02.04-.04.06-.07l.02-.02Z"/>
      <path id="Fill-9" class="st3" d="M370.05,61.54l12.41-10.67c.77-.66,1.91-.57,2.55.19.64.76.55,1.92-.22,2.57-.03.03-.07.06-.1.08l-.1.08-12.99,9.61-.06.05c-.54.4-1.3.29-1.69-.26-.37-.52-.28-1.24.2-1.65"/>
      <path id="Fill-11" class="st3" d="M398,38.74c4.58-3.09,9.32-5.94,14.15-8.58,1.29-.7,2.8-.22,3.39,1.08.59,1.3.02,2.92-1.26,3.62-.02.01-.05.03-.07.04-4.75,2.4-9.4,5.06-13.96,7.89-1.13.7-2.53.35-3.13-.79-.58-1.11-.18-2.55.88-3.27"/>
      <path id="Fill-13" class="st4" d="M429.94,22.41c2.69-.88,5.4-1.68,8.13-2.42,2.73-.75,5.49-1.34,8.26-1.92,1.57-.33,3.14.67,3.5,2.22.36,1.54-.6,3.06-2.14,3.41-2.67.6-5.31,1.31-7.95,1.99-2.64.7-5.25,1.46-7.84,2.3-1.55.5-3.25-.34-3.78-1.88-.54-1.54.27-3.2,1.83-3.7"/>
      <path id="Fill-15" class="st5" d="M464.54,13.91c5.4-.44,10.81-.77,16.21-1.14,1.12-.08,2.13.74,2.26,1.83.13,1.05-.61,1.96-1.66,2.1h-.07c-5.31.69-10.6,1.41-15.91,2.03h-.1c-1.36.17-2.65-.78-2.88-2.11-.23-1.33.7-2.54,2.06-2.7.03,0,.06,0,.09,0"/>
      <path id="Fill-17" class="st6" d="M499.56,10.31c4.89-.44,9.78-.98,14.7-1.34h0c.15-.01.26.1.26.25,0,.14-.09.25-.22.29-4.84,1.17-9.71,2.16-14.57,3.25-.65.15-1.25-.28-1.35-.94-.1-.67.34-1.32.99-1.47.05-.01.1-.02.14-.02h.04Z"/>
    </g>
    <g id="Tratteggio1" data-name="Tratteggio">
      <path id="Fill-111" data-name="Fill-11" class="st6" d="M56.62,398.54c2.52.81,5.09,1.5,7.67,2.04,2.6.51,5.21.89,7.84,1.13.66.06,1.15.67,1.09,1.37-.06.7-.66,1.22-1.32,1.16h-.07c-5.38-.8-10.67-2.12-15.78-3.91-.47-.16-.71-.69-.55-1.19.16-.48.66-.74,1.12-.6"/>
      <path id="Fill-131" data-name="Fill-13" class="st5" d="M91.06,401.25c2.6-.33,5.16-.75,7.72-1.29,2.55-.54,5.09-1.16,7.6-1.87,1.13-.32,2.3.34,2.61,1.48.31,1.14-.35,2.33-1.47,2.66-.03,0-.07.02-.1.03-2.64.61-5.29,1.16-7.97,1.56-2.68.4-5.38.69-8.07.87-.93.06-1.74-.66-1.8-1.61-.05-.92.61-1.71,1.49-1.82"/>
      <path id="Fill-151" data-name="Fill-15" class="st4" d="M123.83,391.74c4.94-1.99,9.77-4.24,14.48-6.69,1.29-.67,2.92-.21,3.64,1.03.72,1.24.25,2.79-1.04,3.46-.01,0-.04.02-.05.03-4.91,2.42-9.94,4.63-15.09,6.58-1.28.48-2.73-.12-3.25-1.34-.51-1.21.08-2.57,1.32-3.08"/>
      <path id="Fill-171" data-name="Fill-17" class="st3" d="M154.38,374.69c2.15-1.56,4.3-3.11,6.42-4.73,2.12-1.61,4.2-3.27,6.26-4.96,1.23-1.01,3-.79,3.95.49.95,1.28.72,3.14-.51,4.16h0c-2.12,1.73-4.26,3.43-6.44,5.08-2.18,1.64-4.37,3.28-6.62,4.81-1.3.88-3.01.5-3.83-.85-.8-1.32-.45-3.09.79-3.99"/>
      <path id="Fill-19" class="st3" d="M181.69,353.58c3.77-3.72,7.57-7.4,11.39-11.08l.13-.12c1.01-.97,2.6-.93,3.55.09.93.99.9,2.56-.04,3.53-3.76,3.9-7.55,7.78-11.36,11.64-1.07,1.08-2.79,1.07-3.85,0-1.06-1.08-1.05-2.82.02-3.9,0,0,0,0,.01-.01l.15-.14Z"/>
      <path id="Fill-21" class="st3" d="M206.38,329.1c1.67-2.06,3.28-4.16,4.88-6.28,1.6-2.11,3.16-4.26,4.67-6.45.54-.78,1.59-.97,2.34-.42.72.53.91,1.56.44,2.33-1.4,2.32-2.86,4.62-4.36,6.88-1.5,2.26-3.08,4.46-4.68,6.65-.71.97-2.04,1.16-2.97.44-.93-.73-1.11-2.1-.4-3.06.02-.03.05-.06.07-.08"/>
      <g id="Group-25">
        <g class="st0">
          <path id="Fill-23" class="st3" d="M224.72,298.9c3.47-4.08,6.67-8.39,9.66-12.88.11-.17.33-.22.49-.1.15.1.19.31.1.47-2.52,4.83-5.49,9.42-8.64,13.87-.35.5-1.02.62-1.48.26-.47-.35-.56-1.04-.2-1.54.02-.03.04-.05.06-.08"/>
        </g>
      </g>
    </g>
  </g>
</svg>