<?xml version="1.0" encoding="UTF-8"?>
<svg width="262px" height="120px" viewBox="0 0 262 120" version="1.1" xmlns="http://www.w3.org/2000/svg" xmlns:xlink="http://www.w3.org/1999/xlink">
    <title>Logo</title>
    <defs>
        <path d="M6.18402624,0.567054478 C5.02275857,0.947930125 3.86639594,1.32637206 3.09139999,2.08568965 L3.09139999,2.08568965 C2.3176303,2.84135666 1.74006211,3.78806993 1.16126767,4.73600006 L1.16126767,4.73600006 C0.582473223,5.87375958 0.386271716,7.00908539 0.386271716,8.33545745 L0.386271716,8.33545745 C0.386271716,10.0414883 0.773769692,11.7475192 1.54386061,13.0714575 L1.54386061,13.0714575 C2.31517778,14.3978296 3.09139999,15.7242016 4.24898888,16.6709149 L4.24898888,16.6709149 L11.203106,23.6787834 C11.7819005,24.438101 12.5568964,25.193768 13.1344646,26.1404813 L13.1344646,26.1404813 C13.7169378,27.092062 14.100757,28.226171 14.100757,29.552543 L14.100757,29.552543 C14.100757,30.1195975 14.100757,30.8789151 13.9082343,31.4471864 L13.9082343,31.4471864 C13.9082343,32.0142409 13.7169378,32.5849459 13.3306661,33.1520004 L13.3306661,33.1520004 C12.9431681,33.7202717 12.5568964,34.09628 11.9768757,34.4795893 L11.9768757,34.4795893 C11.3993075,34.8555976 10.8205131,35.0466438 9.85176815,35.0466438 L9.85176815,35.0466438 C8.69417926,35.0466438 7.92286209,34.8555976 7.14663988,33.5353098 L7.14663988,33.5353098 C6.37654897,32.9682553 5.98905099,32.2089377 5.98905099,31.0736119 L5.98905099,31.0736119 L0,31.0736119 C0,32.5885965 0.196201507,33.7275729 0.773769692,34.6730693 L0.773769692,34.6730693 C1.35256414,35.8120457 1.93135858,36.5677127 2.90132978,37.1347672 L2.90132978,37.1347672 C3.67142069,37.7030385 4.82778332,38.0826973 5.98905099,38.4611392 L5.98905099,38.4611392 C7.15031866,38.6497518 8.50165653,38.8420149 9.85176815,38.8420149 L9.85176815,38.8420149 C11.3993075,38.8420149 12.9431681,38.6497518 14.2957323,38.0826973 L14.2957323,38.0826973 C15.4520949,37.7030385 16.6096838,36.9473715 17.5759762,36.0006582 L17.5759762,36.0006582 C18.5447212,35.0502944 19.1235156,33.9149686 19.7010838,32.7759922 L19.7010838,32.7759922 C20.084903,31.450837 20.4711747,30.1232481 20.4711747,28.8005266 L20.4711747,28.8005266 C20.4711747,27.0944957 20.2811045,25.3884649 19.5073348,23.8734803 L19.5073348,23.8734803 C18.7372439,22.1674494 17.7672727,20.8410773 16.4183873,19.5183558 L16.4183873,19.5183558 C14.6783252,18.0009375 13.1344646,16.4859529 11.9731969,15.3469766 L11.9731969,15.3469766 L9.0767722,12.5056199 C8.30668129,11.7499529 7.72420806,11.1828984 7.34161513,10.6121933 L7.34161513,10.6121933 C6.95411715,10.2325346 6.56661917,9.85409262 6.37654897,9.47686754 L6.37654897,9.47686754 C6.18402624,9.28582129 5.98905099,8.90981306 5.98905099,8.71876681 L5.98905099,8.71876681 L5.98905099,7.95944923 L6.18402624,6.82412341 L6.76282068,5.68636389 C7.15031866,5.3067051 7.34161513,4.92704631 7.92286209,4.73965062 L7.92286209,4.73965062 C8.50165653,4.54738752 9.08167724,4.35877498 9.85176815,4.35877498 L9.85176815,4.35877498 C11.0118096,4.35877498 11.9768757,4.54738752 12.7469666,4.92704631 L12.7469666,4.92704631 C13.5207363,5.30305454 13.9082343,6.06237212 14.100757,7.2013485 L14.100757,7.2013485 L20.0885818,7.2013485 C19.7010838,4.73600006 18.5447212,2.84135666 16.8058853,1.70359714 L16.8058853,1.70359714 C15.0658232,0.567054478 12.9431681,0 10.0455171,0 L10.0455171,0 C8.69417926,0 7.34161513,0.188612541 6.18402624,0.567054478 L6.18402624,0.567054478 Z M42.3010448,0.755667019 L29.3603292,14.5852253 L29.3603292,0.755667019 L23.3725045,0.755667019 L23.3725045,39.210722 L29.3603292,39.210722 L29.3603292,22.7320702 L31.6791858,20.2703723 L42.4947938,39.4029851 L49.6402074,39.4029851 L35.7331994,15.9115973 L49.8327302,0.755667019 L42.3010448,0.755667019 Z M53.1166529,7.76840297 L53.1166529,39.2143725 L59.1044776,39.2143725 L59.1044776,0.759317584 L53.1166529,7.76840297 Z" id="path-1"></path>
        <path d="M41.0656977,1.13165971 C39.5233931,1.70234648 38.1744885,2.83522042 37.0153119,3.97052281 L37.0153119,3.97052281 C35.8598075,5.29403041 34.8989272,6.61510956 34.3187269,8.31745604 L34.3187269,8.31745604 C33.7409746,10.0185883 33.3541744,11.7185063 33.3541744,13.6102722 L33.3541744,13.6102722 L29.885213,13.6102722 L29.885213,19.6595519 L33.3541744,19.6595519 L33.3541744,41.3978608 C33.3541744,42.3413153 33.1632224,43.2871982 32.9685983,44.231867 L32.9685983,44.231867 C32.7776462,44.9895447 32.390846,45.7435798 31.8106457,46.5012575 L31.8106457,46.5012575 C31.4238455,47.0670874 30.6551413,47.6365599 29.8827649,48.0117561 L29.8827649,48.0117561 C29.1128366,48.390595 28.1495082,48.5788002 27.1849558,48.5788002 L27.1849558,48.5788002 L27.1849558,54.6268657 C29.1103885,54.6268657 30.8460933,54.2480268 32.390846,53.4939917 L32.390846,53.4939917 C33.9331507,52.9281619 35.2820552,51.7916453 36.4387837,50.6587713 L36.4387837,50.6587713 C37.5955122,49.3352637 38.5563925,48.0117561 39.1378169,46.3094096 L39.1378169,46.3094096 C39.7155691,44.6107058 40.1011453,42.9095736 40.1011453,41.0178077 L40.1011453,41.0178077 L40.1011453,19.6595519 L46.46254,19.6595519 L46.46254,13.6102722 L46.4649881,13.6102722 L46.4649881,13.4208528 L39.9101933,13.4208528 C39.9101933,12.4749698 39.9101933,11.5303011 40.2957695,10.5844181 L40.2957695,10.5844181 C40.6825697,9.64096365 41.0656977,8.8832859 41.6471221,8.12925083 L41.6471221,8.12925083 C42.0290261,7.55977829 42.8062987,6.99273421 43.5750029,6.61510956 L43.5750029,6.61510956 C44.3437072,6.23505646 45.3070356,6.04806548 46.2703639,6.04806548 L46.2703639,6.04806548 L46.2703639,0 C44.3437072,0 42.6104505,0.377624647 41.0656977,1.13165971 L41.0656977,1.13165971 Z M47.8163408,0.190633664 L47.8163408,38.5614261 L68.0597015,38.5614261 L68.0597015,32.7039943 L53.5987592,32.7039943 L53.5987592,22.8736112 L65.3594443,22.8736112 L65.3594443,17.0125367 L53.7897112,17.0125367 L53.7897112,6.04806548 L68.0597015,6.04806548 L68.0597015,0.190633664 L47.8163408,0.190633664 Z M23.3279701,0.190633664 L23.3279701,38.5614261 L29.3050127,32.3263697 L29.3050127,0.190633664 L23.3279701,0.190633664 Z M0,0.190633664 L0,38.5614261 L20.2433607,38.5614261 L20.2433607,32.7015659 L5.97459449,32.7015659 L5.97459449,0.190633664 L0,0.190633664 Z" id="path-3"></path>
        <polygon id="path-5" points="0 24.3638483 0 51.9402985 10.9467771 45.5175212 35.144531 21.532197 43.3994177 26.6313532 57.2258349 18.6993325 90.4477612 47.406502 90.4477612 31.7305094 33.0305193 0"></polygon>
        <path d="M54.6559584,0.453311503 L2.69522844,29.2124627 C1.15701783,30.159191 2.17030257e-15,32.2385904 2.17030257e-15,33.9424583 L2.17030257e-15,33.9424583 L2.17030257e-15,51.9169279 C2.17030257e-15,53.6195804 1.15701783,54.185916 2.50463205,53.2416183 L2.50463205,53.2416183 L41.1834815,25.2396067 C42.5310957,24.2928784 44.8402443,24.2928784 46.1841932,25.2396067 L46.1841932,25.2396067 L47.7272909,26.3759237 C49.0736833,27.3214367 51.189792,27.1342786 52.5361844,26.0003922 L52.5361844,26.0003922 L61.5834041,17.673072 C62.9310183,16.3483816 64.6610471,16.5355397 65.6225814,18.0510342 L65.6225814,18.0510342 L88.7189542,52.8612255 C89.6804885,54.185916 90.4477612,53.9987579 90.4477612,52.29489 L90.4477612,52.29489 L90.4477612,32.4293945 C90.4477612,30.7291725 89.4862268,28.268165 88.1386126,27.1306327 L88.1386126,27.1306327 L59.65667,1.0245083 C58.9639255,0.341502768 57.8545567,0 56.7464098,0 L56.7464098,0 C56.0084597,0 55.2705095,0.151914042 54.6559584,0.453311503 L54.6559584,0.453311503 Z" id="path-7"></path>
        <path d="M10.6068142,0 L9.3032692,4.6317251 L7.25754271,4.6317251 L8.55990585,0 L6.14190676,0 L4.8383618,4.6317251 L2.23127188,4.6317251 L1.67345391,6.48584321 L4.28054383,6.48584321 L3.34927146,9.82039966 L0.746908808,9.82039966 L0,11.8601676 L2.60354447,11.8601676 L1.48909035,16.119403 L3.9118167,16.119403 L5.21063439,11.6721377 L7.25754271,11.6721377 L5.95636138,16.119403 L8.37199683,16.119403 L9.67554179,11.6721377 L12.2802681,11.6721377 L12.8369042,9.82039966 L10.2333598,9.82039966 L11.1646321,6.48584321 L13.7705402,6.48584321 L14.3283582,4.6317251 L11.7212683,4.6317251 L13.0259951,0 L10.6068142,0 Z M8.74899669,6.48584321 L7.81772431,9.82039966 L5.76963418,9.82039966 L6.69854292,6.48584321 L8.74899669,6.48584321 Z" id="path-9"></path>
        <path d="M51.7761531,0 L51.7761531,18.2876257 L64.1913682,18.2876257 L64.1913682,15.2733948 L54.8302281,15.2733948 L54.8302281,10.749021 L62.4702672,10.749021 L62.4702672,7.72994602 L54.8302281,7.72994602 L54.8302281,3.20557216 L54.8302281,3.01786393 L64.1913682,3.01786393 L64.1913682,0 L51.7761531,0 Z M39.3572993,0 L39.3572993,18.2876257 L49.289714,18.2876257 L49.289714,15.2709728 L42.415013,15.2709728 L42.415013,0 L39.3572993,0 Z M27.3168694,0 L27.3168694,18.2876257 L37.2529227,18.2876257 L37.2529227,15.2709728 L30.3745831,15.2709728 L30.3745831,0 L27.3168694,0 Z M11.2702402,0 L7.25797648,9.99334397 L3.24813854,0 L0,0 L7.45082713,18.2876257 L14.9016543,0 L11.2702402,0 Z M11.0822412,18.4753339 L14.3291668,18.4753339 L14.9016543,16.9639799 L21.7799939,16.9639799 L22.3524814,18.4753339 L25.6006199,18.4753339 L18.5318554,0.186497209 L11.0822412,18.4753339 Z M17.9605808,8.29549275 L20.2493177,13.7632518 L15.6669924,13.7632518 L17.9605808,8.29549275 Z M71.4517705,39.2128548 L74.699909,39.2128548 L75.2723965,37.7051339 L82.1507362,37.7051339 L82.7232236,39.2128548 L85.9701493,39.2128548 L78.9025976,20.9252291 L71.4517705,39.2128548 Z M78.5241737,29.2195108 L80.8165493,34.6872699 L76.2317981,34.6872699 L78.5241737,29.2195108 Z M63.2368182,20.9252291 L63.2368182,23.943093 L66.2945319,23.943093 L66.2945319,39.2128548 L69.3486069,39.2128548 L69.3486069,23.943093 L72.4075334,23.943093 L72.5967454,23.943093 L72.5967454,20.9252291 L63.2368182,20.9252291 Z M31.7160473,30.1653181 C31.7160473,35.0687415 35.7295239,39.2128548 40.8843368,39.2128548 L40.8843368,39.2128548 C46.0452141,39.2128548 50.244264,35.2552387 50.244264,30.1653181 L50.244264,30.1653181 C50.244264,25.0717645 46.0415754,20.9252291 40.8843368,20.9252291 L40.8843368,20.9252291 C35.9187359,20.9252291 31.7160473,25.2631057 31.7160473,30.1653181 L31.7160473,30.1653181 Z M34.9641858,30.1653181 C34.9641858,26.7708267 37.6361982,24.1295902 41.0771874,24.1295902 L41.0771874,24.1295902 C44.5145379,24.1295902 47.190189,26.7708267 47.190189,30.1653181 L47.190189,30.1653181 C47.190189,33.3672572 44.3241131,36.1949909 41.0771874,36.1949909 L41.0771874,36.1949909 C37.8290489,36.1949909 34.9641858,33.5585985 34.9641858,30.1653181 L34.9641858,30.1653181 Z M18.3426434,39.2128548 L21.5859304,39.2128548 L22.1632694,37.7051339 L29.0416091,37.7051339 L29.6128837,39.2128548 L32.8573835,39.2128548 L25.7934706,20.9252291 L18.3426434,39.2128548 Z M25.4101951,29.2195108 L27.7037836,34.6872699 L23.1178195,34.6872699 L25.4101951,29.2195108 Z M16.6215424,25.450814 L19.680469,25.450814 L19.680469,20.9252291 L16.6215424,20.9252291 L16.6215424,25.450814 Z M4.01347663,20.9276511 L0.954550049,20.9276511 L0.954550049,39.4029851 L4.01347663,39.4029851 C4.01347663,39.4029851 14.9016543,39.4029851 14.9016543,30.1653181 L14.9016543,30.1653181 C14.9016543,21.094772 4.59445436,20.9276511 4.03530878,20.9276511 L4.03530878,20.9276511 C4.02439271,20.9276511 4.01711533,20.9276511 4.01347663,20.9276511 L4.01347663,20.9276511 Z M4.20390149,24.1295902 C4.20390149,24.1295902 11.8475793,24.1295902 11.8475793,30.1653181 L11.8475793,30.1653181 C11.8475793,36.1949909 4.20390149,36.1949909 4.20390149,36.3851211 L4.20390149,36.3851211 L4.20390149,24.1295902 Z M51.010815,26.3917772 C51.010815,28.4686779 52.1582157,30.1653181 54.0685287,31.1087033 L54.0685287,31.1087033 C55.5955662,31.6730391 56.7405411,31.6730391 56.9333917,31.6730391 L56.9333917,31.6730391 C58.0783666,31.6730391 59.606617,32.427505 59.606617,33.935226 L59.606617,33.935226 C59.606617,35.4429469 58.2712173,36.1949909 56.9333917,36.1949909 L56.9333917,36.1949909 C55.5955662,36.1949909 54.2577406,35.4429469 54.2577406,33.935226 L54.2577406,33.935226 L51.2024527,33.935226 C51.2024527,37.1407981 53.6864661,39.2128548 56.7405411,39.2128548 L56.7405411,39.2128548 C59.606617,39.2128548 62.4702672,37.1407981 62.4702672,33.935226 L62.4702672,33.935226 C62.4702672,31.8607473 61.3265052,30.1653181 59.4161922,29.2195108 L59.4161922,29.2195108 C58.0783666,28.6551751 56.9333917,28.6551751 56.7405411,28.6551751 L56.7405411,28.6551751 C55.4039284,28.6551751 54.0685287,27.9031312 54.0685287,26.3917772 L54.0685287,26.3917772 C54.0685287,24.8840562 55.2135036,24.1295902 56.7405411,24.1295902 L56.7405411,24.1295902 C58.0783666,24.1295902 59.4161922,24.8840562 59.4161922,26.3917772 L59.4161922,26.3917772 L62.4702672,26.3917772 C62.4702672,23.3775463 59.9886796,21.1153594 56.7405411,21.1153594 L56.7405411,21.1153594 C53.875678,21.1153594 51.010815,23.1910491 51.010815,26.3917772 L51.010815,26.3917772 Z" id="path-11"></path>
        <path d="M2.9345131,0.189403858 L2.75365842,0.951907131 L2.38494822,0.378807716 C2.38494822,0.189403858 2.19825952,0.189403858 2.01740483,0.189403858 L2.01740483,0.189403858 C1.83421654,0.189403858 1.83071613,0.378807716 1.83071613,0.566989613 L1.83071613,0.566989613 L2.19825952,1.14008903 L1.46550634,0.94824125 C1.27998444,0.94824125 1.09796295,0.94824125 1.09796295,1.14008903 L1.09796295,1.14008903 C1.09796295,1.33193681 1.09796295,1.52134067 1.28465166,1.52134067 L1.28465166,1.52134067 L2.38728183,1.89770446 L2.57047012,2.28017806 L2.38728183,2.65654185 L1.83421654,2.65654185 L0.915941465,1.70952256 C0.729252759,1.51767478 0.54723127,1.51767478 0.54723127,1.70952256 L0.54723127,1.70952256 C0.365209782,1.89770446 0.365209782,2.08710832 0.54723127,2.08710832 L0.54723127,2.08710832 L1.10146337,2.65654185 L0.365209782,2.65654185 C0.182021489,2.65654185 0,2.84961159 0,3.03901545 L0,3.03901545 C0,3.22719735 0.182021489,3.41904513 0.365209782,3.41904513 L0.365209782,3.41904513 L1.10146337,3.41904513 L0.54723127,3.9933665 C0.365209782,4.1815484 0.365209782,4.37095226 0.54723127,4.37095226 L0.54723127,4.37095226 C0.732753172,4.56280003 0.915941465,4.56280003 0.915941465,4.37095226 L0.915941465,4.37095226 L1.83421654,3.41904513 L2.38728183,3.41904513 L2.57047012,3.79785284 L2.38728183,4.1815484 L1.28465166,4.55913415 C1.09796295,4.55913415 1.09796295,4.75220389 1.09796295,4.94038579 L1.09796295,4.94038579 C1.09796295,5.12978965 1.28465166,5.12978965 1.46550634,5.12978965 L1.46550634,5.12978965 L2.19825952,4.94038579 L1.83071613,5.51104128 C1.83071613,5.70288906 1.83071613,5.89107096 2.01740483,5.89107096 L2.01740483,5.89107096 C2.20175993,5.89107096 2.38494822,5.89107096 2.38494822,5.69922318 L2.38494822,5.69922318 L2.57047012,5.12978965 L2.75365842,5.88862704 C2.75365842,6.08047482 2.93918032,6.08047482 3.12120181,6.08047482 L3.12120181,6.08047482 L3.3032233,5.88862704 L2.93918032,4.74853801 L3.12120181,4.36728638 L3.67193349,4.36728638 L3.86095581,4.74853801 L3.489912,5.88862704 C3.489912,6.08047482 3.489912,6.26865672 3.67543391,6.26865672 L3.67543391,6.26865672 C3.86095581,6.26865672 4.0429773,6.26865672 4.0429773,6.07680894 L4.0429773,6.07680894 L4.41168749,5.12612377 L4.77573047,5.69922318 C4.77573047,5.88862704 4.96125237,5.88862704 5.14444066,5.88862704 L5.14444066,5.88862704 L5.32996257,5.69922318 L5.32996257,5.50615344 L4.96125237,4.93671991 L5.69517235,5.12612377 C5.88069425,5.12612377 6.06271574,5.12612377 6.06271574,4.93671991 L6.06271574,4.93671991 C6.06271574,4.74487213 6.06271574,4.74487213 5.87719384,4.74487213 L5.87719384,4.74487213 L4.77573047,4.36362049 L4.59137537,3.98603474 L4.77573047,3.6047831 L5.32762896,3.6047831 L6.24590403,4.55669023 C6.43025913,4.74853801 6.61344742,4.74853801 6.61344742,4.55669023 L6.61344742,4.55669023 L6.61344742,4.17421664 L6.06038213,3.60111722 L6.79663571,3.60111722 C6.98215762,3.60111722 7.1641791,3.41293532 7.1641791,3.22475343 L7.1641791,3.22475343 C7.1641791,3.03534957 6.9786572,2.84227983 6.79663571,2.84227983 L6.79663571,2.84227983 L6.06038213,2.84227983 L6.61344742,2.27040237 L6.61344742,1.88792878 C6.43025913,1.69974688 6.24590403,1.69974688 6.24590403,1.88792878 L6.24590403,1.88792878 L5.32762896,2.84227983 L4.77573047,2.84227983 L4.59137537,2.46225015 L4.77573047,2.08099852 L5.87719384,1.69974688 C6.06271574,1.69974688 6.06271574,1.51156498 6.06271574,1.51156498 L6.06271574,1.51156498 C6.06271574,1.31849524 5.87719384,1.31849524 5.69517235,1.31849524 L5.69517235,1.31849524 L4.96125237,1.51156498 L5.32996257,0.938465567 L5.32996257,0.749061709 C5.32996257,0.749061709 5.32996257,0.55599197 5.14444066,0.55599197 L5.14444066,0.55599197 C4.96125237,0.55599197 4.77573047,0.55599197 4.77573047,0.749061709 L4.77573047,0.749061709 L4.41168749,1.31849524 L4.22499878,0.559657851 C4.22499878,0.367810072 4.0429773,0.367810072 3.86095581,0.367810072 L3.86095581,0.367810072 C3.85745539,0 3.67193349,0 3.67193349,0.189403858 L3.67193349,0.189403858 L4.0429773,1.33193681 L3.85745539,1.71318844 L3.3032233,1.71318844 L3.12120181,1.33193681 L3.48641159,0.189403858 C3.48641159,0 3.48641159,0 3.3032233,0 L3.3032233,0 C3.1177014,0 2.9345131,0 2.9345131,0.189403858 L2.9345131,0.189403858 Z M3.12120181,2.85572139 L3.3032233,2.47569172 L3.85745539,2.47569172 L4.0429773,2.85572139 L3.85745539,3.23452911 L3.3032233,3.23452911 L3.12120181,2.85572139 Z" id="path-13"></path>
    </defs>
    <g id="Page-1" stroke="none" stroke-width="1" fill="none" fill-rule="evenodd">
        <g id="Artboard" transform="translate(-192, -31)">
            <g id="Header" transform="translate(0, 0)">
                <g id="Logo" transform="translate(192, 31)">
                    <polygon id="Fill-1" fill="#FFFFFF" points="33.5339243 0 0 48.0075974 0 59.3259674 32.7741855 36.6928761 43.4444561 42.1513808 58.6876997 29.659335 89.5522388 65.3731343 89.5522388 49.1739757 56.779265 7.02624367 48.588142 14.8333162"></polygon>
                    <polygon id="Fill-2" fill="#FFFFFF" points="0 48.0075974 0 59.3259674 32.7741855 36.6928761 43.4444561 42.1501645 58.6876997 29.659335 89.5522388 65.3731343 89.5522388 49.1727595 56.779265 7.02502742 48.5893537 14.8333162 33.5339243 0"></polygon>
                    <path d="M158.507463,62.4979488 L152.518412,62.4979488 L152.518412,31.0510081 L158.507463,24.0417062 L158.507463,62.4979488 Z M131.080945,43.5533635 L128.763314,46.0151374 L128.763314,62.4942981 L122.774263,62.4942981 L122.774263,24.0392724 L128.763314,24.0392724 L128.763314,37.8680409 L141.702804,24.0392724 L149.235715,24.0392724 L135.134958,39.1944539 L149.043193,62.6865672 L141.897779,62.6865672 L131.080945,43.5533635 Z M109.253527,58.3300914 C110.222272,58.3300914 110.801066,58.1390392 111.379861,57.7630194 C111.958655,57.3796982 112.344927,57.0036783 112.732425,56.4366063 C113.118697,55.8683175 113.311219,55.2975948 113.311219,54.7305228 C113.502516,54.1622339 113.502516,53.4041098 113.502516,52.8358209 C113.502516,51.5094079 113.118697,50.374047 112.53745,49.4236538 C111.958655,48.4769113 111.184886,47.7212209 110.606091,46.9630968 L103.651974,39.953795 C102.494385,39.0070524 101.716937,37.6806394 100.946846,36.3542264 C100.176755,35.0302472 99.7892568,33.3241636 99.7892568,31.6180801 C99.7892568,30.2916671 99.9854583,29.1563062 100.563026,28.0185115 C101.141821,27.071769 101.720615,26.1238096 102.494385,25.3693361 C103.268155,24.6099951 104.425744,24.2303246 105.587011,23.8506541 C106.743374,23.4709836 108.095938,23.2835821 109.448502,23.2835821 C112.344927,23.2835821 114.468808,23.8506541 116.207644,24.986015 C117.94648,26.1238096 119.104069,28.0185115 119.491567,30.4839361 L113.502516,30.4839361 C113.311219,29.3449245 112.923721,28.5855835 112.149952,28.2095637 C111.379861,27.8298932 110.414795,27.6424917 109.253527,27.6424917 C108.483436,27.6424917 107.904642,27.8298932 107.325847,28.0221622 C106.743374,28.2095637 106.552077,28.5892342 106.164579,28.9689047 L105.587011,30.1066994 L105.39081,31.2420602 L105.39081,32.0014013 C105.39081,32.1924534 105.587011,32.5684733 105.778308,32.7607423 C105.969604,33.1367621 106.357102,33.5164327 106.743374,33.8948863 C107.127193,34.4668258 107.709666,35.0338978 108.479757,35.7895882 L111.376182,38.6310326 C112.53745,39.7688273 114.08131,41.2838587 115.820146,42.8013238 C117.170258,44.1253031 118.139003,45.4517161 118.909094,47.1577996 C119.682863,48.6716141 119.87416,50.3776977 119.87416,52.0837812 C119.87416,53.4065436 119.487888,54.7341735 119.104069,56.0605865 C118.525274,57.1983812 117.94648,58.333742 116.977735,59.2841352 C116.012669,60.2308777 114.85508,60.9865681 113.697491,61.3662386 C112.344927,61.9333106 110.801066,62.1255796 109.253527,62.1255796 C107.904642,62.1255796 106.552077,61.9333106 105.39081,61.7459091 C104.230768,61.3662386 103.07318,60.9865681 102.303089,60.4194961 C101.334344,59.8512072 100.755549,59.0955169 100.176755,57.9577222 C99.5979603,57.0109797 99.4029851,55.8719681 99.4029851,54.3569367 L105.39081,54.3569367 C105.39081,55.4922976 105.778308,56.2516387 106.548399,56.8187106 C107.325847,58.1390392 108.095938,58.3300914 109.253527,58.3300914 L109.253527,58.3300914 Z" id="Fill-3" fill="#FFFFFF"></path>
                    <g id="Group-7" transform="translate(99.403, 23.2836)">
                        <mask id="mask-2" fill="white">
                            <use xlink:href="#path-1"></use>
                        </mask>
                        <g id="Clip-6"></g>
                        <polygon id="Fill-5" fill="#FFFFFF" mask="url(#mask-2)" points="-2.74559483 42.1275236 61.8512987 42.1275236 61.8512987 -2.72453857 -2.74559483 -2.72453857"></polygon>
                    </g>
                    <path d="M164.762381,81.4901487 L164.762381,87.3512232 L153.001484,87.3512232 L153.001484,97.1828205 L167.462687,97.1828205 L167.462687,103.040252 L147.218962,103.040252 L147.218962,64.6682456 L167.462687,64.6682456 L167.462687,70.5256774 L153.19244,70.5256774 L153.19244,81.4901487 L164.762381,81.4901487 Z M145.865137,78.0890984 L145.865137,84.1371639 L139.504852,84.1371639 L139.504852,105.496634 C139.504852,107.385971 139.118044,109.088318 138.540282,110.787022 C137.958847,112.489368 136.999173,113.812876 135.839976,115.136383 C134.685675,116.269257 133.335522,117.405774 131.79319,117.971604 C130.248409,118.725639 128.512673,119.104478 126.58843,119.104478 L126.58843,113.056412 C127.551775,113.056412 128.516345,112.868207 129.285063,112.489368 C130.057454,112.114172 130.826172,111.544699 131.212979,110.978869 C131.79319,110.221192 132.179997,109.467157 132.370952,108.709479 C132.56558,107.76481 132.757759,106.820141 132.757759,105.874258 L132.757759,84.1371639 L129.288736,84.1371639 L129.288736,78.0890984 L132.757759,78.0890984 C132.757759,76.1961183 133.143342,74.4962002 133.721105,72.795068 C134.30254,71.0927215 135.262213,69.7716424 136.417739,68.4481348 C137.576936,67.3128324 138.927089,66.1799584 140.468197,65.6104859 C142.012978,64.8564508 143.746266,64.4776119 145.674181,64.4776119 L145.674181,70.5256774 C144.709611,70.5256774 143.746266,70.7138826 142.976324,71.0927215 C142.207606,71.4703462 141.431543,72.0373902 141.049632,72.6068628 C140.468197,73.3608978 140.085062,74.1185756 139.699479,75.0632443 C139.312672,76.007913 139.312672,76.9525818 139.312672,77.8984647 L145.868809,77.8984647 L145.868809,78.0890984 L145.865137,78.0890984 Z M128.707301,96.8039816 L122.728927,103.040252 L122.728927,64.6682456 L128.707301,64.6682456 L128.707301,96.8039816 Z M99.4029851,103.040252 L99.4029851,64.6682456 L105.376463,64.6682456 L105.376463,97.1791778 L119.64671,97.1791778 L119.64671,103.040252 L99.4029851,103.040252 Z" id="Fill-8" fill="#FFFFFF"></path>
                    <g id="Group-12" transform="translate(99.403, 64.4776)">
                        <mask id="mask-4" fill="white">
                            <use xlink:href="#path-3"></use>
                        </mask>
                        <g id="Clip-11"></g>
                        <polygon id="Fill-10" fill="#FFFFFF" mask="url(#mask-4)" points="-2.74065091 57.3455203 70.8003524 57.3455203 70.8003524 -2.71986884 -2.74065091 -2.71986884"></polygon>
                    </g>
                    <polygon id="Fill-13" fill="#FFFFFF" points="10.9479963 85.8170919 35.144531 61.8299942 43.3994177 66.9292695 57.227054 58.9982767 90.4477612 87.7061168 90.4477612 72.0285448 33.0305193 40.2985075 0 64.6629249 0 92.238806"></polygon>
                    <g id="Group-17" transform="translate(0, 40.2985)">
                        <mask id="mask-6" fill="white">
                            <use xlink:href="#path-5"></use>
                        </mask>
                        <g id="Clip-16"></g>
                        <polygon id="Fill-15" fill="#FFFFFF" mask="url(#mask-6)" points="-2.7309033 54.6566941 93.1774453 54.6566941 93.1774453 -2.71760882 -2.7309033 -2.71760882"></polygon>
                    </g>
                    <path d="M2.50344409,119.509057 C1.15581167,120.454575 0,119.888237 0,118.184359 L0,100.211004 C0,98.5071266 1.15581167,96.4277155 2.69404306,95.4809819 L54.6554749,66.7216694 C56.1937063,65.9669562 58.502886,66.1541153 59.6562541,67.2916541 L88.1385814,93.3991402 C89.4862139,94.5354636 90.4477612,96.9977002 90.4477612,98.6979317 L90.4477612,118.563539 C90.4477612,120.267416 89.6804782,120.454575 88.7189308,119.129877 L65.6222461,84.3194908 C64.6606987,82.8039878 62.9306466,82.6156133 61.5842359,83.9403112 L52.5368941,92.2688934 C51.1892617,93.4015708 49.0731244,93.5899453 47.7267138,92.644427 L46.1835953,91.5068883 C44.8396282,90.56137 42.5304484,90.56137 41.182816,91.5068883 L2.50344409,119.509057 Z" id="Fill-18" fill="#FFFFFF"></path>
                    <g id="Group-22" transform="translate(0, 66.2687)">
                        <mask id="mask-8" fill="white">
                            <use xlink:href="#path-7"></use>
                        </mask>
                        <g id="Clip-21"></g>
                        <polygon id="Fill-20" fill="#FFFFFF" mask="url(#mask-8)" points="-2.7355469 56.4536888 93.1845299 56.4536888 93.1845299 -3.02248179 -2.7355469 -3.02248179"></polygon>
                    </g>
                    <path d="M7.81772431,12.5069668 L8.74781487,9.17360044 L6.69854292,9.17360044 L5.76845236,12.5069668 L7.81772431,12.5069668 Z M0.74572699,12.5069668 L3.34927146,12.5069668 L4.28054383,9.17360044 L1.67345391,9.17360044 L2.23127188,7.31829226 L4.8383618,7.31829226 L6.14190676,2.68656716 L8.55990585,2.68656716 L7.25636089,7.31829226 L9.30208739,7.31829226 L10.6056323,2.68656716 L13.0248132,2.68656716 L11.7212683,7.31829226 L14.3283582,7.31829226 L13.7705402,9.17360044 L11.1634503,9.17360044 L10.2333598,12.5069668 L12.8369042,12.5069668 L12.2790863,14.3587048 L9.67554179,14.3587048 L8.37199683,18.8059701 L5.95636138,18.8059701 L7.25636089,14.3587048 L5.21063439,14.3587048 L3.91063488,18.8059701 L1.48909035,18.8059701 L2.60354447,14.5467348 L0,14.5467348 L0.74572699,12.5069668 Z" id="Fill-23" fill="#FFFFFF"></path>
                    <g id="Group-27" transform="translate(0, 2.6866)">
                        <mask id="mask-10" fill="white">
                            <use xlink:href="#path-9"></use>
                        </mask>
                        <g id="Clip-26"></g>
                        <polygon id="Fill-25" fill="#FFFFFF" mask="url(#mask-10)" points="-2.64608991 18.785144 16.9756299 18.785144 16.9756299 -2.664551 -2.64608991 -2.664551"></polygon>
                    </g>
                    <path d="M203.224959,113.49324 L200.932583,108.025481 L198.638995,113.49324 L203.224959,113.49324 Z M208.379772,118.018825 L205.135272,118.018825 L204.562784,116.511104 L197.684445,116.511104 L197.108318,118.018825 L193.863819,118.018825 L201.314646,99.7299882 L208.379772,118.018825 Z M256.337724,113.49324 L254.045349,108.025481 L251.752973,113.49324 L256.337724,113.49324 Z M261.492537,118.018825 L258.244399,118.018825 L257.671911,116.511104 L250.793572,116.511104 L250.222297,118.018825 L246.974159,118.018825 L254.424986,99.7299882 L261.492537,118.018825 Z M247.928709,102.747852 L244.870995,102.747852 L244.870995,118.018825 L241.815707,118.018825 L241.815707,102.747852 L238.757993,102.747852 L238.757993,99.7299882 L248.119133,99.7299882 L248.119133,102.747852 L247.928709,102.747852 Z M226.724841,112.741196 L229.780129,112.741196 C229.780129,114.248917 231.117954,115.000961 232.45578,115.000961 C233.792392,115.000961 235.127792,114.248917 235.127792,112.741196 C235.127792,111.233475 233.599542,110.479009 232.45578,110.479009 C232.261716,110.479009 231.117954,110.479009 229.589704,109.913462 C227.680604,108.971288 226.53199,107.273437 226.53199,105.197747 C226.53199,101.997019 229.396853,99.9213295 232.261716,99.9213295 C235.509855,99.9213295 237.992655,102.183516 237.992655,105.197747 L234.937367,105.197747 C234.937367,103.691237 233.599542,102.93556 232.261716,102.93556 C230.734679,102.93556 229.589704,103.691237 229.589704,105.197747 C229.589704,106.709101 230.923891,107.461145 232.261716,107.461145 C232.45578,107.461145 233.599542,107.461145 234.937367,108.025481 C236.84768,108.971288 237.992655,110.665506 237.992655,112.741196 C237.992655,115.946768 235.127792,118.018825 232.261716,118.018825 C229.207641,118.018825 226.724841,115.946768 226.724841,112.741196 L226.724841,112.741196 Z M222.711364,108.971288 C222.711364,105.575586 220.036926,102.93556 216.598363,102.93556 C213.158586,102.93556 210.485361,105.575586 210.485361,108.971288 C210.485361,112.363358 213.351437,115.000961 216.598363,115.000961 C219.846501,115.000961 222.711364,112.173227 222.711364,108.971288 L222.711364,108.971288 Z M225.766652,108.971288 C225.766652,114.061209 221.567602,118.018825 216.405512,118.018825 C211.251912,118.018825 207.238435,113.874712 207.238435,108.971288 C207.238435,104.069076 211.441124,99.7299882 216.405512,99.7299882 C221.563963,99.7299882 225.766652,103.877735 225.766652,108.971288 L225.766652,108.971288 Z M192.14393,104.255573 L195.201644,104.255573 L195.201644,99.7299882 L192.14393,99.7299882 L192.14393,104.255573 Z M187.368754,108.971288 C187.368754,102.93556 179.725077,102.93556 179.725077,102.93556 L179.725077,115.191091 C179.725077,115.000961 187.368754,115.000961 187.368754,108.971288 L187.368754,108.971288 Z M190.422829,108.971288 C190.422829,118.208955 179.534652,118.208955 179.534652,118.208955 L176.476938,118.208955 L176.476938,99.7334814 L179.534652,99.7334814 C179.725077,99.7299882 190.422829,99.7299882 190.422829,108.971288 L190.422829,108.971288 Z M230.352616,82.0103313 L230.352616,86.5359162 L237.992655,86.5359162 L237.992655,89.5537801 L230.352616,89.5537801 L230.352616,94.079365 L239.712543,94.079365 L239.712543,97.0935959 L227.297328,97.0935959 L227.297328,78.8059701 L239.712543,78.8059701 L239.712543,81.8238341 L230.352616,81.8238341 L230.352616,82.0103313 Z M224.812102,94.0757319 L224.812102,97.0935959 L214.878474,97.0935959 L214.878474,78.8059701 L217.936188,78.8059701 L217.936188,94.0757319 L224.812102,94.0757319 Z M212.775311,94.0757319 L212.775311,97.0935959 L202.839257,97.0935959 L202.839257,78.8059701 L205.896971,78.8059701 L205.896971,94.0757319 L212.775311,94.0757319 Z M195.770493,92.568011 L193.481756,87.1002519 L191.188168,92.568011 L195.770493,92.568011 Z M201.121795,97.2813041 L197.873657,97.2813041 L197.301169,95.7699501 L190.422829,95.7699501 L189.851555,97.2813041 L186.603416,97.2813041 L194.054243,78.9924674 L201.121795,97.2813041 Z M190.422829,78.8059701 L182.973215,97.0935959 L175.522388,78.8059701 L178.769314,78.8059701 L182.779152,88.7981031 L186.792628,78.8059701 L190.422829,78.8059701 Z" id="Fill-28" fill="#FFFFFF"></path>
                    <g id="Group-32" transform="translate(175.5224, 78.806)">
                        <mask id="mask-12" fill="white">
                            <use xlink:href="#path-11"></use>
                        </mask>
                        <g id="Clip-31"></g>
                        <polygon id="Fill-30" fill="#FFFFFF" mask="url(#mask-12)" points="-2.7156767 42.1144607 88.6870388 42.1144607 88.6870388 -2.71268668 -2.7156767 -2.71268668"></polygon>
                    </g>
                    <path d="M216.991784,108.146851 L217.177306,108.528028 L216.991784,108.905541 L216.437552,108.905541 L216.25553,108.528028 L216.437552,108.146851 L216.991784,108.146851 Z M216.806262,105.861009 L217.177306,107.003319 L216.991784,107.384496 L216.437552,107.384496 L216.25553,107.003319 L216.62074,105.861009 C216.62074,105.671642 216.62074,105.671642 216.437552,105.671642 C216.25203,105.671642 216.070008,105.671642 216.070008,105.861009 L215.88682,106.623363 L215.519277,106.049154 C215.519277,105.861009 215.333755,105.861009 215.150566,105.861009 C214.968545,105.861009 214.965044,106.049154 214.965044,106.238521 L215.333755,106.811509 L214.601002,106.619698 C214.414313,106.619698 214.232291,106.619698 214.232291,106.811509 C214.232291,107.003319 214.232291,107.192686 214.417813,107.192686 L215.522777,107.570198 L215.704798,107.951375 L215.522777,108.328888 L214.968545,108.328888 L214.05027,107.382053 C213.863581,107.189021 213.68156,107.189021 213.68156,107.382053 C213.499538,107.570198 213.499538,107.759565 213.68156,107.759565 L214.235792,108.328888 L213.499538,108.328888 C213.31635,108.328888 213.134328,108.520698 213.134328,108.710065 C213.134328,108.89821 213.31635,109.091242 213.499538,109.091242 L214.235792,109.091242 L213.68156,109.66423 C213.499538,109.852375 213.499538,110.041742 213.68156,110.041742 C213.867082,110.233553 214.05027,110.233553 214.05027,110.041742 L214.968545,109.091242 L215.522777,109.091242 L215.704798,109.468754 L215.522777,109.852375 L214.417813,110.231109 C214.232291,110.231109 214.232291,110.42292 214.232291,110.611065 C214.232291,110.800432 214.417813,110.800432 214.601002,110.800432 L215.333755,110.611065 L214.965044,111.181609 C214.965044,111.373419 214.965044,111.562786 215.150566,111.562786 C215.337255,111.562786 215.519277,111.562786 215.519277,111.369754 L215.704798,110.800432 L215.88682,111.559121 C215.88682,111.750932 216.073509,111.750932 216.25553,111.750932 L216.437552,111.559121 L216.073509,110.419254 L216.25553,110.038077 L216.806262,110.038077 L216.995284,110.419254 L216.623074,111.559121 C216.623074,111.750932 216.623074,111.940299 216.809762,111.940299 C216.995284,111.940299 217.177306,111.940299 217.177306,111.747266 L217.546016,110.796767 L217.910059,111.369754 C217.910059,111.559121 218.096748,111.559121 218.278769,111.559121 L218.464291,111.369754 L218.464291,111.177944 L218.096748,110.608621 L218.829501,110.796767 C219.015023,110.796767 219.197044,110.796767 219.197044,110.608621 C219.197044,110.415589 219.197044,110.415589 219.011522,110.415589 L217.910059,110.034412 L217.724537,109.6569 L217.910059,109.275722 L218.460791,109.275722 L219.380232,110.227444 C219.565754,110.419254 219.747776,110.419254 219.747776,110.227444 L219.747776,109.846267 L219.19471,109.273279 L219.930964,109.273279 C220.116486,109.273279 220.298507,109.083912 220.298507,108.895767 C220.298507,108.7064 220.112986,108.514589 219.930964,108.514589 L219.19471,108.514589 L219.747776,107.941602 L219.747776,107.560424 C219.565754,107.371057 219.380232,107.371057 219.380232,107.560424 L218.460791,108.514589 L217.910059,108.514589 L217.724537,108.133412 L217.910059,107.752235 L219.011522,107.371057 C219.197044,107.371057 219.197044,107.182912 219.197044,107.182912 C219.197044,106.98988 219.011522,106.98988 218.829501,106.98988 L218.096748,107.182912 L218.464291,106.609924 L218.464291,106.420558 C218.464291,106.420558 218.464291,106.228747 218.278769,106.228747 C218.096748,106.228747 217.910059,106.228747 217.910059,106.420558 L217.546016,106.98988 L217.360494,106.231191 C217.360494,106.03938 217.177306,106.03938 216.995284,106.03938 C216.991784,105.671642 216.806262,105.671642 216.806262,105.861009 L216.806262,105.861009 Z" id="Fill-33" fill="#FFFFFF"></path>
                    <g id="Group-37" transform="translate(213.1343, 105.6716)">
                        <mask id="mask-14" fill="white">
                            <use xlink:href="#path-13"></use>
                        </mask>
                        <g id="Clip-36"></g>
                        <polygon id="Fill-35" fill="#FFFFFF" mask="url(#mask-14)" points="-2.61364189 9.00584795 9.77665419 9.00584795 9.77665419 -2.73596928 -2.61364189 -2.73596928"></polygon>
                    </g>
                </g>
            </g>
        </g>
    </g>
</svg>